<?xml version="1.0" encoding="UTF-8"?>
<svg id="Layer_1" data-name="Layer 1" xmlns="http://www.w3.org/2000/svg" version="1.1" viewBox="0 0 500 500">
  <defs>
    <style>
      .cls-1 {
        fill: #00142c;
      }

      .cls-1, .cls-2, .cls-3, .cls-4, .cls-5, .cls-6 {
        stroke-width: 0px;
      }

      .cls-2 {
        fill: #8faaca;
      }

      .cls-3 {
        fill: #ddd;
      }

      .cls-4 {
        fill: #091b29;
      }

      .cls-5 {
        fill: #fff;
      }

      .cls-6 {
        fill: #d6e9ff;
      }
    </style>
  </defs>
  <path class="cls-6" d="M81.9,167s-31.6,10.3-32.7,71.9c-1.1,61.5-20,145.9,60.3,159.5,80.2,13.6,234.3,21.8,307.3-12.5,34.3-16.1,40-66.9,36.5-116-4-55.3-9.8-104-58.3-114.9,0,0-161.1-60.4-313,12Z"/>
  <path class="cls-2" d="M112.9,186.4c2.5-23.9,5.6-38.7,5.6-38.7-75.1-.5-71.3,120.3-71.3,120.3,0,0-2.3,53.9,12.4,98.2,14.7,44.3,150.8,42.3,150.8,42.3l2.7-9.8s-83.3,0-94.7-56.6c-4.5-22.3-7-44.3-8.1-65.2l6.1-5.6v-40.9c58.8,2.1,251,11.5,273.9,46.7l7.4-90.8s-146.2-49.3-285,0Z"/>
  <path class="cls-5" d="M118.6,205.4s129.6-34.8,263.5,0v63.7s-112.2-29.4-263.5-1.1v-62.6Z"/>
  <g>
    <polygon class="cls-2" points="164.7 337.4 174.1 330.9 250.3 333.2 250.3 318.5 159.3 318.5 164.7 337.4"/>
    <polygon class="cls-2" points="250.3 318.5 250.3 333.2 326.6 330.9 336 337.4 341.4 318.5 250.3 318.5"/>
  </g>
  <path class="cls-3" d="M118.6,221.3s71.1-14.3,131.8-14.3v-18.9s-87.8-2.7-131.8,16.6v16.6Z"/>
  <path class="cls-3" d="M380.7,221.3s-71.1-14.3-131.8-14.3v-18.9s87.8-2.7,131.8,16.6v16.6Z"/>
  <g>
    <path class="cls-4" d="M463.6,224c-4.3-25.2-11.9-46.7-22.7-58.3-19.3-20.7-55.3-32.7-93.9-39.3l-5.7-21.7s-27-4.6-84.8-4.9l19.5-25.2c1.1.6,2.2,1.2,3.4,1.6,10.2,3.3,21.6-4,25.6-16.3,4-12.3-1-24.9-11.2-28.2-10.2-3.3-21.6,4-25.6,16.3-2.4,7.4-1.5,14.9,1.8,20.5l-24.3,31.4c-58.8.2-86.2,4.9-86.2,4.9l-5.7,21.7c-38.6,6.6-74.6,18.6-93.9,39.3-10.8,11.7-18.4,33.1-22.7,58.3-10.8-.2-35.7,3.2-36.4,39.5-.6,32.4,20.4,39.1,33.2,40.3,2.8,35.8,11.5,68,25.9,82.4,35.9,35.9,190.6,33.2,190.6,33.2,0,0,154.6,2.7,190.6-33.2,14.4-14.4,23.1-46.6,25.9-82.4,12.8-1.1,33.8-7.9,33.2-40.3-.7-36.3-25.6-39.7-36.4-39.5ZM433.8,345.9c-3.1,14.5-10.3,22.9-18.5,27.2-21.2,11.3-66.8,23.4-165,23.4s-143.8-12.1-165-23.4c-8.2-4.4-15.4-12.7-18.5-27.2-7.5-35.4-17.7-141.9,20.7-170.4,46.8-34.8,162.8-35.9,162.8-35.9,0,0,116,1.1,162.8,35.9,38.4,28.6,28.1,135,20.7,170.4Z"/>
    <path class="cls-4" d="M164.7,326.5v10.9s37.8,2.5,85.7,2.5,85.7-2.5,85.7-2.5v-10.9l-85.7,1.5-85.7-1.5Z"/>
    <path class="cls-4" d="M250.3,182.7c-.4,0-93-.7-138.3,20.7l-1.8,73.7s57.4-14.9,140.1-14.9,140.1,14.9,140.1,14.9l-1.8-73.7c-45.4-21.4-138.3-20.7-138.3-20.7ZM250.3,249.2s-84.2-.7-127.1,10.2l.7-48.6s33.8-14.2,126.3-14.2,126.3,14.2,126.3,14.2l.7,48.6c-42.8-10.9-127.1-10.2-127.1-10.2Z"/>
  </g>
  <g>
    <path class="cls-1" d="M330.6,228.1c-5.3-4.6-10.5-9.3-15.8-13.9-1.9-1.7-4.4-2-6.6-.9-6.2,3.2-12.5,6.5-18.1,10.8-5.5,4.2,0,13.7,5.5,9.4,4.5-3.4,9.5-6.3,14.5-8.9,4.2,3.7,8.5,7.5,12.7,11.2,5.3,4.6,13-3.1,7.7-7.7Z"/>
    <path class="cls-4" d="M209,224.2c-6-3.7-12-7.3-17.9-11-1.5-.9-4-1.1-5.5,0-5.9,4.5-12,9.1-17,14.6-4.8,5.2,2.9,12.9,7.7,7.7,2.8-3,5.9-5.6,9-8.2,1.1-.9,2.3-1.8,3.4-2.7,4.9,3,9.9,6,14.8,9.1,6,3.7,11.5-5.8,5.5-9.4Z"/>
  </g>
</svg>