<?xml version="1.0" encoding="utf-8"?>
<!-- Generator: Adobe Illustrator 25.0.0, SVG Export Plug-In . SVG Version: 6.00 Build 0)  -->
<svg version="1.1" id="Слой_1" xmlns="http://www.w3.org/2000/svg" xmlns:xlink="http://www.w3.org/1999/xlink" x="0px" y="0px"
	 viewBox="0 0 500 500" style="enable-background:new 0 0 500 500;" xml:space="preserve">
<style type="text/css">
	.st0{fill:url(#SVGID_1_);}
	.st1{fill:url(#SVGID_2_);}
	.st2{fill:url(#SVGID_3_);}
	.st3{fill:#EEEDF0;}
</style>
<radialGradient id="SVGID_1_" cx="250" cy="252" r="250" gradientTransform="matrix(1 0 0 -1 0 502)" gradientUnits="userSpaceOnUse">
	<stop  offset="0" style="stop-color:#62528D"/>
	<stop  offset="1" style="stop-color:#332D4E"/>
</radialGradient>
<circle class="st0" cx="250" cy="250" r="250"/>
<linearGradient id="SVGID_2_" gradientUnits="userSpaceOnUse" x1="375.021" y1="468.5418" x2="124.979" y2="35.4582" gradientTransform="matrix(1 0 0 -1 0 502)">
	<stop  offset="0" style="stop-color:#EC7097"/>
	<stop  offset="1" style="stop-color:#FFDF41"/>
</linearGradient>
<path class="st1" d="M250,0C111.9,0,0,111.9,0,250s111.9,250,250,250s250-111.9,250-250S388.1,0,250,0z M250,477.1
	C124.6,477.1,22.9,375.5,22.9,250S124.6,22.9,250,22.9S477.1,124.6,477.1,250S375.5,477.1,250,477.1z"/>
<linearGradient id="SVGID_3_" gradientUnits="userSpaceOnUse" x1="194.481" y1="344.0228" x2="305.361" y2="344.0228" gradientTransform="matrix(1 0 0 -1 0 502)">
	<stop  offset="0" style="stop-color:#EB7196"/>
	<stop  offset="1" style="stop-color:#FFDE43"/>
</linearGradient>
<path class="st2" d="M305.5,166.7c-0.2,1.3-1.3,2.2-2.6,2.2H278l-7.5,14.9l-18.7,44.3c-0.4,1-1.6,1.5-2.6,1.1c-0.5-0.2-0.8-0.6-1-1
	l-20.5-44.3l-5.6-14.9h-25c-1.3,0-2.4-0.9-2.6-2.2c-0.1-0.5,0-1,0.3-1.5c0.1-0.1,0.2-0.3,0.3-0.4l53.3-77.4c0.6-0.9,1.9-1.1,2.8-0.5
	c0.2,0.1,0.4,0.3,0.5,0.5l53.3,77.4c0.1,0.1,0.2,0.3,0.3,0.4C305.5,165.7,305.6,166.2,305.5,166.7z"/>
<path class="st3" d="M351.6,193.2c1.7,0,3,1.3,3,3c0,0.4-0.1,0.9-0.3,1.3l-7.4,16.2l-20.5,42.9l-74.6,154.7c-0.5,1-1.7,1.4-2.7,0.9
	c-0.4-0.2-0.7-0.5-0.9-0.9l-74.6-154.7l-20.5-42.9l-7.4-16.2c-0.7-1.5,0-3.3,1.5-4c0.4-0.2,0.8-0.3,1.3-0.3h54.3
	c1.6,0,3,0.9,3.6,2.4l42.7,94.3c0.4,0.8,1.5,0.8,1.9,0l40.9-94.2c0.6-1.5,2.1-2.4,3.7-2.4L351.6,193.2z"/>
</svg>
