<?xml version="1.0" standalone="no"?>
<!DOCTYPE svg PUBLIC "-//W3C//DTD SVG 1.1//EN" "http://www.w3.org/Graphics/SVG/1.1/DTD/svg11.dtd">
<svg xmlns="http://www.w3.org/2000/svg"><metadata>This SVG WebFont was generated by YouWorkForThem.
Copyright Â© 2012, 2017 by Plau. All rights reserved.</metadata><defs><font horiz-adv-x="0" id="ywftsvg"><font-face ascent="1556" bbox="-1147 -438 2122 2044" cap-height="1434" descent="-492" font-family="" font-stretch="normal" font-weight="100" panose-1="0 0 2 0 0 0 0 0 0 0" underline-position="0" underline-thickness="0" unicode-range="U+0020-FB02" units-per-em="2048" x-height="1073"/><missing-glyph d="M993 0h-788v1434h788v-1434zM311 104h576v1227h-576v-1227z" horiz-adv-x="1198"/><glyph d="M987 0h-119v1073h119v-1073zM994 1413q26 -23 26 -70t-26 -70q-26 -24 -64 -24q-37 0 -64 25t-26 69q0 45 26 69q27 24 64 24q38 0 64 -23zM684 1546l-22 -102q-49 14 -109 14q-186 0 -186 -166v-219h282v-100h-282v-973h-119v973h-166v100h166v211q0 147 78 214t211 67 q81 -1 147 -19z" glyph-name="uniFB01" horiz-adv-x="1173" unicode="fi"/><glyph d="M987 0h-119v1540h119v-1540zM684 1546l-22 -102q-49 14 -109 14q-186 0 -186 -166v-219h282v-100h-282v-973h-119v973h-166v100h166v211q0 147 78 214t211 67q81 -1 147 -19z" glyph-name="uniFB02" horiz-adv-x="1173" unicode="fl"/><glyph d="M993 0h-788v1434h788v-1434zM311 104h576v1227h-576v-1227z" glyph-name=".notdef" horiz-adv-x="1198"/><glyph glyph-name="glyph1"/><glyph glyph-name="glyph2" horiz-adv-x="682"/><glyph glyph-name="space" horiz-adv-x="614" unicode=" "/><glyph d="M338 375h-94l-23 1059h148zM373.5 171q29.5 -30 29.5 -83t-29.5 -83t-78.5 -30t-80 30t-31 83t31 83t80 30t78.5 -30z" glyph-name="exclam" horiz-adv-x="589" unicode="!"/><glyph d="M350 979h-96l-25 455h142zM623 979h-95l-24 455h139z" glyph-name="quotedbl" horiz-adv-x="874" unicode="&quot;"/><glyph d="M1006 932l-52 -412h328v-94h-340l-53 -426h-101l54 426h-355l-55 -426h-104l55 426h-301v94h313l56 412h-324v94h336l53 408h100l-53 -408h355l51 408h100l-51 -408h311v-94h-323zM905 932h-352l-53 -412h354z" glyph-name="numbersign" horiz-adv-x="1411" unicode="#"/><glyph d="M926.5 95.5q-117.5 -109.5 -326.5 -120.5l10 -200h-116l10 202q-109 8 -217.5 42t-194.5 87l51 99q90 -53 199 -84t221 -31q178 0 269.5 75t91.5 191q0 80 -44 135.5t-117 93.5t-206 91q-147 59 -235.5 107t-146.5 124t-58 189q0 154 110.5 254t313.5 108l-11 184h117 l-10 -186q115 -10 203 -45t166 -82l-54 -94q-184 119 -383 119q-152 0 -240.5 -68.5t-88.5 -183.5q0 -80 45 -134.5t113.5 -91t195.5 -90.5q53 -20 80 -32q131 -57 207.5 -104.5t119.5 -115t43 -163.5q0 -166 -117.5 -275.5z" glyph-name="dollar" horiz-adv-x="1134" unicode="$"/><glyph d="M165 917.5q-85 81.5 -85 229.5q0 145 85 228t212 83q125 0 206 -83t81 -228t-81 -228t-206 -83q-127 0 -212 81.5zM1188 1434h117l-965 -1434h-115zM509 985q46 57 46 162q0 104 -47 160.5t-133 56.5q-84 0 -134.5 -57.5t-50.5 -159.5t50.5 -160.5t134.5 -58.5 q88 0 134 57zM926 58q-86 83 -86 231q0 147 86 229t213 82q125 0 206.5 -83t81.5 -228t-81.5 -229.5t-206.5 -84.5q-127 0 -213 83zM1269 127q46 57 46 162q0 104 -46 161.5t-132 57.5q-84 0 -134.5 -58.5t-50.5 -160.5t50.5 -160.5t134.5 -58.5q86 0 132 57z" glyph-name="percent" horiz-adv-x="1507" unicode="%"/><glyph d="M1268 -35l-252 242q-84 -123 -187.5 -177.5t-248.5 -54.5q-203 0 -308.5 91.5t-105.5 234.5q0 98 55 190.5t174 180.5l76 57l-14 12q-86 82 -131 133.5t-72 112t-27 135.5q0 150 100.5 243t282.5 93q170 0 269.5 -82t99.5 -211q0 -178 -205 -344l-121 -92l340 -328 q29 61 64 154l67 193l111 -41l-80 -211q-41 -109 -76 -177l279 -266zM573 805l103 78q178 135 178 280q0 98 -68.5 143.5t-175.5 45.5q-129 0 -194.5 -60.5t-65.5 -167.5q0 -80 40 -135t147 -149zM771 134q89 50 159 155l-379 362l-100 -78q-86 -63 -124 -126.5t-38 -135.5 q0 -104 70.5 -165.5t205.5 -61.5q117 0 206 50z" glyph-name="ampersand" horiz-adv-x="1478" unicode="&amp;"/><glyph d="M311 979h-96l-25 455h142z" glyph-name="quotesingle" horiz-adv-x="522" unicode="'"/><glyph d="M625 1569q-6 -6 -96.5 -88t-166 -291t-75.5 -471t64.5 -443.5t129 -263.5t146.5 -159l-45 -62q-135 92 -276.5 306t-141.5 622q0 289 82 486.5t176 294.5t158 132z" glyph-name="parenleft" horiz-adv-x="720" unicode="("/><glyph d="M299 1500q94 -97 176 -294.5t82 -486.5q0 -408 -141.5 -622t-276.5 -306l-45 62q80 78 144.5 159.5t129 263t64.5 443.5t-63.5 439t-124 251t-148.5 160l45 63q64 -35 158 -132z" glyph-name="parenright" horiz-adv-x="720" unicode=")"/><glyph d="M465 1329l192 117l43 -68l-202 -116l200 -103l-41 -67l-192 114l12 -217h-90l6 217l-184 -114l-43 65l201 105l-203 110l45 74l184 -115l-6 215h90z" glyph-name="asterisk" horiz-adv-x="864" unicode="*"/><glyph d="M1118 645h-448v-430h-117v430h-451v115h451v430h117v-430h448v-115z" glyph-name="plus" horiz-adv-x="1220" unicode="+"/><glyph d="M364.5 158.5q26.5 -31.5 26.5 -84.5q0 -76 -43 -157t-143 -150l-49 36q53 47 83.5 98.5t36.5 98.5q-33 6 -59.5 31.5t-26.5 64.5q0 45 28 69.5t73 24.5q47 0 73.5 -31.5z" glyph-name="comma" horiz-adv-x="555" unicode=","/><glyph d="M745 541h-561v106h561v-106z" glyph-name="hyphen" horiz-adv-x="909" unicode="-"/><glyph d="M354.5 171q30.5 -30 30.5 -83t-30.5 -83t-80.5 -30q-49 0 -79.5 30t-30.5 83t30.5 83t79.5 30q50 0 80.5 -30z" glyph-name="period" horiz-adv-x="548" unicode="."/><glyph d="M629 1540l-488 -1683h-121l488 1683h121z" glyph-name="slash" horiz-adv-x="649" unicode="/"/><glyph d="M922.5 1378q117.5 -80 187.5 -245.5t70 -409.5q0 -250 -73 -419t-193.5 -249t-266.5 -80q-147 0 -268 80t-193.5 246t-72.5 410q0 250 75.5 417.5t199.5 248.5t271 81q146 0 263.5 -80zM437 1275q-95 -75 -148 -219.5t-53 -346.5q0 -297 110.5 -461t298.5 -164t300 166 t112 473q0 299 -106.5 463t-293.5 164q-125 0 -220 -75z" glyph-name="zero" horiz-adv-x="1292" unicode="0"/><glyph d="M918 115v-115h-760v115h356v1175l-350 -166l-49 95l434 215h86v-1319h283z" glyph-name="one" horiz-adv-x="1112" unicode="1"/><glyph d="M1151 117v-117h-997v119l405 362q27 25 52.5 47.5t50.5 44.5q115 100 178 165t104 142.5t41 170.5q0 145 -95 222t-257 77q-109 0 -213.5 -40t-175.5 -96l-64 82q90 72 214 117t251 45q145 0 249.5 -51t159 -140t54.5 -202q0 -117 -50 -213t-131 -179t-237 -218 l-383 -338h844z" glyph-name="two" horiz-adv-x="1298" unicode="2"/><glyph d="M861.5 1413q107.5 -45 161.5 -122t54 -173q0 -117 -75.5 -210t-194.5 -130v-6q143 -16 240.5 -109.5t97.5 -240.5q0 -125 -74 -227.5t-206 -161t-298 -58.5q-141 0 -269 42t-224 116l73 90q86 -63 189.5 -101t238.5 -38q205 0 325 91t120 239q0 145 -119 216.5t-346 71.5 h-135v117h127q172 0 289.5 73t117.5 204q0 113 -103 183.5t-267 70.5q-115 0 -210 -37t-181 -105l-70 80q201 170 479 170q152 0 259.5 -45z" glyph-name="three" horiz-adv-x="1257" unicode="3"/><glyph d="M1206 514v-111h-231v-403h-123v403h-750v101l766 930h107v-920h231zM854 514v731l-602 -729v-2h602z" glyph-name="four" horiz-adv-x="1323" unicode="4"/><glyph d="M1077 1327h-688v-528q152 94 352 94q190 0 308 -108.5t118 -323.5q0 -145 -65.5 -255t-192.5 -170.5t-303 -60.5q-264 0 -418 131l68 82q137 -104 346 -104q207 0 324.5 101.5t117.5 277.5q0 158 -85 239.5t-232 81.5q-98 0 -185 -27.5t-180 -92.5l-94 65v705h809v-107z " glyph-name="five" horiz-adv-x="1302" unicode="5"/><glyph d="M910.5 856q107.5 -49 174 -149.5t66.5 -249.5q0 -135 -66.5 -245t-184.5 -173.5t-267 -63.5q-246 0 -383 178.5t-137 526.5q0 276 85 450.5t220 251t297 76.5q117 0 205 -30.5t161 -73.5l-53 -97q-72 45 -156 69t-165 24q-205 0 -338 -155t-133 -509q82 96 201.5 157.5 t242.5 61.5t230.5 -49zM846 132q88 48 136 131t48 183q0 162 -102.5 251t-253.5 89q-129 0 -242 -63.5t-190 -173.5q43 -465 401 -465q115 0 203 48z" glyph-name="six" horiz-adv-x="1232" unicode="6"/><glyph d="M1081 1321l-675 -1321h-140l686 1321h-884v113h1013v-113z" glyph-name="seven" horiz-adv-x="1193" unicode="7"/><glyph d="M878.5 1412q104.5 -46 160 -127t55.5 -185q0 -113 -63.5 -197t-174.5 -123q125 -29 208 -136t83 -247q0 -121 -64.5 -217t-183.5 -150.5t-274 -54.5q-152 0 -267.5 53.5t-180 149.5t-64.5 219q0 137 84 246t211 137q-109 37 -173.5 118t-64.5 194q0 104 56.5 188t162 131 t246.5 47q139 0 243.5 -46zM383 1284.5q-92 -67.5 -92 -190.5q0 -125 96 -194t248 -69q150 0 245 69t95 194q0 123 -91 190.5t-249 67.5q-160 0 -252 -67.5zM426 689q-90 -42 -140 -116.5t-50 -169.5q0 -147 104 -233t291 -86q184 0 288.5 83t104.5 224q0 96 -49 174 t-138 122t-204 44q-117 0 -207 -42z" glyph-name="eight" horiz-adv-x="1259" unicode="8"/><glyph d="M1015 1281q136 -177 136 -531q0 -276 -82 -449.5t-214 -249.5t-294 -76q-127 0 -238.5 32t-189.5 69l55 96q86 -43 188.5 -65.5t194.5 -22.5q201 0 329 151.5t130 501.5q-88 -92 -213 -150.5t-254 -58.5q-115 0 -218 49.5t-167.5 148.5t-64.5 241q0 141 65.5 253.5 t183 175t269.5 62.5q248 0 384 -177zM823.5 707.5q118.5 60.5 200.5 164.5q-20 238 -120.5 358t-280.5 120q-117 0 -204 -47.5t-135 -132.5t-48 -191q0 -158 97 -245t247 -87q125 0 243.5 60.5z" glyph-name="nine" horiz-adv-x="1236" unicode="9"/><glyph d="M193.5 901q-29.5 29 -29.5 82t30.5 84t79.5 31t80 -31t31 -84t-29.5 -82t-81.5 -29q-51 0 -80.5 29zM194.5 5q-30.5 30 -30.5 83q0 51 30.5 82t79.5 31t80 -31t31 -82q0 -53 -30.5 -83t-80.5 -30q-49 0 -79.5 30z" glyph-name="colon" horiz-adv-x="548" unicode=":"/><glyph d="M224.5 899q-29.5 29 -29.5 82t30.5 84t79.5 31t80 -31t31 -84t-30 -82t-81 -29t-80.5 29zM166 -197q53 47 84 98.5t37 98.5q-33 6 -59.5 31.5t-26.5 64.5q0 45 27.5 69.5t72.5 24.5q47 0 73.5 -31.5t26.5 -84.5q0 -76 -43 -157t-143 -150z" glyph-name="semicolon" horiz-adv-x="573" unicode=";"/><glyph d="M274 702l752 -430l-55 -94l-815 475v99l819 475l55 -94z" glyph-name="less" horiz-adv-x="1220" unicode="&lt;"/><glyph d="M1118 852h-1016v115h1016v-115zM1118 438h-1016v115h1016v-115z" glyph-name="equal" horiz-adv-x="1220" unicode="="/><glyph d="M1065 748v-101l-815 -469l-55 90l751 430l-756 428l56 101z" glyph-name="greater" horiz-adv-x="1220" unicode=">"/><glyph d="M709.5 1411q97.5 -47 147.5 -127t50 -180q0 -70 -23.5 -122t-58 -90t-98.5 -95q-74 -63 -118 -113.5t-75.5 -127.5t-31.5 -181h-115q0 127 35 216t83 143t124 122q80 70 117.5 120t37.5 128q0 113 -84 179.5t-227 66.5q-186 0 -334 -121l-63 94q78 63 181 99t222 36 q133 0 230.5 -47zM526.5 171q30.5 -30 30.5 -83t-30.5 -83t-80.5 -30q-49 0 -79.5 30t-30.5 83t30.5 83t79.5 30q50 0 80.5 -30z" glyph-name="question" horiz-adv-x="1024" unicode="?"/><glyph d="M1313 1222.5q162 -75.5 253 -224t91 -357.5q0 -145 -48 -262t-137.5 -183.5t-203.5 -66.5q-76 0 -130.5 28.5t-80.5 84.5q-109 -113 -271 -113q-115 0 -195.5 85t-80.5 251q0 131 57.5 227t157.5 148.5t231 52.5q141 0 254 -49l-63 -424q-4 -37 -4 -49q0 -70 34.5 -104 t92.5 -34q121 0 194.5 109t73.5 303q0 268 -162 406.5t-430 138.5q-203 0 -365.5 -85t-258 -246t-95.5 -382q0 -203 85 -347t226.5 -218t309.5 -74q68 0 176.5 15.5t179.5 37.5l31 -98q-76 -27 -182.5 -44t-202.5 -17q-199 0 -369 82t-274.5 250.5t-104.5 412.5t111 430.5 t302.5 288.5t426.5 102q209 0 371 -75.5zM1030 344q0 45 4 70l51 358q-70 16 -147 16q-141 0 -223 -88t-82 -225q0 -125 52 -183.5t138 -58.5q125 0 207 111z" glyph-name="at" horiz-adv-x="1759" unicode="@"/><glyph d="M1016 383h-684l-142 -383h-129l533 1434h166l532 -1434h-137zM977 494l-301 831l-305 -831h606z" glyph-name="A" horiz-adv-x="1353" unicode="A"/><glyph d="M990.5 697q70.5 -44 119.5 -121.5t49 -186.5q0 -199 -134 -294t-355 -95h-465v1434h411q217 0 333 -90.5t116 -251.5q0 -115 -65.5 -206t-149.5 -132q70 -13 140.5 -57zM326 784h266q162 0 256 77t94 208q0 258 -356 258h-260v-543zM942 180q96 74 96 203q0 291 -374 291 h-338v-568h327q193 0 289 74z" glyph-name="B" horiz-adv-x="1263" unicode="B"/><glyph d="M1229 1331l-66 -90q-168 109 -393 109q-145 0 -264 -69t-189.5 -212t-70.5 -358t69.5 -354.5t186 -205t264.5 -65.5q133 0 236.5 35t191.5 108l70 -88q-94 -80 -218 -123t-270 -43q-186 0 -332.5 78t-233.5 245t-87 423q0 248 88 413.5t236.5 244.5t332.5 79 q275 0 449 -127z" glyph-name="C" horiz-adv-x="1325" unicode="C"/><glyph d="M1087.5 1263q188.5 -171 188.5 -534q0 -246 -90 -409.5t-244 -241.5t-344 -78h-393v1434h393q301 0 489.5 -171zM326 1327v-1212h243q586 0 586 614q0 307 -146.5 452.5t-439.5 145.5h-243z" glyph-name="D" horiz-adv-x="1400" unicode="D"/><glyph d="M1085 1327h-759v-536h678v-109h-678v-567h759v-115h-880v1434h880v-107z" glyph-name="E" horiz-adv-x="1187" unicode="E"/><glyph d="M205 1434h799v-109h-678v-565h594v-109h-594v-651h-121v1434z" glyph-name="F" horiz-adv-x="1054" unicode="F"/><glyph d="M1068 1407q116 -51 202 -127l-76 -84q-88 74 -195.5 114t-228.5 40q-244 0 -384 -161t-140 -466q0 -207 65.5 -349.5t184 -215t274.5 -72.5q141 0 248.5 53.5t163.5 126.5v398h-471v108h592v-553q-84 -111 -224.5 -177.5t-312.5 -66.5q-182 0 -327.5 80t-230.5 247 t-85 415q0 242 82 407.5t231.5 249.5t347.5 84q168 0 284 -51z" glyph-name="G" horiz-adv-x="1445" unicode="G"/><glyph d="M1282 1434v-1434h-121v676h-835v-676h-121v1434h121v-650h835v650h121z" glyph-name="H" horiz-adv-x="1488" unicode="H"/><glyph d="M326 0h-121v1434h121v-1434z" glyph-name="I" horiz-adv-x="532" unicode="I"/><glyph d="M18 -12l13 116q84 -12 151 -12q176 0 264.5 87t88.5 276v979h120v-969q0 -281 -131 -385.5t-360 -104.5q-85 1 -146 13z" glyph-name="J" horiz-adv-x="860" unicode="J"/><glyph d="M1051 0l-613 668l-112 -119v-549h-121v1434h121v-740l690 740h149l-643 -678l692 -756h-163z" glyph-name="K" horiz-adv-x="1234" unicode="K"/><glyph d="M205 1434h121v-1328h708v-106h-829v1434z" glyph-name="L" horiz-adv-x="1075" unicode="L"/><glyph d="M1610 1434v-1434h-121v1180l-531 -1180h-102l-530 1182v-1182h-121v1434h135l569 -1268h4l555 1268h142z" glyph-name="M" horiz-adv-x="1814" unicode="M"/><glyph d="M1325 1434v-1434h-104l-895 1221v-1221h-121v1434h108l891 -1217v1217h121z" glyph-name="N" horiz-adv-x="1529" unicode="N"/><glyph d="M1121.5 1378q152.5 -80 247.5 -245.5t95 -411.5t-95 -414t-248.5 -250t-325.5 -82t-326 82t-250 250t-96 414t96 411.5t249 245.5t327 80t326.5 -80zM518 1280q-125 -70 -198.5 -211t-73.5 -346q0 -201 72.5 -346.5t195.5 -219t272 -73.5q152 0 278 72.5t201.5 217 t75.5 349.5q0 203 -74.5 344t-198.5 212t-273 71q-152 0 -277 -70z" glyph-name="O" horiz-adv-x="1587" unicode="O"/><glyph d="M205 1434h407q227 0 348 -111t121 -299q0 -125 -53 -226.5t-158.5 -159.5t-255.5 -58h-288v-580h-121v1434zM598 688q172 0 264 88t92 248q0 158 -90 230.5t-266 72.5h-272v-639h272z" glyph-name="P" horiz-adv-x="1122" unicode="P"/><glyph d="M1343.5 264q-120.5 -178 -313.5 -248l432 -211l-57 -106l-541 281q-45 -4 -69 -5q-172 0 -326 82t-250 250t-96 414t96 411.5t249 245.5t327 80t326.5 -80t247.5 -245.5t95 -411.5q0 -279 -120.5 -457zM1064 156.5q126 72.5 201.5 217t75.5 349.5q0 203 -74.5 344 t-198.5 212t-273 71q-152 0 -277 -70t-198.5 -211t-73.5 -346q0 -201 72.5 -346.5t195.5 -219t272 -73.5q152 0 278 72.5z" glyph-name="Q" horiz-adv-x="1587" unicode="Q"/><glyph d="M1077 0l-356 584h-35h-360v-584h-121v1434h465q256 0 366.5 -112t110.5 -290q0 -156 -74 -272.5t-227 -157.5l366 -602h-135zM705 692q152 0 233.5 91t81.5 231q0 156 -86 234.5t-285 78.5h-323v-635h379z" glyph-name="R" horiz-adv-x="1273" unicode="R"/><glyph d="M842.5 1422q97.5 -36 189.5 -93l-55 -94q-178 119 -367 119q-162 0 -255 -70t-93 -192q0 -76 49 -130.5t119 -90t199 -91.5q154 -68 235.5 -111.5t142 -116.5t60.5 -177q0 -117 -57.5 -207t-167 -141.5t-260.5 -51.5q-125 0 -257 36t-233 100l51 98q94 -55 210 -87 t220 -32q190 0 280.5 74t90.5 196q0 80 -49 135.5t-118.5 91.5t-198.5 87q-145 61 -230.5 107t-147 124t-61.5 193q0 102 56.5 184t162 129t248.5 47q139 0 236.5 -36z" glyph-name="S" horiz-adv-x="1155" unicode="S"/><glyph d="M532 1325h-491v109h1106v-109h-494v-1325h-121v1325z" glyph-name="T" horiz-adv-x="1187" unicode="T"/><glyph d="M470 31.5q-120 56.5 -192.5 177.5t-72.5 307v918h121v-932q0 -193 108.5 -300.5t300.5 -107.5q195 0 301.5 107.5t106.5 300.5v932h121v-918q0 -186 -72 -307t-191.5 -177.5t-265.5 -56.5q-145 0 -265 56.5z" glyph-name="U" horiz-adv-x="1468" unicode="U"/><glyph d="M41 1434h131l504 -1338l485 1338h133l-540 -1434h-168z" glyph-name="V" horiz-adv-x="1335" unicode="V"/><glyph d="M1982 1434l-436 -1434h-149l-389 1255l-387 -1255h-148l-432 1434h129l379 -1287l393 1287h145l386 -1280l382 1280h127z" glyph-name="W" horiz-adv-x="2023" unicode="W"/><glyph d="M684 754l537 -754h-164l-455 651l-412 -651h-149l496 743l-474 691h166l385 -598l383 598h164z" glyph-name="X" horiz-adv-x="1261" unicode="X"/><glyph d="M545 573l-504 861h145l422 -750l416 750h141l-499 -861v-573h-121v573z" glyph-name="Y" horiz-adv-x="1206" unicode="Y"/><glyph d="M1165 109v-109h-1063v111l887 1214h-837v109h972v-101l-884 -1224h925z" glyph-name="Z" horiz-adv-x="1267" unicode="Z"/><glyph d="M446 1532h-163v-1657h163v-104h-282v1863h282v-102z" glyph-name="bracketleft" horiz-adv-x="571" unicode="["/><glyph d="M629 -143h-121l-488 1683h121z" glyph-name="backslash" horiz-adv-x="649" unicode="\"/><glyph d="M406 -229h-283v104h166v1657h-166v102h283v-1863z" glyph-name="bracketright" horiz-adv-x="571" unicode="]"/><glyph d="M1186 864h-135l-381 582h-11l-383 -582h-135l447 676h155z" glyph-name="asciicircum" horiz-adv-x="1419" unicode="^"/><glyph d="M1337 -106h-1183v88h1183v-88z" glyph-name="underscore" horiz-adv-x="1482" unicode="_"/><glyph d="M422 1208h-109l-231 226h182z" glyph-name="grave" horiz-adv-x="503" unicode="`"/><glyph d="M1065 86l-12 -80q-29 -12 -76 -12q-70 0 -106.5 37t-47.5 116q-70 -82 -167 -127t-214 -45q-147 0 -243.5 75t-96.5 220q0 166 125 241t314 75q111 0 282 -29v176q0 133 -80.5 195.5t-205.5 62.5q-164 0 -308 -112l-59 79q82 68 174 104t211 36q188 0 287.5 -93.5 t99.5 -281.5v-551q0 -43 16.5 -66.5t57.5 -23.5q29 0 49 4zM664.5 133q97.5 51 158.5 133v185q-166 27 -284 26q-135 0 -224.5 -48t-89.5 -157q0 -98 71 -144t167 -46q104 0 201.5 51z" glyph-name="a" horiz-adv-x="1126" unicode="a"/><glyph d="M303 934h4q63 78 157.5 121t199.5 43q133 0 235 -63.5t159.5 -185.5t57.5 -292q0 -274 -135 -428t-365 -154q-92 0 -176 37t-141 109h-6l-25 -121h-84v1540h119v-606zM473 944q-84 -47 -170 -158v-536q47 -78 131 -123t195 -45q104 0 187 57.5t130 166t47 251.5 q0 135 -44 233.5t-120.5 149.5t-173.5 51q-98 0 -182 -47z" glyph-name="b" horiz-adv-x="1218" unicode="b"/><glyph d="M993 967l-69 -84q-74 55 -139.5 81.5t-168.5 26.5q-174 0 -282.5 -116.5t-108.5 -331.5q0 -143 53.5 -248t143.5 -159t201 -54q100 0 178 32.5t147 88.5l68 -80q-63 -59 -163.5 -103.5t-231.5 -44.5q-147 0 -265 65.5t-186 195t-68 307.5q0 174 70 300t187.5 190.5 t254.5 64.5q227 0 379 -131z" glyph-name="c" horiz-adv-x="1087" unicode="c"/><glyph d="M347.5 32.5q-107.5 57.5 -176.5 182.5t-69 320q0 180 64.5 307t171 191.5t229.5 64.5q217 0 336 -123v565h119v-1540h-82l-25 127h-6q-59 -63 -147 -107.5t-184 -44.5q-123 0 -230.5 57.5zM763 127q81 45 140 121v600q-70 74 -147.5 108.5t-169.5 34.5q-94 0 -176 -48 t-133.5 -151.5t-51.5 -256.5q0 -150 51.5 -252.5t133.5 -151.5t174 -49q98 0 179 45z" glyph-name="d" horiz-adv-x="1208" unicode="d"/><glyph d="M1051 498h-826q14 -211 114.5 -313.5t276.5 -102.5q205 0 353 127l71 -76q-86 -76 -190.5 -117t-253.5 -41q-133 0 -245.5 61.5t-180.5 186.5t-68 307q0 180 62.5 308.5t175.5 194t260 65.5t250.5 -67.5t155 -180.5t51.5 -248q0 -57 -6 -104zM335.5 887.5 q-104.5 -103.5 -112.5 -283.5h725q-8 176 -95 281.5t-249 105.5q-164 0 -268.5 -103.5z" glyph-name="e" horiz-adv-x="1159" unicode="e"/><glyph d="M684 1546l-22 -102q-49 14 -109 14q-186 0 -186 -166v-219h282v-100h-282v-973h-119v973h-166v100h166v211q0 147 77.5 214t211.5 67q81 -1 147 -19z" glyph-name="f" horiz-adv-x="686" unicode="f"/><glyph d="M800 1067q81 -31 136 -80h6l43 86h66v-1059q0 -227 -122 -339.5t-333 -112.5q-123 0 -226.5 35.5t-176.5 93.5l59 92q141 -109 330 -109q156 0 253 73t97 224v195q-145 -137 -344 -137q-137 0 -247 59t-174.5 177t-64.5 284q0 180 75 304t193.5 184.5t252.5 60.5 q96 0 177 -31zM429 943q-91 -48 -145.5 -146.5t-54.5 -241.5q0 -201 101.5 -310.5t265.5 -109.5q94 0 180 40t156 122v563q-45 55 -121 93t-178 38q-113 0 -204 -48z" glyph-name="g" horiz-adv-x="1214" unicode="g"/><glyph d="M301 915q82 96 166 139.5t192 43.5q96 0 180.5 -40t134.5 -119t50 -191v-748h-119v717q0 150 -77.5 212t-198.5 62q-188 0 -326 -217v-774h-119v1540h117v-625z" glyph-name="h" horiz-adv-x="1189" unicode="h"/><glyph d="M310.5 1413.5q25.5 -22.5 25.5 -70.5q0 -47 -25.5 -70.5t-64.5 -23.5q-37 0 -63.5 24.5t-26.5 69.5t26.5 69t63.5 24q39 0 64.5 -22.5zM303 0h-119v1073h119v-1073z" glyph-name="i" horiz-adv-x="489" unicode="i"/><glyph d="M328.5 1413.5q25.5 -22.5 25.5 -70.5q0 -47 -25.5 -70.5t-64.5 -23.5q-37 0 -63.5 24.5t-26.5 69.5t26.5 69t63.5 24q39 0 64.5 -22.5zM-131 -403l20 102q47 -14 101 -14q109 0 162 50t53 169v1169h119v-1214q0 -145 -89.5 -213t-230.5 -68q-82 1 -135 19z" glyph-name="j" horiz-adv-x="507" unicode="j"/><glyph d="M870 0l-415 526l-152 -166v-360h-119v1540h119v-1038l510 571h141l-417 -457l491 -616h-158z" glyph-name="k" horiz-adv-x="1048" unicode="k"/><glyph d="M303 0h-119v1540h119v-1540z" glyph-name="l" horiz-adv-x="489" unicode="l"/><glyph d="M1539 1003.5q87 -94.5 87 -278.5v-725h-119v725q0 266 -219 266q-98 0 -175 -54t-148 -165v-772h-119v733q0 137 -63.5 197.5t-157.5 60.5q-100 0 -184.5 -61.5t-137.5 -157.5v-772h-119v1073h95l24 -158h6q70 94 140.5 138.5t183.5 44.5q115 0 188.5 -45t118.5 -148 q80 106 166 149.5t186 43.5q160 0 247 -94.5z" glyph-name="m" horiz-adv-x="1792" unicode="m"/><glyph d="M184 1073h88l19 -168h2q80 94 166 143.5t217 49.5q166 0 257 -89t91 -261v-748h-119v717q0 152 -60.5 213t-174.5 61q-115 0 -206 -53t-165 -168v-770h-115v1073z" glyph-name="n" horiz-adv-x="1189" unicode="n"/><glyph d="M867.5 1037.5q115.5 -60.5 185 -186.5t69.5 -314t-69.5 -314.5t-185 -187t-255.5 -60.5q-139 0 -254.5 60.5t-185.5 186.5t-70 315q0 188 70 314t185.5 186.5t254.5 60.5q140 0 255.5 -60.5zM330.5 869.5q-105.5 -121.5 -105.5 -332.5t105.5 -333t281.5 -122t281.5 123 t105.5 332t-105.5 331.5t-281.5 122.5t-281.5 -121.5z" glyph-name="o" horiz-adv-x="1224" unicode="o"/><glyph d="M970 962.5q122 -135.5 122 -401.5q0 -172 -69 -305t-180.5 -207t-234.5 -74q-98 0 -169.5 20.5t-135.5 61.5v-479h-119v1495h86l25 -168h6q68 94 153 143.5t201 49.5q193 0 315 -135.5zM455 930.5q-82 -60.5 -152 -182.5v-572q66 -53 126 -73.5t157 -20.5q92 0 180 56.5 t145.5 164t57.5 254.5q0 150 -46 247t-120 142t-162 45q-104 0 -186 -60.5z" glyph-name="p" horiz-adv-x="1193" unicode="p"/><glyph d="M918 987h6l49 86h55v-1495h-119v496q-133 -98 -317 -99q-121 0 -233.5 62.5t-184.5 189.5t-72 310q0 182 73 309t189.5 189.5t247.5 62.5q177 0 306 -111zM420 939q-88 -50 -141.5 -152.5t-53.5 -254.5q0 -156 59.5 -257t146.5 -146t171 -45q100 0 171 31.5t136 83.5v663 q-131 127 -293 127q-108 0 -196 -50z" glyph-name="q" horiz-adv-x="1193" unicode="q"/><glyph d="M184 1073h90l23 -158h6q35 90 104.5 136.5t161.5 46.5q72 0 105 -23l-21 -108q-53 14 -108 14q-168 0 -246 -231v-750h-115v1073z" glyph-name="r" horiz-adv-x="714" unicode="r"/><glyph d="M683 1071q87 -27 148 -67l-51 -97q-59 37 -133 60.5t-149 23.5q-109 0 -176.5 -51t-67.5 -129q0 -55 35 -91t86 -59.5t141 -52.5q111 -35 180.5 -67.5t117.5 -93t48 -154.5q0 -141 -106.5 -229.5t-290.5 -88.5q-106 0 -200.5 31t-166.5 88l52 103q59 -53 140 -84t171 -31 q127 0 202.5 58.5t75.5 144.5q0 59 -35.5 99t-89 64.5t-145.5 55.5q-109 37 -174.5 67.5t-111.5 88t-46 145.5q0 135 102.5 214t262.5 79q94 0 181 -27z" glyph-name="s" horiz-adv-x="960" unicode="s"/><glyph d="M304 25.5q-54 50.5 -54 150.5v797h-189v100h189v176l65 99h54v-275h264v-100h-264v-783q0 -57 25.5 -82.5t64.5 -25.5q63 0 143 37l37 -94q-92 -49 -180 -50q-101 0 -155 50.5z" glyph-name="t" horiz-adv-x="712" unicode="t"/><glyph d="M1014 0h-92l-25 162h-6q-76 -92 -166 -139.5t-209 -47.5q-145 0 -238.5 92.5t-93.5 290.5v715h119v-688q0 -162 62.5 -232.5t164.5 -70.5q111 0 193 54t172 153v784h119v-1073z" glyph-name="u" horiz-adv-x="1179" unicode="u"/><glyph d="M1006 1073l-431 -1073h-126l-412 1073h123l358 -948l365 948h123z" glyph-name="v" horiz-adv-x="1042" unicode="v"/><glyph d="M1546 1073l-372 -1073h-99l-295 877l-301 -877h-98l-334 1073h127l262 -911l305 911h93l292 -917l306 917h114z" glyph-name="w" horiz-adv-x="1593" unicode="w"/><glyph d="M940 1071l-365 -514l398 -555v-2h-148l-315 471l-328 -471h-141v2l397 559l-366 508v4h145l291 -428l287 428h145v-2z" glyph-name="x" horiz-adv-x="1015" unicode="x"/><glyph d="M631 -66q-66 -174 -159 -265t-228 -91q-70 0 -127 21l22 94q55 -16 107 -17q78 0 145.5 61.5t106.5 166.5l24 65l-461 1104h127l387 -971h9l352 971h119z" glyph-name="y" horiz-adv-x="1091" unicode="y"/><glyph d="M856 967l-643 -863h661v-104h-792v96l631 869h-609v108h752v-106z" glyph-name="z" horiz-adv-x="956" unicode="z"/><glyph d="M674 1513q-94 -12 -148.5 -78.5t-54.5 -174.5v-293q0 -61 -29.5 -112.5t-71.5 -82.5t-77 -37v-8q35 -6 77 -39t71.5 -85t29.5 -109v-295q0 -106 55.5 -175t147.5 -81v-76q-156 0 -246 93t-90 245v252q0 104 -51 161.5t-135 67.5v88q80 14 133 72.5t53 154.5v252 q0 152 91 246t245 94v-80z" glyph-name="braceleft" horiz-adv-x="778" unicode="{"/><glyph d="M299 -143h-94v1853h94v-1853z" glyph-name="bar" horiz-adv-x="503" unicode="|"/><glyph d="M349 1499q91 -94 91 -246v-252q0 -96 53.5 -154.5t133.5 -72.5v-88q-84 -10 -135.5 -67.5t-51.5 -161.5v-252q0 -152 -90 -245t-246 -93v76q92 12 147.5 80.5t55.5 175.5v295q0 57 29 109t71 85t76 39v8q-35 6 -76.5 37t-70.5 82t-29 113v293q0 109 -54 175t-149 78v80 q154 0 245 -94z" glyph-name="braceright" horiz-adv-x="778" unicode="}"/><glyph d="M988.5 648q-64.5 -52 -152.5 -52q-51 0 -107.5 14.5t-138.5 42.5q-74 25 -124 38.5t-93 13.5q-53 0 -81 -28t-44 -87h-103q18 106 79 161.5t145 55.5q47 0 104 -15.5t137 -41.5q14 -4 63.5 -19.5t88.5 -24t65 -8.5q111 0 146 117h102q-22 -115 -86.5 -167z" glyph-name="asciitilde" horiz-adv-x="1220" unicode="~"/><glyph d="M215 902q-31 30 -31 83t31 83t80 30t78.5 -30t29.5 -83t-29.5 -83t-78.5 -30t-80 30zM250 698h94l23 -1058h-148z" glyph-name="exclamdown" horiz-adv-x="589" unicode="¡"/><glyph d="M885 217q-86 -41 -195 -51l2 -195h-119l2 195q-135 12 -239.5 81.5t-163.5 192.5t-59 291q0 160 59 278.5t159.5 187.5t223.5 85l-2 217h119l-2 -215q199 -12 334 -129l-70 -84q-74 55 -139.5 82t-167.5 27q-174 0 -282.5 -117t-108.5 -332q0 -143 52 -247.5t143 -159 t202 -54.5q100 0 178 33t147 88l68 -80q-55 -53 -141 -94z" glyph-name="cent" horiz-adv-x="1097" unicode="¢"/><glyph d="M1018 113l26 -117q-94 -20 -231 -21q-82 0 -176 13q-90 12 -141 12q-96 0 -152.5 -6t-105.5 -19l-48 119q74 31 112 99.5t38 158.5v330h-135v113h135v309q0 174 98.5 264t249.5 90q225 0 379 -123l-68 -100q-82 57 -147.5 81.5t-153.5 24.5q-113 0 -169 -62t-56 -192 v-292h461v-113h-461v-315q0 -102 -29.5 -159.5t-89.5 -103.5q76 20 144 21q70 0 168 -16q14 -2 61 -8.5t96 -6.5q107 1 195 19z" glyph-name="sterling" horiz-adv-x="1208" unicode="£"/><glyph d="M977 408l149 -148l-82 -86l-153 152q-113 -76 -277 -76q-162 0 -274 78l-152 -154l-86 84l152 145q-92 115 -92 283q0 166 90 279l-148 147l84 86l154 -154q113 76 272 76q160 0 275 -80l153 154l84 -82l-151 -149q88 -117 88 -277q0 -167 -86 -278zM769 402.5 q71 37.5 112 111.5t41 172q0 150 -88.5 235t-219.5 85q-133 0 -222 -85t-89 -235t89 -235.5t222 -85.5q84 0 155 37.5z" glyph-name="currency" horiz-adv-x="1228" unicode="¤"/><glyph d="M809 729h340v-119h-412l-2 -2v-137h414v-119h-414v-352h-121v352h-415v119h415v137l-2 2h-413v119h342l-430 705h157l408 -695l418 695h141z" glyph-name="yen" horiz-adv-x="1341" unicode="¥"/><glyph d="M205 1710h94v-776h-94v776zM205 623h94v-766h-94v766z" glyph-name="brokenbar" horiz-adv-x="503" unicode="¦"/><glyph d="M663.5 1441.5q73.5 -16.5 124.5 -40.5l-32 -82q-47 18 -112.5 29.5t-129.5 11.5q-121 0 -182.5 -45t-61.5 -119q0 -63 38 -101t92.5 -56.5t154.5 -43.5q92 -25 150.5 -51t97.5 -77.5t39 -137.5q0 -178 -219 -256q106 -31 158.5 -86t52.5 -143q0 -123 -97.5 -199 t-269.5 -76q-174 0 -313 68l36 88q106 -59 281 -59q121 0 182.5 46t61.5 132q0 55 -32 88t-79 50t-133 38q-80 18 -106 26q-98 33 -154.5 92.5t-56.5 170.5q0 92 55 158.5t156 90.5q-92 31 -147.5 93.5t-55.5 144.5q0 125 92 193.5t258 68.5q78 0 151.5 -16.5zM329.5 849 q-61.5 -50 -61.5 -134q0 -88 61.5 -136.5t168.5 -48.5q106 0 167.5 48.5t61.5 136.5q0 84 -62.5 134t-166.5 50q-107 0 -168.5 -50z" glyph-name="section" horiz-adv-x="1003" unicode="§"/><glyph d="M105.5 1281q-23.5 24 -23.5 67t23.5 66.5t62.5 23.5q41 0 65.5 -23.5t24.5 -66.5t-23.5 -67t-66.5 -24q-39 0 -62.5 24zM433.5 1281q-23.5 24 -23.5 67t23.5 66.5t64.5 23.5q39 0 62.5 -23.5t23.5 -66.5t-23.5 -67t-62.5 -24q-41 0 -64.5 24z" glyph-name="dieresis" horiz-adv-x="665" unicode="¨"/><glyph d="M474 65.5q-169 92.5 -270.5 261.5t-101.5 392q0 221 101.5 391t270.5 261t368 91t367.5 -91t269 -260t100.5 -392t-100.5 -392t-269.5 -261.5t-367 -92.5q-199 0 -368 92.5zM1159.5 151.5q145.5 79.5 231.5 227t86 340.5q0 195 -86 341t-230.5 225t-318.5 79t-319.5 -79 t-231.5 -225.5t-86 -340.5q0 -193 86 -340.5t232.5 -227t318.5 -79.5t317.5 79.5zM579.5 442.5q-104.5 96.5 -104.5 286.5q0 127 50 213t132 127t179 41q162 0 262 -90l-49 -82q-57 41 -98.5 57.5t-114.5 16.5q-115 0 -186.5 -74t-71.5 -209q0 -133 77.5 -209t194.5 -76 q72 0 123 20.5t96 59.5l49 -82q-104 -96 -274 -96q-160 0 -264.5 96.5z" glyph-name="copyright" horiz-adv-x="1681" unicode="©"/><glyph d="M707 877l-9 -60q-25 -6 -57 -6q-47 0 -71.5 19.5t-32.5 58.5q-41 -39 -97.5 -60.5t-109.5 -21.5q-92 0 -151.5 51t-59.5 135q0 98 72.5 143.5t193.5 45.5q68 0 147 -15v58q0 80 -36.5 114.5t-108.5 34.5q-76 0 -176 -41l-35 64q35 25 96.5 43t126.5 18q109 0 168.5 -55 t59.5 -164v-313q0 -27 11 -38t36 -11h33zM253 914.5q34 -27.5 97 -27.5q53 0 103.5 20.5t78.5 48.5v138q-86 14 -153 14q-160 0 -160 -117q0 -49 34 -76.5z" glyph-name="ordfeminine" horiz-adv-x="817" unicode="ª"/><glyph d="M61 522l297 363l84 -66l-245 -295l243 -295l-78 -67zM389 522l297 363l84 -66l-244 -295l244 -295l-80 -67z" glyph-name="guillemotleft" horiz-adv-x="913" unicode="«"/><glyph d="M1118 330h-127v358h-889v113h1016v-471z" glyph-name="logicalnot" horiz-adv-x="1220" unicode="¬"/><glyph d="M745 541h-561v106h561v-106z" glyph-name="uni00AD" horiz-adv-x="1228" unicode="­"/><glyph d="M1209 1371q169 -91 269.5 -260t100.5 -392t-100.5 -392t-269.5 -261.5t-367 -92.5q-199 0 -368 92.5t-270.5 261.5t-101.5 392q0 221 101.5 391t270.5 261t368 91q198 0 367 -91zM522.5 1285q-145.5 -79 -231.5 -225.5t-86 -340.5q0 -193 86 -340.5t232.5 -227 t318.5 -79.5t317.5 79.5t231.5 227t86 340.5q0 195 -86 341t-230.5 225t-318.5 79t-319.5 -79zM1042.5 1039.5q57.5 -58.5 57.5 -146.5q0 -72 -38 -123t-95 -80l172 -325h-123l-150 292h-164v-292h-100v733h246q137 0 194.5 -58.5zM702 1004v-252h140q68 0 108.5 37.5 t40.5 93.5q0 121 -147 121h-142z" glyph-name="registered" horiz-adv-x="1681" unicode="®"/><glyph d="M535 1282h-453v90h453v-90z" glyph-name="macron" horiz-adv-x="616" unicode="¯"/><glyph d="M557 1394.5q76 -63.5 76 -182.5q0 -121 -76 -182t-184 -61q-109 0 -184.5 62.5t-75.5 180.5q0 119 76.5 182.5t183.5 63.5q108 0 184 -63.5zM272 1317q-39 -35 -39 -105t39 -104.5t101 -34.5q66 0 105.5 35t39.5 104q0 70 -40 105t-105 35q-62 0 -101 -35z" glyph-name="degree" horiz-adv-x="747" unicode="°"/><glyph d="M1118 860v-112h-448v-379h-117v379h-451v112h451v381h117v-381h448zM102 297h1016v-115h-1016v115z" glyph-name="plusminus" horiz-adv-x="1220" unicode="±"/><glyph d="M555 1651q76 -68 76 -181q0 -94 -85 -201q-85 -108 -296 -274h407v-102h-569v90q170 137 258 219t126 143q38 60 38 121q0 76 -47 113t-123 37q-61 0 -117 -23q-55 -23 -94 -53l-57 76q57 45 131 74t153 28q123 1 199 -67z" glyph-name="uni00B2" horiz-adv-x="757" unicode="²"/><glyph d="M590 1658q72 -60 72 -142q0 -59 -36 -110q-36 -50 -98 -71v-6q74 -14 121 -66t47 -133q0 -111 -89 -182q-89 -72 -230 -71q-88 0 -164 27q-76 28 -127 73l61 90q98 -84 228 -84q90 0 143 41t53 113q0 135 -204 135h-72v98h55q86 2 137 34t52 93q0 51 -39 83t-115 32 q-115 0 -223 -70l-49 78q53 43 127 71t155 27q123 0 195 -60z" glyph-name="uni00B3" horiz-adv-x="800" unicode="³"/><glyph d="M193 1208h-111l156 226h180z" glyph-name="acute" horiz-adv-x="499" unicode="´"/><glyph d="M1044 0h-92l-24 158h-6q-76 -94 -147 -139q-71 -44 -177 -44q-96 0 -176 26t-117 77v-500h-121v1495h119v-715q0 -133 86 -204q86 -72 209 -72q186 0 328 217v774h118v-1073z" glyph-name="uni00B5" horiz-adv-x="1210" unicode="µ"/><glyph d="M858 0h-121v1327h-121v-1327h-120v772q-342 31 -342 340q0 150 89 236t277 86h338v-1434z" glyph-name="paragraph" horiz-adv-x="1062" unicode="¶"/><glyph d="M409 822q44 -38 44 -113q0 -78 -44 -118t-108 -40q-63 0 -107 40t-44 118q0 76 44 113.5t107 37.5q64 0 108 -38z" glyph-name="periodcentered" horiz-adv-x="600" unicode="·"/><glyph d="M213 -137q16 12 61 12q66 0 112 -37t46 -96q0 -78 -57.5 -121t-147.5 -43q-43 0 -82 12.5t-63 30.5l20 82q18 -16 52 -27.5t69 -11.5q45 0 76 18.5t31 53.5q0 31 -25.5 49t-60.5 18q-47 0 -76 -16l-47 51l102 180h84z" glyph-name="cedilla" horiz-adv-x="516" unicode="¸"/><glyph d="M465 995h172v-102h-500v102h213v570l-172 -80l-41 88l252 129h76v-707z" glyph-name="uni00B9" horiz-adv-x="737" unicode="¹"/><glyph d="M637 1371q82 -87 82 -232q0 -152 -86 -244t-227 -92q-135 0 -217.5 89t-82.5 234q0 152 85 242t227 90q137 0 219 -87zM265.5 1308.5q-56.5 -67.5 -56.5 -178.5t56.5 -177t148.5 -66t147 66.5t55 176.5q0 111 -55 178.5t-147 67.5t-148.5 -67.5z" glyph-name="ordmasculine" horiz-adv-x="825" unicode="º"/><glyph d="M526 522l-301 -360l-82 67l246 295l-246 295l86 66zM852 522l-299 -360l-80 67l246 295l-246 295l84 66z" glyph-name="guillemotright" horiz-adv-x="913" unicode="»"/><glyph d="M1647 315h122v-98h-122v-217h-113v217h-391v98l411 494h93v-494zM1268 315h266v322zM1251 1524l-571 -1768h-107l576 1768h102zM465 727h172v-102h-500v102h213v569l-172 -79l-41 88l252 129h76v-707z" glyph-name="onequarter" horiz-adv-x="1845" unicode="¼"/><glyph d="M1642 758q76 -68 76 -180q0 -94 -85 -202t-296 -274h408v-102h-569v90q170 137 258 219t126 143q38 60 37 121q0 76 -47 113t-123 37q-61 0 -116 -23t-94 -53l-58 76q57 45 131 74t154 28q122 1 198 -67zM1251 1524l-571 -1768h-107l576 1768h102zM465 727h172v-102h-500 v102h213v569l-172 -79l-41 88l252 129h76v-707z" glyph-name="onehalf" horiz-adv-x="1845" unicode="½"/><glyph d="M1710 315h123v-98h-123v-217h-113v217h-391v98l412 494h92v-494zM1331 315h266v322zM1315 1524l-572 -1768h-106l575 1768h103zM590 1390q72 -60 72 -143q0 -59 -36 -109t-98 -71v-6q74 -14 121 -67q47 -52 47 -132q0 -111 -89 -182q-89 -72 -230 -72q-88 0 -164 28 t-127 73l61 90q98 -84 228 -84q90 0 143 41t53 112q0 135 -204 136h-72v98h55q86 2 137 34t52 93q0 51 -39 83t-115 31q-115 0 -223 -69l-49 78q53 43 127 70q74 28 155 28q123 0 195 -60z" glyph-name="threequarters" horiz-adv-x="1908" unicode="¾"/><glyph d="M497.5 902q-30.5 30 -30.5 83t30.5 83t80.5 30q49 0 79.5 -30t30.5 -83t-30.5 -83t-79.5 -30q-50 0 -80.5 30zM314.5 -338q-97.5 47 -147.5 127t-50 180q0 70 23.5 122t58 90t98.5 95q72 61 117 112.5t75.5 128.5t30.5 181h117q0 -127 -35 -216t-83 -143t-124 -122 q-80 -70 -117.5 -120t-37.5 -128q0 -113 84 -179t227 -66q186 0 334 120l63 -94q-78 -63 -181 -99t-222 -36q-133 0 -230.5 47z" glyph-name="questiondown" horiz-adv-x="1024" unicode="¿"/><glyph d="M743 1569h-108l-232 225h183zM1016 383h-684l-142 -383h-129l533 1434h166l532 -1434h-137zM977 494l-301 831l-305 -831h606z" glyph-name="Agrave" horiz-adv-x="1353" unicode="À"/><glyph d="M682 1569h-113l156 225h180zM1016 383h-684l-142 -383h-129l533 1434h166l532 -1434h-137zM977 494l-301 831l-305 -831h606z" glyph-name="Aacute" horiz-adv-x="1353" unicode="Á"/><glyph d="M801 1591l-123 113l-119 -113h-139l229 217h68l217 -217h-133zM1016 383h-684l-142 -383h-129l533 1434h166l532 -1434h-137zM977 494l-301 831l-305 -831h606z" glyph-name="Acircumflex" horiz-adv-x="1353" unicode="Â"/><glyph d="M967 1749q-74 -160 -176 -160q-31 0 -56.5 14.5t-62.5 41.5q-33 25 -55.5 37t-49.5 12q-33 0 -58.5 -23.5t-45.5 -68.5l-74 34q31 84 80 124t102 40q37 0 66 -15.5t68 -45.5q31 -25 50 -36t42 -11q33 0 53 24.5t31.5 48t15.5 29.5zM1016 383h-684l-142 -383h-129 l533 1434h166l532 -1434h-137zM977 494l-301 831l-305 -831h606z" glyph-name="Atilde" horiz-adv-x="1353" unicode="Ã"/><glyph d="M435.5 1621q-23.5 24 -23.5 67t23.5 66.5t62.5 23.5q41 0 65.5 -23.5t24.5 -66.5t-23.5 -67t-66.5 -24q-39 0 -62.5 24zM791.5 1621q-23.5 24 -23.5 67t23.5 66.5t64.5 23.5q39 0 62.5 -23.5t23.5 -66.5t-23.5 -67t-62.5 -24q-41 0 -64.5 24zM1016 383h-684l-142 -383 h-129l533 1434h166l532 -1434h-137zM977 494l-301 831l-305 -831h606z" glyph-name="Adieresis" horiz-adv-x="1353" unicode="Ä"/><glyph d="M542.5 1540q-53.5 51 -53.5 129q0 80 52.5 130t136.5 50q82 0 134 -50t52 -130q0 -78 -52 -129t-134 -51t-135.5 51zM744.5 1598.5q23.5 27.5 23.5 70.5t-23.5 71.5t-66.5 28.5q-45 0 -68.5 -28.5t-23.5 -71.5t23.5 -70.5t68.5 -27.5q43 0 66.5 27.5zM1016 383h-684 l-142 -383h-129l533 1434h166l532 -1434h-137zM977 494l-301 831l-305 -831h606z" glyph-name="Aring" horiz-adv-x="1353" unicode="Å"/><glyph d="M956 1327v-543h613v-108h-613v-561h686v-115h-806v311h-490l-151 -311h-134l713 1434h868v-107h-686zM836 424v879h-7l-428 -879h435z" glyph-name="AE" horiz-adv-x="1744" unicode="Æ"/><glyph d="M890 -162q46 -37 46 -96q0 -78 -58.5 -121t-148.5 -43q-43 0 -82 12.5t-63 30.5l20 82q18 -16 52 -27.5t69 -11.5q45 0 75.5 18.5t30.5 53.5q0 31 -25.5 49t-60.5 18q-47 0 -75 -16l-47 51l79 142q-260 20 -419.5 204.5t-159.5 536.5q0 248 88 413.5t236.5 244.5 t332.5 79q274 0 449 -127l-66 -90q-168 109 -393 109q-145 0 -264 -69t-189.5 -212t-70.5 -358t69.5 -354.5t186 -205t264.5 -65.5q133 0 236.5 35t191.5 108l70 -88q-92 -78 -214 -121t-268 -45l-67 -112q16 12 61 12q68 0 114 -37z" glyph-name="Ccedilla" horiz-adv-x="1325" unicode="Ç"/><glyph d="M723 1569h-109l-231 225h182zM1085 1327h-759v-536h678v-109h-678v-567h759v-115h-880v1434h880v-107z" glyph-name="Egrave" horiz-adv-x="1187" unicode="È"/><glyph d="M662 1569h-113l156 225h180zM1085 1327h-759v-536h678v-109h-678v-567h759v-115h-880v1434h880v-107z" glyph-name="Eacute" horiz-adv-x="1187" unicode="É"/><glyph d="M780 1591l-123 113l-118 -113h-140l230 217h67l217 -217h-133zM1085 1327h-759v-536h678v-109h-678v-567h759v-115h-880v1434h880v-107z" glyph-name="Ecircumflex" horiz-adv-x="1187" unicode="Ê"/><glyph d="M414.5 1621q-23.5 24 -23.5 67t23.5 66.5t62.5 23.5q41 0 65.5 -23.5t24.5 -66.5t-23.5 -67t-66.5 -24q-39 0 -62.5 24zM771.5 1621q-23.5 24 -23.5 67t23.5 66.5t64.5 23.5q39 0 62.5 -23.5t23.5 -66.5t-24 -67t-62 -24q-41 0 -64.5 24zM1085 1327h-759v-536h678v-109 h-678v-567h759v-115h-880v1434h880v-107z" glyph-name="Edieresis" horiz-adv-x="1187" unicode="Ë"/><glyph d="M334 1569h-109l-231 225h182zM326 0h-121v1434h121v-1434z" glyph-name="Igrave" horiz-adv-x="532" unicode="Ì"/><glyph d="M270 1569h-112l155 225h181zM326 0h-121v1434h121v-1434z" glyph-name="Iacute" horiz-adv-x="532" unicode="Í"/><glyph d="M389 1591l-123 113l-119 -113h-139l230 217h67l217 -217h-133zM326 0h-121v1434h121v-1434z" glyph-name="Icircumflex" horiz-adv-x="532" unicode="Î"/><glyph d="M23.5 1621q-23.5 24 -23.5 67t23.5 66.5t62.5 23.5q41 0 65.5 -23.5t24.5 -66.5t-23.5 -67t-66.5 -24q-39 0 -62.5 24zM379.5 1621q-23.5 24 -23.5 67t23.5 66.5t64.5 23.5q39 0 62.5 -23.5t23.5 -66.5t-23.5 -67t-62.5 -24q-41 0 -64.5 24zM326 0h-121v1434h121v-1434z " glyph-name="Idieresis" horiz-adv-x="532" unicode="Ï"/><glyph d="M1087.5 1263q188.5 -171 188.5 -534q0 -246 -90 -409.5t-244 -241.5t-344 -78h-393v686h-156v109h156v639h393q301 0 489.5 -171zM1155 729q0 307 -146.5 452.5t-439.5 145.5h-243v-532h325v-109h-325v-571h243q586 0 586 614z" glyph-name="Eth" horiz-adv-x="1400" unicode="Ð"/><glyph d="M1042 1749q-74 -160 -176 -160q-31 0 -56.5 14.5t-61.5 41.5q-33 25 -55.5 37t-49.5 12q-33 0 -58.5 -23.5t-45.5 -68.5l-74 34q31 84 80 124t102 40q37 0 65.5 -15.5t67.5 -45.5q31 -25 50.5 -36t41.5 -11q33 0 53.5 24.5t32 48t15.5 29.5zM1325 1434v-1434h-104 l-895 1221v-1221h-121v1434h108l891 -1217v1217h121z" glyph-name="Ntilde" horiz-adv-x="1529" unicode="Ñ"/><glyph d="M862 1569h-108l-232 225h183zM1121.5 1378q152.5 -80 247.5 -245.5t95 -411.5t-95 -414t-248.5 -250t-325.5 -82t-326 82t-250 250t-96 414t96 411.5t249 245.5t327 80t326.5 -80zM518 1280q-125 -70 -198.5 -211t-73.5 -346q0 -201 72.5 -346.5t195.5 -219t272 -73.5 q152 0 278 72.5t201.5 217t75.5 349.5q0 203 -74.5 344t-198.5 212t-273 71q-152 0 -277 -70z" glyph-name="Ograve" horiz-adv-x="1587" unicode="Ò"/><glyph d="M799 1569h-113l156 225h180zM1121.5 1378q152.5 -80 247.5 -245.5t95 -411.5t-95 -414t-248.5 -250t-325.5 -82t-326 82t-250 250t-96 414t96 411.5t249 245.5t327 80t326.5 -80zM518 1280q-125 -70 -198.5 -211t-73.5 -346q0 -201 72.5 -346.5t195.5 -219t272 -73.5 q152 0 278 72.5t201.5 217t75.5 349.5q0 203 -74.5 344t-198.5 212t-273 71q-152 0 -277 -70z" glyph-name="Oacute" horiz-adv-x="1587" unicode="Ó"/><glyph d="M920 1591l-123 113l-119 -113h-139l229 217h68l217 -217h-133zM1121.5 1378q152.5 -80 247.5 -245.5t95 -411.5t-95 -414t-248.5 -250t-325.5 -82t-326 82t-250 250t-96 414t96 411.5t249 245.5t327 80t326.5 -80zM518 1280q-125 -70 -198.5 -211t-73.5 -346 q0 -201 72.5 -346.5t195.5 -219t272 -73.5q152 0 278 72.5t201.5 217t75.5 349.5q0 203 -74.5 344t-198.5 212t-273 71q-152 0 -277 -70z" glyph-name="Ocircumflex" horiz-adv-x="1587" unicode="Ô"/><glyph d="M1085 1749q-74 -160 -176 -160q-31 0 -56.5 14.5t-61.5 41.5q-33 25 -55.5 37t-49.5 12q-33 0 -58.5 -23.5t-45.5 -68.5l-74 34q31 84 80 124t102 40q37 0 65.5 -15.5t67.5 -45.5q31 -25 50.5 -36t41.5 -11q33 0 53.5 24.5t32 48t15.5 29.5zM1121.5 1378 q152.5 -80 247.5 -245.5t95 -411.5t-95 -414t-248.5 -250t-325.5 -82t-326 82t-250 250t-96 414t96 411.5t249 245.5t327 80t326.5 -80zM518 1280q-125 -70 -198.5 -211t-73.5 -346q0 -201 72.5 -346.5t195.5 -219t272 -73.5q152 0 278 72.5t201.5 217t75.5 349.5 q0 203 -74.5 344t-198.5 212t-273 71q-152 0 -277 -70z" glyph-name="Otilde" horiz-adv-x="1587" unicode="Õ"/><glyph d="M554 1621q-24 24 -24 67t24 66.5t62 23.5q41 0 66 -23.5t25 -66.5t-24 -67t-67 -24q-38 0 -62 24zM910.5 1621q-23.5 24 -23.5 67t23.5 66.5t64.5 23.5q39 0 62.5 -23.5t23.5 -66.5t-23.5 -67t-62.5 -24q-41 0 -64.5 24zM1121.5 1378q152.5 -80 247.5 -245.5t95 -411.5 t-95 -414t-248.5 -250t-325.5 -82t-326 82t-250 250t-96 414t96 411.5t249 245.5t327 80t326.5 -80zM518 1280q-125 -70 -198.5 -211t-73.5 -346q0 -201 72.5 -346.5t195.5 -219t272 -73.5q152 0 278 72.5t201.5 217t75.5 349.5q0 203 -74.5 344t-198.5 212t-273 71 q-152 0 -277 -70z" glyph-name="Odieresis" horiz-adv-x="1587" unicode="Ö"/><glyph d="M694 702l412 -411l-80 -86l-414 416l-415 -416l-84 84l413 416l-413 413l86 80l411 -412l414 416l84 -86z" glyph-name="multiply" horiz-adv-x="1220" unicode="×"/><glyph d="M1394.5 1083.5q69.5 -151.5 69.5 -362.5q0 -246 -95 -414t-248.5 -250t-325.5 -82q-168 0 -318 76l-133 -235l-94 53l137 242q-123 94 -193.5 247.5t-70.5 362.5q0 246 96 411.5t249 245.5t327 80q168 0 315 -74l133 234l94 -53l-135 -238q123 -92 192.5 -243.5zM298 423 q52 -130 146 -212l611 1075q-115 63 -260 64q-152 0 -277 -70t-198.5 -211t-73.5 -346q0 -170 52 -300zM1064 156.5q126 72.5 201.5 217t75.5 349.5q0 170 -52 296t-144 206l-613 -1078q117 -63 254 -63q152 0 278 72.5z" glyph-name="Oslash" horiz-adv-x="1587" unicode="Ø"/><glyph d="M803 1569h-109l-231 225h182zM470 31.5q-120 56.5 -192.5 177.5t-72.5 307v918h121v-932q0 -193 108.5 -300.5t300.5 -107.5q195 0 301.5 107.5t106.5 300.5v932h121v-918q0 -186 -72 -307t-191.5 -177.5t-265.5 -56.5q-145 0 -265 56.5z" glyph-name="Ugrave" horiz-adv-x="1468" unicode="Ù"/><glyph d="M739 1569h-112l155 225h181zM470 31.5q-120 56.5 -192.5 177.5t-72.5 307v918h121v-932q0 -193 108.5 -300.5t300.5 -107.5q195 0 301.5 107.5t106.5 300.5v932h121v-918q0 -186 -72 -307t-191.5 -177.5t-265.5 -56.5q-145 0 -265 56.5z" glyph-name="Uacute" horiz-adv-x="1468" unicode="Ú"/><glyph d="M860 1591l-123 113l-119 -113h-139l230 217h67l217 -217h-133zM470 31.5q-120 56.5 -192.5 177.5t-72.5 307v918h121v-932q0 -193 108.5 -300.5t300.5 -107.5q195 0 301.5 107.5t106.5 300.5v932h121v-918q0 -186 -72 -307t-191.5 -177.5t-265.5 -56.5q-145 0 -265 56.5z " glyph-name="Ucircumflex" horiz-adv-x="1468" unicode="Û"/><glyph d="M494.5 1621q-23.5 24 -23.5 67t23.5 66.5t62.5 23.5q41 0 65.5 -23.5t24.5 -66.5t-23.5 -67t-66.5 -24q-39 0 -62.5 24zM850.5 1621q-23.5 24 -23.5 67t23.5 66.5t64.5 23.5q39 0 62.5 -23.5t23.5 -66.5t-23.5 -67t-62.5 -24q-41 0 -64.5 24zM470 31.5 q-120 56.5 -192.5 177.5t-72.5 307v918h121v-932q0 -193 108.5 -300.5t300.5 -107.5q195 0 301.5 107.5t106.5 300.5v932h121v-918q0 -186 -72 -307t-191.5 -177.5t-265.5 -56.5q-145 0 -265 56.5z" glyph-name="Udieresis" horiz-adv-x="1468" unicode="Ü"/><glyph d="M621 1569h-113l156 225h180zM545 573l-504 861h145l422 -750l416 750h141l-499 -861v-573h-121v573z" glyph-name="Yacute" horiz-adv-x="1206" unicode="Ý"/><glyph d="M328 1176h276q227 0 348 -111t121 -299q0 -125 -53 -226.5t-158.5 -161t-255.5 -59.5h-278v-319h-123v1434h123v-258zM328 1067v-639h262q172 0 265 89t93 249q0 158 -91 229.5t-267 71.5h-262z" glyph-name="Thorn" horiz-adv-x="1114" unicode="Þ"/><glyph d="M813 1485q92 -80 92 -219q0 -84 -30.5 -146.5t-86.5 -138.5q-39 -53 -57 -87t-18 -69q0 -45 30.5 -81.5t96.5 -88.5q66 -53 106.5 -96t70.5 -107.5t30 -148.5q0 -147 -91.5 -236.5t-246.5 -89.5q-127 0 -230 54l33 98q100 -47 199 -47q106 0 159.5 61.5t53.5 153.5 q0 88 -44 147.5t-130 130.5q-80 68 -119 118t-39 122q0 55 22.5 97t67.5 106q49 66 75.5 120t26.5 124q0 100 -58 150t-169 50q-127 0 -190.5 -84t-63.5 -284v-1094h-119v1092q0 229 95.5 351t285.5 122q156 0 248 -80z" glyph-name="germandbls" horiz-adv-x="1116" unicode="ß"/><glyph d="M631 1208h-109l-231 226h182zM1065 86l-12 -80q-29 -12 -76 -12q-70 0 -106.5 37t-47.5 116q-70 -82 -167 -127t-214 -45q-147 0 -243.5 75t-96.5 220q0 166 125 241t314 75q111 0 282 -29v176q0 133 -80.5 195.5t-205.5 62.5q-164 0 -308 -112l-59 79q82 68 174 104 t211 36q188 0 287.5 -93.5t99.5 -281.5v-551q0 -43 16.5 -66.5t57.5 -23.5q29 0 49 4zM664.5 133q97.5 51 158.5 133v185q-166 27 -284 26q-135 0 -224.5 -48t-89.5 -157q0 -98 71 -144t167 -46q104 0 201.5 51z" glyph-name="agrave" horiz-adv-x="1126" unicode="à"/><glyph d="M565 1208h-110l155 226h181zM1065 86l-12 -80q-29 -12 -76 -12q-70 0 -106.5 37t-47.5 116q-70 -82 -167 -127t-214 -45q-147 0 -243.5 75t-96.5 220q0 166 125 241t314 75q111 0 282 -29v176q0 133 -80.5 195.5t-205.5 62.5q-164 0 -308 -112l-59 79q82 68 174 104 t211 36q188 0 287.5 -93.5t99.5 -281.5v-551q0 -43 16.5 -66.5t57.5 -23.5q29 0 49 4zM664.5 133q97.5 51 158.5 133v185q-166 27 -284 26q-135 0 -224.5 -48t-89.5 -157q0 -98 71 -144t167 -46q104 0 201.5 51z" glyph-name="aacute" horiz-adv-x="1126" unicode="á"/><glyph d="M686 1231l-123 112l-119 -112h-139l230 217h67l217 -217h-133zM1065 86l-12 -80q-29 -12 -76 -12q-70 0 -106.5 37t-47.5 116q-70 -82 -167 -127t-214 -45q-147 0 -243.5 75t-96.5 220q0 166 125 241t314 75q111 0 282 -29v176q0 133 -80.5 195.5t-205.5 62.5 q-164 0 -308 -112l-59 79q82 68 174 104t211 36q188 0 287.5 -93.5t99.5 -281.5v-551q0 -43 16.5 -66.5t57.5 -23.5q29 0 49 4zM664.5 133q97.5 51 158.5 133v185q-166 27 -284 26q-135 0 -224.5 -48t-89.5 -157q0 -98 71 -144t167 -46q104 0 201.5 51z" glyph-name="acircumflex" horiz-adv-x="1126" unicode="â"/><glyph d="M842 1389q-74 -160 -176 -160q-31 0 -56.5 14t-62.5 41q-33 25 -55.5 37t-49.5 12q-33 0 -58.5 -23.5t-45.5 -68.5l-74 35q31 84 80 124t102 40q37 0 66 -15.5t68 -46.5q31 -25 50 -36t42 -11q33 0 53 24.5t31.5 48t15.5 30.5zM1065 86l-12 -80q-29 -12 -76 -12 q-70 0 -106.5 37t-47.5 116q-70 -82 -167 -127t-214 -45q-147 0 -243.5 75t-96.5 220q0 166 125 241t314 75q111 0 282 -29v176q0 133 -80.5 195.5t-205.5 62.5q-164 0 -308 -112l-59 79q82 68 174 104t211 36q188 0 287.5 -93.5t99.5 -281.5v-551q0 -43 16.5 -66.5 t57.5 -23.5q29 0 49 4zM664.5 133q97.5 51 158.5 133v185q-166 27 -284 26q-135 0 -224.5 -48t-89.5 -157q0 -98 71 -144t167 -46q104 0 201.5 51z" glyph-name="atilde" horiz-adv-x="1126" unicode="ã"/><glyph d="M334.5 1281q-23.5 24 -23.5 67t23.5 66.5t62.5 23.5q41 0 65.5 -23.5t24.5 -66.5t-23.5 -67t-66.5 -24q-39 0 -62.5 24zM662.5 1281q-23.5 24 -23.5 67t23.5 66.5t64.5 23.5q39 0 62.5 -23.5t23.5 -66.5t-23.5 -67t-62.5 -24q-41 0 -64.5 24zM1065 86l-12 -80 q-29 -12 -76 -12q-70 0 -106.5 37t-47.5 116q-70 -82 -167 -127t-214 -45q-147 0 -243.5 75t-96.5 220q0 166 125 241t314 75q111 0 282 -29v176q0 133 -80.5 195.5t-205.5 62.5q-164 0 -308 -112l-59 79q82 68 174 104t211 36q188 0 287.5 -93.5t99.5 -281.5v-551 q0 -43 16.5 -66.5t57.5 -23.5q29 0 49 4zM664.5 133q97.5 51 158.5 133v185q-166 27 -284 26q-135 0 -224.5 -48t-89.5 -157q0 -98 71 -144t167 -46q104 0 201.5 51z" glyph-name="adieresis" horiz-adv-x="1126" unicode="ä"/><glyph d="M430 1220.5q-53 51.5 -53 129.5q0 80 52 130t136 50q82 0 134.5 -50t52.5 -130q0 -78 -52.5 -129.5t-134.5 -51.5t-135 51.5zM631.5 1279q23.5 28 23.5 71t-23.5 71.5t-66.5 28.5q-45 0 -68.5 -28.5t-23.5 -71.5t23.5 -71t68.5 -28q43 0 66.5 28zM1065 86l-12 -80 q-29 -12 -76 -12q-70 0 -106.5 37t-47.5 116q-70 -82 -167 -127t-214 -45q-147 0 -243.5 75t-96.5 220q0 166 125 241t314 75q111 0 282 -29v176q0 133 -80.5 195.5t-205.5 62.5q-164 0 -308 -112l-59 79q82 68 174 104t211 36q188 0 287.5 -93.5t99.5 -281.5v-551 q0 -43 16.5 -66.5t57.5 -23.5q29 0 49 4zM664.5 133q97.5 51 158.5 133v185q-166 27 -284 26q-135 0 -224.5 -48t-89.5 -157q0 -98 71 -144t167 -46q104 0 201.5 51z" glyph-name="aring" horiz-adv-x="1126" unicode="å"/><glyph d="M1749 539q0 -33 -2 -45h-791q8 -199 105.5 -305.5t265.5 -106.5q102 0 192.5 38t151.5 97l49 -84q-166 -158 -403 -158q-289 0 -418 236q-63 -111 -176 -173.5t-254 -62.5q-162 0 -264.5 84t-102.5 236q0 176 135.5 254t337.5 78q135 0 263 -25v103q0 143 -75 214.5 t-206 71.5q-166 0 -324 -112l-61 84q88 63 179 99t218 36q145 0 226.5 -52.5t124.5 -164.5q61 106 165.5 161.5t237.5 55.5q399 0 424 -508q2 -14 2 -51zM1628 600q-6 186 -86 288.5t-233 102.5q-156 0 -248 -103.5t-100 -287.5h667zM840 492q-154 27 -273 26 q-164 0 -253 -48t-89 -171q0 -117 75 -167t185 -50q96 0 177 36t129.5 101.5t48.5 153.5v119z" glyph-name="ae" horiz-adv-x="1851" unicode="æ"/><glyph d="M746.5 -162q46.5 -37 46.5 -96q0 -78 -58.5 -121t-148.5 -43q-43 0 -82 12.5t-64 30.5l21 82q18 -16 52 -27.5t69 -11.5q45 0 75.5 18.5t30.5 53.5q0 31 -25.5 49t-60.5 18q-47 0 -76 -16l-47 51l80 139q-133 14 -235.5 84t-162 193t-59.5 289q0 174 70 300t187.5 190.5 t254.5 64.5q227 0 379 -131l-69 -84q-74 55 -139.5 81.5t-168.5 26.5q-174 0 -282.5 -116.5t-108.5 -331.5q0 -143 53.5 -248t143.5 -159t201 -54q100 0 178 32.5t147 88.5l68 -80q-61 -57 -156.5 -100t-220.5 -48l-68 -112q16 12 62 12q67 0 113.5 -37z" glyph-name="ccedilla" horiz-adv-x="1087" unicode="ç"/><glyph d="M672 1208h-109l-231 226h182zM1051 498h-826q14 -211 114.5 -313.5t276.5 -102.5q205 0 353 127l71 -76q-86 -76 -190.5 -117t-253.5 -41q-133 0 -245.5 61.5t-180.5 186.5t-68 307q0 180 62.5 308.5t175.5 194t260 65.5t250.5 -67.5t155 -180.5t51.5 -248q0 -57 -6 -104 zM335.5 887.5q-104.5 -103.5 -112.5 -283.5h725q-8 176 -95 281.5t-249 105.5q-164 0 -268.5 -103.5z" glyph-name="egrave" horiz-adv-x="1159" unicode="è"/><glyph d="M606 1208h-110l155 226h180zM1051 498h-826q14 -211 114.5 -313.5t276.5 -102.5q205 0 353 127l71 -76q-86 -76 -190.5 -117t-253.5 -41q-133 0 -245.5 61.5t-180.5 186.5t-68 307q0 180 62.5 308.5t175.5 194t260 65.5t250.5 -67.5t155 -180.5t51.5 -248q0 -57 -6 -104z M335.5 887.5q-104.5 -103.5 -112.5 -283.5h725q-8 176 -95 281.5t-249 105.5q-164 0 -268.5 -103.5z" glyph-name="eacute" horiz-adv-x="1159" unicode="é"/><glyph d="M727 1231l-123 112l-119 -112h-139l229 217h68l217 -217h-133zM1051 498h-826q14 -211 114.5 -313.5t276.5 -102.5q205 0 353 127l71 -76q-86 -76 -190.5 -117t-253.5 -41q-133 0 -245.5 61.5t-180.5 186.5t-68 307q0 180 62.5 308.5t175.5 194t260 65.5t250.5 -67.5 t155 -180.5t51.5 -248q0 -57 -6 -104zM335.5 887.5q-104.5 -103.5 -112.5 -283.5h725q-8 176 -95 281.5t-249 105.5q-164 0 -268.5 -103.5z" glyph-name="ecircumflex" horiz-adv-x="1159" unicode="ê"/><glyph d="M375.5 1281q-23.5 24 -23.5 67t23.5 66.5t62.5 23.5q41 0 65.5 -23.5t24.5 -66.5t-23.5 -67t-66.5 -24q-39 0 -62.5 24zM703.5 1281q-23.5 24 -23.5 67t23.5 66.5t64.5 23.5q39 0 62.5 -23.5t23.5 -66.5t-23.5 -67t-62.5 -24q-41 0 -64.5 24zM1051 498h-826 q14 -211 114.5 -313.5t276.5 -102.5q205 0 353 127l71 -76q-86 -76 -190.5 -117t-253.5 -41q-133 0 -245.5 61.5t-180.5 186.5t-68 307q0 180 62.5 308.5t175.5 194t260 65.5t250.5 -67.5t155 -180.5t51.5 -248q0 -57 -6 -104zM335.5 887.5q-104.5 -103.5 -112.5 -283.5h725 q-8 176 -95 281.5t-249 105.5q-164 0 -268.5 -103.5z" glyph-name="edieresis" horiz-adv-x="1159" unicode="ë"/><glyph d="M311 1208h-108l-232 226h183zM303 0h-119v1073h119v-1073z" glyph-name="igrave" horiz-adv-x="489" unicode="ì"/><glyph d="M246 1208h-111l156 226h180zM303 0h-119v1073h119v-1073z" glyph-name="iacute" horiz-adv-x="489" unicode="í"/><glyph d="M367 1231l-123 112l-119 -112h-139l229 217h68l217 -217h-133zM303 0h-119v1073h119v-1073z" glyph-name="icircumflex" horiz-adv-x="489" unicode="î"/><glyph d="M15.5 1281q-23.5 24 -23.5 67t23.5 66.5t62.5 23.5q41 0 65.5 -23.5t24.5 -66.5t-23.5 -67t-66.5 -24q-39 0 -62.5 24zM343 1281q-24 24 -24 67t24 66.5t65 23.5q39 0 62.5 -23.5t23.5 -66.5t-24 -67t-62 -24q-41 0 -65 24zM303 0h-119v1073h119v-1073z" glyph-name="idieresis" horiz-adv-x="489" unicode="ï"/><glyph d="M1102 569q0 -285 -133 -439.5t-365 -154.5q-135 0 -248.5 60.5t-183.5 186.5t-70 315q0 188 68 314t179.5 186.5t244.5 60.5q111 0 198 -42t146 -120q-82 205 -244 354l-272 -133l-43 82l237 115q-66 51 -163 108l51 78q106 -55 213 -137l211 102l43 -82l-178 -86 q309 -291 309 -768zM798 136q85 54 133 157.5t48 243.5q0 139 -50 241.5t-138.5 157.5t-196.5 55q-170 0 -269.5 -120.5t-99.5 -333.5q0 -139 48.5 -243t133.5 -158t197 -54q109 0 194 54z" glyph-name="eth" horiz-adv-x="1204" unicode="ð"/><glyph d="M877 1389q-74 -160 -177 -160q-31 0 -56.5 14t-61.5 41q-33 25 -55.5 37t-49.5 12q-33 0 -58.5 -23.5t-45.5 -68.5l-74 35q31 84 80 124t102 40q37 0 65.5 -15.5t67.5 -46.5q31 -25 50.5 -36t42.5 -11q33 0 53 24.5t31.5 48t15.5 30.5zM184 1073h88l19 -168h2 q80 94 166 143.5t217 49.5q166 0 257 -89t91 -261v-748h-119v717q0 152 -60.5 213t-174.5 61q-115 0 -206 -53t-165 -168v-770h-115v1073z" glyph-name="ntilde" horiz-adv-x="1189" unicode="ñ"/><glyph d="M680 1208h-109l-231 226h182zM867.5 1037.5q115.5 -60.5 185 -186.5t69.5 -314t-69.5 -314.5t-185 -187t-255.5 -60.5q-139 0 -254.5 60.5t-185.5 186.5t-70 315q0 188 70 314t185.5 186.5t254.5 60.5q140 0 255.5 -60.5zM330.5 869.5q-105.5 -121.5 -105.5 -332.5 t105.5 -333t281.5 -122t281.5 123t105.5 332t-105.5 331.5t-281.5 122.5t-281.5 -121.5z" glyph-name="ograve" horiz-adv-x="1224" unicode="ò"/><glyph d="M614 1208h-110l155 226h181zM867.5 1037.5q115.5 -60.5 185 -186.5t69.5 -314t-69.5 -314.5t-185 -187t-255.5 -60.5q-139 0 -254.5 60.5t-185.5 186.5t-70 315q0 188 70 314t185.5 186.5t254.5 60.5q140 0 255.5 -60.5zM330.5 869.5q-105.5 -121.5 -105.5 -332.5 t105.5 -333t281.5 -122t281.5 123t105.5 332t-105.5 331.5t-281.5 122.5t-281.5 -121.5z" glyph-name="oacute" horiz-adv-x="1224" unicode="ó"/><glyph d="M735 1231l-123 112l-118 -112h-140l230 217h67l217 -217h-133zM867.5 1037.5q115.5 -60.5 185 -186.5t69.5 -314t-69.5 -314.5t-185 -187t-255.5 -60.5q-139 0 -254.5 60.5t-185.5 186.5t-70 315q0 188 70 314t185.5 186.5t254.5 60.5q140 0 255.5 -60.5zM330.5 869.5 q-105.5 -121.5 -105.5 -332.5t105.5 -333t281.5 -122t281.5 123t105.5 332t-105.5 331.5t-281.5 122.5t-281.5 -121.5z" glyph-name="ocircumflex" horiz-adv-x="1224" unicode="ô"/><glyph d="M891 1389q-74 -160 -176 -160q-31 0 -56.5 14t-62.5 41q-33 25 -55.5 37t-48.5 12q-33 0 -58.5 -23.5t-46.5 -68.5l-74 35q31 84 80 124t103 40q37 0 65.5 -15.5t67.5 -46.5q31 -25 50 -36t42 -11q33 0 53.5 24.5t31.5 48t15 30.5zM867.5 1037.5q115.5 -60.5 185 -186.5 t69.5 -314t-69.5 -314.5t-185 -187t-255.5 -60.5q-139 0 -254.5 60.5t-185.5 186.5t-70 315q0 188 70 314t185.5 186.5t254.5 60.5q140 0 255.5 -60.5zM330.5 869.5q-105.5 -121.5 -105.5 -332.5t105.5 -333t281.5 -122t281.5 123t105.5 332t-105.5 331.5t-281.5 122.5 t-281.5 -121.5z" glyph-name="otilde" horiz-adv-x="1224" unicode="õ"/><glyph d="M384 1281q-24 24 -24 67t24 66.5t62 23.5q41 0 66 -23.5t25 -66.5t-24 -67t-67 -24q-38 0 -62 24zM711.5 1281q-23.5 24 -23.5 67t23.5 66.5t64.5 23.5q39 0 62.5 -23.5t23.5 -66.5t-23.5 -67t-62.5 -24q-41 0 -64.5 24zM867.5 1037.5q115.5 -60.5 185 -186.5t69.5 -314 t-69.5 -314.5t-185 -187t-255.5 -60.5q-139 0 -254.5 60.5t-185.5 186.5t-70 315q0 188 70 314t185.5 186.5t254.5 60.5q140 0 255.5 -60.5zM330.5 869.5q-105.5 -121.5 -105.5 -332.5t105.5 -333t281.5 -122t281.5 123t105.5 332t-105.5 331.5t-281.5 122.5t-281.5 -121.5z " glyph-name="odieresis" horiz-adv-x="1224" unicode="ö"/><glyph d="M693 1170.5q36 -31.5 36 -91.5q0 -59 -36 -88.5t-85 -29.5q-47 0 -81.5 29.5t-34.5 88.5t34.5 91t81.5 32q49 0 85 -31.5zM1118 645h-1016v115h1016v-115zM693 413.5q36 -30.5 36 -89.5t-36 -90t-85 -31q-47 0 -81.5 30.5t-34.5 90.5q0 59 34.5 89.5t81.5 30.5 q49 0 85 -30.5z" glyph-name="divide" horiz-adv-x="1220" unicode="÷"/><glyph d="M1066 823.5q56 -118.5 56 -286.5q0 -188 -69.5 -314.5t-185 -187t-255.5 -60.5q-117 0 -211 41l-98 -192l-88 43l100 194q-100 70 -156.5 189t-56.5 287q0 188 70 314t185.5 186.5t254.5 60.5q111 0 215 -41l99 192l84 -45l-101 -192q101 -70 157 -188.5zM263 318.5 q38 -95.5 106 -152.5l407 792q-78 33 -164 33q-176 0 -281.5 -121.5t-105.5 -332.5q0 -123 38 -218.5zM893.5 205q105.5 123 105.5 332q0 121 -37.5 216t-105.5 154l-405 -792q72 -33 161 -33q176 0 281.5 123z" glyph-name="oslash" horiz-adv-x="1224" unicode="ø"/><glyph d="M668 1208h-109l-231 226h182zM1014 0h-92l-25 162h-6q-76 -92 -166 -139.5t-209 -47.5q-145 0 -238.5 92.5t-93.5 290.5v715h119v-688q0 -162 62.5 -232.5t164.5 -70.5q111 0 193 54t172 153v784h119v-1073z" glyph-name="ugrave" horiz-adv-x="1179" unicode="ù"/><glyph d="M602 1208h-110l155 226h180zM1014 0h-92l-25 162h-6q-76 -92 -166 -139.5t-209 -47.5q-145 0 -238.5 92.5t-93.5 290.5v715h119v-688q0 -162 62.5 -232.5t164.5 -70.5q111 0 193 54t172 153v784h119v-1073z" glyph-name="uacute" horiz-adv-x="1179" unicode="ú"/><glyph d="M723 1231l-123 112l-119 -112h-139l229 217h68l217 -217h-133zM1014 0h-92l-25 162h-6q-76 -92 -166 -139.5t-209 -47.5q-145 0 -238.5 92.5t-93.5 290.5v715h119v-688q0 -162 62.5 -232.5t164.5 -70.5q111 0 193 54t172 153v784h119v-1073z" glyph-name="ucircumflex" horiz-adv-x="1179" unicode="û"/><glyph d="M371.5 1281q-23.5 24 -23.5 67t23.5 66.5t62.5 23.5q41 0 65.5 -23.5t24.5 -66.5t-23.5 -67t-66.5 -24q-39 0 -62.5 24zM699.5 1281q-23.5 24 -23.5 67t23.5 66.5t64.5 23.5q39 0 62.5 -23.5t23.5 -66.5t-23.5 -67t-62.5 -24q-41 0 -64.5 24zM1014 0h-92l-25 162h-6 q-76 -92 -166 -139.5t-209 -47.5q-145 0 -238.5 92.5t-93.5 290.5v715h119v-688q0 -162 62.5 -232.5t164.5 -70.5q111 0 193 54t172 153v784h119v-1073z" glyph-name="udieresis" horiz-adv-x="1179" unicode="ü"/><glyph d="M561 1208h-110l155 226h180zM631 -66q-66 -174 -159 -265t-228 -91q-70 0 -127 21l22 94q55 -16 107 -17q78 0 145.5 61.5t106.5 166.5l24 65l-461 1104h127l387 -971h9l352 971h119z" glyph-name="yacute" horiz-adv-x="1091" unicode="ý"/><glyph d="M295 905h6q68 96 152 144.5t202 48.5q193 0 315 -135.5t122 -401.5q0 -172 -69 -305t-180.5 -207t-234.5 -74q-100 0 -169.5 19.5t-135.5 62.5v-479h-119v1962h111v-635zM456 931.5q-81 -59.5 -153 -181.5v-574q66 -53 126 -73.5t157 -20.5q92 0 180 56.5t145.5 164 t57.5 254.5q0 150 -46 247t-120 142t-162 45q-104 0 -185 -59.5z" glyph-name="thorn" horiz-adv-x="1193" unicode="þ"/><glyph d="M330.5 1281q-23.5 24 -23.5 67t23.5 66.5t62.5 23.5q41 0 65.5 -23.5t24.5 -66.5t-23.5 -67t-66.5 -24q-39 0 -62.5 24zM658.5 1281q-23.5 24 -23.5 67t23.5 66.5t64.5 23.5q39 0 62.5 -23.5t23.5 -66.5t-23.5 -67t-62.5 -24q-41 0 -64.5 24zM631 -66q-66 -174 -159 -265 t-228 -91q-70 0 -127 21l22 94q55 -16 107 -17q78 0 145.5 61.5t106.5 166.5l24 65l-461 1104h127l387 -971h9l352 971h119z" glyph-name="ydieresis" horiz-adv-x="1091" unicode="ÿ"/><glyph d="M893 1642h-432v91h432v-91zM1016 383h-684l-142 -383h-129l533 1434h166l532 -1434h-137zM977 494l-301 831l-305 -831h606z" glyph-name="Amacron" horiz-adv-x="1353" unicode="Ā"/><glyph d="M791 1282h-453v90h453v-90zM1065 86l-12 -80q-29 -12 -76 -12q-70 0 -106.5 37t-47.5 116q-70 -82 -167 -127t-214 -45q-147 0 -243.5 75t-96.5 220q0 166 125 241t314 75q111 0 282 -29v176q0 133 -80.5 195.5t-205.5 62.5q-164 0 -308 -112l-59 79q82 68 174 104 t211 36q188 0 287.5 -93.5t99.5 -281.5v-551q0 -43 16.5 -66.5t57.5 -23.5q29 0 49 4zM664.5 133q97.5 51 158.5 133v185q-166 27 -284 26q-135 0 -224.5 -48t-89.5 -157q0 -98 71 -144t167 -46q104 0 201.5 51z" glyph-name="amacron" horiz-adv-x="1126" unicode="ā"/><glyph d="M851 1629.5q-77 -60.5 -175 -60.5q-100 0 -176 60.5t-92 164.5h94q14 -68 61 -103.5t113 -35.5t110.5 35.5t59.5 103.5h100q-18 -104 -95 -164.5zM1016 383h-684l-142 -383h-129l533 1434h166l532 -1434h-137zM977 494l-301 831l-305 -831h606z" glyph-name="Abreve" horiz-adv-x="1353" unicode="Ă"/><glyph d="M738.5 1274.5q-76.5 -60.5 -175.5 -60.5q-100 0 -176 60.5t-92 165.5h94q12 -68 60.5 -102.5t113.5 -34.5q66 0 111 34.5t59 102.5h101q-19 -105 -95.5 -165.5zM1065 86l-12 -80q-29 -12 -76 -12q-70 0 -106.5 37t-47.5 116q-70 -82 -167 -127t-214 -45q-147 0 -243.5 75 t-96.5 220q0 166 125 241t314 75q111 0 282 -29v176q0 133 -80.5 195.5t-205.5 62.5q-164 0 -308 -112l-59 79q82 68 174 104t211 36q188 0 287.5 -93.5t99.5 -281.5v-551q0 -43 16.5 -66.5t57.5 -23.5q29 0 49 4zM664.5 133q97.5 51 158.5 133v185q-166 27 -284 26 q-135 0 -224.5 -48t-89.5 -157q0 -98 71 -144t167 -46q104 0 201.5 51z" glyph-name="abreve" horiz-adv-x="1126" unicode="ă"/><glyph d="M1178 -338q29 0 49 4l-8 -76q-29 -12 -72 -12q-74 0 -115 40t-41 106q0 68 42 145.5t116 148.5l-133 365h-684l-142 -383h-129l533 1434h166l532 -1434h-69q-121 -137 -121 -250q0 -88 76 -88zM977 494l-301 831l-305 -831h606z" glyph-name="Aogonek" horiz-adv-x="1353" unicode="Ą"/><glyph d="M1069 -328l-8 -75q-29 -12 -74 -13q-74 0 -115 40t-41 106q0 59 32 128.5t89 137.5q-57 4 -87.5 41t-41.5 110q-70 -82 -167 -127t-214 -45q-147 0 -243.5 75t-96.5 220q0 166 125 241t314 75q111 0 282 -29v176q0 133 -80.5 195.5t-205.5 62.5q-164 0 -308 -112l-59 79 q82 68 174 104t211 36q188 0 287.5 -93.5t99.5 -281.5v-551q0 -43 16.5 -66.5t57.5 -23.5q29 0 49 4l-12 -80q-109 -137 -109 -250q0 -88 76 -88q29 0 49 4zM664.5 133q97.5 51 158.5 133v185q-166 27 -284 26q-135 0 -224.5 -48t-89.5 -157q0 -98 71 -144t167 -46 q104 0 201.5 51z" glyph-name="aogonek" horiz-adv-x="1126" unicode="ą"/><glyph d="M762 1569h-113l156 225h180zM1229 1331l-66 -90q-168 109 -393 109q-145 0 -264 -69t-189.5 -212t-70.5 -358t69.5 -354.5t186 -205t264.5 -65.5q133 0 236.5 35t191.5 108l70 -88q-94 -80 -218 -123t-270 -43q-186 0 -332.5 78t-233.5 245t-87 423q0 248 88 413.5 t236.5 244.5t332.5 79q275 0 449 -127z" glyph-name="Cacute" horiz-adv-x="1325" unicode="Ć"/><glyph d="M604 1208h-110l155 226h180zM993 967l-69 -84q-74 55 -139.5 81.5t-168.5 26.5q-174 0 -282.5 -116.5t-108.5 -331.5q0 -143 53.5 -248t143.5 -159t201 -54q100 0 178 32.5t147 88.5l68 -80q-63 -59 -163.5 -103.5t-231.5 -44.5q-147 0 -265 65.5t-186 195t-68 307.5 q0 174 70 300t187.5 190.5t254.5 64.5q227 0 379 -131z" glyph-name="cacute" horiz-adv-x="1087" unicode="ć"/><glyph d="M824.5 1773.5q25.5 -22.5 25.5 -69.5t-25.5 -70.5t-64.5 -23.5q-37 0 -63.5 24.5t-26.5 69.5t26.5 68.5t63.5 23.5q39 0 64.5 -22.5zM1229 1331l-66 -90q-168 109 -393 109q-145 0 -264 -69t-189.5 -212t-70.5 -358t69.5 -354.5t186 -205t264.5 -65.5q133 0 236.5 35 t191.5 108l70 -88q-94 -80 -218 -123t-270 -43q-186 0 -332.5 78t-233.5 245t-87 423q0 248 88 413.5t236.5 244.5t332.5 79q275 0 449 -127z" glyph-name="Cdotaccent" horiz-adv-x="1325" unicode="Ċ"/><glyph d="M666.5 1413.5q25.5 -22.5 25.5 -70.5q0 -47 -25.5 -70.5t-64.5 -23.5q-37 0 -63.5 24.5t-26.5 69.5t26.5 69t63.5 24q39 0 64.5 -22.5zM993 967l-69 -84q-74 55 -139.5 81.5t-168.5 26.5q-174 0 -282.5 -116.5t-108.5 -331.5q0 -143 53.5 -248t143.5 -159t201 -54 q100 0 178 32.5t147 88.5l68 -80q-63 -59 -163.5 -103.5t-231.5 -44.5q-147 0 -265 65.5t-186 195t-68 307.5q0 174 70 300t187.5 190.5t254.5 64.5q227 0 379 -131z" glyph-name="cdotaccent" horiz-adv-x="1087" unicode="ċ"/><glyph d="M1006 1794l-207 -207h-88l-219 207h139l125 -121l125 121h125zM1229 1331l-66 -90q-168 109 -393 109q-145 0 -264 -69t-189.5 -212t-70.5 -358t69.5 -354.5t186 -205t264.5 -65.5q133 0 236.5 35t191.5 108l70 -88q-94 -80 -218 -123t-270 -43q-186 0 -332.5 78 t-233.5 245t-87 423q0 248 88 413.5t236.5 244.5t332.5 79q275 0 449 -127z" glyph-name="Ccaron" horiz-adv-x="1325" unicode="Č"/><glyph d="M848 1434l-207 -207h-88l-219 207h139l125 -123l125 123h125zM993 967l-69 -84q-74 55 -139.5 81.5t-168.5 26.5q-174 0 -282.5 -116.5t-108.5 -331.5q0 -143 53.5 -248t143.5 -159t201 -54q100 0 178 32.5t147 88.5l68 -80q-63 -59 -163.5 -103.5t-231.5 -44.5 q-147 0 -265 65.5t-186 195t-68 307.5q0 174 70 300t187.5 190.5t254.5 64.5q227 0 379 -131z" glyph-name="ccaron" horiz-adv-x="1087" unicode="č"/><glyph d="M889 1794l-207 -207h-88l-219 207h139l125 -121l125 121h125zM1087.5 1263q188.5 -171 188.5 -534q0 -246 -90 -409.5t-244 -241.5t-344 -78h-393v1434h393q301 0 489.5 -171zM326 1327v-1212h243q586 0 586 614q0 307 -146.5 452.5t-439.5 145.5h-243z" glyph-name="Dcaron" horiz-adv-x="1400" unicode="Ď"/><glyph d="M1188 1245h-72l14 295h127zM347.5 32.5q-107.5 57.5 -176.5 182.5t-69 320q0 180 64.5 307t171 191.5t229.5 64.5q217 0 336 -123v565h119v-1540h-82l-25 127h-6q-59 -63 -147 -107.5t-184 -44.5q-123 0 -230.5 57.5zM763 127q81 45 140 121v600q-70 74 -147.5 108.5 t-169.5 34.5q-94 0 -176 -48t-133.5 -151.5t-51.5 -256.5q0 -150 51.5 -252.5t133.5 -151.5t174 -49q98 0 179 45z" glyph-name="dcaron" horiz-adv-x="1208" unicode="ď"/><glyph d="M1087.5 1263q188.5 -171 188.5 -534q0 -246 -90 -409.5t-244 -241.5t-344 -78h-393v686h-156v109h156v639h393q301 0 489.5 -171zM1155 729q0 307 -146.5 452.5t-439.5 145.5h-243v-532h325v-109h-325v-571h243q586 0 586 614z" glyph-name="Dcroat" horiz-adv-x="1400" unicode="Đ"/><glyph d="M1139 1286h-117v-1286h-82l-25 127h-6q-59 -63 -147 -107.5t-184 -44.5q-123 0 -230.5 57.5t-176.5 182.5t-69 320q0 180 64.5 307t171 191.5t229.5 64.5q217 0 336 -123v311h-235v90h235v164h119v-164h117v-90zM903 848q-70 74 -147.5 108.5t-169.5 34.5q-94 0 -176 -48 t-133.5 -151.5t-51.5 -256.5q0 -150 51.5 -252.5t133.5 -151.5t174 -49q98 0 179 45t140 121v600z" glyph-name="dcroat" horiz-adv-x="1208" unicode="đ"/><glyph d="M872 1642h-432v91h432v-91zM1085 1327h-759v-536h678v-109h-678v-567h759v-115h-880v1434h880v-107z" glyph-name="Emacron" horiz-adv-x="1187" unicode="Ē"/><glyph d="M831 1282h-452v90h452v-90zM1051 498h-826q14 -211 114.5 -313.5t276.5 -102.5q205 0 353 127l71 -76q-86 -76 -190.5 -117t-253.5 -41q-133 0 -245.5 61.5t-180.5 186.5t-68 307q0 180 62.5 308.5t175.5 194t260 65.5t250.5 -67.5t155 -180.5t51.5 -248q0 -57 -6 -104z M335.5 887.5q-104.5 -103.5 -112.5 -283.5h725q-8 176 -95 281.5t-249 105.5q-164 0 -268.5 -103.5z" glyph-name="emacron" horiz-adv-x="1159" unicode="ē"/><glyph d="M830.5 1629.5q-76.5 -60.5 -175.5 -60.5q-100 0 -176 60.5t-92 164.5h94q14 -68 61.5 -103.5t112.5 -35.5q66 0 111 35.5t59 103.5h101q-19 -104 -95.5 -164.5zM1085 1327h-759v-536h678v-109h-678v-567h759v-115h-880v1434h880v-107z" glyph-name="Ebreve" horiz-adv-x="1187" unicode="Ĕ"/><glyph d="M779 1274.5q-77 -60.5 -175 -60.5q-100 0 -176 60.5t-92 165.5h94q12 -68 60.5 -102.5t113.5 -34.5q66 0 111 34.5t59 102.5h100q-18 -105 -95 -165.5zM1051 498h-826q14 -211 114.5 -313.5t276.5 -102.5q205 0 353 127l71 -76q-86 -76 -190.5 -117t-253.5 -41 q-133 0 -245.5 61.5t-180.5 186.5t-68 307q0 180 62.5 308.5t175.5 194t260 65.5t250.5 -67.5t155 -180.5t51.5 -248q0 -57 -6 -104zM335.5 887.5q-104.5 -103.5 -112.5 -283.5h725q-8 176 -95 281.5t-249 105.5q-164 0 -268.5 -103.5z" glyph-name="ebreve" horiz-adv-x="1159" unicode="ĕ"/><glyph d="M722 1773.5q26 -22.5 26 -69.5t-26 -70.5t-65 -23.5q-37 0 -63.5 24.5t-26.5 69.5t27 68.5t63 23.5q39 0 65 -22.5zM1085 1327h-759v-536h678v-109h-678v-567h759v-115h-880v1434h880v-107z" glyph-name="Edotaccent" horiz-adv-x="1187" unicode="Ė"/><glyph d="M668.5 1413.5q25.5 -22.5 25.5 -70.5q0 -47 -25.5 -70.5t-64.5 -23.5q-37 0 -63.5 24.5t-26.5 69.5t26.5 69t63.5 24q39 0 64.5 -22.5zM1051 498h-826q14 -211 114.5 -313.5t276.5 -102.5q205 0 353 127l71 -76q-86 -76 -190.5 -117t-253.5 -41q-133 0 -245.5 61.5 t-180.5 186.5t-68 307q0 180 62.5 308.5t175.5 194t260 65.5t250.5 -67.5t155 -180.5t51.5 -248q0 -57 -6 -104zM335.5 887.5q-104.5 -103.5 -112.5 -283.5h725q-8 176 -95 281.5t-249 105.5q-164 0 -268.5 -103.5z" glyph-name="edotaccent" horiz-adv-x="1159" unicode="ė"/><glyph d="M1090 -334l-9 -76q-29 -12 -73 -12q-74 0 -115 40t-41 106q0 63 38 134.5t103 141.5h-788v1434h880v-107h-759v-536h678v-109h-678v-567h759v-115q-121 -137 -120 -250q0 -88 75 -88q30 0 50 4z" glyph-name="Eogonek" horiz-adv-x="1187" unicode="Ę"/><glyph d="M1051 498h-826q14 -211 114.5 -313.5t276.5 -102.5q205 0 353 127l71 -76q-131 -117 -299 -145q-100 -133 -100 -238q0 -88 76 -88q29 0 49 4l-8 -76q-25 -12 -72 -12q-74 0 -115 40t-41 106q0 57 30 123.5t81 129.5q-14 -2 -45 -2q-133 0 -245.5 61.5t-180.5 186.5 t-68 307q0 180 62.5 308.5t175.5 194t260 65.5t250.5 -67.5t155 -180.5t51.5 -248q0 -57 -6 -104zM335.5 887.5q-104.5 -103.5 -112.5 -283.5h725q-8 176 -95 281.5t-249 105.5q-164 0 -268.5 -103.5z" glyph-name="eogonek" horiz-adv-x="1159" unicode="ę"/><glyph d="M905 1794l-207 -207h-88l-219 207h139l125 -121l125 121h125zM1085 1327h-759v-536h678v-109h-678v-567h759v-115h-880v1434h880v-107z" glyph-name="Ecaron" horiz-adv-x="1187" unicode="Ě"/><glyph d="M852 1434l-207 -207h-88l-219 207h139l125 -123l125 123h125zM1051 498h-826q14 -211 114.5 -313.5t276.5 -102.5q205 0 353 127l71 -76q-86 -76 -190.5 -117t-253.5 -41q-133 0 -245.5 61.5t-180.5 186.5t-68 307q0 180 62.5 308.5t175.5 194t260 65.5t250.5 -67.5 t155 -180.5t51.5 -248q0 -57 -6 -104zM335.5 887.5q-104.5 -103.5 -112.5 -283.5h725q-8 176 -95 281.5t-249 105.5q-164 0 -268.5 -103.5z" glyph-name="ecaron" horiz-adv-x="1159" unicode="ě"/><glyph d="M959.5 1629.5q-76.5 -60.5 -175.5 -60.5q-100 0 -176 60.5t-92 164.5h94q14 -68 61.5 -103.5t112.5 -35.5q66 0 111 35.5t59 103.5h101q-19 -104 -95.5 -164.5zM1068 1407q116 -51 202 -127l-76 -84q-88 74 -195.5 114t-228.5 40q-244 0 -384 -161t-140 -466 q0 -207 65.5 -349.5t184 -215t274.5 -72.5q141 0 248.5 53.5t163.5 126.5v398h-471v108h592v-553q-84 -111 -224.5 -177.5t-312.5 -66.5q-182 0 -327.5 80t-230.5 247t-85 415q0 242 82 407.5t231.5 249.5t347.5 84q168 0 284 -51z" glyph-name="Gbreve" horiz-adv-x="1445" unicode="Ğ"/><glyph d="M777 1274.5q-77 -60.5 -175 -60.5q-100 0 -176 60.5t-92 165.5h94q12 -68 60.5 -102.5t113.5 -34.5q66 0 111 34.5t59 102.5h100q-18 -105 -95 -165.5zM800 1067q81 -31 136 -80h6l43 86h66v-1059q0 -227 -122 -339.5t-333 -112.5q-123 0 -226.5 35.5t-176.5 93.5l59 92 q141 -109 330 -109q156 0 253 73t97 224v195q-145 -137 -344 -137q-137 0 -247 59t-174.5 177t-64.5 284q0 180 75 304t193.5 184.5t252.5 60.5q96 0 177 -31zM429 943q-91 -48 -145.5 -146.5t-54.5 -241.5q0 -201 101.5 -310.5t265.5 -109.5q94 0 180 40t156 122v563 q-45 55 -121 93t-178 38q-113 0 -204 -48z" glyph-name="gbreve" horiz-adv-x="1214" unicode="ğ"/><glyph d="M851 1773.5q26 -22.5 26 -69.5t-26 -70.5t-65 -23.5q-37 0 -63.5 24.5t-26.5 69.5t27 68.5t63 23.5q39 0 65 -22.5zM1068 1407q116 -51 202 -127l-76 -84q-88 74 -195.5 114t-228.5 40q-244 0 -384 -161t-140 -466q0 -207 65.5 -349.5t184 -215t274.5 -72.5 q141 0 248.5 53.5t163.5 126.5v398h-471v108h592v-553q-84 -111 -224.5 -177.5t-312.5 -66.5q-182 0 -327.5 80t-230.5 247t-85 415q0 242 82 407.5t231.5 249.5t347.5 84q168 0 284 -51z" glyph-name="Gdotaccent" horiz-adv-x="1445" unicode="Ġ"/><glyph d="M666.5 1413.5q25.5 -22.5 25.5 -70.5q0 -47 -25.5 -70.5t-64.5 -23.5q-37 0 -63.5 24.5t-26.5 69.5t26.5 69t63.5 24q39 0 64.5 -22.5zM800 1067q81 -31 136 -80h6l43 86h66v-1059q0 -227 -122 -339.5t-333 -112.5q-123 0 -226.5 35.5t-176.5 93.5l59 92 q141 -109 330 -109q156 0 253 73t97 224v195q-145 -137 -344 -137q-137 0 -247 59t-174.5 177t-64.5 284q0 180 75 304t193.5 184.5t252.5 60.5q96 0 177 -31zM429 943q-91 -48 -145.5 -146.5t-54.5 -241.5q0 -201 101.5 -310.5t265.5 -109.5q94 0 180 40t156 122v563 q-45 55 -121 93t-178 38q-113 0 -204 -48z" glyph-name="gdotaccent" horiz-adv-x="1214" unicode="ġ"/><glyph d="M797 -403h-72l14 294h129zM1068 1407q116 -51 202 -127l-76 -84q-88 74 -195.5 114t-228.5 40q-244 0 -384 -161t-140 -466q0 -207 65.5 -349.5t184 -215t274.5 -72.5q141 0 248.5 53.5t163.5 126.5v398h-471v108h592v-553q-84 -111 -224.5 -177.5t-312.5 -66.5 q-182 0 -327.5 80t-230.5 247t-85 415q0 242 82 407.5t231.5 249.5t347.5 84q168 0 284 -51z" glyph-name="Gcommaaccent" horiz-adv-x="1445" unicode="Ģ"/><glyph d="M610 1477h72l-14 -295h-129zM800 1067q81 -31 136 -80h6l43 86h66v-1059q0 -227 -122 -339.5t-333 -112.5q-123 0 -226.5 35.5t-176.5 93.5l59 92q141 -109 330 -109q156 0 253 73t97 224v195q-145 -137 -344 -137q-137 0 -247 59t-174.5 177t-64.5 284q0 180 75 304 t193.5 184.5t252.5 60.5q96 0 177 -31zM429 943q-91 -48 -145.5 -146.5t-54.5 -241.5q0 -201 101.5 -310.5t265.5 -109.5q94 0 180 40t156 122v563q-45 55 -121 93t-178 38q-113 0 -204 -48z" glyph-name="gcommaaccent" horiz-adv-x="1214" unicode="ģ"/><glyph d="M1411 1090h-129v-1090h-121v676h-835v-676h-121v1090h-129v102h129v242h121v-242h835v242h121v-242h129v-102zM1161 1090h-835v-306h835v306z" glyph-name="Hbar" horiz-adv-x="1488" unicode="Ħ"/><glyph d="M840 1058q84 -40 134 -119t50 -191v-748h-119v717q0 150 -77.5 212t-198.5 62q-188 0 -326 -217v-774h-119v1286h-104v90h104v164h117v-164h250v-90h-250v-371q82 96 166 139.5t192 43.5q97 0 181 -40z" glyph-name="hbar" horiz-adv-x="1189" unicode="ħ"/><glyph d="M555 1749q-74 -160 -176 -160q-31 0 -56.5 14.5t-62.5 41.5q-33 25 -55.5 37t-48.5 12q-33 0 -58.5 -23.5t-46.5 -68.5l-74 34q31 84 80 124t103 40q37 0 65.5 -15.5t67.5 -45.5q31 -25 50 -36t42 -11q33 0 53.5 24.5t31.5 48t15 29.5zM326 0h-121v1434h121v-1434z" glyph-name="Itilde" horiz-adv-x="532" unicode="Ĩ"/><glyph d="M522 1389q-74 -160 -176 -160q-31 0 -56.5 14t-62.5 41q-33 25 -55 37t-49 12q-33 0 -58.5 -23.5t-46.5 -68.5l-73 35q31 84 80 124t102 40q37 0 65.5 -15.5t67.5 -46.5q31 -25 50.5 -36t41.5 -11q33 0 53.5 24.5t32 48t15.5 30.5zM303 0h-119v1073h119v-1073z" glyph-name="itilde" horiz-adv-x="489" unicode="ĩ"/><glyph d="M481 1642h-432v91h432v-91zM326 0h-121v1434h121v-1434z" glyph-name="Imacron" horiz-adv-x="532" unicode="Ī"/><glyph d="M469 1282h-453v90h453v-90zM303 0h-119v1073h119v-1073z" glyph-name="imacron" horiz-adv-x="489" unicode="ī"/><glyph d="M330 -334l-8 -76q-29 -12 -72 -12q-74 0 -115 40t-41 106q0 63 37 134.5t102 141.5h-28v1434h121v-1434q-121 -137 -121 -250q0 -88 76 -88q29 0 49 4z" glyph-name="Iogonek" horiz-adv-x="532" unicode="Į"/><glyph d="M180.5 1273.5q-26.5 24.5 -26.5 69.5t26.5 69t63.5 24q39 0 64.5 -22.5t25.5 -70.5q0 -47 -25.5 -70.5t-64.5 -23.5q-37 0 -63.5 24.5zM270 -338q29 0 49 4l-8 -76q-29 -12 -71 -12q-74 0 -115 40t-41 106q0 63 35 134.5t94 141.5h-29v1073h119v-1073 q-109 -137 -108 -250q-1 -88 75 -88z" glyph-name="iogonek" horiz-adv-x="489" unicode="į"/><glyph d="M332.5 1773.5q25.5 -22.5 25.5 -69.5t-25.5 -70.5t-64.5 -23.5q-37 0 -63.5 24.5t-26.5 69.5t26.5 68.5t63.5 23.5q39 0 64.5 -22.5zM326 0h-121v1434h121v-1434z" glyph-name="Idotaccent" horiz-adv-x="532" unicode="İ"/><glyph d="M303 0h-119v1073h119v-1073z" glyph-name="dotlessi" horiz-adv-x="489" unicode="ı"/><glyph d="M551 -12l12 116q84 -12 152 -12q176 0 264 87t88 276v979h121v-969q0 -281 -131 -385.5t-361 -104.5q-84 1 -145 13zM326 0h-121v1434h121v-1434z" glyph-name="IJ" horiz-adv-x="1392" unicode="Ĳ"/><glyph d="M356 -403l21 102q47 -14 100 -14q109 0 162 50t53 169v1169h119v-1214q0 -145 -89 -213t-230 -68q-83 1 -136 19zM816.5 1413.5q25.5 -22.5 25.5 -70.5q0 -47 -25.5 -70.5t-64.5 -23.5q-37 0 -63.5 24.5t-26.5 69.5t26.5 69t63.5 24q39 0 64.5 -22.5zM303 0h-119v1073 h119v-1073zM310.5 1413.5q25.5 -22.5 25.5 -70.5q0 -47 -25.5 -70.5t-64.5 -23.5q-37 0 -63.5 24.5t-26.5 69.5t26.5 69t63.5 24q39 0 64.5 -22.5z" glyph-name="ij" horiz-adv-x="997" unicode="ĳ"/><glyph d="M672 -403h-72l14 294h129zM1051 0l-613 668l-112 -119v-549h-121v1434h121v-740l690 740h149l-643 -678l692 -756h-163z" glyph-name="Kcommaaccent" horiz-adv-x="1234" unicode="Ķ"/><glyph d="M518 -403h-72l15 294h129zM870 0l-415 526l-152 -166v-360h-119v1540h119v-1038l510 571h141l-417 -457l491 -616h-158z" glyph-name="kcommaaccent" horiz-adv-x="1048" unicode="ķ"/><glyph d="M262 1569h-112l155 225h180zM205 1434h121v-1328h708v-106h-829v1434z" glyph-name="Lacute" horiz-adv-x="1075" unicode="Ĺ"/><glyph d="M236 1675h-113l156 226h180zM303 0h-119v1540h119v-1540z" glyph-name="lacute" horiz-adv-x="489" unicode="ĺ"/><glyph d="M547 -403h-72l14 294h129zM205 1434h121v-1328h708v-106h-829v1434z" glyph-name="Lcommaaccent" horiz-adv-x="1075" unicode="Ļ"/><glyph d="M238 -403h-72l14 294h129zM303 0h-119v1540h119v-1540z" glyph-name="lcommaaccent" horiz-adv-x="489" unicode="ļ"/><glyph d="M543 1245h-72l14 295h127zM205 1434h121v-1328h708v-106h-829v1434z" glyph-name="Lcaron" horiz-adv-x="1075" unicode="Ľ"/><glyph d="M469 1245h-72l15 295h127zM303 0h-119v1540h119v-1540z" glyph-name="lcaron" horiz-adv-x="489" unicode="ľ"/><glyph d="M909 847q35 -30 35 -89q0 -63 -35 -95t-86 -32t-87 31.5t-36 95.5q0 59 36 89t87 30t86 -30zM205 1434h121v-1328h708v-106h-829v1434z" glyph-name="Ldot" horiz-adv-x="1075" unicode="Ŀ"/><glyph d="M466 687.5q-28 25.5 -28 74.5t28 72.5t69 23.5t68.5 -23.5t27.5 -72.5t-28 -74.5t-68 -25.5q-41 0 -69 25.5zM303 0h-119v1540h119v-1540z" glyph-name="ldot" horiz-adv-x="579" unicode="ŀ"/><glyph d="M1053 106v-106h-828v674l-194 -88v108l194 82v658h121v-596l289 125v-103l-289 -125v-629h707z" glyph-name="Lslash" horiz-adv-x="1093" unicode="Ł"/><glyph d="M494 948l-191 -106v-842h-119v776l-170 -94v113l170 94v651h119v-586l191 105v-111z" glyph-name="lslash" horiz-adv-x="487" unicode="ł"/><glyph d="M756 1569h-113l156 225h180zM1325 1434v-1434h-104l-895 1221v-1221h-121v1434h108l891 -1217v1217h121z" glyph-name="Nacute" horiz-adv-x="1529" unicode="Ń"/><glyph d="M600 1208h-111l156 226h180zM184 1073h88l19 -168h2q80 94 166 143.5t217 49.5q166 0 257 -89t91 -261v-748h-119v717q0 152 -60.5 213t-174.5 61q-115 0 -206 -53t-165 -168v-770h-115v1073z" glyph-name="nacute" horiz-adv-x="1189" unicode="ń"/><glyph d="M752 -403h-72l14 294h129zM1325 1434v-1434h-104l-895 1221v-1221h-121v1434h108l891 -1217v1217h121z" glyph-name="Ncommaaccent" horiz-adv-x="1529" unicode="Ņ"/><glyph d="M590 -403h-72l14 294h130zM184 1073h88l19 -168h2q80 94 166 143.5t217 49.5q166 0 257 -89t91 -261v-748h-119v717q0 152 -60.5 213t-174.5 61q-115 0 -206 -53t-165 -168v-770h-115v1073z" glyph-name="ncommaaccent" horiz-adv-x="1189" unicode="ņ"/><glyph d="M1001 1794l-206 -207h-88l-220 207h140l125 -121l125 121h124zM1325 1434v-1434h-104l-895 1221v-1221h-121v1434h108l891 -1217v1217h121z" glyph-name="Ncaron" horiz-adv-x="1529" unicode="Ň"/><glyph d="M846 1434l-207 -207h-88l-219 207h139l125 -123l125 123h125zM184 1073h88l19 -168h2q80 94 166 143.5t217 49.5q166 0 257 -89t91 -261v-748h-119v717q0 152 -60.5 213t-174.5 61q-115 0 -206 -53t-165 -168v-770h-115v1073z" glyph-name="ncaron" horiz-adv-x="1189" unicode="ň"/><glyph d="M1325 1434v-1516q0 -172 -98.5 -255t-311.5 -83q-88 0 -131 14l7 103q61 -10 124 -10q150 0 220.5 58t70.5 181v94l-880 1201v-1221h-121v1434h108l891 -1217v1217h121z" glyph-name="Eng" horiz-adv-x="1529" unicode="Ŋ"/><glyph d="M184 1073h88l19 -168h2q76 92 165 142.5t210 50.5q174 0 265 -88t91 -262v-889q0 -145 -88 -213t-231 -68q-80 0 -148 19l33 102q43 -14 100 -14q109 0 162 50t53 169v813q0 152 -60.5 213t-176.5 61q-115 0 -205 -53t-164 -168v-770h-115v1073z" glyph-name="eng" horiz-adv-x="1189" unicode="ŋ"/><glyph d="M1012 1642h-432v91h432v-91zM1121.5 1378q152.5 -80 247.5 -245.5t95 -411.5t-95 -414t-248.5 -250t-325.5 -82t-326 82t-250 250t-96 414t96 411.5t249 245.5t327 80t326.5 -80zM518 1280q-125 -70 -198.5 -211t-73.5 -346q0 -201 72.5 -346.5t195.5 -219t272 -73.5 q152 0 278 72.5t201.5 217t75.5 349.5q0 203 -74.5 344t-198.5 212t-273 71q-152 0 -277 -70z" glyph-name="Omacron" horiz-adv-x="1587" unicode="Ō"/><glyph d="M840 1282h-453v90h453v-90zM867.5 1037.5q115.5 -60.5 185 -186.5t69.5 -314t-69.5 -314.5t-185 -187t-255.5 -60.5q-139 0 -254.5 60.5t-185.5 186.5t-70 315q0 188 70 314t185.5 186.5t254.5 60.5q140 0 255.5 -60.5zM330.5 869.5q-105.5 -121.5 -105.5 -332.5 t105.5 -333t281.5 -122t281.5 123t105.5 332t-105.5 331.5t-281.5 122.5t-281.5 -121.5z" glyph-name="omacron" horiz-adv-x="1224" unicode="ō"/><glyph d="M647 1794h164l-109 -223h-90zM946 1794h164l-190 -223h-91zM1121.5 1378q152.5 -80 247.5 -245.5t95 -411.5t-95 -414t-248.5 -250t-325.5 -82t-326 82t-250 250t-96 414t96 411.5t249 245.5t327 80t326.5 -80zM518 1280q-125 -70 -198.5 -211t-73.5 -346 q0 -201 72.5 -346.5t195.5 -219t272 -73.5q152 0 278 72.5t201.5 217t75.5 349.5q0 203 -74.5 344t-198.5 212t-273 71q-152 0 -277 -70z" glyph-name="Ohungarumlaut" horiz-adv-x="1587" unicode="Ő"/><glyph d="M465 1434h164l-109 -224h-90zM764 1434h164l-191 -224h-90zM867.5 1037.5q115.5 -60.5 185 -186.5t69.5 -314t-69.5 -314.5t-185 -187t-255.5 -60.5q-139 0 -254.5 60.5t-185.5 186.5t-70 315q0 188 70 314t185.5 186.5t254.5 60.5q140 0 255.5 -60.5zM330.5 869.5 q-105.5 -121.5 -105.5 -332.5t105.5 -333t281.5 -122t281.5 123t105.5 332t-105.5 331.5t-281.5 122.5t-281.5 -121.5z" glyph-name="ohungarumlaut" horiz-adv-x="1224" unicode="ő"/><glyph d="M1622 1333h-627v-549h543v-104h-543v-580h627v-100h-795q-211 0 -369.5 83t-246.5 244.5t-88 389.5q0 227 88 389t249 245t376 83h786v-101zM823 1333q-178 0 -308 -77.5t-197.5 -217t-67.5 -321.5t67.5 -321.5t196.5 -217.5t309 -78h54v1233h-54z" glyph-name="OE" horiz-adv-x="1724" unicode="Œ"/><glyph d="M1108 494q-2 -88 32 -182.5t117.5 -162t227.5 -67.5q197 0 340 135l69 -84q-174 -158 -405 -158q-156 0 -276.5 71t-178.5 214q-47 -139 -173 -212t-269 -73q-135 0 -247 65.5t-177.5 192.5t-65.5 304q0 176 67 303t178.5 192.5t246.5 65.5q141 0 264 -74t176 -219 q45 147 162 220t262 73q152 0 257.5 -73t157.5 -186.5t52 -238.5q0 -70 -4 -106h-813zM871.5 203q99.5 121 99.5 334q0 211 -99.5 332.5t-271.5 121.5t-275.5 -120.5t-103.5 -333.5q0 -211 102.5 -333t276.5 -122q172 0 271.5 121zM1208 887.5q-92 -103.5 -100 -287.5h690 q-4 178 -97 284.5t-249 106.5q-152 0 -244 -103.5z" glyph-name="oe" horiz-adv-x="2027" unicode="œ"/><glyph d="M643 1569h-113l156 225h180zM1077 0l-356 584h-35h-360v-584h-121v1434h465q256 0 366.5 -112t110.5 -290q0 -156 -74 -272.5t-227 -157.5l366 -602h-135zM705 692q152 0 233.5 91t81.5 231q0 156 -86 234.5t-285 78.5h-323v-635h379z" glyph-name="Racute" horiz-adv-x="1273" unicode="Ŕ"/><glyph d="M408 1208h-111l156 226h180zM184 1073h90l23 -158h6q35 90 104.5 136.5t161.5 46.5q72 0 105 -23l-21 -108q-53 14 -108 14q-168 0 -246 -231v-750h-115v1073z" glyph-name="racute" horiz-adv-x="714" unicode="ŕ"/><glyph d="M639 -403h-72l15 294h129zM1077 0l-356 584h-35h-360v-584h-121v1434h465q256 0 366.5 -112t110.5 -290q0 -156 -74 -272.5t-227 -157.5l366 -602h-135zM705 692q152 0 233.5 91t81.5 231q0 156 -86 234.5t-285 78.5h-323v-635h379z" glyph-name="Rcommaaccent" horiz-adv-x="1273" unicode="Ŗ"/><glyph d="M246 -403h-72l14 294h129zM184 1073h90l23 -158h6q35 90 104.5 136.5t161.5 46.5q72 0 105 -23l-21 -108q-53 14 -108 14q-168 0 -246 -231v-750h-115v1073z" glyph-name="rcommaaccent" horiz-adv-x="714" unicode="ŗ"/><glyph d="M889 1794l-207 -207h-88l-219 207h139l125 -121l125 121h125zM1077 0l-356 584h-35h-360v-584h-121v1434h465q256 0 366.5 -112t110.5 -290q0 -156 -74 -272.5t-227 -157.5l366 -602h-135zM705 692q152 0 233.5 91t81.5 231q0 156 -86 234.5t-285 78.5h-323v-635h379z " glyph-name="Rcaron" horiz-adv-x="1273" unicode="Ř"/><glyph d="M653 1434l-207 -207h-88l-219 207h140l124 -123l125 123h125zM184 1073h90l23 -158h6q35 90 104.5 136.5t161.5 46.5q72 0 105 -23l-21 -108q-53 14 -108 14q-168 0 -246 -231v-750h-115v1073z" glyph-name="rcaron" horiz-adv-x="714" unicode="ř"/><glyph d="M565 1569h-112l155 225h180zM842.5 1422q97.5 -36 189.5 -93l-55 -94q-178 119 -367 119q-162 0 -255 -70t-93 -192q0 -76 49 -130.5t119 -90t199 -91.5q154 -68 235.5 -111.5t142 -116.5t60.5 -177q0 -117 -57.5 -207t-167 -141.5t-260.5 -51.5q-125 0 -257 36t-233 100 l51 98q94 -55 210 -87t220 -32q190 0 280.5 74t90.5 196q0 80 -49 135.5t-118.5 91.5t-198.5 87q-145 61 -230.5 107t-147 124t-61.5 193q0 102 56.5 184t162 129t248.5 47q139 0 236.5 -36z" glyph-name="Sacute" horiz-adv-x="1155" unicode="Ś"/><glyph d="M492 1208h-111l156 226h180zM683 1071q87 -27 148 -67l-51 -97q-59 37 -133 60.5t-149 23.5q-109 0 -176.5 -51t-67.5 -129q0 -55 35 -91t86 -59.5t141 -52.5q111 -35 180.5 -67.5t117.5 -93t48 -154.5q0 -141 -106.5 -229.5t-290.5 -88.5q-106 0 -200.5 31t-166.5 88 l52 103q59 -53 140 -84t171 -31q127 0 202.5 58.5t75.5 144.5q0 59 -35.5 99t-89 64.5t-145.5 55.5q-109 37 -174.5 67.5t-111.5 88t-46 145.5q0 135 102.5 214t262.5 79q94 0 181 -27z" glyph-name="sacute" horiz-adv-x="960" unicode="ś"/><glyph d="M949 95.5q-118 -109.5 -328 -120.5l-70 -112q16 12 61 12q68 0 114 -37t46 -96q0 -78 -58.5 -121t-148.5 -43q-43 0 -82 12.5t-63 30.5l20 82q18 -16 52 -27.5t69 -11.5q45 0 76 18.5t31 53.5q0 31 -26 49t-60 18q-47 0 -76 -16l-47 51l78 139q-117 6 -235 41t-210 93 l51 98q94 -55 210 -87t220 -32q190 0 280.5 74t90.5 196q0 80 -49 135.5t-118.5 91.5t-198.5 87q-145 61 -230.5 107t-147 124t-61.5 193q0 102 56.5 184t162 129t248.5 47q139 0 236.5 -36t189.5 -93l-55 -94q-178 119 -367 119q-162 0 -255 -70t-93 -192q0 -76 49 -130.5 t119 -90t199 -91.5q154 -68 235.5 -111.5t142 -116.5t60.5 -177q0 -170 -118 -279.5z" glyph-name="Scedilla" horiz-adv-x="1155" unicode="Ş"/><glyph d="M781 87q-81 -85 -224 -105l-72 -119q16 12 62 12q68 0 114 -37t46 -96q0 -78 -58.5 -121t-148.5 -43q-43 0 -82 12.5t-64 30.5l21 82q18 -16 52 -27.5t69 -11.5q45 0 75.5 18.5t30.5 53.5q0 31 -25.5 49t-60.5 18q-47 0 -76 -16l-47 51l78 137h-6q-106 0 -200.5 31 t-166.5 88l52 103q59 -53 140 -84t171 -31q127 0 202.5 58.5t75.5 144.5q0 59 -35.5 99t-89 64.5t-145.5 55.5q-109 37 -174.5 67.5t-111.5 88t-46 145.5q0 135 102.5 214t262.5 79q94 0 181 -27t148 -67l-51 -97q-59 37 -133 60.5t-149 23.5q-109 0 -176.5 -51t-67.5 -129 q0 -55 35 -91t86 -59.5t141 -52.5q111 -35 180.5 -67.5t117.5 -93t48 -154.5q0 -121 -81 -206z" glyph-name="scedilla" horiz-adv-x="960" unicode="ş"/><glyph d="M809 1794l-207 -207h-88l-219 207h139l125 -121l125 121h125zM842.5 1422q97.5 -36 189.5 -93l-55 -94q-178 119 -367 119q-162 0 -255 -70t-93 -192q0 -76 49 -130.5t119 -90t199 -91.5q154 -68 235.5 -111.5t142 -116.5t60.5 -177q0 -117 -57.5 -207t-167 -141.5 t-260.5 -51.5q-125 0 -257 36t-233 100l51 98q94 -55 210 -87t220 -32q190 0 280.5 74t90.5 196q0 80 -49 135.5t-118.5 91.5t-198.5 87q-145 61 -230.5 107t-147 124t-61.5 193q0 102 56.5 184t162 129t248.5 47q139 0 236.5 -36z" glyph-name="Scaron" horiz-adv-x="1155" unicode="Š"/><glyph d="M737 1434l-207 -207h-88l-219 207h139l125 -123l125 123h125zM683 1071q87 -27 148 -67l-51 -97q-59 37 -133 60.5t-149 23.5q-109 0 -176.5 -51t-67.5 -129q0 -55 35 -91t86 -59.5t141 -52.5q111 -35 180.5 -67.5t117.5 -93t48 -154.5q0 -141 -106.5 -229.5 t-290.5 -88.5q-106 0 -200.5 31t-166.5 88l52 103q59 -53 140 -84t171 -31q127 0 202.5 58.5t75.5 144.5q0 59 -35.5 99t-89 64.5t-145.5 55.5q-109 37 -174.5 67.5t-111.5 88t-46 145.5q0 135 102.5 214t262.5 79q94 0 181 -27z" glyph-name="scaron" horiz-adv-x="960" unicode="š"/><glyph d="M641 0l-84 -137q16 12 61 12q68 0 114 -37t46 -96q0 -78 -58 -121t-149 -43q-43 0 -81.5 12.5t-63.5 30.5l20 82q18 -16 52 -27.5t69 -11.5q45 0 76 18.5t31 53.5q0 31 -25.5 49t-60.5 18q-47 0 -76 -16l-47 51l92 162h-25v1325h-491v109h1106v-109h-494v-1325h-12z" glyph-name="Tcommaaccent" horiz-adv-x="1187" unicode="Ţ"/><glyph d="M531.5 -162q46.5 -37 46.5 -96q0 -78 -58.5 -121t-148.5 -43q-41 0 -80 12.5t-64 30.5l21 82q18 -16 52 -27.5t67 -11.5q47 0 77.5 18.5t30.5 53.5q0 31 -26.5 49t-59.5 18q-49 0 -78 -16l-45 51l88 156q-104 45 -104 182v797h-189v100h189v176l65 99h54v-275h264v-100 h-264v-783q0 -57 25.5 -82.5t64.5 -25.5q63 0 143 37l37 -94q-92 -49 -180 -50q-23 0 -33 2l-70 -114q16 12 62 12q67 0 113.5 -37z" glyph-name="tcommaaccent" horiz-adv-x="712" unicode="ţ"/><glyph d="M848 1794l-207 -207h-88l-219 207h139l125 -121l125 121h125zM532 1325h-491v109h1106v-109h-494v-1325h-121v1325z" glyph-name="Tcaron" horiz-adv-x="1187" unicode="Ť"/><glyph d="M575 1245h-71l14 295h127zM304 25.5q-54 50.5 -54 150.5v797h-189v100h189v176l65 99h54v-275h264v-100h-264v-783q0 -57 25.5 -82.5t64.5 -25.5q63 0 143 37l37 -94q-92 -49 -180 -50q-101 0 -155 50.5z" glyph-name="tcaron" horiz-adv-x="712" unicode="ť"/><glyph d="M653 1325v-530h242v-109h-242v-686h-121v686h-239v109h239v530h-491v109h1106v-109h-494z" glyph-name="Tbar" horiz-adv-x="1187" unicode="Ŧ"/><glyph d="M639 25q-92 -49 -180 -50q-100 0 -154.5 50.5t-54.5 150.5v373h-141v90h141v334h-189v100h189v176l65 99h54v-275h264v-100h-264v-334h211v-90h-211v-359q0 -57 25.5 -82.5t64.5 -25.5q63 0 143 37z" glyph-name="tbar" horiz-adv-x="712" unicode="ŧ"/><glyph d="M1026 1749q-74 -160 -176 -160q-31 0 -56.5 14.5t-62.5 41.5q-33 25 -55.5 37t-48.5 12q-33 0 -58.5 -23.5t-46.5 -68.5l-73 34q31 84 80 124t102 40q37 0 65.5 -15.5t67.5 -45.5q31 -25 50.5 -36t41.5 -11q33 0 53.5 24.5t31.5 48t15 29.5zM470 31.5 q-120 56.5 -192.5 177.5t-72.5 307v918h121v-932q0 -193 108.5 -300.5t300.5 -107.5q195 0 301.5 107.5t106.5 300.5v932h121v-918q0 -186 -72 -307t-191.5 -177.5t-265.5 -56.5q-145 0 -265 56.5z" glyph-name="Utilde" horiz-adv-x="1468" unicode="Ũ"/><glyph d="M879 1389q-74 -160 -177 -160q-31 0 -56 14t-62 41q-33 25 -55.5 37t-49.5 12q-33 0 -58.5 -23.5t-45.5 -68.5l-74 35q31 84 80 124t102 40q37 0 66 -15.5t67 -46.5q31 -25 50.5 -36t42.5 -11q33 0 53 24.5t31.5 48t15.5 30.5zM1014 0h-92l-25 162h-6 q-76 -92 -166 -139.5t-209 -47.5q-145 0 -238.5 92.5t-93.5 290.5v715h119v-688q0 -162 62.5 -232.5t164.5 -70.5q111 0 193 54t172 153v784h119v-1073z" glyph-name="utilde" horiz-adv-x="1179" unicode="ũ"/><glyph d="M952 1642h-432v91h432v-91zM470 31.5q-120 56.5 -192.5 177.5t-72.5 307v918h121v-932q0 -193 108.5 -300.5t300.5 -107.5q195 0 301.5 107.5t106.5 300.5v932h121v-918q0 -186 -72 -307t-191.5 -177.5t-265.5 -56.5q-145 0 -265 56.5z" glyph-name="Umacron" horiz-adv-x="1468" unicode="Ū"/><glyph d="M827 1282h-452v90h452v-90zM1014 0h-92l-25 162h-6q-76 -92 -166 -139.5t-209 -47.5q-145 0 -238.5 92.5t-93.5 290.5v715h119v-688q0 -162 62.5 -232.5t164.5 -70.5q111 0 193 54t172 153v784h119v-1073z" glyph-name="umacron" horiz-adv-x="1179" unicode="ū"/><glyph d="M602 1540q-53 51 -53 129q0 80 52 130t136 50q82 0 134.5 -50t52.5 -130q0 -78 -52.5 -129t-134.5 -51t-135 51zM803.5 1598.5q23.5 27.5 23.5 70.5t-23.5 71.5t-66.5 28.5q-45 0 -68.5 -28.5t-23.5 -71.5t23.5 -70.5t68.5 -27.5q43 0 66.5 27.5zM470 31.5 q-120 56.5 -192.5 177.5t-72.5 307v918h121v-932q0 -193 108.5 -300.5t300.5 -107.5q195 0 301.5 107.5t106.5 300.5v932h121v-918q0 -186 -72 -307t-191.5 -177.5t-265.5 -56.5q-145 0 -265 56.5z" glyph-name="Uring" horiz-adv-x="1468" unicode="Ů"/><glyph d="M467 1220.5q-53 51.5 -53 129.5q0 80 52 130t136 50q82 0 134 -50t52 -130q0 -78 -52 -129.5t-134 -51.5t-135 51.5zM668.5 1279q23.5 28 23.5 71t-23.5 71.5t-66.5 28.5q-45 0 -68.5 -28.5t-23.5 -71.5t23.5 -71t68.5 -28q43 0 66.5 28zM1014 0h-92l-25 162h-6 q-76 -92 -166 -139.5t-209 -47.5q-145 0 -238.5 92.5t-93.5 290.5v715h119v-688q0 -162 62.5 -232.5t164.5 -70.5q111 0 193 54t172 153v784h119v-1073z" glyph-name="uring" horiz-adv-x="1179" unicode="ů"/><glyph d="M588 1794h164l-109 -223h-90zM887 1794h164l-191 -223h-90zM470 31.5q-120 56.5 -192.5 177.5t-72.5 307v918h121v-932q0 -193 108.5 -300.5t300.5 -107.5q195 0 301.5 107.5t106.5 300.5v932h121v-918q0 -186 -72 -307t-191.5 -177.5t-265.5 -56.5q-145 0 -265 56.5z " glyph-name="Uhungarumlaut" horiz-adv-x="1468" unicode="Ű"/><glyph d="M453 1434h163l-108 -224h-90zM752 1434h163l-190 -224h-90zM1014 0h-92l-25 162h-6q-76 -92 -166 -139.5t-209 -47.5q-145 0 -238.5 92.5t-93.5 290.5v715h119v-688q0 -162 62.5 -232.5t164.5 -70.5q111 0 193 54t172 153v784h119v-1073z" glyph-name="uhungarumlaut" horiz-adv-x="1179" unicode="ű"/><glyph d="M1264 1434v-918q0 -231 -110 -362t-288 -166q-111 -129 -110 -238q0 -88 75 -88q29 0 50 4l-9 -76q-29 -12 -73 -12q-74 0 -115 40t-41 106q0 57 32 123.5t87 127.5h-27q-145 0 -265 56.5t-192.5 177.5t-72.5 307v918h121v-932q0 -193 108.5 -300.5t300.5 -107.5 q195 0 301.5 107.5t106.5 300.5v932h121z" glyph-name="Uogonek" horiz-adv-x="1468" unicode="Ų"/><glyph d="M997 0q-109 -137 -108 -250q0 -88 76 -88q29 0 49 4l-8 -76q-29 -12 -74 -12q-74 0 -115 40t-41 106t39 142.5t105 147.5l-23 148h-6q-76 -92 -166 -139.5t-209 -47.5q-145 0 -238.5 92.5t-93.5 290.5v715h119v-688q0 -162 62.5 -232.5t164.5 -70.5q111 0 193 54t172 153 v784h119v-1073h-17z" glyph-name="uogonek" horiz-adv-x="1179" unicode="ų"/><glyph d="M1139 1591l-123 113l-119 -113h-139l229 217h68l217 -217h-133zM1982 1434l-436 -1434h-149l-389 1255l-387 -1255h-148l-432 1434h129l379 -1287l393 1287h145l386 -1280l382 1280h127z" glyph-name="Wcircumflex" horiz-adv-x="2023" unicode="Ŵ"/><glyph d="M901 1231l-123 112l-119 -112h-139l230 217h67l217 -217h-133zM1546 1073l-372 -1073h-99l-295 877l-301 -877h-98l-334 1073h127l262 -911l305 911h93l292 -917l306 917h114z" glyph-name="wcircumflex" horiz-adv-x="1593" unicode="ŵ"/><glyph d="M739 1591l-123 113l-118 -113h-140l230 217h67l217 -217h-133zM545 573l-504 861h145l422 -750l416 750h141l-499 -861v-573h-121v573z" glyph-name="Ycircumflex" horiz-adv-x="1206" unicode="Ŷ"/><glyph d="M682 1231l-123 112l-119 -112h-139l229 217h68l217 -217h-133zM631 -66q-66 -174 -159 -265t-228 -91q-70 0 -127 21l22 94q55 -16 107 -17q78 0 145.5 61.5t106.5 166.5l24 65l-461 1104h127l387 -971h9l352 971h119z" glyph-name="ycircumflex" horiz-adv-x="1091" unicode="ŷ"/><glyph d="M373.5 1621q-23.5 24 -23.5 67t23.5 66.5t62.5 23.5q41 0 65.5 -23.5t24.5 -66.5t-23.5 -67t-66.5 -24q-39 0 -62.5 24zM730.5 1621q-23.5 24 -23.5 67t23.5 66.5t64.5 23.5q39 0 62.5 -23.5t23.5 -66.5t-23.5 -67t-62.5 -24q-41 0 -64.5 24zM545 573l-504 861h145 l422 -750l416 750h141l-499 -861v-573h-121v573z" glyph-name="Ydieresis" horiz-adv-x="1206" unicode="Ÿ"/><glyph d="M627 1569h-113l156 225h180zM1165 109v-109h-1063v111l887 1214h-837v109h972v-101l-884 -1224h925z" glyph-name="Zacute" horiz-adv-x="1267" unicode="Ź"/><glyph d="M504 1208h-111l156 226h180zM856 967l-643 -863h661v-104h-792v96l631 869h-609v108h752v-106z" glyph-name="zacute" horiz-adv-x="956" unicode="ź"/><glyph d="M689.5 1773.5q25.5 -22.5 25.5 -69.5t-25.5 -70.5t-64.5 -23.5q-37 0 -63.5 24.5t-26.5 69.5t26.5 68.5t63.5 23.5q39 0 64.5 -22.5zM1165 109v-109h-1063v111l887 1214h-837v109h972v-101l-884 -1224h925z" glyph-name="Zdotaccent" horiz-adv-x="1267" unicode="Ż"/><glyph d="M566.5 1413.5q25.5 -22.5 25.5 -70.5q0 -47 -25.5 -70.5t-64.5 -23.5q-37 0 -63.5 24.5t-26.5 69.5t26.5 69t63.5 24q39 0 64.5 -22.5zM856 967l-643 -863h661v-104h-792v96l631 869h-609v108h752v-106z" glyph-name="zdotaccent" horiz-adv-x="956" unicode="ż"/><glyph d="M872 1794l-206 -207h-88l-220 207h140l125 -121l125 121h124zM1165 109v-109h-1063v111l887 1214h-837v109h972v-101l-884 -1224h925z" glyph-name="Zcaron" horiz-adv-x="1267" unicode="Ž"/><glyph d="M750 1434l-207 -207h-88l-219 207h139l125 -123l125 123h125zM856 967l-643 -863h661v-104h-792v96l631 869h-609v108h752v-106z" glyph-name="zcaron" horiz-adv-x="956" unicode="ž"/><glyph d="M1140 1266.5q163 -191.5 163 -541.5q0 -252 -81 -420t-220.5 -249t-317.5 -81q-174 0 -301 86t-193.5 239t-66.5 345q0 59 6 121h1053q-8 279 -140.5 431.5t-363.5 152.5q-113 0 -240 -51.5t-235 -149.5l-58 84q111 113 255.5 169t279.5 56q297 0 460 -191.5zM1032 228.5 q131 144.5 148 426.5h-932l-2 -47q0 -147 53 -267t153.5 -188.5t237.5 -68.5q211 0 342 144.5z" glyph-name="uni018F" horiz-adv-x="1427" unicode="Ə"/><glyph d="M23 -211l24 102q53 -14 113 -14q61 0 95 41t34 123v940h-178v92h178v211q0 145 83 213t222 68q59 0 123 -19l-23 -102q-39 14 -104 14q-82 0 -131 -42t-49 -122v-221h288v-92h-288v-930q0 -147 -67 -213.5t-177 -66.5q-69 0 -143 18z" glyph-name="florin" horiz-adv-x="774" unicode="ƒ"/><glyph d="M1390.5 1092.5q73.5 -154.5 73.5 -371.5q0 -246 -95 -414t-248.5 -250t-325.5 -82t-326 82t-250 250t-96 414t96 411.5t249 245.5t327 80q47 0 92 -6l82 -10q111 -18 182 -19q55 0 80.5 31t25.5 94v168h121v-168q0 -92 -47 -147t-143 -64q129 -90 202.5 -244.5z M1064 156.5q126 72.5 201.5 217t75.5 349.5q0 203 -74.5 344t-198.5 212t-273 71q-152 0 -277 -70t-198.5 -211t-73.5 -346q0 -201 72.5 -346.5t195.5 -219t272 -73.5q152 0 278 72.5z" glyph-name="Ohorn" horiz-adv-x="1587" unicode="Ơ"/><glyph d="M1071 811q51 -115 51 -274q0 -188 -69.5 -314.5t-185 -187t-255.5 -60.5q-139 0 -254.5 60.5t-185.5 186.5t-70 315q0 188 70 314t185.5 186.5t254.5 60.5q53 0 95 -8q16 -2 54 -6.5t68 -4.5q66 0 95.5 25.5t29.5 83.5v125h119v-125q0 -154 -143 -193q90 -69 141 -184z M893.5 205q105.5 123 105.5 332t-105.5 331.5t-281.5 122.5t-281.5 -121.5t-105.5 -332.5t105.5 -333t281.5 -122t281.5 123z" glyph-name="ohorn" horiz-adv-x="1224" unicode="ơ"/><glyph d="M1493 1694v-133q0 -102 -57.5 -158.5t-171.5 -56.5v-830q0 -186 -72 -307t-191.5 -177.5t-265.5 -56.5q-145 0 -265 56.5t-192.5 177.5t-72.5 307v918h121v-932q0 -193 108.5 -300.5t300.5 -107.5q195 0 301.5 107.5t106.5 300.5v932h121q106 0 106 127v133h123z" glyph-name="Uhorn" horiz-adv-x="1468" unicode="Ư"/><glyph d="M1198 1311v-129q0 -174 -184 -199v-983h-92l-25 162h-6q-76 -92 -166 -139.5t-209 -47.5q-145 0 -238.5 92.5t-93.5 290.5v715h119v-688q0 -162 62.5 -232.5t164.5 -70.5q111 0 193 54t172 153v784h59q63 0 93 25.5t30 83.5v129h121z" glyph-name="uhorn" horiz-adv-x="1198" unicode="ư"/><glyph d="M926 1794l-207 -207h-88l-219 207h139l125 -121l125 121h125zM1016 383h-684l-142 -383h-129l533 1434h166l532 -1434h-137zM977 494l-301 831l-305 -831h606z" glyph-name="uni01CD" horiz-adv-x="1353" unicode="Ǎ"/><glyph d="M813 1434l-207 -207h-88l-219 207h139l125 -123l125 123h125zM1065 86l-12 -80q-29 -12 -76 -12q-70 0 -106.5 37t-47.5 116q-70 -82 -167 -127t-214 -45q-147 0 -243.5 75t-96.5 220q0 166 125 241t314 75q111 0 282 -29v176q0 133 -80.5 195.5t-205.5 62.5 q-164 0 -308 -112l-59 79q82 68 174 104t211 36q188 0 287.5 -93.5t99.5 -281.5v-551q0 -43 16.5 -66.5t57.5 -23.5q29 0 49 4zM664.5 133q97.5 51 158.5 133v185q-166 27 -284 26q-135 0 -224.5 -48t-89.5 -157q0 -98 71 -144t167 -46q104 0 201.5 51z" glyph-name="uni01CE" horiz-adv-x="1126" unicode="ǎ"/><glyph d="M514 1794l-207 -207h-88l-219 207h139l125 -121l125 121h125zM326 0h-121v1434h121v-1434z" glyph-name="uni01CF" horiz-adv-x="532" unicode="Ǐ"/><glyph d="M492 1434l-207 -207h-88l-220 207h140l125 -123l125 123h125zM303 0h-119v1073h119v-1073z" glyph-name="uni01D0" horiz-adv-x="489" unicode="ǐ"/><glyph d="M1044 1794l-206 -207h-88l-220 207h140l125 -121l125 121h124zM1121.5 1378q152.5 -80 247.5 -245.5t95 -411.5t-95 -414t-248.5 -250t-325.5 -82t-326 82t-250 250t-96 414t96 411.5t249 245.5t327 80t326.5 -80zM518 1280q-125 -70 -198.5 -211t-73.5 -346 q0 -201 72.5 -346.5t195.5 -219t272 -73.5q152 0 278 72.5t201.5 217t75.5 349.5q0 203 -74.5 344t-198.5 212t-273 71q-152 0 -277 -70z" glyph-name="uni01D1" horiz-adv-x="1587" unicode="Ǒ"/><glyph d="M860 1434l-207 -207h-88l-219 207h139l125 -123l125 123h125zM867.5 1037.5q115.5 -60.5 185 -186.5t69.5 -314t-69.5 -314.5t-185 -187t-255.5 -60.5q-139 0 -254.5 60.5t-185.5 186.5t-70 315q0 188 70 314t185.5 186.5t254.5 60.5q140 0 255.5 -60.5zM330.5 869.5 q-105.5 -121.5 -105.5 -332.5t105.5 -333t281.5 -122t281.5 123t105.5 332t-105.5 331.5t-281.5 122.5t-281.5 -121.5z" glyph-name="uni01D2" horiz-adv-x="1224" unicode="ǒ"/><glyph d="M985 1794l-207 -207h-88l-219 207h139l125 -121l125 121h125zM470 31.5q-120 56.5 -192.5 177.5t-72.5 307v918h121v-932q0 -193 108.5 -300.5t300.5 -107.5q195 0 301.5 107.5t106.5 300.5v932h121v-918q0 -186 -72 -307t-191.5 -177.5t-265.5 -56.5q-145 0 -265 56.5z " glyph-name="uni01D3" horiz-adv-x="1468" unicode="Ǔ"/><glyph d="M848 1434l-207 -207h-88l-219 207h139l125 -123l125 123h125zM1014 0h-92l-25 162h-6q-76 -92 -166 -139.5t-209 -47.5q-145 0 -238.5 92.5t-93.5 290.5v715h119v-688q0 -162 62.5 -232.5t164.5 -70.5q111 0 193 54t172 153v784h119v-1073z" glyph-name="uni01D4" horiz-adv-x="1179" unicode="ǔ"/><glyph d="M963 1802h-455v88h455v-88zM492.5 1547.5q-23.5 23.5 -23.5 66.5q0 41 23.5 64.5t62.5 23.5q41 0 65.5 -23.5t24.5 -64.5q0 -43 -23.5 -66.5t-66.5 -23.5q-39 0 -62.5 23.5zM848.5 1547.5q-23.5 23.5 -23.5 66.5q0 41 24.5 64.5t65.5 23.5q39 0 62.5 -23.5t23.5 -64.5 q0 -43 -23.5 -66.5t-62.5 -23.5q-43 0 -66.5 23.5zM470 31.5q-120 56.5 -192.5 177.5t-72.5 307v918h121v-932q0 -193 108.5 -300.5t300.5 -107.5q195 0 301.5 107.5t106.5 300.5v932h121v-918q0 -186 -72 -307t-191.5 -177.5t-265.5 -56.5q-145 0 -265 56.5z" glyph-name="uni01D5" horiz-adv-x="1468" unicode="Ǖ"/><glyph d="M827 1538h-452v90h452v-90zM373.5 1281q-23.5 24 -23.5 67t23.5 66.5t62.5 23.5q41 0 65.5 -23.5t24.5 -66.5t-23.5 -67t-66.5 -24q-39 0 -62.5 24zM701.5 1281q-23.5 24 -23.5 67t23.5 66.5t64.5 23.5q39 0 62.5 -23.5t23.5 -66.5t-23.5 -67t-62.5 -24q-41 0 -64.5 24z M1014 0h-92l-25 162h-6q-76 -92 -166 -139.5t-209 -47.5q-145 0 -238.5 92.5t-93.5 290.5v715h119v-688q0 -162 62.5 -232.5t164.5 -70.5q111 0 193 54t172 153v784h119v-1073z" glyph-name="uni01D6" horiz-adv-x="1179" unicode="ǖ"/><glyph d="M754 1755h-107l121 205h156zM492.5 1547.5q-23.5 23.5 -23.5 66.5q0 41 23.5 64.5t62.5 23.5q41 0 65.5 -23.5t24.5 -64.5q0 -43 -23.5 -66.5t-66.5 -23.5q-39 0 -62.5 23.5zM848.5 1547.5q-23.5 23.5 -23.5 66.5q0 41 24.5 64.5t65.5 23.5q39 0 62.5 -23.5t23.5 -64.5 q0 -43 -23.5 -66.5t-62.5 -23.5q-43 0 -66.5 23.5zM470 31.5q-120 56.5 -192.5 177.5t-72.5 307v918h121v-932q0 -193 108.5 -300.5t300.5 -107.5q195 0 301.5 107.5t106.5 300.5v932h121v-918q0 -186 -72 -307t-191.5 -177.5t-265.5 -56.5q-145 0 -265 56.5z" glyph-name="uni01D7" horiz-adv-x="1468" unicode="Ǘ"/><glyph d="M618 1493h-104l121 205h153zM373.5 1281q-23.5 24 -23.5 67t23.5 66.5t62.5 23.5q41 0 65.5 -23.5t24.5 -66.5t-23.5 -67t-66.5 -24q-39 0 -62.5 24zM701.5 1281q-23.5 24 -23.5 67t23.5 66.5t64.5 23.5q39 0 62.5 -23.5t23.5 -66.5t-23.5 -67t-62.5 -24q-41 0 -64.5 24z M1014 0h-92l-25 162h-6q-76 -92 -166 -139.5t-209 -47.5q-145 0 -238.5 92.5t-93.5 290.5v715h119v-688q0 -162 62.5 -232.5t164.5 -70.5q111 0 193 54t172 153v784h119v-1073z" glyph-name="uni01D8" horiz-adv-x="1179" unicode="ǘ"/><glyph d="M688 1761l-219 207h141l123 -121l125 121h127l-207 -207h-90zM492.5 1547.5q-23.5 23.5 -23.5 66.5q0 41 23.5 64.5t62.5 23.5q41 0 65.5 -23.5t24.5 -64.5q0 -43 -23.5 -66.5t-66.5 -23.5q-39 0 -62.5 23.5zM977.5 1678.5q23.5 -23.5 23.5 -64.5q0 -43 -23.5 -66.5 t-62.5 -23.5q-43 0 -66.5 23.5t-23.5 66.5q0 41 24.5 64.5t65.5 23.5q39 0 62.5 -23.5zM1264 1434v-918q0 -186 -72 -307t-191.5 -177.5t-265.5 -56.5q-145 0 -265 56.5t-192.5 177.5t-72.5 307v918h121v-932q0 -193 108.5 -300.5t300.5 -107.5q195 0 301.5 107.5 t106.5 300.5v932h121z" glyph-name="uni01D9" horiz-adv-x="1468" unicode="Ǚ"/><glyph d="M553 1499l-219 207h141l123 -121l125 121h127l-207 -207h-90zM371.5 1414.5q23.5 23.5 62.5 23.5q41 0 65.5 -23.5t24.5 -66.5t-23.5 -67t-66.5 -24q-39 0 -62.5 24t-23.5 67t23.5 66.5zM700.5 1414.5q24.5 23.5 65.5 23.5q39 0 61.5 -23.5t22.5 -66.5t-22.5 -67 t-61.5 -24q-43 0 -66.5 24t-23.5 67t24.5 66.5zM1014 1073v-1073h-92l-25 162h-6q-76 -92 -166 -139.5t-209 -47.5q-145 0 -238.5 92.5t-93.5 290.5v715h119v-688q0 -162 62.5 -232.5t164.5 -70.5q111 0 193 54t172 153v784h119z" glyph-name="uni01DA" horiz-adv-x="1179" unicode="ǚ"/><glyph d="M676 1960l121 -205h-107l-170 205h156zM492.5 1547.5q-23.5 23.5 -23.5 66.5q0 41 23.5 64.5t62.5 23.5q41 0 65.5 -23.5t24.5 -64.5q0 -43 -23.5 -66.5t-66.5 -23.5q-39 0 -62.5 23.5zM848.5 1547.5q-23.5 23.5 -23.5 66.5q0 41 24.5 64.5t65.5 23.5q39 0 62.5 -23.5 t23.5 -64.5q0 -43 -23.5 -66.5t-62.5 -23.5q-43 0 -66.5 23.5zM470 31.5q-120 56.5 -192.5 177.5t-72.5 307v918h121v-932q0 -193 108.5 -300.5t300.5 -107.5q195 0 301.5 107.5t106.5 300.5v932h121v-918q0 -186 -72 -307t-191.5 -177.5t-265.5 -56.5q-145 0 -265 56.5z " glyph-name="uni01DB" horiz-adv-x="1468" unicode="Ǜ"/><glyph d="M541 1698l121 -205h-105l-170 205h154zM373.5 1281q-23.5 24 -23.5 67t23.5 66.5t62.5 23.5q41 0 65.5 -23.5t24.5 -66.5t-23.5 -67t-66.5 -24q-39 0 -62.5 24zM701.5 1281q-23.5 24 -23.5 67t23.5 66.5t64.5 23.5q39 0 62.5 -23.5t23.5 -66.5t-23.5 -67t-62.5 -24 q-41 0 -64.5 24zM1014 0h-92l-25 162h-6q-76 -92 -166 -139.5t-209 -47.5q-145 0 -238.5 92.5t-93.5 290.5v715h119v-688q0 -162 62.5 -232.5t164.5 -70.5q111 0 193 54t172 153v784h119v-1073z" glyph-name="uni01DC" horiz-adv-x="1179" unicode="ǜ"/><glyph d="M1034 1794l-207 -207h-88l-219 207h139l125 -121l125 121h125zM1068 1407q116 -51 202 -127l-76 -84q-88 74 -195.5 114t-228.5 40q-244 0 -384 -161t-140 -466q0 -207 65.5 -349.5t184 -215t274.5 -72.5q141 0 248.5 53.5t163.5 126.5v398h-471v108h592v-553 q-84 -111 -224.5 -177.5t-312.5 -66.5q-182 0 -327.5 80t-230.5 247t-85 415q0 242 82 407.5t231.5 249.5t347.5 84q168 0 284 -51z" glyph-name="Gcaron" horiz-adv-x="1445" unicode="Ǧ"/><glyph d="M850 1434l-207 -207h-88l-219 207h139l125 -123l125 123h125zM800 1067q81 -31 136 -80h6l43 86h66v-1059q0 -227 -122 -339.5t-333 -112.5q-123 0 -226.5 35.5t-176.5 93.5l59 92q141 -109 330 -109q156 0 253 73t97 224v195q-145 -137 -344 -137q-137 0 -247 59 t-174.5 177t-64.5 284q0 180 75 304t193.5 184.5t252.5 60.5q96 0 177 -31zM429 943q-91 -48 -145.5 -146.5t-54.5 -241.5q0 -201 101.5 -310.5t265.5 -109.5q94 0 180 40t156 122v563q-45 55 -121 93t-178 38q-113 0 -204 -48z" glyph-name="gcaron" horiz-adv-x="1214" unicode="ǧ"/><glyph d="M586 -403h-72l14 294h129zM842.5 1422q97.5 -36 189.5 -93l-55 -94q-178 119 -367 119q-162 0 -255 -70t-93 -192q0 -76 49 -130.5t119 -90t199 -91.5q154 -68 235.5 -111.5t142 -116.5t60.5 -177q0 -117 -57.5 -207t-167 -141.5t-260.5 -51.5q-125 0 -257 36t-233 100 l51 98q94 -55 210 -87t220 -32q190 0 280.5 74t90.5 196q0 80 -49 135.5t-118.5 91.5t-198.5 87q-145 61 -230.5 107t-147 124t-61.5 193q0 102 56.5 184t162 129t248.5 47q139 0 236.5 -36z" glyph-name="Scommaaccent" horiz-adv-x="1155" unicode="Ș"/><glyph d="M508 -403h-72l15 294h129zM683 1071q87 -27 148 -67l-51 -97q-59 37 -133 60.5t-149 23.5q-109 0 -176.5 -51t-67.5 -129q0 -55 35 -91t86 -59.5t141 -52.5q111 -35 180.5 -67.5t117.5 -93t48 -154.5q0 -141 -106.5 -229.5t-290.5 -88.5q-106 0 -200.5 31t-166.5 88 l52 103q59 -53 140 -84t171 -31q127 0 202.5 58.5t75.5 144.5q0 59 -35.5 99t-89 64.5t-145.5 55.5q-109 37 -174.5 67.5t-111.5 88t-46 145.5q0 135 102.5 214t262.5 79q94 0 181 -27z" glyph-name="scommaaccent" horiz-adv-x="960" unicode="ș"/><glyph d="M592 -403h-72l15 294h129zM532 1325h-491v109h1106v-109h-494v-1325h-121v1325z" glyph-name="uni021A" horiz-adv-x="1187" unicode="Ț"/><glyph d="M381 -403h-72l15 294h129zM304 25.5q-54 50.5 -54 150.5v797h-189v100h189v176l65 99h54v-275h264v-100h-264v-783q0 -57 25.5 -82.5t64.5 -25.5q63 0 143 37l37 -94q-92 -49 -180 -50q-101 0 -155 50.5z" glyph-name="uni021B" horiz-adv-x="712" unicode="ț"/><glyph d="M831 1642h-432v91h432v-91zM545 573l-504 861h145l422 -750l416 750h141l-499 -861v-573h-121v573z" glyph-name="uni0232" horiz-adv-x="1206" unicode="Ȳ"/><glyph d="M784 1282h-452v90h452v-90zM631 -66q-66 -174 -159 -265t-228 -91q-70 0 -127 21l22 94q55 -16 107 -17q78 0 145.5 61.5t106.5 166.5l24 65l-461 1104h127l387 -971h9l352 971h119z" glyph-name="uni0233" horiz-adv-x="1091" unicode="ȳ"/><glyph d="M-131 -403l20 102q47 -14 101 -14q109 0 162 50t53 169v1169h119v-1214q0 -145 -89.5 -213t-230.5 -68q-82 1 -135 19z" glyph-name="uni0237" horiz-adv-x="507" unicode="ȷ"/><glyph d="M809 1036.5q113 -61.5 180.5 -186.5t67.5 -307q0 -180 -62.5 -308.5t-175 -194t-260.5 -65.5q-147 0 -250.5 68t-155 180.5t-51.5 247.5q0 59 7 104h825q-14 211 -114.5 313.5t-276.5 102.5q-205 0 -353 -127l-71 76q86 76 190.5 117t253.5 41q133 0 246 -61.5z M823.5 185.5q104.5 103.5 112.5 283.5h-725q8 -176 95 -281.5t249 -105.5q164 0 268.5 103.5z" glyph-name="uni0259" horiz-adv-x="1159" unicode="ə"/><glyph d="M463 1231l-123 112l-119 -112h-139l229 217h68l217 -217h-133z" glyph-name="circumflex" horiz-adv-x="677" unicode="ˆ"/><glyph d="M596 1434l-207 -207h-88l-219 207h139l125 -123l125 123h125z" glyph-name="caron" horiz-adv-x="677" unicode="ˇ"/><glyph d="M525 1275q-77 -60 -175 -61q-100 0 -176 61q-76 60 -92 165h94q12 -68 61 -103q48 -35 113 -34q66 0 111 34q45 35 59 103h101q-19 -105 -96 -165z" glyph-name="breve" horiz-adv-x="702" unicode="˘"/><glyph d="M237 1413q26 -23 25 -70q0 -47 -25 -70q-26 -24 -65 -24q-37 0 -63 25q-27 25 -27 69q0 45 27 69t63 24q39 0 65 -23z" glyph-name="dotaccent" horiz-adv-x="344" unicode="˙"/><glyph d="M135 1220.5q-53 51.5 -53 129.5q0 80 52 130t136 50q82 0 134.5 -50t52.5 -130q0 -78 -52.5 -129.5t-134.5 -51.5t-135 51.5zM336.5 1279q23.5 28 23.5 71t-23.5 71.5t-66.5 28.5q-45 0 -68.5 -28.5t-23.5 -71.5t23.5 -71t68.5 -28q43 0 66.5 28z" glyph-name="ring" horiz-adv-x="538" unicode="˚"/><glyph d="M123 -382q-41 40 -41 106q0 68 40 146q40 79 107 150l72 -20q-109 -137 -108 -250q0 -88 75 -88q29 0 49 4l-8 -76q-29 -12 -71 -12q-74 0 -115 40z" glyph-name="ogonek" horiz-adv-x="399" unicode="˛"/><glyph d="M659 1389q-74 -160 -176 -160q-31 0 -56.5 14t-61.5 41q-33 25 -55.5 37t-49.5 12q-33 0 -58.5 -23.5t-45.5 -68.5l-74 35q31 84 80 124t102 40q37 0 65.5 -15.5t67.5 -46.5q31 -25 50.5 -36t41.5 -11q33 0 53.5 24.5t32 48t15.5 30.5z" glyph-name="tilde" horiz-adv-x="741" unicode="˜"/><glyph d="M117 1434h164l-109 -224h-90zM416 1434h164l-191 -224h-90z" glyph-name="hungarumlaut" horiz-adv-x="661" unicode="˝"/><glyph d="M-135 1208h-109l-231 226h182z" glyph-name="gravecomb" unicode="̀"/><glyph d="M-362 1208h-111l156 226h180z" glyph-name="acutecomb" unicode="́"/><glyph d="M-182 1231l-123 112l-119 -112h-139l229 217h68l217 -217h-133z" glyph-name="uni0302" unicode="̂"/><glyph d="M-14 1389q-74 -160 -176 -160q-31 0 -56.5 14t-62.5 41q-33 25 -55.5 37t-49.5 12q-33 0 -58.5 -23.5t-45.5 -68.5l-74 35q31 84 80 124t102 40q37 0 66 -15.5t68 -46.5q31 -25 50 -36t42 -11q33 0 53 24.5t31.5 48t15.5 30.5z" glyph-name="tildecomb" unicode="̃"/><glyph d="M-80 1282h-452v90h452v-90z" glyph-name="uni0304" unicode="̄"/><glyph d="M-132 1274.5q-77 -60.5 -175 -60.5q-100 0 -176 60.5t-92 165.5h94q12 -68 60 -102.5t114 -34.5t110.5 34.5t59.5 102.5h100q-18 -105 -95 -165.5z" glyph-name="uni0306" unicode="̆"/><glyph d="M-179.5 1413.5q25.5 -22.5 25.5 -70.5q0 -47 -25.5 -70.5t-64.5 -23.5q-37 0 -63.5 24.5t-26.5 69.5t26.5 69t63.5 24q39 0 64.5 -22.5z" glyph-name="uni0307" unicode="̇"/><glyph d="M-533.5 1281q-23.5 24 -23.5 67t23.5 66.5t62.5 23.5q41 0 65.5 -23.5t24.5 -66.5t-23.5 -67t-66.5 -24q-39 0 -62.5 24zM-205.5 1281q-23.5 24 -23.5 67t23.5 66.5t64.5 23.5q39 0 62.5 -23.5t23.5 -66.5t-23.5 -67t-62.5 -24q-41 0 -64.5 24z" glyph-name="uni0308" unicode="̈"/><glyph d="M-340 1221q143 33 143 88q0 39 -44 61.5t-126 20.5v84q16 2 48 2q111 0 174 -42t63 -122q0 -59 -50 -102.5t-140 -61.5z" glyph-name="hookabovecomb" unicode="̉"/><glyph d="M-440.5 1220.5q-53.5 51.5 -53.5 129.5q0 80 52.5 130t136.5 50q82 0 134 -50t52 -130q0 -78 -52 -129.5t-134 -51.5t-135.5 51.5zM-238.5 1279q23.5 28 23.5 71t-23.5 71.5t-66.5 28.5q-45 0 -68.5 -28.5t-23.5 -71.5t23.5 -71t68.5 -28q43 0 66.5 28z" glyph-name="uni030A" unicode="̊"/><glyph d="M-516 1434h164l-109 -224h-90zM-217 1434h164l-191 -224h-90z" glyph-name="uni030B" unicode="̋"/><glyph d="M-49 1434l-207 -207h-88l-219 207h139l125 -123l125 123h125z" glyph-name="uni030C" unicode="̌"/><glyph d="M-387 1175.5q-27 32.5 -27 86.5q0 76 43 155.5t144 151.5l49 -37q-53 -47 -84 -98.5t-37 -98.5q33 -6 59.5 -31.5t26.5 -64.5q0 -47 -27.5 -71.5t-72.5 -24.5q-47 0 -74 32.5z" glyph-name="uni0312" unicode="̒"/><glyph d="M-283 1288v-125q0 -98 -60 -150t-185 -52q-47 0 -109 10q-74 8 -108 8v94q35 0 108 -8q61 -10 109 -10q66 0 95.5 25.5t29.5 82.5v125h120z" glyph-name="uni031B" unicode="̛"/><glyph d="M-180.5 -177.5q26.5 -23.5 26.5 -70.5t-26.5 -70.5t-65.5 -23.5q-37 0 -62.5 23.5t-25.5 70.5t25.5 70.5t62.5 23.5q39 0 65.5 -23.5z" glyph-name="dotbelowcomb" unicode="̣"/><glyph d="M-236 -403h-71l14 294h129z" glyph-name="uni0326" unicode="̦"/><glyph d="M-344 -137q16 12 61 12q66 0 112 -37t46 -96q0 -78 -57.5 -121t-147.5 -43q-43 0 -82 12.5t-63 30.5l20 82q18 -16 52 -27.5t69 -11.5q45 0 76 18.5t31 53.5q0 31 -26 49t-60 18q-47 0 -76 -16l-47 51l102 180h84z" glyph-name="uni0327" unicode="̧"/><glyph d="M-465 -382q-41 40 -41 106q0 68 40 146.5t108 149.5l71 -20q-109 -137 -108 -250q0 -88 76 -88q29 0 49 4l-9 -76q-29 -12 -71 -12q-74 0 -115 40z" glyph-name="uni0328" unicode="̨"/><glyph d="M1292 0h-1231l533 1434h166zM1116 111l-440 1214l-445 -1214h885z" glyph-name="Delta" horiz-adv-x="1353" unicode="Δ"/><glyph d="M1369 370q-95 -167 -236 -264h331v-106h-497v80q168 123 271 275.5t103 387.5q0 190 -73.5 327.5t-197.5 208.5t-271 71q-150 0 -276 -71t-201.5 -210t-75.5 -332q0 -233 103.5 -388.5t271.5 -268.5v-80h-498v106h321q-139 92 -230 251t-91 386q0 229 97 391t253 243 t328 81q176 0 327.5 -84t243.5 -242.5t92 -373.5q0 -221 -95 -388z" glyph-name="Omega" horiz-adv-x="1587" unicode="Ω"/><glyph d="M1044 0h-92l-24 158h-6q-76 -94 -146.5 -138.5t-177.5 -44.5q-96 0 -176 26t-117 77v-500h-121v1495h119v-715q0 -133 86 -204.5t209 -71.5q186 0 328 217v774h118v-1073z" glyph-name="mu" horiz-adv-x="1210" unicode="μ"/><glyph d="M1036 973v-801q0 -43 17.5 -66.5t58.5 -23.5q31 0 47 4l-10 -80q-29 -12 -76 -12q-78 0 -116.5 44t-38.5 140v795h-474v-973h-118v973h-162v100h1040v-100h-168z" glyph-name="pi" horiz-adv-x="1347" unicode="π"/><glyph d="M1083 1569h-108l-232 225h183zM1982 1434l-436 -1434h-149l-389 1255l-387 -1255h-148l-432 1434h129l379 -1287l393 1287h145l386 -1280l382 1280h127z" glyph-name="Wgrave" horiz-adv-x="2023" unicode="Ẁ"/><glyph d="M844 1208h-109l-231 226h182zM1546 1073l-372 -1073h-99l-295 877l-301 -877h-98l-334 1073h127l262 -911l305 911h93l292 -917l306 917h114z" glyph-name="wgrave" horiz-adv-x="1593" unicode="ẁ"/><glyph d="M1020 1569h-113l156 225h180zM1982 1434l-436 -1434h-149l-389 1255l-387 -1255h-148l-432 1434h129l379 -1287l393 1287h145l386 -1280l382 1280h127z" glyph-name="Wacute" horiz-adv-x="2023" unicode="Ẃ"/><glyph d="M780 1208h-110l155 226h181zM1546 1073l-372 -1073h-99l-295 877l-301 -877h-98l-334 1073h127l262 -911l305 911h93l292 -917l306 917h114z" glyph-name="wacute" horiz-adv-x="1593" unicode="ẃ"/><glyph d="M773.5 1621q-23.5 24 -23.5 67t23.5 66.5t62.5 23.5q41 0 65.5 -23.5t24.5 -66.5t-23.5 -67t-66.5 -24q-39 0 -62.5 24zM1129.5 1621q-23.5 24 -23.5 67t23.5 66.5t64.5 23.5q39 0 62.5 -23.5t23.5 -66.5t-23.5 -67t-62.5 -24q-41 0 -64.5 24zM1982 1434l-436 -1434h-149 l-389 1255l-387 -1255h-148l-432 1434h129l379 -1287l393 1287h145l386 -1280l382 1280h127z" glyph-name="Wdieresis" horiz-adv-x="2023" unicode="Ẅ"/><glyph d="M549.5 1281q-23.5 24 -23.5 67t23.5 66.5t62.5 23.5q41 0 65.5 -23.5t24.5 -66.5t-23.5 -67t-66.5 -24q-39 0 -62.5 24zM877.5 1281q-23.5 24 -23.5 67t23.5 66.5t64.5 23.5q39 0 62.5 -23.5t23.5 -66.5t-23.5 -67t-62.5 -24q-41 0 -64.5 24zM1546 1073l-372 -1073h-99 l-295 877l-301 -877h-98l-334 1073h127l262 -911l305 911h93l292 -917l306 917h114z" glyph-name="wdieresis" horiz-adv-x="1593" unicode="ẅ"/><glyph d="M1089.5 642q135.5 -97 135.5 -277q0 -111 -56.5 -200t-153.5 -139.5t-214 -50.5q-61 0 -135 14.5t-138 45.5l31 104q43 -23 111.5 -37t126.5 -14q131 0 215 74t84 188q0 125 -114 211t-376 82v111l359 313q0 125 -86 204t-228 79q-137 0 -230 -79t-93 -241v-1030h-123 v1055q0 121 58.5 212t162.5 141t238 50q199 0 313.5 -112.5t114.5 -307.5l-336 -286q198 -13 333.5 -110z" glyph-name="uni1E9E" horiz-adv-x="1327" unicode="ẞ"/><glyph d="M739.5 -177.5q26.5 -23.5 26.5 -70.5t-26.5 -70.5t-65.5 -23.5q-37 0 -62.5 23.5t-25.5 70.5t25.5 70.5t62.5 23.5q39 0 65.5 -23.5zM1016 383h-684l-142 -383h-129l533 1434h166l532 -1434h-137zM977 494l-301 831l-305 -831h606z" glyph-name="uni1EA0" horiz-adv-x="1353" unicode="Ạ"/><glyph d="M606.5 -177.5q26.5 -23.5 26.5 -70.5t-26.5 -70.5t-65.5 -23.5q-37 0 -62.5 23.5t-25.5 70.5t25.5 70.5t62.5 23.5q39 0 65.5 -23.5zM1065 86l-12 -80q-29 -12 -76 -12q-70 0 -106.5 37t-47.5 116q-70 -82 -167 -127t-214 -45q-147 0 -243.5 75t-96.5 220q0 166 125 241 t314 75q111 0 282 -29v176q0 133 -80.5 195.5t-205.5 62.5q-164 0 -308 -112l-59 79q82 68 174 104t211 36q188 0 287.5 -93.5t99.5 -281.5v-551q0 -43 16.5 -66.5t57.5 -23.5q29 0 49 4zM664.5 133q97.5 51 158.5 133v185q-166 27 -284 26q-135 0 -224.5 -48t-89.5 -157 q0 -98 71 -144t167 -46q104 0 201.5 51z" glyph-name="uni1EA1" horiz-adv-x="1126" unicode="ạ"/><glyph d="M561 1581q143 33 144 88q0 39 -44.5 61.5t-125.5 20.5v84q16 2 45 2q113 0 176 -41t63 -123q0 -59 -51 -102t-139 -62zM1016 383h-684l-142 -383h-129l533 1434h166l532 -1434h-137zM977 494l-301 831l-305 -831h606z" glyph-name="uni1EA2" horiz-adv-x="1353" unicode="Ả"/><glyph d="M446 1221q143 33 144 88q0 39 -44 61.5t-126 20.5v84q16 2 47 2q111 0 174.5 -42t63.5 -122q0 -59 -50.5 -102.5t-140.5 -61.5zM1065 86l-12 -80q-29 -12 -76 -12q-70 0 -106.5 37t-47.5 116q-70 -82 -167 -127t-214 -45q-147 0 -243.5 75t-96.5 220q0 166 125 241 t314 75q111 0 282 -29v176q0 133 -80.5 195.5t-205.5 62.5q-164 0 -308 -112l-59 79q82 68 174 104t211 36q188 0 287.5 -93.5t99.5 -281.5v-551q0 -43 16.5 -66.5t57.5 -23.5q29 0 49 4zM664.5 133q97.5 51 158.5 133v185q-166 27 -284 26q-135 0 -224.5 -48t-89.5 -157 q0 -98 71 -144t167 -46q104 0 201.5 51z" glyph-name="uni1EA3" horiz-adv-x="1126" unicode="ả"/><glyph d="M932 1722h-107l121 205h156zM717 1747l217 -197h-133l-123 99l-119 -99h-139l229 197h68zM1016 383h-684l-142 -383h-129l533 1434h166l532 -1434h-137zM977 494l-301 831l-305 -831h606z" glyph-name="uni1EA4" horiz-adv-x="1353" unicode="Ấ"/><glyph d="M819 1395h-106l121 204h155zM604 1419l217 -196h-133l-123 98l-119 -98h-139l230 196h67zM1065 86l-12 -80q-29 -12 -76 -12q-70 0 -106.5 37t-47.5 116q-70 -82 -167 -127t-214 -45q-147 0 -243.5 75t-96.5 220q0 166 125 241t314 75q111 0 282 -29v176 q0 133 -80.5 195.5t-205.5 62.5q-164 0 -308 -112l-59 79q82 68 174 104t211 36q188 0 287.5 -93.5t99.5 -281.5v-551q0 -43 16.5 -66.5t57.5 -23.5q29 0 49 4zM664.5 133q97.5 51 158.5 133v185q-166 27 -284 26q-135 0 -224.5 -48t-89.5 -157q0 -98 71 -144t167 -46 q104 0 201.5 51z" glyph-name="uni1EA5" horiz-adv-x="1126" unicode="ấ"/><glyph d="M870 1722l-170 205h156l121 -205h-107zM719 1747l217 -197h-133l-123 99l-119 -99h-139l229 197h68zM1016 383h-684l-142 -383h-129l533 1434h166l532 -1434h-137zM977 494l-301 831l-305 -831h606z" glyph-name="uni1EA6" horiz-adv-x="1353" unicode="Ầ"/><glyph d="M756 1395l-170 204h155l121 -204h-106zM604 1419l217 -196h-133l-123 98l-119 -98h-139l230 196h67zM1065 86l-12 -80q-29 -12 -76 -12q-70 0 -106.5 37t-47.5 116q-70 -82 -167 -127t-214 -45q-147 0 -243.5 75t-96.5 220q0 166 125 241t314 75q111 0 282 -29v176 q0 133 -80.5 195.5t-205.5 62.5q-164 0 -308 -112l-59 79q82 68 174 104t211 36q188 0 287.5 -93.5t99.5 -281.5v-551q0 -43 16.5 -66.5t57.5 -23.5q29 0 49 4zM664.5 133q97.5 51 158.5 133v185q-166 27 -284 26q-135 0 -224.5 -48t-89.5 -157q0 -98 71 -144t167 -46 q104 0 201.5 51z" glyph-name="uni1EA7" horiz-adv-x="1126" unicode="ầ"/><glyph d="M971.5 1920q58.5 -40 58.5 -110q0 -98 -121 -143l-59 57q45 20 64.5 39t19.5 43q0 37 -44 59.5t-122 22.5v70q16 2 45 2q100 0 158.5 -40zM717 1747l217 -197h-133l-123 99l-119 -99h-139l229 197h68zM1016 383h-684l-142 -383h-129l533 1434h166l532 -1434h-137z M977 494l-301 831l-305 -831h606z" glyph-name="uni1EA8" horiz-adv-x="1353" unicode="Ẩ"/><glyph d="M859.5 1592q58.5 -40 58.5 -109q0 -98 -121 -144l-60 58q45 20 64.5 38.5t19.5 43.5q0 37 -44 59.5t-122 22.5v69q16 2 45 2q101 0 159.5 -40zM604 1419l217 -196h-133l-123 98l-119 -98h-139l230 196h67zM1065 86l-12 -80q-29 -12 -76 -12q-70 0 -106.5 37t-47.5 116 q-70 -82 -167 -127t-214 -45q-147 0 -243.5 75t-96.5 220q0 166 125 241t314 75q111 0 282 -29v176q0 133 -80.5 195.5t-205.5 62.5q-164 0 -308 -112l-59 79q82 68 174 104t211 36q188 0 287.5 -93.5t99.5 -281.5v-551q0 -43 16.5 -66.5t57.5 -23.5q29 0 49 4zM664.5 133 q97.5 51 158.5 133v185q-166 27 -284 26q-135 0 -224.5 -48t-89.5 -157q0 -98 71 -144t167 -46q104 0 201.5 51z" glyph-name="uni1EA9" horiz-adv-x="1126" unicode="ẩ"/><glyph d="M517.5 1870.5q-23.5 -19.5 -46.5 -60.5l-72 33q31 76 77 110t95 34q33 0 57.5 -10.5t67.5 -34.5q23 -14 44.5 -24.5t39.5 -10.5q31 0 51.5 19.5t36 42t19.5 30.5l61 -43q-39 -72 -76.5 -108t-85.5 -36q-29 0 -54 10.5t-64 32.5q-61 35 -95 35q-32 0 -55.5 -19.5z M717 1747l217 -197h-133l-123 99l-119 -99h-139l229 197h68zM1016 383h-684l-142 -383h-129l533 1434h166l532 -1434h-137zM977 494l-301 831l-305 -831h606z" glyph-name="uni1EAA" horiz-adv-x="1353" unicode="Ẫ"/><glyph d="M404.5 1543.5q-23.5 -19.5 -46.5 -60.5l-71 33q31 76 77 109.5t95 33.5q33 0 57.5 -10.5t67.5 -34.5q23 -14 44 -24.5t40 -10.5q31 0 51 19.5t35.5 42t19.5 30.5l62 -43q-39 -72 -77 -107.5t-85 -35.5q-29 0 -54.5 10t-64.5 33q-61 35 -94 35t-56.5 -19.5zM604 1419 l217 -196h-133l-123 98l-119 -98h-139l230 196h67zM1065 86l-12 -80q-29 -12 -76 -12q-70 0 -106.5 37t-47.5 116q-70 -82 -167 -127t-214 -45q-147 0 -243.5 75t-96.5 220q0 166 125 241t314 75q111 0 282 -29v176q0 133 -80.5 195.5t-205.5 62.5q-164 0 -308 -112l-59 79 q82 68 174 104t211 36q188 0 287.5 -93.5t99.5 -281.5v-551q0 -43 16.5 -66.5t57.5 -23.5q29 0 49 4zM664.5 133q97.5 51 158.5 133v185q-166 27 -284 26q-135 0 -224.5 -48t-89.5 -157q0 -98 71 -144t167 -46q104 0 201.5 51z" glyph-name="uni1EAB" horiz-adv-x="1126" unicode="ẫ"/><glyph d="M801 1591l-123 113l-119 -113h-139l229 217h68l217 -217h-133zM739.5 -177.5q26.5 -23.5 26.5 -70.5t-26.5 -70.5t-65.5 -23.5q-37 0 -62.5 23.5t-25.5 70.5t25.5 70.5t62.5 23.5q39 0 65.5 -23.5zM1016 383h-684l-142 -383h-129l533 1434h166l532 -1434h-137zM977 494 l-301 831l-305 -831h606z" glyph-name="uni1EAC" horiz-adv-x="1353" unicode="Ậ"/><glyph d="M688 1231l-123 112l-119 -112h-139l230 217h67l217 -217h-133zM606.5 -177.5q26.5 -23.5 26.5 -70.5t-26.5 -70.5t-65.5 -23.5q-37 0 -62.5 23.5t-25.5 70.5t25.5 70.5t62.5 23.5q39 0 65.5 -23.5zM1065 86l-12 -80q-29 -12 -76 -12q-70 0 -106.5 37t-47.5 116 q-70 -82 -167 -127t-214 -45q-147 0 -243.5 75t-96.5 220q0 166 125 241t314 75q111 0 282 -29v176q0 133 -80.5 195.5t-205.5 62.5q-164 0 -308 -112l-59 79q82 68 174 104t211 36q188 0 287.5 -93.5t99.5 -281.5v-551q0 -43 16.5 -66.5t57.5 -23.5q29 0 49 4zM664.5 133 q97.5 51 158.5 133v185q-166 27 -284 26q-135 0 -224.5 -48t-89.5 -157q0 -98 71 -144t167 -46q104 0 201.5 51z" glyph-name="uni1EAD" horiz-adv-x="1126" unicode="ậ"/><glyph d="M694 1806h-104l121 205h153zM851 1582q-77 -60 -175 -60q-100 0 -176 60t-92 165h94q14 -68 61 -102.5t113 -34.5t110.5 34.5t59.5 102.5h100q-18 -105 -95 -165zM1016 383h-684l-142 -383h-129l533 1434h166l532 -1434h-137zM977 494l-301 831l-305 -831h606z" glyph-name="uni1EAE" horiz-adv-x="1353" unicode="Ắ"/><glyph d="M582 1499h-105l121 205h154zM738.5 1274.5q-76.5 -60.5 -175.5 -60.5q-100 0 -176 60.5t-92 165.5h94q14 -68 61.5 -102.5t112.5 -34.5q66 0 111 34.5t59 102.5h101q-19 -105 -95.5 -165.5zM1065 86l-12 -80q-29 -12 -76 -12q-70 0 -106.5 37t-47.5 116 q-70 -82 -167 -127t-214 -45q-147 0 -243.5 75t-96.5 220q0 166 125 241t314 75q111 0 282 -29v176q0 133 -80.5 195.5t-205.5 62.5q-164 0 -308 -112l-59 79q82 68 174 104t211 36q188 0 287.5 -93.5t99.5 -281.5v-551q0 -43 16.5 -66.5t57.5 -23.5q29 0 49 4zM664.5 133 q97.5 51 158.5 133v185q-166 27 -284 26q-135 0 -224.5 -48t-89.5 -157q0 -98 71 -144t167 -46q104 0 201.5 51z" glyph-name="uni1EAF" horiz-adv-x="1126" unicode="ắ"/><glyph d="M616 2011l123 -205h-106l-170 205h153zM851 1582q-77 -60 -175 -60q-100 0 -176 60t-92 165h94q14 -68 61 -102.5t113 -34.5t110.5 34.5t59.5 102.5h100q-18 -105 -95 -165zM1016 383h-684l-142 -383h-129l533 1434h166l532 -1434h-137zM977 494l-301 831l-305 -831h606z " glyph-name="uni1EB0" horiz-adv-x="1353" unicode="Ằ"/><glyph d="M504 1704l123 -205h-107l-170 205h154zM738.5 1274.5q-76.5 -60.5 -175.5 -60.5q-100 0 -176 60.5t-92 165.5h94q14 -68 61.5 -102.5t112.5 -34.5q66 0 111 34.5t59 102.5h101q-19 -105 -95.5 -165.5zM1065 86l-12 -80q-29 -12 -76 -12q-70 0 -106.5 37t-47.5 116 q-70 -82 -167 -127t-214 -45q-147 0 -243.5 75t-96.5 220q0 166 125 241t314 75q111 0 282 -29v176q0 133 -80.5 195.5t-205.5 62.5q-164 0 -308 -112l-59 79q82 68 174 104t211 36q188 0 287.5 -93.5t99.5 -281.5v-551q0 -43 16.5 -66.5t57.5 -23.5q29 0 49 4zM664.5 133 q97.5 51 158.5 133v185q-166 27 -284 26q-135 0 -224.5 -48t-89.5 -157q0 -98 71 -144t167 -46q104 0 201.5 51z" glyph-name="uni1EB1" horiz-adv-x="1126" unicode="ằ"/><glyph d="M676.5 1847.5q19.5 18.5 19.5 42.5q0 37 -43 59.5t-121 22.5v70q16 2 46 2q100 0 158.5 -40t58.5 -110q0 -98 -121 -143l-60 57q43 21 62.5 39.5zM851 1582q-77 -60 -175 -60q-100 0 -176 60t-92 165h94q14 -68 61 -102.5t113 -34.5t110.5 34.5t59.5 102.5h100 q-18 -105 -95 -165zM1016 383h-684l-142 -383h-129l533 1434h166l532 -1434h-137zM977 494l-301 831l-305 -831h606z" glyph-name="uni1EB2" horiz-adv-x="1353" unicode="Ẳ"/><glyph d="M564.5 1540.5q19.5 18.5 19.5 42.5q0 37 -43 59.5t-121 22.5v70q16 2 45 2q100 0 158.5 -40t58.5 -110q0 -98 -121 -143l-59 57q43 21 62.5 39.5zM738.5 1274.5q-76.5 -60.5 -175.5 -60.5q-100 0 -176 60.5t-92 165.5h94q14 -68 61.5 -102.5t112.5 -34.5q66 0 111 34.5 t59 102.5h101q-19 -105 -95.5 -165.5zM1065 86l-12 -80q-29 -12 -76 -12q-70 0 -106.5 37t-47.5 116q-70 -82 -167 -127t-214 -45q-147 0 -243.5 75t-96.5 220q0 166 125 241t314 75q111 0 282 -29v176q0 133 -80.5 195.5t-205.5 62.5q-164 0 -308 -112l-59 79 q82 68 174 104t211 36q188 0 287.5 -93.5t99.5 -281.5v-551q0 -43 16.5 -66.5t57.5 -23.5q29 0 49 4zM664.5 133q97.5 51 158.5 133v185q-166 27 -284 26q-135 0 -224.5 -48t-89.5 -157q0 -98 71 -144t167 -46q104 0 201.5 51z" glyph-name="uni1EB3" horiz-adv-x="1126" unicode="ẳ"/><glyph d="M948 1962q-39 -74 -76.5 -108.5t-85.5 -34.5q-29 0 -54 10t-64 33q-61 35 -95 34q-33 0 -56 -19t-46 -60l-72 32q31 76 77 110t95 34q33 0 57.5 -10.5t67.5 -34.5q23 -14 44.5 -24.5t39.5 -10.5q31 0 51.5 19.5t36 42t19.5 30.5zM851 1582q-77 -60 -175 -60 q-100 0 -176 60t-92 165h94q14 -68 61 -102.5t113 -34.5t110.5 34.5t59.5 102.5h100q-18 -105 -95 -165zM1016 383h-684l-142 -383h-129l533 1434h166l532 -1434h-137zM977 494l-301 831l-305 -831h606z" glyph-name="uni1EB4" horiz-adv-x="1353" unicode="Ẵ"/><glyph d="M836 1655q-39 -74 -77 -109t-85 -35q-29 0 -54.5 10.5t-64.5 32.5q-61 35 -94 35t-56.5 -19.5t-46.5 -60.5l-71 33q31 76 77 110t95 34q33 0 57.5 -10.5t67.5 -35.5q23 -14 44 -24t40 -10q31 0 51 19.5t35.5 42t19.5 30.5zM738.5 1274.5q-76.5 -60.5 -175.5 -60.5 q-100 0 -176 60.5t-92 165.5h94q14 -68 61.5 -102.5t112.5 -34.5q66 0 111 34.5t59 102.5h101q-19 -105 -95.5 -165.5zM1065 86l-12 -80q-29 -12 -76 -12q-70 0 -106.5 37t-47.5 116q-70 -82 -167 -127t-214 -45q-147 0 -243.5 75t-96.5 220q0 166 125 241t314 75 q111 0 282 -29v176q0 133 -80.5 195.5t-205.5 62.5q-164 0 -308 -112l-59 79q82 68 174 104t211 36q188 0 287.5 -93.5t99.5 -281.5v-551q0 -43 16.5 -66.5t57.5 -23.5q29 0 49 4zM664.5 133q97.5 51 158.5 133v185q-166 27 -284 26q-135 0 -224.5 -48t-89.5 -157 q0 -98 71 -144t167 -46q104 0 201.5 51z" glyph-name="uni1EB5" horiz-adv-x="1126" unicode="ẵ"/><glyph d="M851 1629.5q-77 -60.5 -175 -60.5q-100 0 -176 60.5t-92 164.5h94q14 -68 61 -103.5t113 -35.5t110.5 35.5t59.5 103.5h100q-18 -104 -95 -164.5zM739.5 -177.5q26.5 -23.5 26.5 -70.5t-26.5 -70.5t-65.5 -23.5q-37 0 -62.5 23.5t-25.5 70.5t25.5 70.5t62.5 23.5 q39 0 65.5 -23.5zM1016 383h-684l-142 -383h-129l533 1434h166l532 -1434h-137zM977 494l-301 831l-305 -831h606z" glyph-name="uni1EB6" horiz-adv-x="1353" unicode="Ặ"/><glyph d="M738.5 1274.5q-76.5 -60.5 -175.5 -60.5q-100 0 -176 60.5t-92 165.5h94q12 -68 60.5 -102.5t113.5 -34.5q66 0 111 34.5t59 102.5h101q-19 -105 -95.5 -165.5zM606.5 -177.5q26.5 -23.5 26.5 -70.5t-26.5 -70.5t-65.5 -23.5q-37 0 -62.5 23.5t-25.5 70.5t25.5 70.5 t62.5 23.5q39 0 65.5 -23.5zM1065 86l-12 -80q-29 -12 -76 -12q-70 0 -106.5 37t-47.5 116q-70 -82 -167 -127t-214 -45q-147 0 -243.5 75t-96.5 220q0 166 125 241t314 75q111 0 282 -29v176q0 133 -80.5 195.5t-205.5 62.5q-164 0 -308 -112l-59 79q82 68 174 104t211 36 q188 0 287.5 -93.5t99.5 -281.5v-551q0 -43 16.5 -66.5t57.5 -23.5q29 0 49 4zM664.5 133q97.5 51 158.5 133v185q-166 27 -284 26q-135 0 -224.5 -48t-89.5 -157q0 -98 71 -144t167 -46q104 0 201.5 51z" glyph-name="uni1EB7" horiz-adv-x="1126" unicode="ặ"/><glyph d="M743.5 -177.5q26.5 -23.5 26.5 -70.5t-26.5 -70.5t-65.5 -23.5q-37 0 -62.5 23.5t-25.5 70.5t25.5 70.5t62.5 23.5q39 0 65.5 -23.5zM1085 1327h-759v-536h678v-109h-678v-567h759v-115h-880v1434h880v-107z" glyph-name="uni1EB8" horiz-adv-x="1187" unicode="Ẹ"/><glyph d="M637 -177.5q27 -23.5 27 -70.5t-27 -70.5t-66 -23.5q-37 0 -62.5 23.5t-25.5 70.5t26 70.5t62 23.5q39 0 66 -23.5zM1051 498h-826q14 -211 114.5 -313.5t276.5 -102.5q205 0 353 127l71 -76q-86 -76 -190.5 -117t-253.5 -41q-133 0 -245.5 61.5t-180.5 186.5t-68 307 q0 180 62.5 308.5t175.5 194t260 65.5t250.5 -67.5t155 -180.5t51.5 -248q0 -57 -6 -104zM335.5 887.5q-104.5 -103.5 -112.5 -283.5h725q-8 176 -95 281.5t-249 105.5q-164 0 -268.5 -103.5z" glyph-name="uni1EB9" horiz-adv-x="1159" unicode="ẹ"/><glyph d="M541 1581q143 33 143 88q0 39 -44 61.5t-126 20.5v84q16 2 45 2q113 0 176.5 -41t63.5 -123q0 -59 -51.5 -102t-139.5 -62zM1085 1327h-759v-536h678v-109h-678v-567h759v-115h-880v1434h880v-107z" glyph-name="uni1EBA" horiz-adv-x="1187" unicode="Ẻ"/><glyph d="M489 1221q143 33 144 88q0 39 -44 61.5t-126 20.5v84q16 2 47 2q111 0 174.5 -42t63.5 -122q0 -59 -50.5 -102.5t-140.5 -61.5zM1051 498h-826q14 -211 114.5 -313.5t276.5 -102.5q205 0 353 127l71 -76q-86 -76 -190.5 -117t-253.5 -41q-133 0 -245.5 61.5t-180.5 186.5 t-68 307q0 180 62.5 308.5t175.5 194t260 65.5t250.5 -67.5t155 -180.5t51.5 -248q0 -57 -6 -104zM335.5 887.5q-104.5 -103.5 -112.5 -283.5h725q-8 176 -95 281.5t-249 105.5q-164 0 -268.5 -103.5z" glyph-name="uni1EBB" horiz-adv-x="1159" unicode="ẻ"/><glyph d="M946 1749q-74 -160 -176 -160q-31 0 -56.5 14.5t-62.5 41.5q-33 25 -55.5 37t-48.5 12q-33 0 -58.5 -23.5t-46.5 -68.5l-73 34q31 84 80 124t102 40q37 0 65.5 -15.5t67.5 -45.5q31 -25 50.5 -36t41.5 -11q33 0 53.5 24.5t31.5 48t16 29.5zM1085 1327h-759v-536h678v-109 h-678v-567h759v-115h-880v1434h880v-107z" glyph-name="uni1EBC" horiz-adv-x="1187" unicode="Ẽ"/><glyph d="M883 1389q-74 -160 -176 -160q-31 0 -56.5 14t-62.5 41q-33 25 -55.5 37t-49.5 12q-33 0 -58.5 -23.5t-45.5 -68.5l-74 35q31 84 80 124t102 40q37 0 66 -15.5t68 -46.5q31 -25 50 -36t42 -11q33 0 53 24.5t31.5 48t15.5 30.5zM1051 498h-826q14 -211 114.5 -313.5 t276.5 -102.5q205 0 353 127l71 -76q-86 -76 -190.5 -117t-253.5 -41q-133 0 -245.5 61.5t-180.5 186.5t-68 307q0 180 62.5 308.5t175.5 194t260 65.5t250.5 -67.5t155 -180.5t51.5 -248q0 -57 -6 -104zM335.5 887.5q-104.5 -103.5 -112.5 -283.5h725q-8 176 -95 281.5 t-249 105.5q-164 0 -268.5 -103.5z" glyph-name="uni1EBD" horiz-adv-x="1159" unicode="ẽ"/><glyph d="M911 1722h-106l121 205h155zM696 1747l217 -197h-133l-123 99l-118 -99h-140l230 197h67zM1085 1327h-759v-536h678v-109h-678v-567h759v-115h-880v1434h880v-107z" glyph-name="uni1EBE" horiz-adv-x="1187" unicode="Ế"/><glyph d="M860 1395h-106l120 204h156zM645 1419l217 -196h-133l-123 98l-119 -98h-139l230 196h67zM1051 498h-826q14 -211 114.5 -313.5t276.5 -102.5q205 0 353 127l71 -76q-86 -76 -190.5 -117t-253.5 -41q-133 0 -245.5 61.5t-180.5 186.5t-68 307q0 180 62.5 308.5t175.5 194 t260 65.5t250.5 -67.5t155 -180.5t51.5 -248q0 -57 -6 -104zM335.5 887.5q-104.5 -103.5 -112.5 -283.5h725q-8 176 -95 281.5t-249 105.5q-164 0 -268.5 -103.5z" glyph-name="uni1EBF" horiz-adv-x="1159" unicode="ế"/><glyph d="M850 1722l-170 205h156l120 -205h-106zM698 1747l217 -197h-133l-123 99l-118 -99h-140l230 197h67zM1085 1327h-759v-536h678v-109h-678v-567h759v-115h-880v1434h880v-107z" glyph-name="uni1EC0" horiz-adv-x="1187" unicode="Ề"/><glyph d="M797 1395l-170 204h155l121 -204h-106zM645 1419l217 -196h-133l-123 98l-119 -98h-139l230 196h67zM1051 498h-826q14 -211 114.5 -313.5t276.5 -102.5q205 0 353 127l71 -76q-86 -76 -190.5 -117t-253.5 -41q-133 0 -245.5 61.5t-180.5 186.5t-68 307q0 180 62.5 308.5 t175.5 194t260 65.5t250.5 -67.5t155 -180.5t51.5 -248q0 -57 -6 -104zM335.5 887.5q-104.5 -103.5 -112.5 -283.5h725q-8 176 -95 281.5t-249 105.5q-164 0 -268.5 -103.5z" glyph-name="uni1EC1" horiz-adv-x="1159" unicode="ề"/><glyph d="M951.5 1920q58.5 -40 58.5 -110q0 -98 -121 -143l-60 57q45 20 64.5 39t19.5 43q0 37 -44 59.5t-121 22.5v70q16 2 45 2q100 0 158.5 -40zM696 1747l217 -197h-133l-123 99l-118 -99h-140l230 197h67zM1085 1327h-759v-536h678v-109h-678v-567h759v-115h-880v1434h880 v-107z" glyph-name="uni1EC2" horiz-adv-x="1187" unicode="Ể"/><glyph d="M900 1592q58 -40 58 -109q0 -98 -120 -144l-60 58q45 20 64.5 38.5t19.5 43.5q0 37 -44 59.5t-122 22.5v69q16 2 45 2q101 0 159 -40zM645 1419l217 -196h-133l-123 98l-119 -98h-139l230 196h67zM1051 498h-826q14 -211 114.5 -313.5t276.5 -102.5q205 0 353 127l71 -76 q-86 -76 -190.5 -117t-253.5 -41q-133 0 -245.5 61.5t-180.5 186.5t-68 307q0 180 62.5 308.5t175.5 194t260 65.5t250.5 -67.5t155 -180.5t51.5 -248q0 -57 -6 -104zM335.5 887.5q-104.5 -103.5 -112.5 -283.5h725q-8 176 -95 281.5t-249 105.5q-164 0 -268.5 -103.5z" glyph-name="uni1EC3" horiz-adv-x="1159" unicode="ể"/><glyph d="M496.5 1870.5q-23.5 -19.5 -45.5 -60.5l-72 33q31 76 77 110t95 34q33 0 57.5 -10.5t67.5 -34.5q23 -14 44 -24.5t40 -10.5q31 0 51 19.5t35.5 42t19.5 30.5l62 -43q-39 -72 -77 -108t-85 -36q-29 0 -54.5 10.5t-64.5 32.5q-61 35 -94 35t-56.5 -19.5zM696 1747l217 -197 h-133l-123 99l-118 -99h-140l230 197h67zM1085 1327h-759v-536h678v-109h-678v-567h759v-115h-880v1434h880v-107z" glyph-name="uni1EC4" horiz-adv-x="1187" unicode="Ễ"/><glyph d="M445.5 1543.5q-23.5 -19.5 -46.5 -60.5l-71 33q31 76 77 109.5t95 33.5q33 0 57.5 -10.5t67.5 -34.5q23 -14 44 -24.5t40 -10.5q31 0 51 19.5t35.5 42t19.5 30.5l62 -43q-39 -72 -77 -107.5t-85 -35.5q-29 0 -54.5 10t-64.5 33q-61 35 -94 35t-56.5 -19.5zM645 1419 l217 -196h-133l-123 98l-119 -98h-139l230 196h67zM1051 498h-826q14 -211 114.5 -313.5t276.5 -102.5q205 0 353 127l71 -76q-86 -76 -190.5 -117t-253.5 -41q-133 0 -245.5 61.5t-180.5 186.5t-68 307q0 180 62.5 308.5t175.5 194t260 65.5t250.5 -67.5t155 -180.5 t51.5 -248q0 -57 -6 -104zM335.5 887.5q-104.5 -103.5 -112.5 -283.5h725q-8 176 -95 281.5t-249 105.5q-164 0 -268.5 -103.5z" glyph-name="uni1EC5" horiz-adv-x="1159" unicode="ễ"/><glyph d="M780 1591l-123 113l-118 -113h-140l230 217h67l217 -217h-133zM743.5 -177.5q26.5 -23.5 26.5 -70.5t-26.5 -70.5t-65.5 -23.5q-37 0 -62.5 23.5t-25.5 70.5t25.5 70.5t62.5 23.5q39 0 65.5 -23.5zM1085 1327h-759v-536h678v-109h-678v-567h759v-115h-880v1434h880v-107z " glyph-name="uni1EC6" horiz-adv-x="1187" unicode="Ệ"/><glyph d="M729 1231l-123 112l-119 -112h-139l230 217h67l217 -217h-133zM637 -177.5q27 -23.5 27 -70.5t-27 -70.5t-66 -23.5q-37 0 -62.5 23.5t-25.5 70.5t26 70.5t62 23.5q39 0 66 -23.5zM1051 498h-826q14 -211 114.5 -313.5t276.5 -102.5q205 0 353 127l71 -76 q-86 -76 -190.5 -117t-253.5 -41q-133 0 -245.5 61.5t-180.5 186.5t-68 307q0 180 62.5 308.5t175.5 194t260 65.5t250.5 -67.5t155 -180.5t51.5 -248q0 -57 -6 -104zM335.5 887.5q-104.5 -103.5 -112.5 -283.5h725q-8 176 -95 281.5t-249 105.5q-164 0 -268.5 -103.5z" glyph-name="uni1EC7" horiz-adv-x="1159" unicode="ệ"/><glyph d="M150 1581q143 33 143 88q0 39 -44 61.5t-126 20.5v84q16 2 45 2q113 0 176.5 -41t63.5 -123q0 -59 -51.5 -102t-139.5 -62zM326 0h-121v1434h121v-1434z" glyph-name="uni1EC8" horiz-adv-x="532" unicode="Ỉ"/><glyph d="M127 1221q143 33 143 88q0 39 -44 61.5t-126 20.5v84q16 2 47 2q111 0 174.5 -42t63.5 -122q0 -59 -50 -102.5t-140 -61.5zM303 0h-119v1073h119v-1073z" glyph-name="uni1EC9" horiz-adv-x="489" unicode="ỉ"/><glyph d="M327.5 -177.5q26.5 -23.5 26.5 -70.5t-26.5 -70.5t-65.5 -23.5q-37 0 -62.5 23.5t-25.5 70.5t25.5 70.5t62.5 23.5q39 0 65.5 -23.5zM326 0h-121v1434h121v-1434z" glyph-name="uni1ECA" horiz-adv-x="532" unicode="Ị"/><glyph d="M307.5 -177.5q26.5 -23.5 26.5 -70.5t-26.5 -70.5t-65.5 -23.5q-37 0 -62.5 23.5t-25.5 70.5t25.5 70.5t62.5 23.5q39 0 65.5 -23.5zM303 0h-119v1073h119v-1073zM310.5 1413.5q25.5 -22.5 25.5 -70.5q0 -47 -25.5 -70.5t-64.5 -23.5q-37 0 -63.5 24.5t-26.5 69.5 t26.5 69t63.5 24q39 0 64.5 -22.5z" glyph-name="uni1ECB" horiz-adv-x="489" unicode="ị"/><glyph d="M856 -177.5q27 -23.5 27 -70.5t-27 -70.5t-65 -23.5q-37 0 -63 23.5t-26 70.5t26 70.5t63 23.5q38 0 65 -23.5zM1121.5 1378q152.5 -80 247.5 -245.5t95 -411.5t-95 -414t-248.5 -250t-325.5 -82t-326 82t-250 250t-96 414t96 411.5t249 245.5t327 80t326.5 -80z M518 1280q-125 -70 -198.5 -211t-73.5 -346q0 -201 72.5 -346.5t195.5 -219t272 -73.5q152 0 278 72.5t201.5 217t75.5 349.5q0 203 -74.5 344t-198.5 212t-273 71q-152 0 -277 -70z" glyph-name="uni1ECC" horiz-adv-x="1587" unicode="Ọ"/><glyph d="M673.5 -177.5q26.5 -23.5 26.5 -70.5t-26.5 -70.5t-65.5 -23.5q-37 0 -62.5 23.5t-25.5 70.5t25.5 70.5t62.5 23.5q39 0 65.5 -23.5zM867.5 1037.5q115.5 -60.5 185 -186.5t69.5 -314t-69.5 -314.5t-185 -187t-255.5 -60.5q-139 0 -254.5 60.5t-185.5 186.5t-70 315 q0 188 70 314t185.5 186.5t254.5 60.5q140 0 255.5 -60.5zM330.5 869.5q-105.5 -121.5 -105.5 -332.5t105.5 -333t281.5 -122t281.5 123t105.5 332t-105.5 331.5t-281.5 122.5t-281.5 -121.5z" glyph-name="uni1ECD" horiz-adv-x="1224" unicode="ọ"/><glyph d="M680 1581q143 33 143 88q0 39 -44 61.5t-126 20.5v84q16 2 45 2q113 0 176.5 -41t63.5 -123q0 -59 -51 -102t-139 -62zM1121.5 1378q152.5 -80 247.5 -245.5t95 -411.5t-95 -414t-248.5 -250t-325.5 -82t-326 82t-250 250t-96 414t96 411.5t249 245.5t327 80t326.5 -80z M518 1280q-125 -70 -198.5 -211t-73.5 -346q0 -201 72.5 -346.5t195.5 -219t272 -73.5q152 0 278 72.5t201.5 217t75.5 349.5q0 203 -74.5 344t-198.5 212t-273 71q-152 0 -277 -70z" glyph-name="uni1ECE" horiz-adv-x="1587" unicode="Ỏ"/><glyph d="M496 1221q143 33 143 88q0 39 -44 61.5t-126 20.5v84q16 2 47 2q111 0 174.5 -42t63.5 -122q0 -59 -50.5 -102.5t-140.5 -61.5zM867.5 1037.5q115.5 -60.5 185 -186.5t69.5 -314t-69.5 -314.5t-185 -187t-255.5 -60.5q-139 0 -254.5 60.5t-185.5 186.5t-70 315 q0 188 70 314t185.5 186.5t254.5 60.5q140 0 255.5 -60.5zM330.5 869.5q-105.5 -121.5 -105.5 -332.5t105.5 -333t281.5 -122t281.5 123t105.5 332t-105.5 331.5t-281.5 122.5t-281.5 -121.5z" glyph-name="uni1ECF" horiz-adv-x="1224" unicode="ỏ"/><glyph d="M1051 1722h-107l121 205h156zM836 1747l217 -197h-133l-123 99l-119 -99h-139l229 197h68zM1121.5 1378q152.5 -80 247.5 -245.5t95 -411.5t-95 -414t-248.5 -250t-325.5 -82t-326 82t-250 250t-96 414t96 411.5t249 245.5t327 80t326.5 -80zM518 1280 q-125 -70 -198.5 -211t-73.5 -346q0 -201 72.5 -346.5t195.5 -219t272 -73.5q152 0 278 72.5t201.5 217t75.5 349.5q0 203 -74.5 344t-198.5 212t-273 71q-152 0 -277 -70z" glyph-name="uni1ED0" horiz-adv-x="1587" unicode="Ố"/><glyph d="M868 1395h-106l121 204h155zM653 1419l217 -196h-133l-123 98l-118 -98h-140l230 196h67zM867.5 1037.5q115.5 -60.5 185 -186.5t69.5 -314t-69.5 -314.5t-185 -187t-255.5 -60.5q-139 0 -254.5 60.5t-185.5 186.5t-70 315q0 188 70 314t185.5 186.5t254.5 60.5 q140 0 255.5 -60.5zM330.5 869.5q-105.5 -121.5 -105.5 -332.5t105.5 -333t281.5 -122t281.5 123t105.5 332t-105.5 331.5t-281.5 122.5t-281.5 -121.5z" glyph-name="uni1ED1" horiz-adv-x="1224" unicode="ố"/><glyph d="M989 1722l-170 205h156l121 -205h-107zM838 1747l217 -197h-133l-123 99l-119 -99h-139l229 197h68zM1121.5 1378q152.5 -80 247.5 -245.5t95 -411.5t-95 -414t-248.5 -250t-325.5 -82t-326 82t-250 250t-96 414t96 411.5t249 245.5t327 80t326.5 -80zM518 1280 q-125 -70 -198.5 -211t-73.5 -346q0 -201 72.5 -346.5t195.5 -219t272 -73.5q152 0 278 72.5t201.5 217t75.5 349.5q0 203 -74.5 344t-198.5 212t-273 71q-152 0 -277 -70z" glyph-name="uni1ED2" horiz-adv-x="1587" unicode="Ồ"/><glyph d="M805 1395l-170 204h156l120 -204h-106zM653 1419l217 -196h-133l-123 98l-118 -98h-140l230 196h67zM867.5 1037.5q115.5 -60.5 185 -186.5t69.5 -314t-69.5 -314.5t-185 -187t-255.5 -60.5q-139 0 -254.5 60.5t-185.5 186.5t-70 315q0 188 70 314t185.5 186.5 t254.5 60.5q140 0 255.5 -60.5zM330.5 869.5q-105.5 -121.5 -105.5 -332.5t105.5 -333t281.5 -122t281.5 123t105.5 332t-105.5 331.5t-281.5 122.5t-281.5 -121.5z" glyph-name="uni1ED3" horiz-adv-x="1224" unicode="ồ"/><glyph d="M1090.5 1920q58.5 -40 58.5 -110q0 -98 -121 -143l-59 57q45 20 64.5 39t19.5 43q0 37 -44 59.5t-122 22.5v70q16 2 45 2q100 0 158.5 -40zM836 1747l217 -197h-133l-123 99l-119 -99h-139l229 197h68zM1121.5 1378q152.5 -80 247.5 -245.5t95 -411.5t-95 -414 t-248.5 -250t-325.5 -82t-326 82t-250 250t-96 414t96 411.5t249 245.5t327 80t326.5 -80zM518 1280q-125 -70 -198.5 -211t-73.5 -346q0 -201 72.5 -346.5t195.5 -219t272 -73.5q152 0 278 72.5t201.5 217t75.5 349.5q0 203 -74.5 344t-198.5 212t-273 71q-152 0 -277 -70z " glyph-name="uni1ED4" horiz-adv-x="1587" unicode="Ổ"/><glyph d="M908.5 1592q58.5 -40 58.5 -109q0 -98 -121 -144l-60 58q45 20 64.5 38.5t19.5 43.5q0 37 -44 59.5t-121 22.5v69q16 2 45 2q100 0 158.5 -40zM653 1419l217 -196h-133l-123 98l-118 -98h-140l230 196h67zM867.5 1037.5q115.5 -60.5 185 -186.5t69.5 -314t-69.5 -314.5 t-185 -187t-255.5 -60.5q-139 0 -254.5 60.5t-185.5 186.5t-70 315q0 188 70 314t185.5 186.5t254.5 60.5q140 0 255.5 -60.5zM330.5 869.5q-105.5 -121.5 -105.5 -332.5t105.5 -333t281.5 -122t281.5 123t105.5 332t-105.5 331.5t-281.5 122.5t-281.5 -121.5z" glyph-name="uni1ED5" horiz-adv-x="1224" unicode="ổ"/><glyph d="M635.5 1870.5q-23.5 -19.5 -45.5 -60.5l-72 33q31 76 77 110t95 34q33 0 57.5 -10.5t67.5 -34.5q23 -14 44.5 -24.5t39.5 -10.5q31 0 51.5 19.5t35.5 42t20 30.5l61 -43q-39 -72 -77 -108t-85 -36q-29 0 -54.5 10.5t-64.5 32.5q-61 35 -94 35t-56.5 -19.5zM836 1747 l217 -197h-133l-123 99l-119 -99h-139l229 197h68zM1121.5 1378q152.5 -80 247.5 -245.5t95 -411.5t-95 -414t-248.5 -250t-325.5 -82t-326 82t-250 250t-96 414t96 411.5t249 245.5t327 80t326.5 -80zM518 1280q-125 -70 -198.5 -211t-73.5 -346q0 -201 72.5 -346.5 t195.5 -219t272 -73.5q152 0 278 72.5t201.5 217t75.5 349.5q0 203 -74.5 344t-198.5 212t-273 71q-152 0 -277 -70z" glyph-name="uni1ED6" horiz-adv-x="1587" unicode="Ỗ"/><glyph d="M453.5 1543.5q-23.5 -19.5 -45.5 -60.5l-72 33q31 76 77 109.5t95 33.5q33 0 57.5 -10.5t67.5 -34.5q23 -14 44 -24.5t40 -10.5q31 0 51 19.5t35.5 42t19.5 30.5l62 -43q-39 -72 -77 -107.5t-85 -35.5q-29 0 -54.5 10t-64.5 33q-61 35 -94 35t-56.5 -19.5zM653 1419 l217 -196h-133l-123 98l-118 -98h-140l230 196h67zM867.5 1037.5q115.5 -60.5 185 -186.5t69.5 -314t-69.5 -314.5t-185 -187t-255.5 -60.5q-139 0 -254.5 60.5t-185.5 186.5t-70 315q0 188 70 314t185.5 186.5t254.5 60.5q140 0 255.5 -60.5zM330.5 869.5 q-105.5 -121.5 -105.5 -332.5t105.5 -333t281.5 -122t281.5 123t105.5 332t-105.5 331.5t-281.5 122.5t-281.5 -121.5z" glyph-name="uni1ED7" horiz-adv-x="1224" unicode="ỗ"/><glyph d="M920 1591l-123 113l-119 -113h-139l229 217h68l217 -217h-133zM856 -177.5q27 -23.5 27 -70.5t-27 -70.5t-65 -23.5q-37 0 -63 23.5t-26 70.5t26 70.5t63 23.5q38 0 65 -23.5zM1121.5 1378q152.5 -80 247.5 -245.5t95 -411.5t-95 -414t-248.5 -250t-325.5 -82t-326 82 t-250 250t-96 414t96 411.5t249 245.5t327 80t326.5 -80zM518 1280q-125 -70 -198.5 -211t-73.5 -346q0 -201 72.5 -346.5t195.5 -219t272 -73.5q152 0 278 72.5t201.5 217t75.5 349.5q0 203 -74.5 344t-198.5 212t-273 71q-152 0 -277 -70z" glyph-name="uni1ED8" horiz-adv-x="1587" unicode="Ộ"/><glyph d="M737 1231l-123 112l-118 -112h-140l230 217h67l217 -217h-133zM673.5 -177.5q26.5 -23.5 26.5 -70.5t-26.5 -70.5t-65.5 -23.5q-37 0 -62.5 23.5t-25.5 70.5t25.5 70.5t62.5 23.5q39 0 65.5 -23.5zM867.5 1037.5q115.5 -60.5 185 -186.5t69.5 -314t-69.5 -314.5 t-185 -187t-255.5 -60.5q-139 0 -254.5 60.5t-185.5 186.5t-70 315q0 188 70 314t185.5 186.5t254.5 60.5q140 0 255.5 -60.5zM330.5 869.5q-105.5 -121.5 -105.5 -332.5t105.5 -333t281.5 -122t281.5 123t105.5 332t-105.5 331.5t-281.5 122.5t-281.5 -121.5z" glyph-name="uni1ED9" horiz-adv-x="1224" unicode="ộ"/><glyph d="M799 1569h-113l156 225h180zM1390.5 1092.5q73.5 -154.5 73.5 -371.5q0 -246 -95 -414t-248.5 -250t-325.5 -82t-326 82t-250 250t-96 414t96 411.5t249 245.5t327 80q47 0 92 -6l82 -10q111 -18 182 -19q55 0 80.5 31t25.5 94v168h121v-168q0 -92 -47 -147t-143 -64 q129 -90 202.5 -244.5zM1064 156.5q126 72.5 201.5 217t75.5 349.5q0 203 -74.5 344t-198.5 212t-273 71q-152 0 -277 -70t-198.5 -211t-73.5 -346q0 -201 72.5 -346.5t195.5 -219t272 -73.5q152 0 278 72.5z" glyph-name="uni1EDA" horiz-adv-x="1587" unicode="Ớ"/><glyph d="M614 1208h-110l155 226h181zM1071 811q51 -115 51 -274q0 -188 -69.5 -314.5t-185 -187t-255.5 -60.5q-139 0 -254.5 60.5t-185.5 186.5t-70 315q0 188 70 314t185.5 186.5t254.5 60.5q53 0 95 -8q16 -2 54 -6.5t68 -4.5q66 0 95.5 25.5t29.5 83.5v125h119v-125 q0 -154 -143 -193q90 -69 141 -184zM893.5 205q105.5 123 105.5 332t-105.5 331.5t-281.5 122.5t-281.5 -121.5t-105.5 -332.5t105.5 -333t281.5 -122t281.5 123z" glyph-name="uni1EDB" horiz-adv-x="1224" unicode="ớ"/><glyph d="M862 1569h-108l-232 225h183zM1390.5 1092.5q73.5 -154.5 73.5 -371.5q0 -246 -95 -414t-248.5 -250t-325.5 -82t-326 82t-250 250t-96 414t96 411.5t249 245.5t327 80q47 0 92 -6l82 -10q111 -18 182 -19q55 0 80.5 31t25.5 94v168h121v-168q0 -92 -47 -147t-143 -64 q129 -90 202.5 -244.5zM1064 156.5q126 72.5 201.5 217t75.5 349.5q0 203 -74.5 344t-198.5 212t-273 71q-152 0 -277 -70t-198.5 -211t-73.5 -346q0 -201 72.5 -346.5t195.5 -219t272 -73.5q152 0 278 72.5z" glyph-name="uni1EDC" horiz-adv-x="1587" unicode="Ờ"/><glyph d="M680 1208h-109l-231 226h182zM1071 811q51 -115 51 -274q0 -188 -69.5 -314.5t-185 -187t-255.5 -60.5q-139 0 -254.5 60.5t-185.5 186.5t-70 315q0 188 70 314t185.5 186.5t254.5 60.5q53 0 95 -8q16 -2 54 -6.5t68 -4.5q66 0 95.5 25.5t29.5 83.5v125h119v-125 q0 -154 -143 -193q90 -69 141 -184zM893.5 205q105.5 123 105.5 332t-105.5 331.5t-281.5 122.5t-281.5 -121.5t-105.5 -332.5t105.5 -333t281.5 -122t281.5 123z" glyph-name="uni1EDD" horiz-adv-x="1224" unicode="ờ"/><glyph d="M680 1581q143 33 143 88q0 39 -44 61.5t-126 20.5v84q16 2 45 2q113 0 176.5 -41t63.5 -123q0 -59 -51 -102t-139 -62zM1390.5 1092.5q73.5 -154.5 73.5 -371.5q0 -246 -95 -414t-248.5 -250t-325.5 -82t-326 82t-250 250t-96 414t96 411.5t249 245.5t327 80q47 0 92 -6 l82 -10q111 -18 182 -19q55 0 80.5 31t25.5 94v168h121v-168q0 -92 -47 -147t-143 -64q129 -90 202.5 -244.5zM1064 156.5q126 72.5 201.5 217t75.5 349.5q0 203 -74.5 344t-198.5 212t-273 71q-152 0 -277 -70t-198.5 -211t-73.5 -346q0 -201 72.5 -346.5t195.5 -219 t272 -73.5q152 0 278 72.5z" glyph-name="uni1EDE" horiz-adv-x="1587" unicode="Ở"/><glyph d="M496 1221q143 33 143 88q0 39 -44 61.5t-126 20.5v84q16 2 47 2q111 0 174.5 -42t63.5 -122q0 -59 -50.5 -102.5t-140.5 -61.5zM1071 811q51 -115 51 -274q0 -188 -69.5 -314.5t-185 -187t-255.5 -60.5q-139 0 -254.5 60.5t-185.5 186.5t-70 315q0 188 70 314 t185.5 186.5t254.5 60.5q53 0 95 -8q16 -2 54 -6.5t68 -4.5q66 0 95.5 25.5t29.5 83.5v125h119v-125q0 -154 -143 -193q90 -69 141 -184zM893.5 205q105.5 123 105.5 332t-105.5 331.5t-281.5 122.5t-281.5 -121.5t-105.5 -332.5t105.5 -333t281.5 -122t281.5 123z" glyph-name="uni1EDF" horiz-adv-x="1224" unicode="ở"/><glyph d="M1085 1749q-74 -160 -176 -160q-31 0 -56.5 14.5t-61.5 41.5q-33 25 -55.5 37t-49.5 12q-33 0 -58.5 -23.5t-45.5 -68.5l-74 34q31 84 80 124t102 40q37 0 65.5 -15.5t67.5 -45.5q31 -25 50.5 -36t41.5 -11q33 0 53.5 24.5t32 48t15.5 29.5zM1390.5 1092.5 q73.5 -154.5 73.5 -371.5q0 -246 -95 -414t-248.5 -250t-325.5 -82t-326 82t-250 250t-96 414t96 411.5t249 245.5t327 80q47 0 92 -6l82 -10q111 -18 182 -19q55 0 80.5 31t25.5 94v168h121v-168q0 -92 -47 -147t-143 -64q129 -90 202.5 -244.5zM1064 156.5 q126 72.5 201.5 217t75.5 349.5q0 203 -74.5 344t-198.5 212t-273 71q-152 0 -277 -70t-198.5 -211t-73.5 -346q0 -201 72.5 -346.5t195.5 -219t272 -73.5q152 0 278 72.5z" glyph-name="uni1EE0" horiz-adv-x="1587" unicode="Ỡ"/><glyph d="M891 1389q-74 -160 -176 -160q-31 0 -56.5 14t-62.5 41q-33 25 -55.5 37t-48.5 12q-33 0 -58.5 -23.5t-46.5 -68.5l-74 35q31 84 80 124t103 40q37 0 65.5 -15.5t67.5 -46.5q31 -25 50 -36t42 -11q33 0 53.5 24.5t31.5 48t15 30.5zM1071 811q51 -115 51 -274 q0 -188 -69.5 -314.5t-185 -187t-255.5 -60.5q-139 0 -254.5 60.5t-185.5 186.5t-70 315q0 188 70 314t185.5 186.5t254.5 60.5q53 0 95 -8q16 -2 54 -6.5t68 -4.5q66 0 95.5 25.5t29.5 83.5v125h119v-125q0 -154 -143 -193q90 -69 141 -184zM893.5 205q105.5 123 105.5 332 t-105.5 331.5t-281.5 122.5t-281.5 -121.5t-105.5 -332.5t105.5 -333t281.5 -122t281.5 123z" glyph-name="uni1EE1" horiz-adv-x="1224" unicode="ỡ"/><glyph d="M856 -177.5q27 -23.5 27 -70.5t-27 -70.5t-65 -23.5q-37 0 -63 23.5t-26 70.5t26 70.5t63 23.5q38 0 65 -23.5zM1390.5 1092.5q73.5 -154.5 73.5 -371.5q0 -246 -95 -414t-248.5 -250t-325.5 -82t-326 82t-250 250t-96 414t96 411.5t249 245.5t327 80q47 0 92 -6l82 -10 q111 -18 182 -19q55 0 80.5 31t25.5 94v168h121v-168q0 -92 -47 -147t-143 -64q129 -90 202.5 -244.5zM1064 156.5q126 72.5 201.5 217t75.5 349.5q0 203 -74.5 344t-198.5 212t-273 71q-152 0 -277 -70t-198.5 -211t-73.5 -346q0 -201 72.5 -346.5t195.5 -219t272 -73.5 q152 0 278 72.5z" glyph-name="uni1EE2" horiz-adv-x="1587" unicode="Ợ"/><glyph d="M673.5 -177.5q26.5 -23.5 26.5 -70.5t-26.5 -70.5t-65.5 -23.5q-37 0 -62.5 23.5t-25.5 70.5t25.5 70.5t62.5 23.5q39 0 65.5 -23.5zM1071 811q51 -115 51 -274q0 -188 -69.5 -314.5t-185 -187t-255.5 -60.5q-139 0 -254.5 60.5t-185.5 186.5t-70 315q0 188 70 314 t185.5 186.5t254.5 60.5q53 0 95 -8q16 -2 54 -6.5t68 -4.5q66 0 95.5 25.5t29.5 83.5v125h119v-125q0 -154 -143 -193q90 -69 141 -184zM893.5 205q105.5 123 105.5 332t-105.5 331.5t-281.5 122.5t-281.5 -121.5t-105.5 -332.5t105.5 -333t281.5 -122t281.5 123z" glyph-name="uni1EE3" horiz-adv-x="1224" unicode="ợ"/><glyph d="M796.5 -177.5q26.5 -23.5 26.5 -70.5t-26.5 -70.5t-65.5 -23.5q-37 0 -62.5 23.5t-25.5 70.5t25.5 70.5t62.5 23.5q39 0 65.5 -23.5zM470 31.5q-120 56.5 -192.5 177.5t-72.5 307v918h121v-932q0 -193 108.5 -300.5t300.5 -107.5q195 0 301.5 107.5t106.5 300.5v932h121 v-918q0 -186 -72 -307t-191.5 -177.5t-265.5 -56.5q-145 0 -265 56.5z" glyph-name="uni1EE4" horiz-adv-x="1468" unicode="Ụ"/><glyph d="M661.5 -177.5q26.5 -23.5 26.5 -70.5t-26.5 -70.5t-65.5 -23.5q-37 0 -62.5 23.5t-25.5 70.5t25.5 70.5t62.5 23.5q39 0 65.5 -23.5zM1014 0h-92l-25 162h-6q-76 -92 -166 -139.5t-209 -47.5q-145 0 -238.5 92.5t-93.5 290.5v715h119v-688q0 -162 62.5 -232.5 t164.5 -70.5q111 0 193 54t172 153v784h119v-1073z" glyph-name="uni1EE5" horiz-adv-x="1179" unicode="ụ"/><glyph d="M621 1581q143 33 143 88q0 39 -44 61.5t-126 20.5v84q16 2 45 2q113 0 176.5 -41t63.5 -123q0 -59 -51.5 -102t-139.5 -62zM470 31.5q-120 56.5 -192.5 177.5t-72.5 307v918h121v-932q0 -193 108.5 -300.5t300.5 -107.5q195 0 301.5 107.5t106.5 300.5v932h121v-918 q0 -186 -72 -307t-191.5 -177.5t-265.5 -56.5q-145 0 -265 56.5z" glyph-name="uni1EE6" horiz-adv-x="1468" unicode="Ủ"/><glyph d="M483 1221q143 33 144 88q0 39 -44 61.5t-126 20.5v84q16 2 47 2q111 0 174 -42t63 -122q0 -59 -50 -102.5t-140 -61.5zM1014 0h-92l-25 162h-6q-76 -92 -166 -139.5t-209 -47.5q-145 0 -238.5 92.5t-93.5 290.5v715h119v-688q0 -162 62.5 -232.5t164.5 -70.5 q111 0 193 54t172 153v784h119v-1073z" glyph-name="uni1EE7" horiz-adv-x="1179" unicode="ủ"/><glyph d="M739 1569h-112l155 225h181zM1493 1694v-133q0 -102 -57.5 -158.5t-171.5 -56.5v-830q0 -186 -72 -307t-191.5 -177.5t-265.5 -56.5q-145 0 -265 56.5t-192.5 177.5t-72.5 307v918h121v-932q0 -193 108.5 -300.5t300.5 -107.5q195 0 301.5 107.5t106.5 300.5v932h121 q106 0 106 127v133h123z" glyph-name="uni1EE8" horiz-adv-x="1468" unicode="Ứ"/><glyph d="M602 1208h-110l155 226h180zM1198 1311v-129q0 -174 -184 -199v-983h-92l-25 162h-6q-76 -92 -166 -139.5t-209 -47.5q-145 0 -238.5 92.5t-93.5 290.5v715h119v-688q0 -162 62.5 -232.5t164.5 -70.5q111 0 193 54t172 153v784h59q63 0 93 25.5t30 83.5v129h121z" glyph-name="uni1EE9" horiz-adv-x="1198" unicode="ứ"/><glyph d="M803 1569h-109l-231 225h182zM1493 1694v-133q0 -102 -57.5 -158.5t-171.5 -56.5v-830q0 -186 -72 -307t-191.5 -177.5t-265.5 -56.5q-145 0 -265 56.5t-192.5 177.5t-72.5 307v918h121v-932q0 -193 108.5 -300.5t300.5 -107.5q195 0 301.5 107.5t106.5 300.5v932h121 q106 0 106 127v133h123z" glyph-name="uni1EEA" horiz-adv-x="1468" unicode="Ừ"/><glyph d="M668 1208h-109l-231 226h182zM1198 1311v-129q0 -174 -184 -199v-983h-92l-25 162h-6q-76 -92 -166 -139.5t-209 -47.5q-145 0 -238.5 92.5t-93.5 290.5v715h119v-688q0 -162 62.5 -232.5t164.5 -70.5q111 0 193 54t172 153v784h59q63 0 93 25.5t30 83.5v129h121z" glyph-name="uni1EEB" horiz-adv-x="1198" unicode="ừ"/><glyph d="M621 1581q143 33 143 88q0 39 -44 61.5t-126 20.5v84q16 2 45 2q113 0 176.5 -41t63.5 -123q0 -59 -51.5 -102t-139.5 -62zM1493 1694v-133q0 -102 -57.5 -158.5t-171.5 -56.5v-830q0 -186 -72 -307t-191.5 -177.5t-265.5 -56.5q-145 0 -265 56.5t-192.5 177.5t-72.5 307 v918h121v-932q0 -193 108.5 -300.5t300.5 -107.5q195 0 301.5 107.5t106.5 300.5v932h121q106 0 106 127v133h123z" glyph-name="uni1EEC" horiz-adv-x="1468" unicode="Ử"/><glyph d="M483 1221q143 33 144 88q0 39 -44 61.5t-126 20.5v84q16 2 47 2q111 0 174 -42t63 -122q0 -59 -50 -102.5t-140 -61.5zM1198 1311v-129q0 -174 -184 -199v-983h-92l-25 162h-6q-76 -92 -166 -139.5t-209 -47.5q-145 0 -238.5 92.5t-93.5 290.5v715h119v-688 q0 -162 62.5 -232.5t164.5 -70.5q111 0 193 54t172 153v784h59q63 0 93 25.5t30 83.5v129h121z" glyph-name="uni1EED" horiz-adv-x="1198" unicode="ử"/><glyph d="M1026 1749q-74 -160 -176 -160q-31 0 -56.5 14.5t-62.5 41.5q-33 25 -55.5 37t-48.5 12q-33 0 -58.5 -23.5t-46.5 -68.5l-73 34q31 84 80 124t102 40q37 0 65.5 -15.5t67.5 -45.5q31 -25 50.5 -36t41.5 -11q33 0 53.5 24.5t31.5 48t15 29.5zM1493 1694v-133 q0 -102 -57.5 -158.5t-171.5 -56.5v-830q0 -186 -72 -307t-191.5 -177.5t-265.5 -56.5q-145 0 -265 56.5t-192.5 177.5t-72.5 307v918h121v-932q0 -193 108.5 -300.5t300.5 -107.5q195 0 301.5 107.5t106.5 300.5v932h121q106 0 106 127v133h123z" glyph-name="uni1EEE" horiz-adv-x="1468" unicode="Ữ"/><glyph d="M879 1389q-74 -160 -177 -160q-31 0 -56 14t-62 41q-33 25 -55.5 37t-49.5 12q-33 0 -58.5 -23.5t-45.5 -68.5l-74 35q31 84 80 124t102 40q37 0 66 -15.5t67 -46.5q31 -25 50.5 -36t42.5 -11q33 0 53 24.5t31.5 48t15.5 30.5zM1198 1311v-129q0 -174 -184 -199v-983h-92 l-25 162h-6q-76 -92 -166 -139.5t-209 -47.5q-145 0 -238.5 92.5t-93.5 290.5v715h119v-688q0 -162 62.5 -232.5t164.5 -70.5q111 0 193 54t172 153v784h59q63 0 93 25.5t30 83.5v129h121z" glyph-name="uni1EEF" horiz-adv-x="1198" unicode="ữ"/><glyph d="M796.5 -177.5q26.5 -23.5 26.5 -70.5t-26.5 -70.5t-65.5 -23.5q-37 0 -62.5 23.5t-25.5 70.5t25.5 70.5t62.5 23.5q39 0 65.5 -23.5zM1493 1694v-133q0 -102 -57.5 -158.5t-171.5 -56.5v-830q0 -186 -72 -307t-191.5 -177.5t-265.5 -56.5q-145 0 -265 56.5t-192.5 177.5 t-72.5 307v918h121v-932q0 -193 108.5 -300.5t300.5 -107.5q195 0 301.5 107.5t106.5 300.5v932h121q106 0 106 127v133h123z" glyph-name="uni1EF0" horiz-adv-x="1468" unicode="Ự"/><glyph d="M661.5 -177.5q26.5 -23.5 26.5 -70.5t-26.5 -70.5t-65.5 -23.5q-37 0 -62.5 23.5t-25.5 70.5t25.5 70.5t62.5 23.5q39 0 65.5 -23.5zM1198 1311v-129q0 -174 -184 -199v-983h-92l-25 162h-6q-76 -92 -166 -139.5t-209 -47.5q-145 0 -238.5 92.5t-93.5 290.5v715h119v-688 q0 -162 62.5 -232.5t164.5 -70.5q111 0 193 54t172 153v784h59q63 0 93 25.5t30 83.5v129h121z" glyph-name="uni1EF1" horiz-adv-x="1198" unicode="ự"/><glyph d="M682 1569h-109l-231 225h182zM545 573l-504 861h145l422 -750l416 750h141l-499 -861v-573h-121v573z" glyph-name="Ygrave" horiz-adv-x="1206" unicode="Ỳ"/><glyph d="M625 1208h-109l-231 226h182zM631 -66q-66 -174 -159 -265t-228 -91q-70 0 -127 21l22 94q55 -16 107 -17q78 0 145.5 61.5t106.5 166.5l24 65l-461 1104h127l387 -971h9l352 971h119z" glyph-name="ygrave" horiz-adv-x="1091" unicode="ỳ"/><glyph d="M665.5 -177.5q26.5 -23.5 26.5 -70.5t-26.5 -70.5t-65.5 -23.5q-37 0 -62.5 23.5t-25.5 70.5t25.5 70.5t62.5 23.5q39 0 65.5 -23.5zM545 573l-504 861h145l422 -750l416 750h141l-499 -861v-573h-121v573z" glyph-name="uni1EF4" horiz-adv-x="1206" unicode="Ỵ"/><glyph d="M843.5 -177.5q26.5 -23.5 26.5 -70.5t-26.5 -70.5t-65.5 -23.5q-37 0 -62.5 23.5t-25.5 70.5t25.5 70.5t62.5 23.5q39 0 65.5 -23.5zM631 -66q-66 -174 -159 -265t-228 -91q-70 0 -127 21l22 94q55 -16 107 -17q78 0 145.5 61.5t106.5 166.5l24 65l-461 1104h127 l387 -971h9l352 971h119z" glyph-name="uni1EF5" horiz-adv-x="1091" unicode="ỵ"/><glyph d="M500 1581q143 33 143 88q0 39 -44 61.5t-126 20.5v84q16 2 45 2q113 0 176.5 -41t63.5 -123q0 -59 -51.5 -102t-139.5 -62zM545 573l-504 861h145l422 -750l416 750h141l-499 -861v-573h-121v573z" glyph-name="uni1EF6" horiz-adv-x="1206" unicode="Ỷ"/><glyph d="M442 1221q143 33 144 88q0 39 -44 61.5t-126 20.5v84q16 2 47 2q111 0 174 -42t63 -122q0 -59 -50 -102.5t-140 -61.5zM631 -66q-66 -174 -159 -265t-228 -91q-70 0 -127 21l22 94q55 -16 107 -17q78 0 145.5 61.5t106.5 166.5l24 65l-461 1104h127l387 -971h9l352 971 h119z" glyph-name="uni1EF7" horiz-adv-x="1091" unicode="ỷ"/><glyph d="M905 1749q-74 -160 -176 -160q-31 0 -56.5 14.5t-62.5 41.5q-33 25 -55.5 37t-48.5 12q-33 0 -58.5 -23.5t-46.5 -68.5l-73 34q31 84 80 124t102 40q37 0 65.5 -15.5t67.5 -45.5q31 -25 50.5 -36t41.5 -11q33 0 53.5 24.5t31.5 48t16 29.5zM545 573l-504 861h145 l422 -750l416 750h141l-499 -861v-573h-121v573z" glyph-name="uni1EF8" horiz-adv-x="1206" unicode="Ỹ"/><glyph d="M838 1389q-74 -160 -176 -160q-31 0 -56.5 14t-62.5 41q-33 25 -55.5 37t-49.5 12q-33 0 -58.5 -23.5t-45.5 -68.5l-74 35q31 84 80 124t102 40q37 0 66 -15.5t67 -46.5q31 -25 50.5 -36t42.5 -11q33 0 53 24.5t31.5 48t15.5 30.5zM631 -66q-66 -174 -159 -265t-228 -91 q-70 0 -127 21l22 94q55 -16 107 -17q78 0 145.5 61.5t106.5 166.5l24 65l-461 1104h127l387 -971h9l352 971h119z" glyph-name="uni1EF9" horiz-adv-x="1091" unicode="ỹ"/><glyph glyph-name="uni2009" horiz-adv-x="102" unicode=" "/><glyph d="M1075 479h-907v107h907v-107z" glyph-name="endash" horiz-adv-x="1249" unicode="–"/><glyph d="M1761 479h-1595v107h1595v-107z" glyph-name="emdash" horiz-adv-x="1878" unicode="—"/><glyph d="M141.5 1067q-26.5 33 -26.5 86q0 74 43 155t143 150l47 -37q-53 -47 -82.5 -98t-36.5 -98q33 -6 58.5 -31t25.5 -64q0 -47 -26.5 -71.5t-71.5 -24.5q-47 0 -73.5 33z" glyph-name="quoteleft" horiz-adv-x="417" unicode="‘"/><glyph d="M277.5 1425.5q25.5 -32.5 25.5 -86.5q0 -76 -42 -155.5t-142 -149.5l-49 37q53 47 83.5 98.5t36.5 98.5q-33 6 -59.5 30.5t-26.5 63.5q0 47 28 71.5t73 24.5q47 0 72.5 -32.5z" glyph-name="quoteright" horiz-adv-x="417" unicode="’"/><glyph d="M70 -176q53 47 83.5 98t36.5 98q-33 6 -59.5 32t-26.5 65q0 45 28 69.5t73 24.5q47 0 72.5 -32t25.5 -85q0 -76 -42 -156.5t-142 -150.5z" glyph-name="quotesinglbase" horiz-adv-x="417" unicode="‚"/><glyph d="M436 1067q-27 33 -26 86q0 74 43 155t143 150l47 -37q-53 -47 -83 -98t-36 -98q33 -6 59 -31t25 -64q0 -47 -26 -71q-27 -25 -72 -25q-47 0 -74 33zM141 1067q-27 33 -26 86q0 74 43 155t143 150l47 -37q-53 -47 -83 -98t-36 -98q33 -6 59 -31t25 -64q0 -47 -26 -71 q-27 -25 -72 -25q-47 0 -74 33z" glyph-name="quotedblleft" horiz-adv-x="714" unicode="“"/><glyph d="M572 1425q26 -33 26 -86q0 -76 -42 -155q-42 -80 -142 -150l-49 37q53 47 84 98t36 99q-33 6 -59 30q-27 25 -27 64q0 47 28 72t73 24q46 0 72 -33zM278 1425q26 -33 25 -86q0 -76 -42 -155q-42 -80 -142 -150l-49 37q53 47 84 98t36 99q-33 6 -59 30q-27 25 -27 64 q0 47 28 72t73 24q47 0 73 -33z" glyph-name="quotedblright" horiz-adv-x="714" unicode="”"/><glyph d="M365 -176q53 47 84 98t36 98q-33 6 -59 32q-27 26 -27 65q0 45 28 69q28 25 73 25q47 0 72 -32q26 -32 26 -85q0 -76 -42 -156q-42 -81 -142 -151zM70 -176q53 47 84 98t36 98q-33 6 -59 32q-27 26 -27 65q0 45 28 69q28 25 73 25q47 0 73 -32t25 -85q0 -76 -42 -156 q-42 -81 -142 -151z" glyph-name="quotedblbase" horiz-adv-x="714" unicode="„"/><glyph d="M766 971h-287v-971h-119v971h-284v102h284v361h119v-361h287v-102z" glyph-name="dagger" horiz-adv-x="841" unicode="†"/><glyph d="M459 967v-250h270v-107h-270v-610h-117v610h-266v107h266v250h-266v106h266v363h117v-363h270v-106h-270z" glyph-name="daggerdbl" horiz-adv-x="804" unicode="‡"/><glyph d="M197.5 535.5q-56.5 50.5 -56.5 146.5q0 94 56.5 144.5t134.5 50.5q76 0 132 -50.5t56 -144.5t-56 -145.5t-132 -51.5q-78 0 -134.5 50.5z" glyph-name="bullet" horiz-adv-x="661" unicode="•"/><glyph d="M1368 171q31 -30 31 -83t-31 -83t-80 -30t-80 30t-30 83q0 53 30 83q31 30 80 30t80 -30zM903 171q31 -30 31 -83t-31 -83t-80 -30t-80 30t-30 83q0 53 30 83q31 30 80 30t80 -30zM436 171q31 -30 31 -83t-31 -83t-80 -30t-80 30t-30 83q0 53 30 83q31 30 80 30t80 -30z " glyph-name="ellipsis" horiz-adv-x="1644" unicode="…"/><glyph d="M165 917.5q-85 81.5 -85 229.5q0 145 85 228t212 83q125 0 206 -83t81 -228t-81 -228t-206 -83q-127 0 -212 81.5zM1188 1434h117l-965 -1434h-115zM509 985q46 57 46 162q0 104 -47 160.5t-133 56.5q-84 0 -134.5 -57.5t-50.5 -159.5t50.5 -160.5t134.5 -58.5 q88 0 134 57zM926 58q-86 83 -86 231q0 147 86 229t213 82q125 0 206.5 -83t81.5 -228t-81.5 -229.5t-206.5 -84.5q-127 0 -213 83zM1622 58q-86 83 -86 231q0 147 86 229t213 82q123 0 205 -83t82 -228t-82 -229.5t-205 -84.5q-127 0 -213 83zM1269 127q46 57 46 162 q0 104 -46 161.5t-132 57.5q-84 0 -134.5 -58.5t-50.5 -160.5t50.5 -160.5t134.5 -58.5q86 0 132 57zM1965 127q46 57 46 162q0 104 -46 161.5t-132 57.5t-136 -58.5t-50 -160.5t50 -160.5t136 -58.5t132 57z" glyph-name="perthousand" horiz-adv-x="2201" unicode="‰"/><glyph d="M557 819l-244 -295l244 -295l-80 -67l-299 360l295 363z" glyph-name="guilsinglleft" horiz-adv-x="731" unicode="‹"/><glyph d="M571 522l-301 -360l-82 67l246 295l-246 295l86 66z" glyph-name="guilsinglright" horiz-adv-x="757" unicode="›"/><glyph d="M514 1524l-571 -1768h-107l576 1768h102z" glyph-name="fraction" horiz-adv-x="350" unicode="⁄"/><glyph d="M1305 141q-213 -168 -471 -168q-209 0 -358.5 131.5t-196.5 389.5h-201v114h186q-4 70 -4 111q0 35 4 100h-186v115h201q45 262 200.5 393t374.5 131q156 0 261.5 -45t187.5 -113l-74 -88q-78 55 -175.5 91t-199.5 36q-172 0 -288.5 -103t-157.5 -302h784l-29 -115h-772 q-4 -66 -4 -100q0 -57 6 -111h737l-28 -114h-690q43 -190 157.5 -296t264.5 -106q117 0 214 36t185 101z" glyph-name="Euro" horiz-adv-x="1361" unicode="€"/><glyph d="M696 1343h-225v-626h-102v626h-226v91h553v-91zM1573 717h-105v467l-264 -469h-35l-251 469v-467h-103v717h76l299 -562l305 562h78v-717z" glyph-name="trademark" horiz-adv-x="1716" unicode="™"/><glyph d="M466 89q-181 89 -282.5 254t-101.5 382q0 215 101.5 381t282.5 257t413 91q236 0 410.5 -87t275 -255t110.5 -405h-1267q-16 0 -23.5 -6.5t-7.5 -30.5v-357q0 -41 66.5 -102t181 -107.5t254.5 -46.5q145 0 279 64.5t224 167.5h148q-143 -160 -286.5 -224.5t-364.5 -64.5 q-232 0 -413 89zM1343 752q23 0 29 7t6 25v351q0 55 -78.5 118.5t-196.5 106.5t-226 43q-131 0 -246 -47t-184.5 -109.5t-69.5 -97.5v-379q0 -18 31 -18h935z" glyph-name="estimated" horiz-adv-x="1757" unicode="℮"/><glyph d="M1772 362q47 -51 47 -126q0 -70 -40 -127t-112 -92q-72 -34 -164 -33q-94 0 -166 33q-72 34 -110 92q-39 57 -39 124q0 78 49 129t119 76q-55 18 -92 64q-37 45 -37 110q0 94 77 154q77 59 201 59q125 0 202 -59t77 -156q0 -66 -36 -109q-36 -44 -93 -63q70 -25 117 -76z M1390 690q-46 -31 -47 -88q0 -55 46 -84q45 -29 116 -29q72 0 117 29t45 84q0 57 -46 88t-116 31q-69 0 -115 -31zM1644 128q46 40 46 105q0 68 -51 108q-50 40 -134 40t-136 -40t-52 -108q0 -63 48 -104t140 -41q93 0 139 40zM1251 1524l-571 -1768h-107l576 1768h102z M465 727h172v-102h-500v102h213v569l-172 -79l-41 88l252 129h76v-707z" glyph-name="oneeighth" horiz-adv-x="1918" unicode="⅛"/><glyph d="M1835 362q47 -51 47 -126q0 -70 -40 -127t-111 -92q-72 -34 -164 -33q-94 0 -166 33q-72 34 -111 92q-39 57 -39 124q0 78 49 129t119 76q-55 18 -92 64q-37 45 -37 110q0 94 77 154q77 59 202 59t201 -59q77 -59 77 -156q0 -66 -36 -109q-36 -44 -93 -63q70 -25 117 -76 zM1453 690q-46 -31 -46 -88q0 -55 45 -84t117 -29t117 29t45 84q0 57 -47 88q-46 31 -115 31q-70 0 -116 -31zM1707 128q46 40 46 105q0 68 -50 108t-134 40t-136 -40t-53 -108q0 -63 48 -104t141 -41q92 0 138 40zM1315 1524l-572 -1768h-106l575 1768h103zM590 1390 q72 -60 72 -143q0 -59 -36 -109t-98 -71v-6q74 -14 121 -67q47 -52 47 -132q0 -111 -89 -182q-89 -72 -230 -72q-88 0 -164 28t-127 73l61 90q98 -84 228 -84q90 0 143 41t53 112q0 135 -204 136h-72v98h55q86 2 137 34t52 93q0 51 -39 83t-115 31q-115 0 -223 -69l-49 78 q53 43 127 70q74 28 155 28q123 0 195 -60z" glyph-name="threeeighths" horiz-adv-x="1982" unicode="⅜"/><glyph d="M1858 362q47 -51 47 -126q0 -70 -40 -127t-112 -92q-72 -34 -164 -33q-94 0 -166 33q-72 34 -110 92q-39 57 -39 124q0 78 49 129t119 76q-55 18 -92 64q-37 45 -37 110q0 94 77 154q77 59 201 59q125 0 202 -59t77 -156q0 -66 -36 -109q-36 -44 -93 -63q70 -25 117 -76z M1476 690q-46 -31 -46 -88q0 -55 45 -84t116 -29q72 0 117 29t45 84q0 57 -46 88t-116 31q-69 0 -115 -31zM1730 128q46 40 46 105q0 68 -51 108q-50 40 -134 40t-136 -40t-52 -108q0 -63 48 -104t140 -41q93 0 139 40zM1335 1524l-571 -1768h-107l576 1768h102zM641 1331 h-369v-211q27 16 73 28q46 11 93 11q115 0 187 -70q72 -71 71 -188q0 -131 -91 -212t-236 -81q-143 0 -246 84l55 84q86 -63 191 -63q98 0 151 49t53 135q0 76 -39 118q-40 42 -116 42q-49 0 -101 -17q-51 -16 -84 -45l-77 37v402h485v-103z" glyph-name="fiveeighths" horiz-adv-x="2002" unicode="⅝"/><glyph d="M1692 362q47 -51 47 -126q0 -70 -40 -127t-112 -92q-72 -34 -164 -33q-94 0 -166 33q-72 34 -110 92q-39 57 -39 124q0 78 49 129t119 76q-55 18 -92 64q-37 45 -37 110q0 94 77 154q77 59 201 59q125 0 202 -59t77 -156q0 -66 -36 -109q-36 -44 -93 -63q70 -25 117 -76z M1310 690q-46 -31 -46 -88q0 -55 45 -84t116 -29q72 0 117 29t45 84q0 57 -46 88t-116 31q-69 0 -115 -31zM1564 128q46 40 46 105q0 68 -50 108t-135 40q-84 0 -136 -40t-52 -108q0 -63 48 -104t140 -41q93 0 139 40zM1169 1524l-571 -1768h-106l575 1768h102zM637 1348 l-369 -723h-129l357 702h-437v107h578v-86z" glyph-name="seveneighths" horiz-adv-x="1837" unicode="⅞"/><glyph d="M966.5 1134.5q145.5 -243.5 145.5 -565.5q0 -285 -133 -439.5t-365 -154.5q-135 0 -248.5 60.5t-183 186.5t-69.5 315q0 188 67.5 314t179 186.5t244.5 60.5q111 0 198 -42t146 -120q-72 182 -192.5 305t-292.5 221l49 78q309 -162 454.5 -405.5zM808 136 q85 54 133 157.5t48 243.5q0 139 -50 241.5t-138 157.5t-197 55q-168 0 -268 -121.5t-100 -332.5q0 -139 48 -243t133 -158t197 -54q109 0 194 54z" glyph-name="partialdiff" horiz-adv-x="1228" unicode="∂"/><glyph d="M961 1325h-123v-1638h-121v1638h-412v-1638h-121v1638h-123v109h900v-109z" glyph-name="product" horiz-adv-x="1021" unicode="∏"/><glyph d="M61 -201l410 762l-410 760v113h891v-113h-762l414 -760l-414 -762h762v-112h-891v112z" glyph-name="summation" horiz-adv-x="1011" unicode="∑"/><glyph d="M1118 647h-1016v111h1016v-111z" glyph-name="minus" horiz-adv-x="1220" unicode="−"/><glyph d="M1161 1325h-160l-385 -1638h-112l-260 391l90 69l203 -313l376 1600h248v-109z" glyph-name="radical" horiz-adv-x="1228" unicode="√"/><glyph d="M1418 874.5q89 -98.5 89 -258.5q0 -166 -94 -266t-250 -100q-133 0 -223 69.5t-174 194.5q-172 -264 -406 -264q-143 0 -230 95t-87 253q0 168 98.5 271.5t259.5 103.5q129 0 217.5 -71t172.5 -197q74 125 174 196.5t221 71.5q143 0 232 -98.5zM547 412.5 q74 60.5 166 187.5q-57 90 -98.5 143.5t-96.5 89t-123 35.5q-106 0 -168.5 -71.5t-62.5 -192.5q0 -117 58.5 -184.5t158.5 -67.5q92 0 166 60.5zM1327 420.5q59 68.5 59 185.5t-59 189.5t-158 72.5q-90 0 -168.5 -64.5t-156.5 -182.5q57 -90 99 -143.5t97.5 -89.5t126.5 -36 q101 0 160 68.5z" glyph-name="infinity" horiz-adv-x="1550" unicode="∞"/><glyph d="M49 -180q25 -10 67 -18.5t79 -8.5q84 0 134 61.5t64 229.5l94 1069q14 164 92 234.5t209 70.5q47 0 95.5 -7t70.5 -17l-16 -103q-76 20 -141 21q-90 0 -136.5 -57.5t-58.5 -196.5l-94 -1065q-16 -197 -98 -271.5t-211 -74.5q-49 0 -98.5 9t-80.5 23z" glyph-name="integral" horiz-adv-x="974" unicode="∫"/><glyph d="M728 783.5q-50 13.5 -112 37.5q-76 29 -129 42.5t-127 13.5q-119 0 -258 -68v117q147 74 269 73q66 0 120 -14t119 -41q74 -27 123 -40t113 -13q104 0 272 72v-115q-139 -78 -278 -78q-62 0 -112 13.5zM728 419q-50 13 -112 38q-76 29 -129 42t-127 13q-119 0 -258 -68 v117q147 74 269 74q66 0 120 -14.5t119 -40.5q74 -27 123 -40.5t113 -13.5q104 0 272 72v-115q-139 -78 -278 -77q-62 0 -112 13z" glyph-name="approxequal" horiz-adv-x="1220" unicode="≈"/><glyph d="M725 852l-104 -299h497v-115h-538l-103 -288h-123l103 288h-355v115h396l104 299h-500v115h541l102 288h123l-102 -288h352v-115h-393z" glyph-name="notequal" horiz-adv-x="1220" unicode="≠"/><glyph d="M201 805l917 -330l-39 -100l-977 358v144l977 337l39 -102zM102 297h1016v-115h-1016v115z" glyph-name="lessequal" horiz-adv-x="1220" unicode="≤"/><glyph d="M1118 877v-144l-977 -358l-39 100l918 330l-918 307l39 102zM102 297h1016v-115h-1016v115z" glyph-name="greaterequal" horiz-adv-x="1220" unicode="≥"/><glyph d="M369 1290h168l286 -645l-286 -645h-168l-287 645zM459 96l235 549l-235 549l-246 -549z" glyph-name="lozenge" horiz-adv-x="905" unicode="◊"/><glyph d="M559 1569h-113l156 225h180zM18 -12l13 116q84 -12 151 -12q176 0 264.5 87t88.5 276v979h120v-969q0 -281 -131 -385.5t-360 -104.5q-85 1 -146 13z" glyph-name="glyph499" horiz-adv-x="860"/><glyph d="M310.5 1413.5q25.5 -22.5 25.5 -70.5q0 -47 -25.5 -70.5t-64.5 -23.5q-37 0 -63.5 24.5t-26.5 69.5t26.5 69t63.5 24q39 0 64.5 -22.5zM303 0h-119v1073h119v-1073z" glyph-name="i.locl" horiz-adv-x="489"/><glyph d="M266 1208h-110l155 226h181zM-131 -403l20 102q47 -14 101 -14q109 0 162 50t53 169v1169h119v-1214q0 -145 -89.5 -213t-230.5 -68q-82 1 -135 19z" glyph-name="glyph501" horiz-adv-x="507"/><glyph d="M906 527.5q91 -72.5 91 -214.5q0 -96 -44 -173t-120.5 -121t-170.5 -44q-47 0 -100.5 12.5t-96.5 35.5l24 100q35 -16 82 -27.5t88 -11.5q96 0 155.5 58.5t59.5 158.5q0 102 -77.5 162.5t-253.5 58.5v94l239 246q0 102 -58 161.5t-171 59.5q-119 0 -183.5 -70.5 t-64.5 -209.5v-803h-119v823q0 174 99.5 270.5t273.5 96.5q168 0 257 -92t89 -262l-227 -228q137 -8 228 -80.5z" glyph-name="uni1E9E.aalt" horiz-adv-x="1079"/><glyph d="M834 285h-549l-101 -285h-123l424 1165h148l428 -1165h-127zM793 397l-234 666l-235 -666h469z" glyph-name="A.c2sc" horiz-adv-x="1122"/><glyph d="M563 1300h-110l155 226h180zM834 285h-549l-101 -285h-123l424 1165h148l428 -1165h-127zM793 397l-234 666l-235 -666h469z" glyph-name="Aacute.aalt" horiz-adv-x="1122"/><glyph d="M734 1367q-77 -60 -175 -60q-100 0 -176 60t-92 165h94q12 -68 60.5 -102.5t113.5 -34.5q66 0 111 34.5t59 102.5h100q-18 -105 -95 -165zM834 285h-549l-101 -285h-123l424 1165h148l428 -1165h-127zM793 397l-234 666l-235 -666h469z" glyph-name="Abreve.aalt" horiz-adv-x="1122"/><glyph d="M578 1591h-105l121 205h154zM734 1367q-77 -60 -175 -60q-100 0 -176 60t-92 165h94q14 -68 61.5 -102.5t112.5 -34.5q66 0 111 34.5t59 102.5h100q-18 -105 -95 -165zM834 285h-549l-101 -285h-123l424 1165h148l428 -1165h-127zM793 397l-234 666l-235 -666h469z" glyph-name="uni1EAE.aalt" horiz-adv-x="1122"/><glyph d="M734 1367q-77 -60 -175 -60q-100 0 -176 60t-92 165h94q12 -68 60.5 -102.5t113.5 -34.5q66 0 111 34.5t59 102.5h100q-18 -105 -95 -165zM624.5 -177.5q26.5 -23.5 26.5 -70.5t-26.5 -70.5t-65.5 -23.5q-37 0 -62.5 23.5t-25.5 70.5t25.5 70.5t62.5 23.5 q39 0 65.5 -23.5zM834 285h-549l-101 -285h-123l424 1165h148l428 -1165h-127zM793 397l-234 666l-235 -666h469z" glyph-name="uni1EB6.aalt" horiz-adv-x="1122"/><glyph d="M500 1796l123 -205h-107l-170 205h154zM734 1367q-77 -60 -175 -60q-100 0 -176 60t-92 165h94q14 -68 61.5 -102.5t112.5 -34.5q66 0 111 34.5t59 102.5h100q-18 -105 -95 -165zM834 285h-549l-101 -285h-123l424 1165h148l428 -1165h-127zM793 397l-234 666l-235 -666 h469z" glyph-name="uni1EB0.aalt" horiz-adv-x="1122"/><glyph d="M560.5 1632.5q19.5 18.5 19.5 42.5q0 37 -43 59.5t-121 22.5v70q16 2 45 2q100 0 158.5 -40t58.5 -110q0 -98 -121 -143l-59 57q43 21 62.5 39.5zM734 1367q-77 -60 -175 -60q-100 0 -176 60t-92 165h94q14 -68 61.5 -102.5t112.5 -34.5q66 0 111 34.5t59 102.5h100 q-18 -105 -95 -165zM834 285h-549l-101 -285h-123l424 1165h148l428 -1165h-127zM793 397l-234 666l-235 -666h469z" glyph-name="uni1EB2.aalt" horiz-adv-x="1122"/><glyph d="M831 1747q-39 -74 -76.5 -108.5t-84.5 -34.5q-29 0 -54.5 10t-64.5 33q-61 35 -94 34q-33 0 -56.5 -19.5t-46.5 -59.5l-71 32q31 76 77 110t95 34q33 0 57.5 -10.5t67.5 -34.5q23 -14 44 -24.5t40 -10.5q31 0 51 19.5t35.5 42t19.5 30.5zM734 1367q-77 -60 -175 -60 q-100 0 -176 60t-92 165h94q14 -68 61.5 -102.5t112.5 -34.5q66 0 111 34.5t59 102.5h100q-18 -105 -95 -165zM834 285h-549l-101 -285h-123l424 1165h148l428 -1165h-127zM793 397l-234 666l-235 -666h469z" glyph-name="uni1EB4.aalt" horiz-adv-x="1122"/><glyph d="M809 1526l-207 -207h-88l-219 207h139l125 -123l125 123h125zM834 285h-549l-101 -285h-123l424 1165h148l428 -1165h-127zM793 397l-234 666l-235 -666h469z" glyph-name="uni01CD.aalt" horiz-adv-x="1122"/><glyph d="M684 1323l-123 113l-119 -113h-139l229 217h68l217 -217h-133zM834 285h-549l-101 -285h-123l424 1165h148l428 -1165h-127zM793 397l-234 666l-235 -666h469z" glyph-name="Acircumflex.aalt" horiz-adv-x="1122"/><glyph d="M815 1487h-106l120 205h156zM600 1511l217 -196h-133l-123 98l-119 -98h-139l229 196h68zM834 285h-549l-101 -285h-123l424 1165h148l428 -1165h-127zM793 397l-234 666l-235 -666h469z" glyph-name="uni1EA4.aalt" horiz-adv-x="1122"/><glyph d="M684 1323l-123 113l-119 -113h-139l229 217h68l217 -217h-133zM624.5 -177.5q26.5 -23.5 26.5 -70.5t-26.5 -70.5t-65.5 -23.5q-37 0 -62.5 23.5t-25.5 70.5t25.5 70.5t62.5 23.5q39 0 65.5 -23.5zM834 285h-549l-101 -285h-123l424 1165h148l428 -1165h-127zM793 397 l-234 666l-235 -666h469z" glyph-name="uni1EAC.aalt" horiz-adv-x="1122"/><glyph d="M752 1487l-170 205h155l121 -205h-106zM600 1511l217 -196h-133l-123 98l-119 -98h-139l229 196h68zM834 285h-549l-101 -285h-123l424 1165h148l428 -1165h-127zM793 397l-234 666l-235 -666h469z" glyph-name="uni1EA6.aalt" horiz-adv-x="1122"/><glyph d="M855 1684.5q58 -39.5 58 -109.5q0 -98 -120 -143l-60 57q45 20 64.5 38.5t19.5 43.5q0 37 -44 59.5t-122 22.5v69q16 2 45 2q101 0 159 -39.5zM600 1511l217 -196h-133l-123 98l-119 -98h-139l229 196h68zM834 285h-549l-101 -285h-123l424 1165h148l428 -1165h-127z M793 397l-234 666l-235 -666h469z" glyph-name="uni1EA8.aalt" horiz-adv-x="1122"/><glyph d="M400.5 1635.5q-23.5 -19.5 -46.5 -60.5l-71 33q31 76 77 109.5t95 33.5q33 0 57.5 -10t67.5 -35q23 -14 44 -24.5t40 -10.5q31 0 51 19.5t35.5 42t19.5 30.5l61 -43q-39 -72 -76.5 -107.5t-84.5 -35.5q-29 0 -54.5 10t-64.5 33q-61 35 -94 35t-56.5 -19.5zM600 1511 l217 -196h-133l-123 98l-119 -98h-139l229 196h68zM834 285h-549l-101 -285h-123l424 1165h148l428 -1165h-127zM793 397l-234 666l-235 -666h469z" glyph-name="uni1EAA.aalt" horiz-adv-x="1122"/><glyph d="M332.5 1373.5q-23.5 23.5 -23.5 66.5t23.5 66.5t62.5 23.5q41 0 65.5 -23.5t24.5 -66.5t-23.5 -66.5t-66.5 -23.5q-39 0 -62.5 23.5zM660.5 1373.5q-23.5 23.5 -23.5 66.5t23.5 66.5t64.5 23.5q39 0 62.5 -23.5t23.5 -66.5t-23.5 -66.5t-62.5 -23.5q-41 0 -64.5 23.5z M834 285h-549l-101 -285h-123l424 1165h148l428 -1165h-127zM793 397l-234 666l-235 -666h469z" glyph-name="Adieresis.aalt" horiz-adv-x="1122"/><glyph d="M624.5 -177.5q26.5 -23.5 26.5 -70.5t-26.5 -70.5t-65.5 -23.5q-37 0 -62.5 23.5t-25.5 70.5t25.5 70.5t62.5 23.5q39 0 65.5 -23.5zM834 285h-549l-101 -285h-123l424 1165h148l428 -1165h-127zM793 397l-234 666l-235 -666h469z" glyph-name="uni1EA0.aalt" horiz-adv-x="1122"/><glyph d="M629 1300h-109l-231 226h182zM834 285h-549l-101 -285h-123l424 1165h148l428 -1165h-127zM793 397l-234 666l-235 -666h469z" glyph-name="Agrave.aalt" horiz-adv-x="1122"/><glyph d="M444 1313q143 33 144 88q0 39 -44 61.5t-126 20.5v84q16 2 47 2q111 0 174 -42t63 -122q0 -59 -50 -102t-140 -62zM834 285h-549l-101 -285h-123l424 1165h148l428 -1165h-127zM793 397l-234 666l-235 -666h469z" glyph-name="uni1EA2.aalt" horiz-adv-x="1122"/><glyph d="M786 1374h-452v90h452v-90zM834 285h-549l-101 -285h-123l424 1165h148l428 -1165h-127zM793 397l-234 666l-235 -666h469z" glyph-name="Amacron.aalt" horiz-adv-x="1122"/><glyph d="M975 -338q29 0 49 4l-8 -76q-29 -12 -74 -12q-74 0 -115 40t-41 106t39 141.5t105 148.5l-96 271h-549l-101 -285h-123l424 1165h148l428 -1165h-53q-109 -137 -109 -250q0 -88 76 -88zM793 397l-234 666l-235 -666h469z" glyph-name="Aogonek.aalt" horiz-adv-x="1122"/><glyph d="M426 1313q-53 51 -53 129q0 80 52 130t136 50q82 0 134.5 -50t52.5 -130q0 -78 -52.5 -129t-134.5 -51t-135 51zM627.5 1371q23.5 28 23.5 71t-23.5 71.5t-66.5 28.5q-45 0 -68.5 -28.5t-23.5 -71.5t23.5 -71t68.5 -28q43 0 66.5 28zM834 285h-549l-101 -285h-123 l424 1165h148l428 -1165h-127zM793 397l-234 666l-235 -666h469z" glyph-name="Aring.aalt" horiz-adv-x="1122"/><glyph d="M850 1481q-74 -160 -176 -160q-31 0 -56.5 14.5t-62.5 40.5q-33 25 -55.5 37t-48.5 12q-33 0 -58.5 -23.5t-46.5 -68.5l-74 35q31 84 80 124t103 40q37 0 65.5 -15.5t67.5 -46.5q31 -25 50 -36t42 -11q33 0 53.5 25t31.5 48.5t15 29.5zM834 285h-549l-101 -285h-123 l424 1165h148l428 -1165h-127zM793 397l-234 666l-235 -666h469z" glyph-name="Atilde.aalt" horiz-adv-x="1122"/><glyph d="M774 1059v-404h449v-112h-449v-432h514v-111h-633v285h-344l-127 -285h-123l533 1165h694v-106h-514zM655 397v660l-295 -660h295z" glyph-name="AE.aalt" horiz-adv-x="1413"/><glyph d="M912.5 528.5q62.5 -73.5 62.5 -200.5q0 -147 -97.5 -237.5t-265.5 -90.5h-426v1165h344q360 0 361 -288q0 -80 -33 -140.5t-115 -113.5q107 -21 169.5 -94.5zM309 657h223q117 0 175.5 56.5t58.5 154.5q0 100 -58.5 145.5t-172.5 45.5h-226v-402zM782.5 166 q65.5 55 65.5 164q0 102 -57.5 157.5t-190.5 55.5h-291v-432h283q125 0 190.5 55z" glyph-name="B.aalt" horiz-adv-x="1058"/><glyph d="M1010 1065l-60 -94q-61 49 -137 80.5t-158 31.5q-193 0 -311.5 -123.5t-118.5 -373.5q0 -162 56.5 -275.5t153.5 -170t220 -56.5q156 0 316 123l57 -94q-70 -55 -166 -96.5t-217 -41.5q-141 0 -265 67t-201 204t-77 340t77 339t200 200.5t266 64.5q211 0 365 -125z" glyph-name="C.aalt" horiz-adv-x="1110"/><glyph d="M625 1300h-111l156 226h180zM1010 1065l-60 -94q-61 49 -137 80.5t-158 31.5q-193 0 -311.5 -123.5t-118.5 -373.5q0 -162 56.5 -275.5t153.5 -170t220 -56.5q156 0 316 123l57 -94q-70 -55 -166 -96.5t-217 -41.5q-141 0 -265 67t-201 204t-77 340t77 339t200 200.5 t266 64.5q211 0 365 -125z" glyph-name="Cacute.aalt" horiz-adv-x="1110"/><glyph d="M870 1526l-206 -207h-89l-219 207h140l125 -123l124 123h125zM1010 1065l-60 -94q-61 49 -137 80.5t-158 31.5q-193 0 -311.5 -123.5t-118.5 -373.5q0 -162 56.5 -275.5t153.5 -170t220 -56.5q156 0 316 123l57 -94q-70 -55 -166 -96.5t-217 -41.5q-141 0 -265 67 t-201 204t-77 340t77 339t200 200.5t266 64.5q211 0 365 -125z" glyph-name="Ccaron.aalt" horiz-adv-x="1110"/><glyph d="M783 -162q46 -37 46 -96q0 -78 -58 -121t-148 -43q-43 0 -82 12.5t-64 30.5l21 82q18 -16 52 -27.5t68 -11.5q45 0 76 18.5t31 53.5q0 31 -25.5 49t-60.5 18q-47 0 -76 -16l-47 51l80 139q-133 12 -244.5 82t-180.5 203t-69 324q0 203 77 339t200 200.5t266 64.5 q211 0 365 -125l-60 -94q-61 49 -137 80.5t-158 31.5q-193 0 -311.5 -123.5t-118.5 -373.5q0 -162 56.5 -275.5t153.5 -170t220 -56.5q156 0 316 123l57 -94q-160 -125 -350 -138l-70 -112q16 12 62 12q67 0 113 -37z" glyph-name="Ccedilla.aalt" horiz-adv-x="1110"/><glyph d="M689.5 1505.5q25.5 -22.5 25.5 -69.5t-25.5 -71t-64.5 -24q-37 0 -63.5 25t-26.5 70t26.5 68.5t63.5 23.5q39 0 64.5 -22.5zM1010 1065l-60 -94q-61 49 -137 80.5t-158 31.5q-193 0 -311.5 -123.5t-118.5 -373.5q0 -162 56.5 -275.5t153.5 -170t220 -56.5q156 0 316 123 l57 -94q-70 -55 -166 -96.5t-217 -41.5q-141 0 -265 67t-201 204t-77 340t77 339t200 200.5t266 64.5q211 0 365 -125z" glyph-name="Cdotaccent.aalt" horiz-adv-x="1110"/><glyph d="M186 1165h322q262 0 412.5 -137t150.5 -436q0 -297 -152.5 -444.5t-410.5 -147.5h-322v1165zM481 111q236 0 351.5 111.5t115.5 369.5q0 256 -115.5 361.5t-351.5 105.5h-176v-948h176z" glyph-name="D.aalt" horiz-adv-x="1173"/><glyph d="M920.5 1028q150.5 -137 150.5 -436q0 -297 -152.5 -444.5t-410.5 -147.5h-322v530h-102v91h102v544h322q262 0 412.5 -137zM832.5 222.5q115.5 111.5 115.5 369.5q0 256 -115.5 361.5t-351.5 105.5h-176v-438h250v-91h-250v-419h176q236 0 351.5 111.5z" glyph-name="Eth.aalt" horiz-adv-x="1173"/><glyph d="M805 1526l-207 -207h-88l-219 207h139l125 -123l125 123h125zM186 1165h322q262 0 412.5 -137t150.5 -436q0 -297 -152.5 -444.5t-410.5 -147.5h-322v1165zM481 111q236 0 351.5 111.5t115.5 369.5q0 256 -115.5 361.5t-351.5 105.5h-176v-948h176z" glyph-name="Dcaron.aalt" horiz-adv-x="1173"/><glyph d="M920.5 1028q150.5 -137 150.5 -436q0 -297 -152.5 -444.5t-410.5 -147.5h-322v530h-102v91h102v544h322q262 0 412.5 -137zM832.5 222.5q115.5 111.5 115.5 369.5q0 256 -115.5 361.5t-351.5 105.5h-176v-438h250v-91h-250v-419h176q236 0 351.5 111.5z" glyph-name="Dcroat.aalt" horiz-adv-x="1173"/><glyph d="M186 1165h717v-106h-598v-402h537v-112h-537v-434h598v-111h-717v1165z" glyph-name="E.aalt" horiz-adv-x="1028"/><glyph d="M551 1300h-111l156 226h180zM186 1165h717v-106h-598v-402h537v-112h-537v-434h598v-111h-717v1165z" glyph-name="Eacute.aalt" horiz-adv-x="1028"/><glyph d="M724 1367q-77 -60 -175 -60q-100 0 -176 60t-92 165h94q12 -68 60 -102.5t114 -34.5t111 34.5t59 102.5h100q-18 -105 -95 -165zM186 1165h717v-106h-598v-402h537v-112h-537v-434h598v-111h-717v1165z" glyph-name="Ebreve.aalt" horiz-adv-x="1028"/><glyph d="M799 1526l-207 -207h-88l-219 207h139l125 -123l125 123h125zM186 1165h717v-106h-598v-402h537v-112h-537v-434h598v-111h-717v1165z" glyph-name="Ecaron.aalt" horiz-adv-x="1028"/><glyph d="M674 1323l-123 113l-119 -113h-139l229 217h68l217 -217h-133zM186 1165h717v-106h-598v-402h537v-112h-537v-434h598v-111h-717v1165z" glyph-name="Ecircumflex.aalt" horiz-adv-x="1028"/><glyph d="M805 1487h-107l121 205h156zM590 1511l217 -196h-133l-123 98l-119 -98h-139l229 196h68zM186 1165h717v-106h-598v-402h537v-112h-537v-434h598v-111h-717v1165z" glyph-name="uni1EBE.aalt" horiz-adv-x="1028"/><glyph d="M674 1323l-123 113l-119 -113h-139l229 217h68l217 -217h-133zM630.5 -177.5q26.5 -23.5 26.5 -70.5t-26.5 -70.5t-65.5 -23.5q-37 0 -62.5 23.5t-25.5 70.5t25.5 70.5t62.5 23.5q39 0 65.5 -23.5zM186 1165h717v-106h-598v-402h537v-112h-537v-434h598v-111h-717v1165z " glyph-name="uni1EC6.aalt" horiz-adv-x="1028"/><glyph d="M741 1487l-170 205h156l121 -205h-107zM590 1511l217 -196h-133l-123 98l-119 -98h-139l229 196h68zM186 1165h717v-106h-598v-402h537v-112h-537v-434h598v-111h-717v1165z" glyph-name="uni1EC0.aalt" horiz-adv-x="1028"/><glyph d="M844.5 1652q58.5 -40 58.5 -110q0 -98 -121 -143l-59 57q45 20 64.5 38.5t19.5 43.5q0 37 -44 59.5t-122 22.5v70q16 2 45 2q100 0 158.5 -40zM590 1479l217 -197h-133l-123 98l-119 -98h-139l229 197h68zM186 1165h717v-106h-598v-402h537v-112h-537v-434h598v-111h-717 v1165z" glyph-name="uni1EC2.aalt" horiz-adv-x="1028"/><glyph d="M390.5 1635.5q-23.5 -19.5 -46.5 -60.5l-72 33q31 76 77 109.5t95 33.5q33 0 57.5 -10t67.5 -35q23 -14 44.5 -24.5t39.5 -10.5q31 0 51.5 19.5t36 42t19.5 30.5l61 -43q-39 -72 -76.5 -107.5t-85.5 -35.5q-29 0 -54 10t-64 33q-61 35 -95 35q-32 0 -55.5 -19.5z M590 1511l217 -196h-133l-123 98l-119 -98h-139l229 196h68zM186 1165h717v-106h-598v-402h537v-112h-537v-434h598v-111h-717v1165z" glyph-name="uni1EC4.aalt" horiz-adv-x="1028"/><glyph d="M322.5 1373.5q-23.5 23.5 -23.5 66.5t23.5 66.5t62.5 23.5q41 0 65.5 -23.5t24.5 -66.5t-23.5 -66.5t-66.5 -23.5q-39 0 -62.5 23.5zM650.5 1373.5q-23.5 23.5 -23.5 66.5t23.5 66.5t64.5 23.5q39 0 62.5 -23.5t23.5 -66.5t-23.5 -66.5t-62.5 -23.5q-41 0 -64.5 23.5z M186 1165h717v-106h-598v-402h537v-112h-537v-434h598v-111h-717v1165z" glyph-name="Edieresis.aalt" horiz-adv-x="1028"/><glyph d="M615.5 1505.5q25.5 -22.5 25.5 -69.5t-25.5 -71t-64.5 -24q-37 0 -63.5 25t-26.5 70t26.5 68.5t63.5 23.5q39 0 64.5 -22.5zM186 1165h717v-106h-598v-402h537v-112h-537v-434h598v-111h-717v1165z" glyph-name="Edotaccent.aalt" horiz-adv-x="1028"/><glyph d="M630.5 -177.5q26.5 -23.5 26.5 -70.5t-26.5 -70.5t-65.5 -23.5q-37 0 -62.5 23.5t-25.5 70.5t25.5 70.5t62.5 23.5q39 0 65.5 -23.5zM186 1165h717v-106h-598v-402h537v-112h-537v-434h598v-111h-717v1165z" glyph-name="uni1EB8.aalt" horiz-adv-x="1028"/><glyph d="M616 1300h-108l-232 226h183zM186 1165h717v-106h-598v-402h537v-112h-537v-434h598v-111h-717v1165z" glyph-name="Egrave.aalt" horiz-adv-x="1028"/><glyph d="M432 1313q143 33 143 88q0 39 -44 61.5t-125 20.5v84q16 2 47 2q111 0 174 -42t63 -122q0 -59 -50 -102t-140 -62zM186 1165h717v-106h-598v-402h537v-112h-537v-434h598v-111h-717v1165z" glyph-name="uni1EBA.aalt" horiz-adv-x="1028"/><glyph d="M776 1374h-452v90h452v-90zM186 1165h717v-106h-598v-402h537v-112h-537v-434h598v-111h-717v1165z" glyph-name="Emacron.aalt" horiz-adv-x="1028"/><glyph d="M920 -334l-9 -76q-29 -12 -73 -12q-74 0 -115 40t-41 106q0 63 35 134.5t96 141.5h-627v1165h717v-106h-598v-402h537v-112h-537v-434h598v-111q-109 -137 -108 -250q0 -88 75 -88q30 0 50 4z" glyph-name="Eogonek.aalt" horiz-adv-x="1028"/><glyph d="M840 1481q-74 -160 -176 -160q-31 0 -56.5 14.5t-62.5 40.5q-33 25 -55.5 37t-49.5 12q-33 0 -58.5 -23.5t-45.5 -68.5l-74 35q31 84 80 124t102 40q37 0 66 -15.5t68 -46.5q31 -25 50 -36t42 -11q33 0 53 25t31.5 48.5t15.5 29.5zM186 1165h717v-106h-598v-402h537v-112 h-537v-434h598v-111h-717v1165z" glyph-name="uni1EBC.aalt" horiz-adv-x="1028"/><glyph d="M988 1030q142 -160 142 -438q0 -190 -66.5 -329.5t-183 -213.5t-268.5 -74q-145 0 -260.5 69t-182.5 199t-67 306q0 27 4 84h898q-10 209 -118 328.5t-290 119.5q-178 0 -336 -114l-67 90q74 63 182 98t223 35q248 0 390 -160zM884.5 196.5q104.5 114.5 119.5 323.5h-781 q2 -119 50.5 -219t135.5 -159.5t201 -59.5q170 0 274.5 114.5z" glyph-name="uni018F.aalt" horiz-adv-x="1232"/><glyph d="M186 1165h701v-106h-582v-457h516v-110h-516v-492h-119v1165z" glyph-name="F.aalt" horiz-adv-x="980"/><glyph d="M1065 633v-506q-55 -55 -175 -103.5t-251 -48.5q-145 0 -267 65.5t-196 203t-74 338.5q0 205 77 341t203 201.5t275 65.5q121 0 218.5 -38t166.5 -95l-69 -94q-61 51 -146.5 83.5t-185.5 32.5q-195 0 -305.5 -129t-110.5 -364q0 -240 116 -373t312 -133q154 0 287 84v356 h-338v113h463z" glyph-name="G.aalt" horiz-adv-x="1169"/><glyph d="M800 1367q-77 -60 -175 -60q-100 0 -176 60t-93 165h95q12 -68 60 -102.5t114 -34.5t110.5 34.5t59.5 102.5h100q-18 -105 -95 -165zM1065 633v-506q-55 -55 -175 -103.5t-251 -48.5q-145 0 -267 65.5t-196 203t-74 338.5q0 205 77 341t203 201.5t275 65.5 q121 0 218.5 -38t166.5 -95l-69 -94q-61 51 -146.5 83.5t-185.5 32.5q-195 0 -305.5 -129t-110.5 -364q0 -240 116 -373t312 -133q154 0 287 84v356h-338v113h463z" glyph-name="Gbreve.aalt" horiz-adv-x="1169"/><glyph d="M872 1526l-206 -207h-88l-220 207h140l125 -123l125 123h124zM1065 633v-506q-55 -55 -175 -103.5t-251 -48.5q-145 0 -267 65.5t-196 203t-74 338.5q0 205 77 341t203 201.5t275 65.5q121 0 218.5 -38t166.5 -95l-69 -94q-61 51 -146.5 83.5t-185.5 32.5 q-195 0 -305.5 -129t-110.5 -364q0 -240 116 -373t312 -133q154 0 287 84v356h-338v113h463z" glyph-name="Gcaron.aalt" horiz-adv-x="1169"/><glyph d="M631 -403h-72l14 294h129zM1065 633v-506q-55 -55 -175 -103.5t-251 -48.5q-145 0 -267 65.5t-196 203t-74 338.5q0 205 77 341t203 201.5t275 65.5q121 0 218.5 -38t166.5 -95l-69 -94q-61 51 -146.5 83.5t-185.5 32.5q-195 0 -305.5 -129t-110.5 -364q0 -240 116 -373 t312 -133q154 0 287 84v356h-338v113h463z" glyph-name="Gcommaaccent.aalt" horiz-adv-x="1169"/><glyph d="M691.5 1505.5q25.5 -22.5 25.5 -69.5t-25.5 -71t-64.5 -24q-37 0 -63.5 25t-26.5 70t26.5 68.5t63.5 23.5q39 0 64.5 -22.5zM1065 633v-506q-55 -55 -175 -103.5t-251 -48.5q-145 0 -267 65.5t-196 203t-74 338.5q0 205 77 341t203 201.5t275 65.5q121 0 218.5 -38 t166.5 -95l-69 -94q-61 51 -146.5 83.5t-185.5 32.5q-195 0 -305.5 -129t-110.5 -364q0 -240 116 -373t312 -133q154 0 287 84v356h-338v113h463z" glyph-name="Gdotaccent.aalt" horiz-adv-x="1169"/><glyph d="M1063 1165v-1165h-119v510h-639v-510h-119v1165h119v-542h639v542h119z" glyph-name="H.aalt" horiz-adv-x="1249"/><glyph d="M1155 838h-92v-838h-119v510h-639v-510h-119v838h-96v102h96v225h119v-225h639v225h119v-225h92v-102zM944 838h-639v-215h639v215z" glyph-name="Hbar.aalt" horiz-adv-x="1249"/><glyph d="M309 0h-123v1165h123v-1165z" glyph-name="I.aalt" horiz-adv-x="495"/><glyph d="M309 0h-123v1165h123v-1165z" glyph-name="dotlessi.aalt" horiz-adv-x="495"/><glyph d="M252 1300h-111l156 226h180zM309 0h-123v1165h123v-1165z" glyph-name="Iacute.aalt" horiz-adv-x="495"/><glyph d="M498 1526l-207 -207h-88l-219 207h139l125 -123l125 123h125zM309 0h-123v1165h123v-1165z" glyph-name="uni01CF.aalt" horiz-adv-x="495"/><glyph d="M373 1323l-123 113l-119 -113h-139l229 217h68l217 -217h-133zM309 0h-123v1165h123v-1165z" glyph-name="Icircumflex.aalt" horiz-adv-x="495"/><glyph d="M21.5 1373.5q-23.5 23.5 -23.5 66.5t23.5 66.5t62.5 23.5q41 0 65.5 -23.5t24.5 -66.5t-23.5 -66.5t-66.5 -23.5q-39 0 -62.5 23.5zM349.5 1373.5q-23.5 23.5 -23.5 66.5t23.5 66.5t64.5 23.5q39 0 62.5 -23.5t23.5 -66.5t-23.5 -66.5t-62.5 -23.5q-41 0 -64.5 23.5z M309 0h-123v1165h123v-1165z" glyph-name="Idieresis.aalt" horiz-adv-x="495"/><glyph d="M314.5 1505.5q25.5 -22.5 25.5 -69.5t-25.5 -71t-64.5 -24q-37 0 -63.5 25t-26.5 70t26.5 68.5t63.5 23.5q39 0 64.5 -22.5zM309 0h-123v1165h123v-1165z" glyph-name="Idotaccent.aalt" horiz-adv-x="495"/><glyph d="M311.5 -177.5q26.5 -23.5 26.5 -70.5t-26.5 -70.5t-65.5 -23.5q-37 0 -62.5 23.5t-25.5 70.5t25.5 70.5t62.5 23.5q39 0 65.5 -23.5zM309 0h-123v1165h123v-1165z" glyph-name="uni1ECA.aalt" horiz-adv-x="495"/><glyph d="M315 1300h-108l-232 226h183zM309 0h-123v1165h123v-1165z" glyph-name="Igrave.aalt" horiz-adv-x="495"/><glyph d="M133 1313q143 33 143 88q0 39 -44 61.5t-126 20.5v84q16 2 48 2q111 0 174 -42t63 -122q0 -59 -50 -102t-140 -62zM309 0h-123v1165h123v-1165z" glyph-name="uni1EC8.aalt" horiz-adv-x="495"/><glyph d="M1059 334q0 -180 -95.5 -269.5t-289.5 -89.5q-86 0 -160 19l6 102q57 -14 139 -14q129 0 205 59.5t76 180.5v843h119v-831zM309 0h-123v1165h123v-1165z" glyph-name="IJ.aalt" horiz-adv-x="1247"/><glyph d="M475 1374h-452v90h452v-90zM309 0h-123v1165h123v-1165z" glyph-name="Imacron.aalt" horiz-adv-x="495"/><glyph d="M326 -334l-9 -76q-29 -12 -71 -12q-74 0 -115 40t-41 106q0 63 35 134.5t94 141.5h-33v1165h123v-1165q-109 -137 -108 -250q0 -88 75 -88q30 0 50 4z" glyph-name="Iogonek.aalt" horiz-adv-x="495"/><glyph d="M539 1481q-74 -160 -177 -160q-31 0 -56 14.5t-62 40.5q-33 25 -55.5 37t-49.5 12q-33 0 -58.5 -23.5t-45.5 -68.5l-74 35q31 84 80 124t102 40q37 0 66 -15.5t67 -46.5q31 -25 50.5 -36t42.5 -11q33 0 53 25t31.5 48.5t15.5 29.5zM309 0h-123v1165h123v-1165z" glyph-name="Itilde.aalt" horiz-adv-x="495"/><glyph d="M563 334q0 -180 -95 -269.5t-290 -89.5q-86 0 -160 19l7 102q57 -14 139 -14q129 0 204.5 59.5t75.5 180.5v843h119v-831z" glyph-name="J.c2sc" horiz-adv-x="751"/><glyph d="M563 334q0 -180 -95 -269.5t-290 -89.5q-86 0 -160 19l7 102q57 -14 139 -14q129 0 204.5 59.5t75.5 180.5v843h119v-831z" glyph-name="uni0237.aalt" horiz-adv-x="751"/><glyph d="M512 1300h-111l156 226h180zM563 334q0 -180 -95 -269.5t-290 -89.5q-86 0 -160 19l7 102q57 -14 139 -14q129 0 204.5 59.5t75.5 180.5v843h119v-831z" glyph-name="glyph580" horiz-adv-x="751"/><glyph d="M868 0l-440 524l-123 -141v-383h-119v1165h119v-620l529 620h157l-481 -549l526 -616h-168z" glyph-name="K.aalt" horiz-adv-x="1081"/><glyph d="M547 -403h-72l14 294h129zM868 0l-440 524l-123 -141v-383h-119v1165h119v-620l529 620h157l-481 -549l526 -616h-168z" glyph-name="Kcommaaccent.aalt" horiz-adv-x="1081"/><glyph d="M305 109h592v-109h-711v1165h119v-1056z" glyph-name="L.aalt" horiz-adv-x="937"/><glyph d="M340 1300h-111l156 226h180zM305 109h592v-109h-711v1165h119v-1056z" glyph-name="Lacute.aalt" horiz-adv-x="937"/><glyph d="M502 895h-72l14 295h127zM305 109h592v-109h-711v1165h119v-1056z" glyph-name="Lcaron.aalt" horiz-adv-x="937"/><glyph d="M524 -403h-71l14 294h129zM305 109h592v-109h-711v1165h119v-1056z" glyph-name="Lcommaaccent.aalt" horiz-adv-x="937"/><glyph d="M805 733.5q31 -26.5 31 -82.5q0 -55 -31 -83.5t-78 -28.5q-45 0 -78 28.5t-33 83.5q0 57 33 83t78 26q47 0 78 -26.5zM305 109h592v-109h-711v1165h119v-1056z" glyph-name="Ldot.aalt" horiz-adv-x="937"/><glyph d="M918 109v-109h-711v522l-152 -57v106l152 56v538h119v-493l182 67v-104l-182 -68v-458h592z" glyph-name="Lslash.aalt" horiz-adv-x="958"/><glyph d="M1348 1165v-1165h-121v915l-406 -915h-92l-424 918v-918h-119v1165h125l463 -1003l449 1003h125z" glyph-name="M.aalt" horiz-adv-x="1533"/><glyph d="M1124 1165v-1165h-118l-701 969v-969h-119v1165h119l701 -968v968h118z" glyph-name="N.aalt" horiz-adv-x="1310"/><glyph d="M657 1300h-110l155 226h181zM1124 1165v-1165h-118l-701 969v-969h-119v1165h119l701 -968v968h118z" glyph-name="Nacute.aalt" horiz-adv-x="1310"/><glyph d="M905 1526l-207 -207h-88l-219 207h139l125 -123l125 123h125zM1124 1165v-1165h-118l-701 969v-969h-119v1165h119l701 -968v968h118z" glyph-name="Ncaron.aalt" horiz-adv-x="1310"/><glyph d="M625 -403h-72l14 294h129zM1124 1165v-1165h-118l-701 969v-969h-119v1165h119l701 -968v968h118z" glyph-name="Ncommaaccent.aalt" horiz-adv-x="1310"/><glyph d="M1124 1165v-1247q0 -172 -98 -255t-311 -83q-88 0 -131 14l6 103q61 -10 125 -10q150 0 220.5 58t70.5 181v74l-701 969v-969h-119v1165h119l701 -968v968h118z" glyph-name="Eng.aalt" horiz-adv-x="1310"/><glyph d="M946 1481q-74 -160 -176 -160q-31 0 -56.5 14.5t-62.5 40.5q-33 25 -55.5 37t-48.5 12q-33 0 -58.5 -23.5t-46.5 -68.5l-73 35q31 84 80 124t102 40q37 0 65.5 -15.5t67.5 -46.5q31 -25 50.5 -36t41.5 -11q33 0 53.5 25t31.5 48.5t16 29.5zM1124 1165v-1165h-118 l-701 969v-969h-119v1165h119l701 -968v968h118z" glyph-name="Ntilde.aalt" horiz-adv-x="1310"/><glyph d="M372 50q-128 75 -199 211t-71 317q0 182 72 321t203 215t305 76q164 0 289 -74t193.5 -208t68.5 -312q0 -186 -69.5 -326.5t-197.5 -217.5t-296 -77q-170 0 -298 75zM898 146.5q99 64.5 154.5 181t55.5 270.5q0 143 -53.5 254t-151.5 171t-225 60q-135 0 -236.5 -61 t-158 -175t-56.5 -261q0 -150 54.5 -264.5t155 -177t233.5 -62.5q129 0 228 64.5z" glyph-name="O.c2sc" horiz-adv-x="1335"/><glyph d="M670 1300h-111l156 226h180zM372 50q-128 75 -199 211t-71 317q0 182 72 321t203 215t305 76q164 0 289 -74t193.5 -208t68.5 -312q0 -186 -69.5 -326.5t-197.5 -217.5t-296 -77q-170 0 -298 75zM898 146.5q99 64.5 154.5 181t55.5 270.5q0 143 -53.5 254t-151.5 171 t-225 60q-135 0 -236.5 -61t-158 -175t-56.5 -261q0 -150 54.5 -264.5t155 -177t233.5 -62.5q129 0 228 64.5z" glyph-name="Oacute.aalt" horiz-adv-x="1335"/><glyph d="M918 1526l-207 -207h-88l-220 207h140l125 -123l125 123h125zM372 50q-128 75 -199 211t-71 317q0 182 72 321t203 215t305 76q164 0 289 -74t193.5 -208t68.5 -312q0 -186 -69.5 -326.5t-197.5 -217.5t-296 -77q-170 0 -298 75zM898 146.5q99 64.5 154.5 181t55.5 270.5 q0 143 -53.5 254t-151.5 171t-225 60q-135 0 -236.5 -61t-158 -175t-56.5 -261q0 -150 54.5 -264.5t155 -177t233.5 -62.5q129 0 228 64.5z" glyph-name="uni01D1.aalt" horiz-adv-x="1335"/><glyph d="M793 1323l-123 113l-119 -113h-139l229 217h68l217 -217h-133zM372 50q-128 75 -199 211t-71 317q0 182 72 321t203 215t305 76q164 0 289 -74t193.5 -208t68.5 -312q0 -186 -69.5 -326.5t-197.5 -217.5t-296 -77q-170 0 -298 75zM898 146.5q99 64.5 154.5 181 t55.5 270.5q0 143 -53.5 254t-151.5 171t-225 60q-135 0 -236.5 -61t-158 -175t-56.5 -261q0 -150 54.5 -264.5t155 -177t233.5 -62.5q129 0 228 64.5z" glyph-name="Ocircumflex.aalt" horiz-adv-x="1335"/><glyph d="M924 1487h-107l121 205h156zM709 1511l217 -196h-133l-123 98l-119 -98h-139l229 196h68zM372 50q-128 75 -199 211t-71 317q0 182 72 321t203 215t305 76q164 0 289 -74t193.5 -208t68.5 -312q0 -186 -69.5 -326.5t-197.5 -217.5t-296 -77q-170 0 -298 75zM898 146.5 q99 64.5 154.5 181t55.5 270.5q0 143 -53.5 254t-151.5 171t-225 60q-135 0 -236.5 -61t-158 -175t-56.5 -261q0 -150 54.5 -264.5t155 -177t233.5 -62.5q129 0 228 64.5z" glyph-name="uni1ED0.aalt" horiz-adv-x="1335"/><glyph d="M793 1323l-123 113l-119 -113h-139l229 217h68l217 -217h-133zM729 -177.5q27 -23.5 27 -70.5t-27 -70.5t-65 -23.5q-37 0 -63 23.5t-26 70.5t26 70.5t63 23.5q38 0 65 -23.5zM372 50q-128 75 -199 211t-71 317q0 182 72 321t203 215t305 76q164 0 289 -74t193.5 -208 t68.5 -312q0 -186 -69.5 -326.5t-197.5 -217.5t-296 -77q-170 0 -298 75zM898 146.5q99 64.5 154.5 181t55.5 270.5q0 143 -53.5 254t-151.5 171t-225 60q-135 0 -236.5 -61t-158 -175t-56.5 -261q0 -150 54.5 -264.5t155 -177t233.5 -62.5q129 0 228 64.5z" glyph-name="uni1ED8.aalt" horiz-adv-x="1335"/><glyph d="M860 1487l-170 205h156l121 -205h-107zM709 1511l217 -196h-133l-123 98l-119 -98h-139l229 196h68zM372 50q-128 75 -199 211t-71 317q0 182 72 321t203 215t305 76q164 0 289 -74t193.5 -208t68.5 -312q0 -186 -69.5 -326.5t-197.5 -217.5t-296 -77q-170 0 -298 75z M898 146.5q99 64.5 154.5 181t55.5 270.5q0 143 -53.5 254t-151.5 171t-225 60q-135 0 -236.5 -61t-158 -175t-56.5 -261q0 -150 54.5 -264.5t155 -177t233.5 -62.5q129 0 228 64.5z" glyph-name="uni1ED2.aalt" horiz-adv-x="1335"/><glyph d="M963.5 1684.5q58.5 -39.5 58.5 -109.5q0 -98 -121 -143l-59 57q45 20 64.5 38.5t19.5 43.5q0 37 -44 59.5t-122 22.5v69q16 2 45 2q100 0 158.5 -39.5zM709 1511l217 -196h-133l-123 98l-119 -98h-139l229 196h68zM372 50q-128 75 -199 211t-71 317q0 182 72 321t203 215 t305 76q164 0 289 -74t193.5 -208t68.5 -312q0 -186 -69.5 -326.5t-197.5 -217.5t-296 -77q-170 0 -298 75zM898 146.5q99 64.5 154.5 181t55.5 270.5q0 143 -53.5 254t-151.5 171t-225 60q-135 0 -236.5 -61t-158 -175t-56.5 -261q0 -150 54.5 -264.5t155 -177t233.5 -62.5 q129 0 228 64.5z" glyph-name="uni1ED4.aalt" horiz-adv-x="1335"/><glyph d="M506.5 1635.5q-23.5 -19.5 -45.5 -60.5l-72 33q31 76 77 109.5t95 33.5q33 0 57.5 -10t67.5 -35q23 -14 44.5 -24.5t39.5 -10.5q31 0 51.5 19.5t35.5 42t20 30.5l61 -43q-39 -72 -77 -107.5t-85 -35.5q-29 0 -54.5 10t-64.5 33q-61 35 -94 35t-56.5 -19.5zM707 1511 l217 -196h-133l-123 98l-119 -98h-139l229 196h68zM372 50q-128 75 -199 211t-71 317q0 182 72 321t203 215t305 76q164 0 289 -74t193.5 -208t68.5 -312q0 -186 -69.5 -326.5t-197.5 -217.5t-296 -77q-170 0 -298 75zM898 146.5q99 64.5 154.5 181t55.5 270.5 q0 143 -53.5 254t-151.5 171t-225 60q-135 0 -236.5 -61t-158 -175t-56.5 -261q0 -150 54.5 -264.5t155 -177t233.5 -62.5q129 0 228 64.5z" glyph-name="uni1ED6.aalt" horiz-adv-x="1335"/><glyph d="M441.5 1373.5q-23.5 23.5 -23.5 66.5t23.5 66.5t62.5 23.5q41 0 65.5 -23.5t24.5 -66.5t-23.5 -66.5t-66.5 -23.5q-39 0 -62.5 23.5zM769 1373.5q-24 23.5 -24 66.5t24 66.5t65 23.5q39 0 62.5 -23.5t23.5 -66.5t-24 -66.5t-62 -23.5q-41 0 -65 23.5zM372 50 q-128 75 -199 211t-71 317q0 182 72 321t203 215t305 76q164 0 289 -74t193.5 -208t68.5 -312q0 -186 -69.5 -326.5t-197.5 -217.5t-296 -77q-170 0 -298 75zM898 146.5q99 64.5 154.5 181t55.5 270.5q0 143 -53.5 254t-151.5 171t-225 60q-135 0 -236.5 -61t-158 -175 t-56.5 -261q0 -150 54.5 -264.5t155 -177t233.5 -62.5q129 0 228 64.5z" glyph-name="Odieresis.aalt" horiz-adv-x="1335"/><glyph d="M729 -177.5q27 -23.5 27 -70.5t-27 -70.5t-65 -23.5q-37 0 -63 23.5t-26 70.5t26 70.5t63 23.5q38 0 65 -23.5zM372 50q-128 75 -199 211t-71 317q0 182 72 321t203 215t305 76q164 0 289 -74t193.5 -208t68.5 -312q0 -186 -69.5 -326.5t-197.5 -217.5t-296 -77 q-170 0 -298 75zM898 146.5q99 64.5 154.5 181t55.5 270.5q0 143 -53.5 254t-151.5 171t-225 60q-135 0 -236.5 -61t-158 -175t-56.5 -261q0 -150 54.5 -264.5t155 -177t233.5 -62.5q129 0 228 64.5z" glyph-name="uni1ECC.aalt" horiz-adv-x="1335"/><glyph d="M735 1300h-108l-232 226h183zM372 50q-128 75 -199 211t-71 317q0 182 72 321t203 215t305 76q164 0 289 -74t193.5 -208t68.5 -312q0 -186 -69.5 -326.5t-197.5 -217.5t-296 -77q-170 0 -298 75zM898 146.5q99 64.5 154.5 181t55.5 270.5q0 143 -53.5 254t-151.5 171 t-225 60q-135 0 -236.5 -61t-158 -175t-56.5 -261q0 -150 54.5 -264.5t155 -177t233.5 -62.5q129 0 228 64.5z" glyph-name="Ograve.aalt" horiz-adv-x="1335"/><glyph d="M551 1313q143 33 143 88q0 39 -44 61.5t-126 20.5v84q16 2 47 2q111 0 174.5 -42t63.5 -122q0 -59 -50 -102t-141 -62zM372 50q-128 75 -199 211t-71 317q0 182 72 321t203 215t305 76q164 0 289 -74t193.5 -208t68.5 -312q0 -186 -69.5 -326.5t-197.5 -217.5t-296 -77 q-170 0 -298 75zM898 146.5q99 64.5 154.5 181t55.5 270.5q0 143 -53.5 254t-151.5 171t-225 60q-135 0 -236.5 -61t-158 -175t-56.5 -261q0 -150 54.5 -264.5t155 -177t233.5 -62.5q129 0 228 64.5z" glyph-name="uni1ECE.aalt" horiz-adv-x="1335"/><glyph d="M1173.5 889q59.5 -129 59.5 -293q0 -186 -69.5 -326.5t-197.5 -217.5t-296 -77q-170 0 -298 75t-199 211t-71 317q0 180 70 318t199 215t299 79h6h6q76 0 133 -14q49 -4 72 -5q66 0 95.5 26t29.5 83v125h118v-125q0 -145 -124 -186q108 -76 167.5 -205zM898 146.5 q99 64.5 154.5 181t55.5 270.5q0 143 -53.5 254t-151.5 171t-225 60q-135 0 -236.5 -61t-158 -175t-56.5 -261q0 -150 54.5 -264.5t155 -177t233.5 -62.5q129 0 228 64.5z" glyph-name="Ohorn.aalt" horiz-adv-x="1335"/><glyph d="M670 1300h-111l156 226h180zM1173.5 889q59.5 -129 59.5 -293q0 -186 -69.5 -326.5t-197.5 -217.5t-296 -77q-170 0 -298 75t-199 211t-71 317q0 180 70 318t199 215t299 79h6h6q76 0 133 -14q49 -4 72 -5q66 0 95.5 26t29.5 83v125h118v-125q0 -145 -124 -186 q108 -76 167.5 -205zM898 146.5q99 64.5 154.5 181t55.5 270.5q0 143 -53.5 254t-151.5 171t-225 60q-135 0 -236.5 -61t-158 -175t-56.5 -261q0 -150 54.5 -264.5t155 -177t233.5 -62.5q129 0 228 64.5z" glyph-name="uni1EDA.aalt" horiz-adv-x="1335"/><glyph d="M729 -177.5q27 -23.5 27 -70.5t-27 -70.5t-65 -23.5q-37 0 -63 23.5t-26 70.5t26 70.5t63 23.5q38 0 65 -23.5zM1173.5 889q59.5 -129 59.5 -293q0 -186 -69.5 -326.5t-197.5 -217.5t-296 -77q-170 0 -298 75t-199 211t-71 317q0 180 70 318t199 215t299 79h6h6 q76 0 133 -14q49 -4 72 -5q66 0 95.5 26t29.5 83v125h118v-125q0 -145 -124 -186q108 -76 167.5 -205zM898 146.5q99 64.5 154.5 181t55.5 270.5q0 143 -53.5 254t-151.5 171t-225 60q-135 0 -236.5 -61t-158 -175t-56.5 -261q0 -150 54.5 -264.5t155 -177t233.5 -62.5 q129 0 228 64.5z" glyph-name="uni1EE2.aalt" horiz-adv-x="1335"/><glyph d="M735 1300h-108l-232 226h183zM1173.5 889q59.5 -129 59.5 -293q0 -186 -69.5 -326.5t-197.5 -217.5t-296 -77q-170 0 -298 75t-199 211t-71 317q0 180 70 318t199 215t299 79h6h6q76 0 133 -14q49 -4 72 -5q66 0 95.5 26t29.5 83v125h118v-125q0 -145 -124 -186 q108 -76 167.5 -205zM898 146.5q99 64.5 154.5 181t55.5 270.5q0 143 -53.5 254t-151.5 171t-225 60q-135 0 -236.5 -61t-158 -175t-56.5 -261q0 -150 54.5 -264.5t155 -177t233.5 -62.5q129 0 228 64.5z" glyph-name="uni1EDC.aalt" horiz-adv-x="1335"/><glyph d="M551 1313q143 33 143 88q0 39 -44 61.5t-126 20.5v84q16 2 47 2q111 0 174.5 -42t63.5 -122q0 -59 -50 -102t-141 -62zM1173.5 889q59.5 -129 59.5 -293q0 -186 -69.5 -326.5t-197.5 -217.5t-296 -77q-170 0 -298 75t-199 211t-71 317q0 180 70 318t199 215t299 79h6h6 q76 0 133 -14q49 -4 72 -5q66 0 95.5 26t29.5 83v125h118v-125q0 -145 -124 -186q108 -76 167.5 -205zM898 146.5q99 64.5 154.5 181t55.5 270.5q0 143 -53.5 254t-151.5 171t-225 60q-135 0 -236.5 -61t-158 -175t-56.5 -261q0 -150 54.5 -264.5t155 -177t233.5 -62.5 q129 0 228 64.5z" glyph-name="uni1EDE.aalt" horiz-adv-x="1335"/><glyph d="M958 1481q-74 -160 -176 -160q-31 0 -56.5 14.5t-61.5 40.5q-33 25 -55.5 37t-49.5 12q-33 0 -58.5 -23.5t-45.5 -68.5l-74 35q31 84 80 124t102 40q37 0 65.5 -15.5t67.5 -46.5q31 -25 50.5 -36t41.5 -11q33 0 53.5 25t32 48.5t15.5 29.5zM1173.5 889 q59.5 -129 59.5 -293q0 -186 -69.5 -326.5t-197.5 -217.5t-296 -77q-170 0 -298 75t-199 211t-71 317q0 180 70 318t199 215t299 79h6h6q76 0 133 -14q49 -4 72 -5q66 0 95.5 26t29.5 83v125h118v-125q0 -145 -124 -186q108 -76 167.5 -205zM898 146.5q99 64.5 154.5 181 t55.5 270.5q0 143 -53.5 254t-151.5 171t-225 60q-135 0 -236.5 -61t-158 -175t-56.5 -261q0 -150 54.5 -264.5t155 -177t233.5 -62.5q129 0 228 64.5z" glyph-name="uni1EE0.aalt" horiz-adv-x="1335"/><glyph d="M520 1526h164l-109 -223h-90zM819 1526h164l-190 -223h-91zM372 50q-128 75 -199 211t-71 317q0 182 72 321t203 215t305 76q164 0 289 -74t193.5 -208t68.5 -312q0 -186 -69.5 -326.5t-197.5 -217.5t-296 -77q-170 0 -298 75zM898 146.5q99 64.5 154.5 181t55.5 270.5 q0 143 -53.5 254t-151.5 171t-225 60q-135 0 -236.5 -61t-158 -175t-56.5 -261q0 -150 54.5 -264.5t155 -177t233.5 -62.5q129 0 228 64.5z" glyph-name="Ohungarumlaut.aalt" horiz-adv-x="1335"/><glyph d="M895 1374h-453v90h453v-90zM372 50q-128 75 -199 211t-71 317q0 182 72 321t203 215t305 76q164 0 289 -74t193.5 -208t68.5 -312q0 -186 -69.5 -326.5t-197.5 -217.5t-296 -77q-170 0 -298 75zM898 146.5q99 64.5 154.5 181t55.5 270.5q0 143 -53.5 254t-151.5 171 t-225 60q-135 0 -236.5 -61t-158 -175t-56.5 -261q0 -150 54.5 -264.5t155 -177t233.5 -62.5q129 0 228 64.5z" glyph-name="Omacron.aalt" horiz-adv-x="1335"/><glyph d="M1166.5 903q66.5 -133 66.5 -307q0 -186 -69.5 -326.5t-197.5 -217.5t-296 -77q-123 0 -228 41l-90 -186l-88 45l90 184q-119 76 -185.5 210t-66.5 309q0 182 72 321t203 215t305 76q115 0 211 -37l88 182l86 -47l-86 -178q119 -74 185.5 -207zM274.5 338.5 q47.5 -107.5 133.5 -172.5l434 887q-74 31 -164 30q-135 0 -236.5 -61t-158 -175t-56.5 -261q0 -140 47.5 -247.5zM898 146.5q99 64.5 154.5 181t55.5 270.5q0 133 -47 239.5t-133 168.5l-436 -889q82 -35 178 -35q129 0 228 64.5z" glyph-name="Oslash.aalt" horiz-adv-x="1335"/><glyph d="M958 1481q-74 -160 -176 -160q-31 0 -56.5 14.5t-61.5 40.5q-33 25 -55.5 37t-49.5 12q-33 0 -58.5 -23.5t-45.5 -68.5l-74 35q31 84 80 124t102 40q37 0 65.5 -15.5t67.5 -46.5q31 -25 50.5 -36t41.5 -11q33 0 53.5 25t32 48.5t15.5 29.5zM372 50q-128 75 -199 211 t-71 317q0 182 72 321t203 215t305 76q164 0 289 -74t193.5 -208t68.5 -312q0 -186 -69.5 -326.5t-197.5 -217.5t-296 -77q-170 0 -298 75zM898 146.5q99 64.5 154.5 181t55.5 270.5q0 143 -53.5 254t-151.5 171t-225 60q-135 0 -236.5 -61t-158 -175t-56.5 -261 q0 -150 54.5 -264.5t155 -177t233.5 -62.5q129 0 228 64.5z" glyph-name="Otilde.aalt" horiz-adv-x="1335"/><glyph d="M370.5 60.5q-116.5 60.5 -192.5 192.5t-76 331q0 203 77 334t196 189t252 58h698v-106h-512v-404h449v-112h-449v-432h512v-111h-711q-127 0 -243.5 60.5zM694 98v961h-55q-190 0 -302 -116t-112 -357q0 -158 55.5 -267.5t149.5 -165t209 -55.5h55z" glyph-name="OE.aalt" horiz-adv-x="1449"/><glyph d="M186 1165h377q188 0 290.5 -95t102.5 -263q0 -166 -102 -268.5t-291 -102.5h-258v-436h-119v1165zM530 547q143 0 223.5 67.5t80.5 190.5q0 125 -79 189.5t-225 64.5h-225v-512h225z" glyph-name="P.aalt" horiz-adv-x="1060"/><glyph d="M186 1165h119v-207h191q178 0 284.5 -96t106.5 -262q0 -164 -102.5 -266.5t-268.5 -102.5h-213v-231h-117v1165zM471 340q141 0 217 68.5t76 191.5q0 119 -75 183.5t-218 64.5h-168v-508h168z" glyph-name="Thorn.aalt" horiz-adv-x="989"/><glyph d="M1128.5 209q-104.5 -158 -288.5 -211l303 -129l-66 -105l-422 211q-166 2 -290.5 79t-193.5 212t-69 312q0 182 72 321t203 215t305 76q164 0 289 -74t193.5 -208t68.5 -312q0 -229 -104.5 -387zM281.5 321.5q54.5 -114.5 155 -177t233.5 -62.5q129 0 228 64.5t154.5 181 t55.5 270.5q0 143 -53.5 254t-151.5 171t-225 60q-135 0 -236.5 -61t-158 -175t-56.5 -261q0 -150 54.5 -264.5z" glyph-name="Q.aalt" horiz-adv-x="1335"/><glyph d="M834 0l-261 457h-268v-457h-119v1165h375q199 0 284 -90t85 -250q0 -127 -56.5 -222t-173.5 -130l277 -473h-143zM305 565h244q129 0 193.5 64.5t64.5 187.5q0 125 -62.5 183.5t-195.5 58.5h-244v-494z" glyph-name="R.aalt" horiz-adv-x="1067"/><glyph d="M537 1300h-111l156 226h180zM834 0l-261 457h-268v-457h-119v1165h375q199 0 284 -90t85 -250q0 -127 -56.5 -222t-173.5 -130l277 -473h-143zM305 565h244q129 0 193.5 64.5t64.5 187.5q0 125 -62.5 183.5t-195.5 58.5h-244v-494z" glyph-name="Racute.aalt" horiz-adv-x="1067"/></font>
</defs>
</svg>
