<?xml version="1.0" standalone="no"?>
<!DOCTYPE svg PUBLIC "-//W3C//DTD SVG 1.1//EN" "http://www.w3.org/Graphics/SVG/1.1/DTD/svg11.dtd">
<svg xmlns="http://www.w3.org/2000/svg"><metadata>This SVG WebFont was generated by YouWorkForThem.
Copyright Â© 2012, 2017 by Plau. All rights reserved.</metadata><defs><font horiz-adv-x="0" id="ywftsvg"><font-face ascent="1556" bbox="-1141 -442 2234 2079" cap-height="1434" descent="-492" font-family="" font-stretch="normal" font-weight="400" panose-1="0 0 5 0 0 0 0 0 0 0" underline-position="0" underline-thickness="0" unicode-range="U+0020-FB02" units-per-em="2048" x-height="1073"/><missing-glyph d="M1006 0h-820v1434h820v-1434zM311 123h570v1190h-570v-1190z" horiz-adv-x="1189"/><glyph d="M1098 0h-185v1073h185v-1073zM1091 1441q36 -30 35 -87q0 -57 -35 -88q-36 -31 -87 -31t-86 31t-35 88t35 87t86 29q51 1 87 -29zM721 1544l-31 -145q-51 14 -110 14q-164 0 -164 -149v-191h264v-158h-264v-915h-187v915h-159v158h159v189q0 152 86 228q86 77 238 77 q96 0 168 -23z" glyph-name="uniFB01" horiz-adv-x="1265" unicode="fi"/><glyph d="M1071 0h-184v1540h184v-1540zM721 1544l-31 -145q-51 14 -110 14q-164 0 -164 -149v-191h264v-158h-264v-915h-187v915h-159v158h159v189q0 152 86 228q86 77 238 77q96 0 168 -23z" glyph-name="uniFB02" horiz-adv-x="1234" unicode="fl"/><glyph d="M1006 0h-820v1434h820v-1434zM311 123h570v1190h-570v-1190z" glyph-name=".notdef" horiz-adv-x="1189"/><glyph glyph-name="glyph1"/><glyph glyph-name="glyph2" horiz-adv-x="682"/><glyph glyph-name="space" horiz-adv-x="589" unicode=" "/><glyph d="M379 401h-143l-33 1033h215zM402.5 204q35.5 -36 35.5 -98q0 -61 -35.5 -96t-93.5 -35q-59 0 -94 35t-35 96t35 97.5t94 36.5q58 0 93.5 -36z" glyph-name="exclam" horiz-adv-x="618" unicode="!"/><glyph d="M356 979h-118l-31 455h178zM668 979h-121l-29 455h178z" glyph-name="quotedbl" horiz-adv-x="903" unicode="&quot;"/><glyph d="M1010 915l-47 -380h323v-125h-338l-51 -410h-131l51 410h-328l-53 -410h-133l53 410h-286v125h303l49 380h-309v125h325l51 394h132l-52 -394h326l49 394h129l-49 -394h307v-125h-321zM881 915h-328l-47 -380h325z" glyph-name="numbersign" horiz-adv-x="1400" unicode="#"/><glyph d="M957.5 104.5q-121.5 -112.5 -334.5 -127.5l10 -208h-156l10 211q-106 10 -211.5 42.5t-191.5 83.5l66 158q92 -51 198.5 -80.5t214.5 -29.5q156 0 237 62.5t81 160.5q0 70 -42 117t-103.5 75.5t-207.5 85.5q-139 55 -226 104.5t-141.5 125.5t-54.5 188q0 162 112 265.5 t310 117.5l-8 193h156l-10 -195q205 -16 374 -129l-84 -145q-82 55 -178 84.5t-190 29.5q-131 0 -208 -57t-77 -154q0 -68 40 -114.5t102.5 -78.5t179.5 -77l84 -33q129 -51 206.5 -99t120.5 -116.5t43 -171.5q0 -176 -121.5 -288.5z" glyph-name="dollar" horiz-adv-x="1161" unicode="$"/><glyph d="M163 885q-89 88 -89 243q0 154 89 242t224 88q137 0 224 -88t87 -244q0 -154 -87 -241.5t-224 -87.5q-135 0 -224 88zM1204 1434h158l-967 -1434h-159zM508 969.5q41 54.5 41 158.5q0 102 -41 156.5t-121 54.5q-78 0 -123 -55t-45 -156q0 -102 44 -157.5t124 -55.5 t121 54.5zM973 63.5q-90 88.5 -90 243.5q0 158 89 245t226 87q135 0 223 -88t88 -244q0 -154 -88 -243t-223 -89t-225 88.5zM1319 150.5q41 54.5 41 156.5t-41 157.5t-121 55.5t-124 -56t-44 -157q0 -100 44 -155.5t124 -55.5t121 54.5z" glyph-name="percent" horiz-adv-x="1583" unicode="%"/><glyph d="M1274 -35l-236 221q-86 -111 -193.5 -161t-250.5 -50q-209 0 -320.5 93.5t-111.5 244.5q0 106 58.5 197.5t178.5 179.5l56 41q-117 113 -169.5 191.5t-52.5 191.5q0 156 104.5 251t291.5 95q172 0 275.5 -85t103.5 -224q0 -190 -209 -354l-88 -68l295 -276q6 10 47 110 l86 211l153 -63l-82 -207q-31 -80 -77 -170l260 -244zM432.5 1014q22.5 -43 57 -79t106.5 -99l76 55q162 117 162 250q0 84 -57.5 123t-147.5 39q-109 0 -164 -51.5t-55 -141.5q0 -53 22.5 -96zM911 303l-340 320l-75 -60q-76 -55 -110 -110.5t-34 -118.5q0 -88 61.5 -140.5 t178.5 -52.5q190 0 319 162z" glyph-name="ampersand" horiz-adv-x="1501" unicode="&amp;"/><glyph d="M309 979h-119l-30 455h178z" glyph-name="quotesingle" horiz-adv-x="497" unicode="'"/><glyph d="M653 1538q-88 -88 -149.5 -167t-120.5 -248t-59 -412q0 -244 59 -416t127 -262t143 -162l-78 -84q-152 106 -287.5 319t-135.5 605q0 391 137 605t284 308z" glyph-name="parenleft" horiz-adv-x="739" unicode="("/><glyph d="M450.5 1316q137.5 -214 137.5 -605t-136.5 -604t-287.5 -320l-78 84q76 72 143.5 162t127 262t59.5 416t-59.5 412.5t-119 245.5t-149.5 169l78 86q147 -94 284.5 -308z" glyph-name="parenright" horiz-adv-x="739" unicode=")"/><glyph d="M485 1323l183 117l59 -101l-192 -100l190 -96l-57 -99l-183 115l17 -211h-123l12 211l-176 -115l-59 99l192 96l-192 102l57 97l178 -113l-12 211h123z" glyph-name="asterisk" horiz-adv-x="880" unicode="*"/><glyph d="M1118 625h-428v-416h-158v416h-430v155h430v416h158v-416h428v-155z" glyph-name="plus" horiz-adv-x="1220" unicode="+"/><glyph d="M377 198q35 -38 35 -108q0 -90 -52.5 -183t-160.5 -167l-62 49q55 47 91 102.5t48 108.5q-47 4 -79.5 38t-32.5 83q0 55 36 85t89 30t88 -38z" glyph-name="comma" horiz-adv-x="555" unicode=","/><glyph d="M766 524h-600v158h600v-158z" glyph-name="hyphen" horiz-adv-x="913" unicode="-"/><glyph d="M378 204q36 -36 36 -98q0 -61 -36 -96t-93 -35q-59 0 -94 35t-35 96t34.5 97.5t94.5 36.5q57 0 93 -36z" glyph-name="period" horiz-adv-x="569" unicode="."/><glyph d="M664 1540l-480 -1683h-164l480 1683h164z" glyph-name="slash" horiz-adv-x="684" unicode="/"/><glyph d="M959.5 1380q125.5 -80 200.5 -244.5t75 -408.5q0 -246 -76 -416t-204 -254t-285 -84q-156 0 -283 81t-204 247t-77 410t77 412.5t207 252.5t290 84q154 0 279.5 -80zM405.5 1141.5q-100.5 -152.5 -100.5 -428.5q0 -270 97.5 -421t265.5 -151q170 0 268 151.5t98 430.5 q0 272 -93 421.5t-263 149.5q-172 0 -272.5 -152.5z" glyph-name="zero" horiz-adv-x="1339" unicode="0"/><glyph d="M979 172v-172h-819v172h348v1045l-330 -150l-67 143l448 224h141v-1262h279z" glyph-name="one" horiz-adv-x="1140" unicode="1"/><glyph d="M1163 174v-174h-1024v170l408 356q25 23 74 64q111 96 168 153.5t94 127t37 153.5q0 129 -88.5 196.5t-233.5 67.5q-100 0 -196.5 -34.5t-165.5 -86.5l-80 138q92 68 216 110.5t255 42.5q152 0 263 -50t170.5 -141t59.5 -210q0 -111 -46 -205t-126 -177t-217 -202 l-350 -299h782z" glyph-name="two" horiz-adv-x="1296" unicode="2"/><glyph d="M868.5 1414q110.5 -46 166 -124t55.5 -176q0 -113 -72 -203t-191 -131v-6q143 -20 235.5 -112.5t92.5 -239.5q0 -129 -75.5 -230.5t-209 -160t-299.5 -58.5q-147 0 -279 42t-229 118l95 141q176 -135 409 -135q180 0 283.5 78t103.5 207q0 252 -401 252h-154v160h142 q152 0 252 62.5t100 174.5q0 98 -90 159.5t-236 61.5q-201 0 -368 -129l-93 125q207 170 492 170q160 0 270.5 -46z" glyph-name="three" horiz-adv-x="1259" unicode="3"/><glyph d="M1231 530v-155h-219v-375h-197v375h-721v135l744 924h174v-904h219zM823 530v652l-524 -652h524z" glyph-name="four" horiz-adv-x="1335" unicode="4"/><glyph d="M1092 1268h-664v-453q68 43 153 64.5t173 21.5q190 0 308 -109.5t118 -320.5q0 -150 -69 -262.5t-200 -174t-313 -61.5q-131 0 -242.5 33t-189.5 100l82 140q150 -104 348 -105q182 0 284.5 87t102.5 241q0 137 -74.5 208t-206.5 71q-90 0 -168.5 -27t-160.5 -86l-131 82 v717h850v-166z" glyph-name="five" horiz-adv-x="1306" unicode="5"/><glyph d="M949.5 862q107.5 -49 173 -149.5t65.5 -247.5q0 -139 -67.5 -252t-188.5 -176.5t-277 -63.5q-256 0 -403.5 179.5t-147.5 533.5q0 272 86 445.5t228.5 251t316.5 77.5q211 0 391 -106l-82 -148q-66 41 -148.5 64.5t-164.5 23.5q-188 0 -308 -132t-126 -437 q82 84 193.5 135t226.5 51q125 0 232.5 -49zM902 226q93 89 93 227q0 141 -87 218t-224 77q-111 0 -211 -54.5t-168 -146.5q23 -201 113 -305.5t244 -104.5q147 0 240 89z" glyph-name="six" horiz-adv-x="1267" unicode="6"/><glyph d="M1085 1272l-630 -1272h-211l635 1260h-820v174h1026v-162z" glyph-name="seven" horiz-adv-x="1185" unicode="7"/><glyph d="M897 1414q111 -46 171 -131t60 -193q0 -115 -63.5 -198t-165.5 -120q121 -29 200 -133t79 -240q0 -123 -68 -220t-191.5 -151.5t-283.5 -54.5q-156 0 -276.5 53.5t-187.5 150.5t-67 220q0 133 81 237.5t202 137.5q-104 37 -166.5 118t-62.5 193q0 111 60.5 196t170 133 t254.5 48q143 0 254 -46zM428 1236q-80 -60 -80 -165q0 -109 83 -170t212 -61t211 61.5t82 169.5q0 104 -79 164.5t-214 60.5t-215 -60zM465 663.5q-80 -36.5 -124 -101t-44 -146.5q0 -129 92 -204t254 -75q160 0 251 73t91 196q0 129 -94 211.5t-246 82.5 q-100 0 -180 -36.5z" glyph-name="eight" horiz-adv-x="1284" unicode="8"/><glyph d="M1041.5 1281q146.5 -179 146.5 -536q0 -272 -84 -444t-224.5 -250t-314.5 -78q-131 0 -246.5 33t-187.5 72l80 147q78 -41 174 -63.5t188 -22.5q180 0 297 128t125 427q-86 -80 -200.5 -129t-233.5 -49q-121 0 -225.5 50t-168 150.5t-63.5 244.5q0 143 67 256.5 t188.5 178t277.5 64.5q258 0 404.5 -179zM812 733q103 51 177 137q-20 209 -109 317.5t-247 108.5q-150 0 -243 -89t-93 -232q0 -141 84 -217t219 -76q109 0 212 51z" glyph-name="nine" horiz-adv-x="1273" unicode="9"/><glyph d="M190.5 869.5q-34.5 35.5 -34.5 95.5q0 61 34.5 97t92.5 36q57 0 93 -36t36 -97q0 -59 -36 -95t-93 -36q-58 0 -92.5 35.5zM190.5 14.5q-34.5 34.5 -34.5 96.5q0 61 34.5 97t92.5 36q57 0 93 -36t36 -97t-36 -96t-93 -35q-58 0 -92.5 34.5z" glyph-name="colon" horiz-adv-x="567" unicode=":"/><glyph d="M213 867q-35 36 -35 96q0 61 35 97t92 36t93 -36t36 -97q0 -59 -36 -95.5t-93 -36.5t-92 36zM158 -211q53 47 85.5 103.5t43.5 107.5q-43 6 -75 40t-32 81q0 53 34 84t85 31q59 0 92 -40t33 -108q0 -88 -50 -182t-153 -166z" glyph-name="semicolon" horiz-adv-x="585" unicode=";"/><glyph d="M1049 291l-72 -125l-830 475v125l832 473l68 -131l-728 -406z" glyph-name="less" horiz-adv-x="1220" unicode="&lt;"/><glyph d="M1118 836h-1016v151h1016v-151zM1118 418h-1016v151h1016v-151z" glyph-name="equal" horiz-adv-x="1220" unicode="="/><glyph d="M1073 764v-127l-829 -471l-72 121l731 413l-729 402l68 137z" glyph-name="greater" horiz-adv-x="1220" unicode=">"/><glyph d="M728 1412q99 -46 152.5 -127t53.5 -183q0 -70 -24.5 -124t-59.5 -92t-96 -95q-68 -59 -111 -106.5t-72.5 -118t-29.5 -165.5h-166q0 123 31.5 209t77.5 138.5t116 111.5q72 63 105.5 110.5t33.5 114.5q0 98 -73.5 155.5t-200.5 57.5q-176 0 -320 -112l-73 137 q80 61 189.5 98t230.5 37q137 0 236 -46zM553 204q35 -36 35 -98q0 -61 -35 -96t-94 -35q-57 0 -92 35t-35 96t34.5 97.5t92.5 36.5q59 0 94 -36z" glyph-name="question" horiz-adv-x="1032" unicode="?"/><glyph d="M1357 1237q169 -80 262 -231.5t93 -360.5q0 -152 -51 -271.5t-146.5 -188t-224.5 -68.5q-78 0 -136 29.5t-89 82.5q-98 -104 -254 -104q-121 0 -205 87t-84 259q0 131 57.5 227.5t161 148.5t236.5 52q145 0 274 -53l-59 -416q-2 -14 -2 -41q0 -68 30.5 -100.5t79.5 -32.5 q113 0 180.5 103.5t67.5 281.5q0 262 -154.5 397.5t-430.5 135.5q-199 0 -360 -83t-253 -241t-92 -375q0 -197 82 -337t221 -212.5t309 -72.5q72 0 172.5 15t169.5 38l45 -133q-82 -31 -186 -48.5t-207 -17.5q-203 0 -379 83t-284.5 256t-108.5 429q0 250 113.5 441.5 t311.5 296t444 104.5q227 0 396 -80zM1034 356q0 16 4 58l47 336q-63 14 -131 14q-125 0 -195.5 -80t-70.5 -207q0 -109 45 -162t119 -53q108 0 182 94z" glyph-name="at" horiz-adv-x="1804" unicode="@"/><glyph d="M1014 342h-635l-123 -342h-203l535 1434h219l541 -1434h-211zM958 502l-262 733l-262 -733h524z" glyph-name="A" horiz-adv-x="1402" unicode="A"/><glyph d="M1115 636q85 -93 85 -239q0 -197 -137 -297t-367 -100h-510v1434h457q229 0 348 -91.5t119 -257.5q0 -106 -57.5 -193t-153.5 -134q131 -29 216 -122zM379 803h242q137 0 217 65.5t80 180.5q0 223 -304 223h-235v-469zM919.5 226.5q79.5 64.5 79.5 176.5q0 248 -315 248 h-305v-489h297q164 0 243.5 64.5z" glyph-name="B" horiz-adv-x="1294" unicode="B"/><glyph d="M1048.5 1426.5q118.5 -33.5 200.5 -95.5l-94 -147q-156 102 -367 102q-133 0 -241.5 -62.5t-173 -191.5t-64.5 -321q0 -283 133 -423.5t346 -140.5q119 0 213.5 34t180.5 104l100 -140q-92 -82 -220 -127t-282 -45q-193 0 -343 82t-238 249t-88 413q0 244 89 411.5 t242.5 249.5t348.5 82q139 0 257.5 -33.5z" glyph-name="C" horiz-adv-x="1335" unicode="C"/><glyph d="M965.5 1359q158.5 -75 252 -233.5t93.5 -398.5q0 -238 -93.5 -401.5t-253 -244.5t-360.5 -81h-418v1434h418q203 0 361.5 -75zM379 1262v-1086h209q522 0 522 551q0 276 -130 405.5t-392 129.5h-209z" glyph-name="D" horiz-adv-x="1421" unicode="D"/><glyph d="M1100 1268h-723v-453h637v-168h-637v-475h723v-172h-914v1434h914v-166z" glyph-name="E" horiz-adv-x="1206" unicode="E"/><glyph d="M186 1434h840v-166h-649v-500h567v-166h-567v-602h-191v1434z" glyph-name="F" horiz-adv-x="1085" unicode="F"/><glyph d="M1292 1288l-102 -137q-172 135 -397 135q-221 0 -351.5 -144.5t-130.5 -418.5q0 -184 59.5 -313t167 -194.5t246.5 -65.5q121 0 213.5 41.5t141.5 101.5v346h-424v160h610v-594q-88 -106 -230.5 -169t-318.5 -63q-182 0 -333.5 80t-241.5 246t-90 414q0 242 88 409.5 t242.5 252.5t355.5 85q292 0 495 -172z" glyph-name="G" horiz-adv-x="1460" unicode="G"/><glyph d="M1329 1434v-1434h-188v641h-764v-641h-191v1434h191v-627h764v627h188z" glyph-name="H" horiz-adv-x="1515" unicode="H"/><glyph d="M377 0h-191v1434h191v-1434z" glyph-name="I" horiz-adv-x="561" unicode="I"/><glyph d="M25 -8l16 170q82 -12 160 -12q319 0 319 321v963h193v-953q0 -287 -133.5 -397.5t-366.5 -110.5q-114 1 -188 19z" glyph-name="J" horiz-adv-x="899" unicode="J"/><glyph d="M1038 0l-546 635l-113 -121v-514h-193v1434h193v-691l627 691h237l-618 -658l665 -776h-252z" glyph-name="K" horiz-adv-x="1308" unicode="K"/><glyph d="M186 1434h191v-1264h688v-170h-879v1434z" glyph-name="L" horiz-adv-x="1105" unicode="L"/><glyph d="M1636 1434v-1434h-186v1075l-473 -1059h-135l-475 1051v-1067h-181v1434h195l537 -1174l512 1174h206z" glyph-name="M" horiz-adv-x="1820" unicode="M"/><glyph d="M1350 1434v-1434h-164l-809 1096v-1096h-191v1434h166l805 -1100v1100h193z" glyph-name="N" horiz-adv-x="1533" unicode="N"/><glyph d="M1136.5 1380q155.5 -80 253 -246.5t97.5 -412.5t-97.5 -415t-254 -251t-334.5 -82q-180 0 -338 82t-255 251t-97 415t97 412.5t255 246.5t338 80t335.5 -80zM552 1223.5q-112 -62.5 -176.5 -189.5t-64.5 -311q0 -182 64.5 -312t174 -197t245.5 -67q137 0 248.5 66 t178 195t66.5 315q0 184 -65.5 310t-176 189.5t-245.5 63.5q-137 0 -249 -62.5z" glyph-name="O" horiz-adv-x="1597" unicode="O"/><glyph d="M186 1434h443q244 0 372.5 -115t128.5 -311q0 -131 -57 -236.5t-169.5 -168t-272.5 -62.5h-254v-541h-191v1434zM616 707q152 0 232 77.5t80 216.5q0 266 -312 267h-239v-561h239z" glyph-name="P" horiz-adv-x="1171" unicode="P"/><glyph d="M1367 269q-120 -177 -312 -251l430 -196l-88 -152l-568 303h-28q-180 0 -338 82t-255 251t-97 415t97 412.5t255 246.5t338 80t335.5 -80t253 -246.5t97.5 -412.5q0 -275 -120 -452zM1043.5 213q111.5 66 178 195t66.5 315q0 184 -65.5 310t-176 189.5t-245.5 63.5 q-137 0 -249 -62.5t-176.5 -189.5t-64.5 -311q0 -182 64.5 -312t174 -197t245.5 -67q137 0 248.5 66z" glyph-name="Q" horiz-adv-x="1597" unicode="Q"/><glyph d="M1042 0l-329 545h-33h-303v-545h-191v1434h492q270 0 392 -115t122 -305q0 -160 -75 -273.5t-218 -162.5l358 -578h-215zM698 711q139 0 216 79.5t77 204.5q0 137 -77.5 205t-256.5 68h-280v-557h321z" glyph-name="R" horiz-adv-x="1310" unicode="R"/><glyph d="M866.5 1423q106.5 -37 196.5 -96l-84 -145q-80 55 -173 86.5t-185 31.5q-137 0 -217 -58t-80 -163q0 -66 44 -113.5t107.5 -78.5t179.5 -78q150 -61 234 -104t145.5 -120t61.5 -192q0 -125 -62.5 -219t-178.5 -146.5t-273 -52.5q-127 0 -261.5 36t-236.5 100l68 155 q94 -53 207.5 -84.5t218.5 -31.5q162 0 239.5 63t77.5 166q0 68 -42 116t-105.5 78.5t-176.5 73.5q-143 53 -232 99.5t-151.5 127t-62.5 203.5q0 111 60.5 198t172 136t260.5 49q142 0 248.5 -37z" glyph-name="S" horiz-adv-x="1177" unicode="S"/><glyph d="M512 1268h-469v166h1131v-166h-472v-1268h-190v1268z" glyph-name="T" horiz-adv-x="1214" unicode="T"/><glyph d="M341 106.5q-155 133.5 -155 411.5v916h191v-924q0 -170 93 -263t265 -93t265.5 93t93.5 263v924h190v-916q0 -279 -154.5 -412t-394.5 -133q-239 0 -394 133.5z" glyph-name="U" horiz-adv-x="1470" unicode="U"/><glyph d="M33 1434h209l452 -1241l441 1241h211l-543 -1434h-225z" glyph-name="V" horiz-adv-x="1378" unicode="V"/><glyph d="M2007 1434l-440 -1434h-195l-354 1147l-352 -1147h-195l-438 1434h205l337 -1184l361 1184h178l354 -1178l342 1178h197z" glyph-name="W" horiz-adv-x="2039" unicode="W"/><glyph d="M748 754l540 -754h-241l-410 600l-377 -600h-231l501 743l-479 691h246l344 -545l346 545h248z" glyph-name="X" horiz-adv-x="1318" unicode="X"/><glyph d="M530 573l-501 861h225l377 -680l377 680h213l-498 -863v-571h-193v573z" glyph-name="Y" horiz-adv-x="1251" unicode="Y"/><glyph d="M1180 166v-166h-1088v150l826 1118h-781v166h1006v-140l-826 -1128h863z" glyph-name="Z" horiz-adv-x="1273" unicode="Z"/><glyph d="M498 1483h-187v-1585h187v-142h-348v1868h348v-141z" glyph-name="bracketleft" horiz-adv-x="600" unicode="["/><glyph d="M664 -143h-164l-480 1683h164z" glyph-name="backslash" horiz-adv-x="684" unicode="\"/><glyph d="M451 -244h-347v142h185v1585h-185v141h347v-1868z" glyph-name="bracketright" horiz-adv-x="600" unicode="]"/><glyph d="M1032 852l-350 528l-352 -528h-201l463 692h178l463 -692h-201z" glyph-name="asciicircum" horiz-adv-x="1398" unicode="^"/><glyph d="M1323 -160h-1182v146h1182v-146z" glyph-name="underscore" horiz-adv-x="1462" unicode="_"/><glyph d="M469 1208h-133l-254 250h240z" glyph-name="grave" horiz-adv-x="550" unicode="`"/><glyph d="M1087 131l-14 -123q-35 -23 -104 -22q-72 0 -114 35.5t-56 113.5q-141 -162 -359 -162q-150 0 -249 79t-99 227q0 162 123 241.5t309 79.5q66 0 138.5 -8t119.5 -19v142q0 121 -70.5 175t-185.5 54q-158 0 -295 -104l-79 118q170 141 403 142q203 0 307.5 -96.5 t104.5 -286.5v-502q0 -86 67 -86zM651 164q82 43 133 117v159q-43 10 -115.5 18.5t-131.5 8.5q-115 0 -191 -43t-76 -137q0 -84 61.5 -125t145.5 -41q92 0 174 43z" glyph-name="a" horiz-adv-x="1142" unicode="a"/><glyph d="M350 950h4q59 72 145.5 111t186.5 39q131 0 233.5 -63.5t159 -186.5t56.5 -293q0 -182 -61.5 -314t-173.5 -201t-261 -69q-94 0 -174 37t-137 107h-6l-33 -117h-123v1540h184v-590zM492.5 897q-72.5 -41 -142.5 -131v-496q41 -63 113 -100t166 -37q92 0 163.5 51.5 t112.5 146.5t41 224q0 180 -83 281.5t-214 101.5q-84 0 -156.5 -41z" glyph-name="b" horiz-adv-x="1228" unicode="b"/><glyph d="M828.5 1066q97.5 -34 168.5 -95l-86 -131q-66 51 -129 75.5t-153 24.5q-154 0 -251 -104.5t-97 -292.5q0 -127 46 -219.5t125.5 -140.5t180.5 -48q162 0 299 111l88 -123q-66 -66 -168 -108t-229 -42q-152 0 -272 66.5t-189.5 196t-69.5 307.5q0 174 70.5 300 t190.5 191.5t263 65.5q115 0 212.5 -34z" glyph-name="c" horiz-adv-x="1079" unicode="c"/><glyph d="M337.5 31.5q-108.5 58.5 -177 184.5t-68.5 321q0 182 65.5 309t172 190.5t229.5 63.5q199 0 315 -113v553h185v-1540h-131l-29 125h-6q-57 -66 -143 -109t-181 -43q-123 0 -231.5 58.5zM751.5 180q71.5 41 122.5 111v516q-117 127 -280 127q-84 0 -154.5 -42t-113.5 -132 t-43 -223q0 -131 45 -220.5t115.5 -133.5t150.5 -44q86 0 157.5 41z" glyph-name="d" horiz-adv-x="1222" unicode="d"/><glyph d="M1059 479h-778q31 -354 352 -354q104 0 189 32.5t147 86.5l86 -121q-86 -72 -194.5 -112t-252.5 -40q-143 0 -260 62.5t-186.5 188.5t-69.5 308q0 176 63.5 305.5t179.5 198t265 68.5q152 0 258.5 -68.5t158.5 -182.5t52 -249q0 -62 -10 -123zM378 865q-87 -87 -99 -251 h618q-6 158 -80 248t-211 90q-141 0 -228 -87z" glyph-name="e" horiz-adv-x="1163" unicode="e"/><glyph d="M721 1544l-31 -145q-51 14 -110 14q-164 0 -164 -149v-191h264v-158h-264v-915h-187v915h-159v158h159v189q0 152 86 228.5t238 76.5q96 0 168 -23z" glyph-name="f" horiz-adv-x="716" unicode="f"/><glyph d="M775 1068q79 -32 132 -85h8l46 90h116v-1038q0 -242 -132 -359.5t-359 -117.5q-125 0 -230.5 34.5t-179.5 92.5l76 139q133 -102 323 -103q145 0 233.5 66t88.5 205v166q-135 -127 -319 -127q-137 0 -248 61.5t-174.5 180t-63.5 282.5q0 176 72 299t187.5 184.5 t246.5 61.5q98 0 177 -32zM382 837.5q-97 -96.5 -97 -278.5q0 -172 88 -267t229 -95q84 0 159 35.5t132 107.5v477q-43 51 -108.5 84t-155.5 33q-150 0 -247 -96.5z" glyph-name="g" horiz-adv-x="1222" unicode="g"/><glyph d="M348 926q78 92 161 133t189 41q158 0 260.5 -93.5t102.5 -269.5v-737h-184v694q0 127 -66 182.5t-168 55.5q-166 0 -293 -197v-735h-184v1540h182v-614z" glyph-name="h" horiz-adv-x="1208" unicode="h"/><glyph d="M345 1440.5q36 -29.5 36 -86.5t-36 -88t-87 -31t-86 30.5t-35 88.5q0 57 35 86.5t86 29.5t87 -29.5zM352 0h-184v1073h184v-1073z" glyph-name="i" horiz-adv-x="518" unicode="i"/><glyph d="M370 1440.5q36 -29.5 36 -86.5t-36 -88t-87 -31t-86 30.5t-35 88.5q0 57 34.5 86.5t86.5 29.5q51 0 87 -29.5zM-145 -401l32 147q53 -14 111 -14q98 0 145 43t47 147v1151h185v-1196q0 -150 -97.5 -228.5t-248.5 -78.5q-104 0 -174 29z" glyph-name="j" horiz-adv-x="542" unicode="j"/><glyph d="M856 0l-371 489l-135 -147v-342h-184v1540h184v-981l447 514h219l-410 -450l477 -623h-227z" glyph-name="k" horiz-adv-x="1097" unicode="k"/><glyph d="M350 0h-184v1540h184v-1540z" glyph-name="l" horiz-adv-x="514" unicode="l"/><glyph d="M1574 1004.5q91 -95.5 91 -273.5v-731h-186v717q0 219 -187 219q-86 0 -155.5 -48t-126.5 -147v-741h-189v723q0 113 -53 163t-135 50q-88 0 -161 -53.5t-120 -141.5v-741h-186v1073h143l25 -153h6q66 94 140.5 137t183.5 43q117 0 192.5 -46t118.5 -145 q70 100 156 145.5t192 45.5q160 0 251 -95.5z" glyph-name="m" horiz-adv-x="1812" unicode="m"/><glyph d="M166 1073h127l29 -164h6q78 94 165 142.5t209 48.5q170 0 264.5 -91t94.5 -266v-743h-184v690q0 131 -52.5 185.5t-150.5 54.5q-197 0 -328 -199v-731h-180v1073z" glyph-name="n" horiz-adv-x="1208" unicode="n"/><glyph d="M879.5 1038.5q119.5 -61.5 192.5 -187.5t73 -314t-73 -314.5t-192.5 -188t-261.5 -61.5q-141 0 -260.5 61.5t-192.5 187.5t-73 315q0 188 73 314t192.5 187.5t260.5 61.5q142 0 261.5 -61.5zM373 830.5q-90 -105.5 -90 -293.5t90 -294t245 -106q156 0 247 106.5t91 293.5 q0 186 -91 292.5t-247 106.5q-155 0 -245 -105.5z" glyph-name="o" horiz-adv-x="1236" unicode="o"/><glyph d="M898 1040.5q99 -59.5 157.5 -180.5t58.5 -297t-68.5 -310t-181 -207t-243.5 -73q-88 0 -151.5 16.5t-119.5 53.5v-465h-184v1495h129l37 -153h4q70 90 149.5 135t190.5 45q123 0 222 -59.5zM479.5 887q-69.5 -49 -129.5 -150v-530q53 -43 105.5 -60.5t132.5 -17.5 q86 0 163.5 50t126 145.5t48.5 226.5q0 193 -83 289t-204 96q-90 0 -159.5 -49z" glyph-name="p" horiz-adv-x="1206" unicode="p"/><glyph d="M897 985h6l51 88h111v-1495h-186v481q-125 -86 -295 -86q-127 0 -240 65.5t-182.5 192.5t-69.5 306q0 184 74 311t189.5 189.5t240.5 62.5q176 0 301 -115zM451.5 890q-76.5 -44 -122.5 -134t-46 -221q0 -137 51 -225.5t127 -129.5t149 -41q150 0 269 99v577 q-113 119 -258 119q-93 0 -169.5 -44z" glyph-name="q" horiz-adv-x="1212" unicode="q"/><glyph d="M166 1073h139l33 -158h6q76 184 262 185q76 0 117 -27l-31 -166q-53 18 -108 19q-164 0 -236 -230v-696h-182v1073z" glyph-name="r" horiz-adv-x="759" unicode="r"/><glyph d="M702.5 1073.5q92.5 -26.5 153.5 -69.5l-63 -138q-59 37 -134 59.5t-149 22.5q-92 0 -149.5 -41t-57.5 -106q0 -45 31 -77t76 -51.5t129 -45.5q109 -33 179 -66t119.5 -95.5t49.5 -160.5q0 -152 -114 -242t-304 -90q-111 0 -210 31t-167 86l60 148q61 -51 141 -78t166 -27 q113 0 177 46t64 120q0 49 -31.5 82t-77.5 53.5t-132 48.5q-106 35 -173 67t-114 90t-47 153q0 141 107.5 224t277.5 83q100 0 192.5 -26.5z" glyph-name="s" horiz-adv-x="974" unicode="s"/><glyph d="M231 207v708h-178v158h178v158l91 119h96v-277h262v-158h-262v-675q0 -53 24.5 -78t63.5 -25q61 0 141 35l49 -139q-104 -59 -223 -60q-242 1 -242 234z" glyph-name="t" horiz-adv-x="759" unicode="t"/><glyph d="M1049 1073v-1073h-134l-38 160q-72 -90 -157 -137.5t-206 -47.5q-158 0 -253 94.5t-95 286.5v717h182v-674q0 -258 199 -258q98 0 173 50.5t146 138.5v743h183z" glyph-name="u" horiz-adv-x="1196" unicode="u"/><glyph d="M1061 1073l-434 -1073h-181l-417 1073h198l316 -880l321 880h197z" glyph-name="v" horiz-adv-x="1087" unicode="v"/><glyph d="M1569 1073l-377 -1073h-131l-270 793l-281 -793h-131l-340 1073h186l236 -823l274 823h127l266 -833l263 833h178z" glyph-name="w" horiz-adv-x="1607" unicode="w"/><glyph d="M987 1067l-360 -514l387 -547v-6h-215l-275 422l-278 -422h-213v6l393 551l-373 508v8h221l248 -389l252 389h213v-6z" glyph-name="x" horiz-adv-x="1044" unicode="x"/><glyph d="M1104 1073l-418 -1141q-66 -180 -163 -270t-242 -90q-92 0 -177 27l33 143q25 -8 60.5 -14.5t64.5 -6.5q68 0 128.5 50.5t94.5 140.5l21 55l-453 1106h195l348 -917l315 917h193z" glyph-name="y" horiz-adv-x="1132" unicode="y"/><glyph d="M881 930l-588 -770h608v-160h-819v135l577 776h-559v162h781v-143z" glyph-name="z" horiz-adv-x="972" unicode="z"/><glyph d="M702 1499q-94 -10 -148 -71.5t-54 -163.5v-312q0 -57 -28 -105t-67.5 -79t-74.5 -39v-6q35 -8 74.5 -40t67.5 -80t28 -103v-314q0 -100 54 -163.5t148 -73.5v-111q-172 0 -271 94.5t-99 251.5v262q0 102 -50.5 155.5t-136.5 62.5v122q82 14 134.5 67.5t52.5 150.5v262 q0 156 100 251t270 95v-113z" glyph-name="braceleft" horiz-adv-x="796" unicode="{"/><glyph d="M311 -166h-125v1868h125v-1868z" glyph-name="bar" horiz-adv-x="495" unicode="|"/><glyph d="M364.5 1516.5q100.5 -95.5 100.5 -250.5v-262q0 -96 52 -149.5t134 -68.5v-122q-86 -8 -136 -61.5t-50 -156.5v-262q0 -158 -99.5 -252t-271.5 -94v111q94 10 148.5 73.5t54.5 163.5v314q0 55 27.5 103t67.5 80t75 40v6q-35 8 -75 39t-67.5 79t-27.5 105v312 q0 102 -54.5 163.5t-148.5 71.5v113q170 0 270.5 -95.5z" glyph-name="braceright" horiz-adv-x="796" unicode="}"/><glyph d="M993.5 638.5q-75.5 -63.5 -174.5 -63.5q-47 0 -101 14.5t-130 39.5t-117 35t-78 10q-51 0 -77.5 -24.5t-41.5 -80.5h-147q20 129 89 193.5t165 64.5q45 0 94 -12t129 -39q70 -23 116 -35t85 -12q55 0 92 28.5t49 78.5h148q-25 -134 -100.5 -197.5z" glyph-name="asciitilde" horiz-adv-x="1220" unicode="~"/><glyph d="M216 871.5q-36 35.5 -36 97.5q0 61 36 96t93 35q59 0 94 -35t35 -96t-34.5 -97t-94.5 -36q-57 0 -93 35.5zM240 674h143l33 -1032h-215z" glyph-name="exclamdown" horiz-adv-x="618" unicode="¡"/><glyph d="M894 216q-85 -40 -192 -50l9 -195h-142l6 193q-135 14 -241.5 83.5t-167 193.5t-60.5 290q0 158 59.5 277.5t161 189.5t228.5 86l-6 215h141l-4 -213q190 -14 326 -127l-86 -131q-66 51 -129.5 75.5t-151.5 24.5q-156 0 -253 -104t-97 -293q0 -127 47 -219t127 -140 t180 -48q160 0 297 110l88 -123q-55 -55 -140 -95z" glyph-name="cent" horiz-adv-x="1103" unicode="¢"/><glyph d="M1032 162l35 -164q-102 -25 -246 -25q-80 0 -186 13q-90 12 -148 12q-160 0 -258 -25l-57 148q143 74 143 239v304h-131v147h131v266q0 188 108.5 285.5t281.5 97.5q121 0 217 -27.5t180 -89.5l-94 -149q-72 49 -138.5 70.5t-144.5 21.5q-109 0 -161 -56t-52 -181v-238 h432v-147h-432v-275q0 -92 -26.5 -145.5t-84.5 -91.5q74 18 140 18q59 0 149 -12q80 -14 150 -15q104 1 192 19z" glyph-name="sterling" horiz-adv-x="1204" unicode="£"/><glyph d="M1040 410l158 -156l-98 -102l-162 159q-119 -80 -295 -80q-170 0 -289 80l-159 -159l-103 100l158 156q-88 121 -88 288q0 174 90 291l-156 160l99 100l163 -164q121 78 285 78q166 0 291 -80l164 164l100 -98l-162 -162q88 -121 88 -289q0 -169 -84 -286zM846 480 q80 79 80 216q0 139 -79 217t-204 78t-204 -77.5t-79 -217.5q0 -137 80 -216t203 -79t203 79z" glyph-name="currency" horiz-adv-x="1290" unicode="¤"/><glyph d="M842 750h315v-134h-397l-2 -4v-133h399v-135h-399v-344h-191v344h-403v135h403v135l-2 2h-401v134h321l-419 684h229l373 -654l376 654h213z" glyph-name="yen" horiz-adv-x="1320" unicode="¥"/><glyph d="M186 1702h125v-766h-125v766zM186 608h125v-774h-125v774z" glyph-name="brokenbar" horiz-adv-x="495" unicode="¦"/><glyph d="M701.5 1442.5q80.5 -17.5 136.5 -41.5l-47 -129q-51 20 -118 31.5t-130 11.5q-104 0 -157.5 -38t-53.5 -101q0 -55 35.5 -88t87 -49.5t151.5 -41.5q139 -35 213 -92t74 -176q0 -170 -201 -248q199 -63 199 -227q0 -129 -103.5 -207t-283.5 -78q-197 0 -352 76l51 133 q55 -31 132 -47t154 -16q111 0 166.5 37.5t55.5 111.5q0 70 -55.5 99.5t-172.5 54.5q-80 18 -106 26q-102 35 -159.5 95.5t-57.5 169.5q0 88 50 153.5t140 91.5q-84 31 -134 93.5t-50 142.5q0 129 97 199.5t269 70.5q89 0 169.5 -17.5zM374.5 838q-55.5 -45 -55.5 -123 q0 -80 54.5 -123t150.5 -43t151.5 43t55.5 123q0 78 -56.5 123t-150.5 45t-149.5 -45z" glyph-name="section" horiz-adv-x="1034" unicode="§"/><glyph d="M110.5 1275q-28.5 28 -28.5 79q0 53 28.5 80.5t75.5 27.5t76 -27.5t29 -80.5t-29 -80t-76 -27t-75.5 28zM459.5 1275q-29.5 28 -29.5 79q0 53 28.5 80.5t78.5 27.5q45 0 73.5 -27.5t28.5 -80.5q0 -51 -28.5 -79t-73.5 -28q-48 0 -77.5 28z" glyph-name="dieresis" horiz-adv-x="720" unicode="¨"/><glyph d="M465 63.5q-170 92.5 -271.5 262.5t-101.5 393t101.5 392t271.5 260t371 91q199 0 368.5 -91t270 -260t100.5 -392t-100.5 -393t-270.5 -262.5t-368 -92.5q-201 0 -371 92.5zM1146 169q140 77 222 219t82 331q0 188 -82 329.5t-222 217t-310 75.5t-311.5 -76.5 t-224.5 -218t-83 -327.5q0 -188 82 -330.5t223.5 -219.5t313.5 -77q170 0 310 77zM570.5 440.5q-105.5 98.5 -105.5 286.5q0 127 51 213t134 128t181 42q162 0 263 -88l-54 -98q-55 37 -98 53t-106 16q-111 0 -178.5 -69.5t-67.5 -194.5q0 -123 72.5 -194.5t183.5 -71.5 q66 0 115 18.5t92 55.5l57 -103q-104 -92 -272 -92q-162 0 -267.5 98.5z" glyph-name="copyright" horiz-adv-x="1667" unicode="©"/><glyph d="M723 893l-8 -98q-37 -8 -72 -9q-55 0 -85 19.5t-40 60.5q-35 -39 -90 -61.5t-113 -22.5q-94 0 -155.5 54.5t-61.5 142.5q0 98 72 146.5t195 48.5q70 0 147 -15v47q0 74 -35 105.5t-104 31.5q-80 0 -174 -45l-43 91q35 27 100.5 47t136.5 20q121 0 184.5 -56.5 t63.5 -164.5v-293q0 -49 49 -49h33zM442 906.5q43 19.5 70 47.5v113q-86 14 -137 14q-141 0 -142 -102q0 -45 31 -68.5t86 -23.5q49 0 92 19.5z" glyph-name="ordfeminine" horiz-adv-x="815" unicode="ª"/><glyph d="M57 520l310 383l112 -92l-243 -289l241 -286l-104 -95zM430 520l313 383l109 -92l-242 -289l242 -286l-104 -95z" glyph-name="guillemotleft" horiz-adv-x="980" unicode="«"/><glyph d="M1118 311h-162v371h-854v156h1016v-527z" glyph-name="logicalnot" horiz-adv-x="1220" unicode="¬"/><glyph d="M766 524h-600v158h600v-158z" glyph-name="uni00AD" horiz-adv-x="1228" unicode="­"/><glyph d="M1204 1371q170 -91 270.5 -260t100.5 -392t-100.5 -393t-270.5 -262.5t-368 -92.5q-201 0 -371 92.5t-271.5 262.5t-101.5 393t101.5 392t271.5 260t371 91q198 0 368 -91zM524.5 1264.5q-141.5 -76.5 -224.5 -218t-83 -327.5q0 -188 82 -330.5t223.5 -219.5t313.5 -77 q170 0 310 77t222 219t82 331q0 188 -82 329.5t-222 217t-310 75.5t-311.5 -76.5zM1041.5 1038.5q60.5 -59.5 60.5 -151.5q0 -72 -37 -123t-96 -80l172 -322h-140l-145 287h-149v-287h-117v736h256q135 0 195.5 -59.5zM707 987v-231h131q63 0 99 33.5t36 87.5 q0 111 -135 110h-131z" glyph-name="registered" horiz-adv-x="1667" unicode="®"/><glyph d="M573 1270h-491v114h491v-114z" glyph-name="macron" horiz-adv-x="655" unicode="¯"/><glyph d="M594 1380.5q86 -71.5 86 -204.5t-86 -203t-205 -70t-204 69.5t-85 203.5q0 133 85 204.5t204 71.5t205 -71.5zM290 1279q-38 -36 -38 -103q0 -68 38 -104t99 -36q63 0 101 36t38 104t-37.5 103.5t-101.5 35.5q-61 0 -99 -36z" glyph-name="degree" horiz-adv-x="778" unicode="°"/><glyph d="M1118 903v-151h-430v-369h-153v369h-433v151h433v369h153v-369h430zM102 311h1016v-151h-1016v151z" glyph-name="plusminus" horiz-adv-x="1220" unicode="±"/><glyph d="M579 1660q79 -69 78 -181q0 -96 -82 -197q-82 -100 -286 -256h391v-133h-592v121q166 131 249 206t119 129t36 109q0 68 -42 101t-114 32q-104 0 -203 -69l-65 104q61 47 139 75t160 28q133 0 212 -69z" glyph-name="uni00B2" horiz-adv-x="774" unicode="²"/><glyph d="M668 1268q47 -51 47 -131q0 -115 -93 -188t-241 -72q-86 0 -164 25q-78 26 -131 69l57 114q117 -74 232 -73q84 0 131 35t47 98q0 119 -180 119h-92v116h75q76 2 120 31t44 82q0 47 -35 75t-106 27q-111 0 -217 -65l-60 100q55 43 132 71t163 28q131 0 208 -61 q77 -60 77 -146q0 -63 -38 -114q-38 -50 -112 -73q89 -16 136 -67z" glyph-name="uni00B3" horiz-adv-x="819" unicode="³"/><glyph d="M215 1208h-133l145 250h234z" glyph-name="acute" horiz-adv-x="542" unicode="´"/><glyph d="M1083 1073v-1073h-135l-39 156q-63 -88 -136 -134t-171 -47q-180 0 -254 86v-483h-182v1495h182v-684q0 -123 74 -185t184 -63q172 0 293 197v735h184z" glyph-name="uni00B5" horiz-adv-x="1228" unicode="µ"/><glyph d="M883 0h-142v1300h-120v-1300h-142v756q-172 18 -256 108t-84 238q0 154 91.5 243t289.5 89h363v-1434z" glyph-name="paragraph" horiz-adv-x="1067" unicode="¶"/><glyph d="M417 838q48 -43 48 -125q0 -84 -48 -128t-120 -44q-70 0 -118 44t-48 128q0 82 48 125t118 43q72 0 120 -43z" glyph-name="periodcentered" horiz-adv-x="593" unicode="·"/><glyph d="M229 -129q16 8 62 8q74 0 123 -39t49 -100q0 -80 -63.5 -125t-163.5 -45q-43 0 -87.5 12t-68.5 29l24 96q18 -16 53.5 -27.5t67.5 -11.5q47 0 76 17.5t29 50.5q0 29 -25.5 46t-60.5 17q-47 0 -74 -12l-51 59l100 168h107z" glyph-name="cedilla" horiz-adv-x="544" unicode="¸"/><glyph d="M492 1022h167v-129h-530v129h211v522l-166 -69l-45 112l258 123h105v-688z" glyph-name="uni00B9" horiz-adv-x="747" unicode="¹"/><glyph d="M648 1366q89 -90 89 -242q0 -160 -93 -253t-238 -93q-141 0 -229.5 91.5t-88.5 244.5q0 158 92 250t238 92q141 0 230 -90zM281.5 1278q-50.5 -59 -50.5 -160q0 -102 50.5 -161.5t132.5 -59.5q80 0 129 59.5t49 161.5q0 100 -49 159.5t-129 59.5q-82 0 -132.5 -59z" glyph-name="ordmasculine" horiz-adv-x="825" unicode="º"/><glyph d="M551 520l-318 -379l-104 95l242 286l-242 289l111 92zM924 520l-316 -379l-104 95l241 286l-241 289l110 92z" glyph-name="guillemotright" horiz-adv-x="980" unicode="»"/><glyph d="M1710 324h125v-123h-125v-201h-145v201h-387v121l405 495h127v-493zM1327 324h238v294zM1300 1542l-587 -1800h-144l590 1800h141zM492 745h167v-129h-530v129h211v523l-166 -70l-45 113l258 123h105v-689z" glyph-name="onequarter" horiz-adv-x="1904" unicode="¼"/><glyph d="M1711 767q79 -69 79 -181q0 -96 -82 -197q-82 -100 -287 -256h391v-133h-591v121q166 131 248 206q83 75 119 129t36 109q0 68 -42 101t-114 32q-104 0 -202 -69l-66 104q61 47 139 75t160 28q133 0 212 -69zM1300 1542l-587 -1800h-144l590 1800h141zM492 745h167v-129 h-530v129h211v523l-166 -70l-45 113l258 123h105v-689z" glyph-name="onehalf" horiz-adv-x="1906" unicode="½"/><glyph d="M1782 324h125v-123h-125v-201h-146v201h-387v121l406 495h127v-493zM1399 324h237v294zM1372 1542l-588 -1800h-143l590 1800h141zM668 991q47 -51 47 -131q0 -115 -93 -187q-93 -73 -241 -73q-86 0 -164 26t-131 68l57 115q117 -74 232 -74q84 0 131 35t47 98 q0 119 -180 119h-92v117h75q76 2 120 31t44 82q0 47 -35 74q-35 28 -106 28q-111 0 -217 -66l-60 101q55 43 132 70q77 28 163 28q131 0 208 -60t77 -147q0 -63 -38 -113t-112 -73q89 -17 136 -68z" glyph-name="threequarters" horiz-adv-x="1976" unicode="¾"/><glyph d="M479 871.5q-35 35.5 -35 97.5q0 61 35 96t94 35q57 0 93 -35t36 -96t-35.5 -97t-93.5 -36q-59 0 -94 35.5zM306.5 -337q-101.5 46 -155 127t-53.5 183q0 100 45 165t138 145q70 63 111.5 110t70.5 117t29 164h167q0 -121 -32.5 -207t-77.5 -138.5t-115 -111.5 q-74 -63 -107.5 -109.5t-33.5 -115.5q0 -100 73.5 -157.5t200.5 -57.5q174 0 320 114l74 -139q-80 -61 -189.5 -98t-228.5 -37q-135 0 -236.5 46z" glyph-name="questiondown" horiz-adv-x="1032" unicode="¿"/><glyph d="M778 1569h-133l-254 252h240zM1014 342h-635l-123 -342h-203l535 1434h219l541 -1434h-211zM958 502l-262 733l-262 -733h524z" glyph-name="Agrave" horiz-adv-x="1402" unicode="À"/><glyph d="M715 1569h-135l145 250h238zM1014 342h-635l-123 -342h-203l535 1434h219l541 -1434h-211zM958 502l-262 733l-262 -733h524z" glyph-name="Aacute" horiz-adv-x="1402" unicode="Á"/><glyph d="M811 1589l-113 113l-108 -113h-176l235 242h107l221 -242h-166zM1014 342h-635l-123 -342h-203l535 1434h219l541 -1434h-211zM958 502l-262 733l-262 -733h524z" glyph-name="Acircumflex" horiz-adv-x="1402" unicode="Â"/><glyph d="M1014 1776q-74 -190 -197 -191q-35 0 -62.5 14.5t-66.5 40.5q-37 25 -59.5 37.5t-48.5 12.5q-35 0 -60.5 -24t-46.5 -71l-94 41q29 96 83 144.5t116 48.5q39 0 69.5 -16.5t71.5 -45.5q35 -25 55.5 -36t42.5 -11q35 0 56.5 29t44.5 76zM1014 342h-635l-123 -342h-203 l535 1434h219l541 -1434h-211zM958 502l-262 733l-262 -733h524z" glyph-name="Atilde" horiz-adv-x="1402" unicode="Ã"/><glyph d="M432 1619q-29 28 -29 79q0 53 29 80.5t76 27.5t75.5 -27.5t28.5 -80.5q0 -51 -28.5 -79t-75.5 -28t-76 28zM809 1618q-29 27 -29 80t29 80.5t78 27.5q45 0 73.5 -27.5t28.5 -80.5q0 -51 -28.5 -79t-73.5 -28q-49 0 -78 27zM1014 342h-635l-123 -342h-203l535 1434h219 l541 -1434h-211zM958 502l-262 733l-262 -733h524z" glyph-name="Adieresis" horiz-adv-x="1402" unicode="Ä"/><glyph d="M540.5 1548.5q-59.5 57.5 -59.5 143.5q0 88 59.5 145t155.5 57q94 0 154.5 -58t60.5 -144t-60 -143.5t-155 -57.5q-96 0 -155.5 57.5zM766 1619q25 30 25 73q0 45 -25 73.5t-70 28.5q-49 0 -73.5 -28.5t-24.5 -73.5q0 -43 25.5 -73t72.5 -30q45 0 70 30zM1014 342h-635 l-123 -342h-203l535 1434h219l541 -1434h-211zM958 502l-262 733l-262 -733h524z" glyph-name="Aring" horiz-adv-x="1402" unicode="Å"/><glyph d="M1061 1264v-453h573v-170h-573v-471h651v-170h-842v289h-467l-141 -289h-209l727 1434h932v-170h-651zM870 451v786l-387 -786h387z" glyph-name="AE" horiz-adv-x="1818" unicode="Æ"/><glyph d="M911.5 -160q49.5 -39 49.5 -100q0 -80 -63.5 -125t-164.5 -45q-43 0 -87 12t-68 29l24 96q18 -16 53 -27.5t70 -11.5q45 0 73.5 17.5t28.5 50.5q0 29 -25.5 46t-60.5 17q-43 0 -71 -12l-54 59l78 131q-170 16 -302 103.5t-206.5 248t-74.5 388.5q0 244 89 411.5 t242.5 249.5t348.5 82q139 0 257.5 -33.5t200.5 -95.5l-94 -147q-156 102 -367 102q-133 0 -241.5 -62.5t-173 -191.5t-64.5 -321q0 -283 133 -423.5t346 -140.5q119 0 213.5 34t180.5 104l100 -140q-90 -80 -214 -125t-271 -47l-70 -102q16 8 61 8q74 0 123.5 -39z" glyph-name="Ccedilla" horiz-adv-x="1335" unicode="Ç"/><glyph d="M727 1569h-133l-254 252h240zM1100 1268h-723v-453h637v-168h-637v-475h723v-172h-914v1434h914v-166z" glyph-name="Egrave" horiz-adv-x="1206" unicode="È"/><glyph d="M664 1569h-136l146 250h237zM1100 1268h-723v-453h637v-168h-637v-475h723v-172h-914v1434h914v-166z" glyph-name="Eacute" horiz-adv-x="1206" unicode="É"/><glyph d="M762 1589l-113 113l-108 -113h-176l235 242h107l221 -242h-166zM1100 1268h-723v-453h637v-168h-637v-475h723v-172h-914v1434h914v-166z" glyph-name="Ecircumflex" horiz-adv-x="1206" unicode="Ê"/><glyph d="M383 1619q-29 28 -29 79q0 53 29 80.5t76 27.5t75.5 -27.5t28.5 -80.5q0 -51 -28.5 -79t-75.5 -28t-76 28zM759.5 1618q-28.5 27 -28.5 80t28.5 80.5t78.5 27.5q45 0 73.5 -27.5t28.5 -80.5q0 -51 -28.5 -79t-73.5 -28q-50 0 -78.5 27zM1100 1268h-723v-453h637v-168 h-637v-475h723v-172h-914v1434h914v-166z" glyph-name="Edieresis" horiz-adv-x="1206" unicode="Ë"/><glyph d="M360 1569h-133l-254 252h240zM377 0h-191v1434h191v-1434z" glyph-name="Igrave" horiz-adv-x="561" unicode="Ì"/><glyph d="M297 1569h-135l145 250h238zM377 0h-191v1434h191v-1434z" glyph-name="Iacute" horiz-adv-x="561" unicode="Í"/><glyph d="M395 1589l-112 113l-109 -113h-176l235 242h107l221 -242h-166zM377 0h-191v1434h191v-1434z" glyph-name="Icircumflex" horiz-adv-x="561" unicode="Î"/><glyph d="M16.5 1619q-28.5 28 -28.5 79q0 53 28.5 80.5t75.5 27.5t76 -27.5t29 -80.5q0 -51 -29 -79t-76 -28t-75.5 28zM393.5 1618q-28.5 27 -28.5 80t28.5 80.5t77.5 27.5q45 0 73.5 -27.5t28.5 -80.5q0 -51 -28.5 -79t-73.5 -28q-49 0 -77.5 27zM377 0h-191v1434h191v-1434z " glyph-name="Idieresis" horiz-adv-x="561" unicode="Ï"/><glyph d="M965.5 1359q158.5 -75 252 -233.5t93.5 -398.5q0 -238 -93.5 -401.5t-253 -244.5t-360.5 -81h-418v662h-141v145h141v627h418q203 0 361.5 -75zM1110 727q0 276 -130 405.5t-392 129.5h-209v-455h303v-145h-303v-486h209q522 0 522 551z" glyph-name="Eth" horiz-adv-x="1421" unicode="Ð"/><glyph d="M1075 1776q-74 -190 -196 -191q-35 0 -63 14.5t-66 40.5q-37 25 -59.5 37.5t-49.5 12.5q-35 0 -60.5 -24t-45.5 -71l-95 41q29 96 83.5 144.5t115.5 48.5q39 0 69.5 -16.5t71.5 -45.5q35 -25 55.5 -36t43.5 -11q35 0 56 29t44 76zM1350 1434v-1434h-164l-809 1096v-1096 h-191v1434h166l805 -1100v1100h193z" glyph-name="Ntilde" horiz-adv-x="1533" unicode="Ñ"/><glyph d="M881 1569h-133l-254 252h239zM1136.5 1380q155.5 -80 253 -246.5t97.5 -412.5t-97.5 -415t-254 -251t-334.5 -82q-180 0 -338 82t-255 251t-97 415t97 412.5t255 246.5t338 80t335.5 -80zM552 1223.5q-112 -62.5 -176.5 -189.5t-64.5 -311q0 -182 64.5 -312t174 -197 t245.5 -67q137 0 248.5 66t178 195t66.5 315q0 184 -65.5 310t-176 189.5t-245.5 63.5q-137 0 -249 -62.5z" glyph-name="Ograve" horiz-adv-x="1597" unicode="Ò"/><glyph d="M817 1569h-135l145 250h238zM1136.5 1380q155.5 -80 253 -246.5t97.5 -412.5t-97.5 -415t-254 -251t-334.5 -82q-180 0 -338 82t-255 251t-97 415t97 412.5t255 246.5t338 80t335.5 -80zM552 1223.5q-112 -62.5 -176.5 -189.5t-64.5 -311q0 -182 64.5 -312t174 -197 t245.5 -67q137 0 248.5 66t178 195t66.5 315q0 184 -65.5 310t-176 189.5t-245.5 63.5q-137 0 -249 -62.5z" glyph-name="Oacute" horiz-adv-x="1597" unicode="Ó"/><glyph d="M913 1589l-112 113l-109 -113h-176l236 242h106l221 -242h-166zM1136.5 1380q155.5 -80 253 -246.5t97.5 -412.5t-97.5 -415t-254 -251t-334.5 -82q-180 0 -338 82t-255 251t-97 415t97 412.5t255 246.5t338 80t335.5 -80zM552 1223.5q-112 -62.5 -176.5 -189.5 t-64.5 -311q0 -182 64.5 -312t174 -197t245.5 -67q137 0 248.5 66t178 195t66.5 315q0 184 -65.5 310t-176 189.5t-245.5 63.5q-137 0 -249 -62.5z" glyph-name="Ocircumflex" horiz-adv-x="1597" unicode="Ô"/><glyph d="M1118 1776q-74 -190 -196 -191q-35 0 -63 14.5t-66 40.5q-37 25 -59.5 37.5t-49.5 12.5q-35 0 -60.5 -24t-45.5 -71l-95 41q29 96 83.5 144.5t115.5 48.5q39 0 69.5 -16.5t71.5 -45.5q35 -25 55.5 -36t43.5 -11q35 0 56 29t44 76zM1136.5 1380q155.5 -80 253 -246.5 t97.5 -412.5t-97.5 -415t-254 -251t-334.5 -82q-180 0 -338 82t-255 251t-97 415t97 412.5t255 246.5t338 80t335.5 -80zM552 1223.5q-112 -62.5 -176.5 -189.5t-64.5 -311q0 -182 64.5 -312t174 -197t245.5 -67q137 0 248.5 66t178 195t66.5 315q0 184 -65.5 310 t-176 189.5t-245.5 63.5q-137 0 -249 -62.5z" glyph-name="Otilde" horiz-adv-x="1597" unicode="Õ"/><glyph d="M534.5 1619q-28.5 28 -28.5 79q0 53 28.5 80.5t75.5 27.5t76 -27.5t29 -80.5q0 -51 -29 -79t-76 -28t-75.5 28zM911.5 1618q-28.5 27 -28.5 80t28.5 80.5t77.5 27.5q45 0 74 -27.5t29 -80.5q0 -51 -29 -79t-74 -28q-49 0 -77.5 27zM1136.5 1380q155.5 -80 253 -246.5 t97.5 -412.5t-97.5 -415t-254 -251t-334.5 -82q-180 0 -338 82t-255 251t-97 415t97 412.5t255 246.5t338 80t335.5 -80zM552 1223.5q-112 -62.5 -176.5 -189.5t-64.5 -311q0 -182 64.5 -312t174 -197t245.5 -67q137 0 248.5 66t178 195t66.5 315q0 184 -65.5 310 t-176 189.5t-245.5 63.5q-137 0 -249 -62.5z" glyph-name="Odieresis" horiz-adv-x="1597" unicode="Ö"/><glyph d="M723 702l395 -397l-108 -112l-398 399l-399 -399l-113 112l398 400l-398 397l115 108l395 -395l398 399l112 -114z" glyph-name="multiply" horiz-adv-x="1220" unicode="×"/><glyph d="M1416.5 1081.5q70.5 -151.5 70.5 -360.5q0 -246 -97.5 -415t-254 -251t-334.5 -82q-162 0 -307 68l-136 -240l-118 70l137 240q-125 96 -195.5 248.5t-70.5 361.5q0 246 97 412.5t255 246.5t338 80q164 0 303 -63l135 235l119 -65l-135 -240q123 -94 193.5 -245.5z M353 462.5q42 -112.5 118 -186.5l545 963q-100 47 -215 47q-137 0 -249 -62.5t-176.5 -189.5t-64.5 -311q0 -148 42 -260.5zM1043.5 213q111.5 66 178 195t66.5 315q0 145 -42 256t-118 182l-546 -964q98 -49 213 -50q137 0 248.5 66z" glyph-name="Oslash" horiz-adv-x="1597" unicode="Ø"/><glyph d="M817 1569h-133l-254 252h240zM341 106.5q-155 133.5 -155 411.5v916h191v-924q0 -170 93 -263t265 -93t265.5 93t93.5 263v924h190v-916q0 -279 -154.5 -412t-394.5 -133q-239 0 -394 133.5z" glyph-name="Ugrave" horiz-adv-x="1470" unicode="Ù"/><glyph d="M754 1569h-136l146 250h237zM341 106.5q-155 133.5 -155 411.5v916h191v-924q0 -170 93 -263t265 -93t265.5 93t93.5 263v924h190v-916q0 -279 -154.5 -412t-394.5 -133q-239 0 -394 133.5z" glyph-name="Uacute" horiz-adv-x="1470" unicode="Ú"/><glyph d="M850 1589l-113 113l-108 -113h-176l235 242h107l221 -242h-166zM341 106.5q-155 133.5 -155 411.5v916h191v-924q0 -170 93 -263t265 -93t265.5 93t93.5 263v924h190v-916q0 -279 -154.5 -412t-394.5 -133q-239 0 -394 133.5z" glyph-name="Ucircumflex" horiz-adv-x="1470" unicode="Û"/><glyph d="M471 1619q-29 28 -29 79q0 53 29 80.5t76 27.5t75.5 -27.5t28.5 -80.5q0 -51 -28.5 -79t-75.5 -28t-76 28zM848 1618q-29 27 -29 80t29 80.5t78 27.5q45 0 73.5 -27.5t28.5 -80.5q0 -51 -28.5 -79t-73.5 -28q-49 0 -78 27zM341 106.5q-155 133.5 -155 411.5v916h191v-924 q0 -170 93 -263t265 -93t265.5 93t93.5 263v924h190v-916q0 -279 -154.5 -412t-394.5 -133q-239 0 -394 133.5z" glyph-name="Udieresis" horiz-adv-x="1470" unicode="Ü"/><glyph d="M659 1569h-135l146 250h237zM530 573l-501 861h225l377 -680l377 680h213l-498 -863v-571h-193v573z" glyph-name="Yacute" horiz-adv-x="1251" unicode="Ý"/><glyph d="M379 1190h250q236 0 358.5 -119t122.5 -311q0 -129 -54.5 -231.5t-163 -163t-261.5 -60.5h-252v-305h-193v1434h193v-244zM379 1024v-557h223q147 0 227 75.5t80 215.5q0 266 -307 266h-223z" glyph-name="Thorn" horiz-adv-x="1150" unicode="Þ"/><glyph d="M869.5 1479q105.5 -86 105.5 -240q0 -90 -31 -152.5t-88 -134.5q-37 -49 -53.5 -75.5t-16.5 -57.5q0 -39 28 -69.5t89 -75.5q66 -49 108 -91t72.5 -106.5t30.5 -154.5q0 -160 -100.5 -252.5t-274.5 -92.5q-63 0 -125.5 13.5t-107.5 36.5l37 141q104 -39 186 -39 q96 0 146.5 55.5t50.5 137.5q0 80 -41 131t-125 116q-80 61 -118 109.5t-38 120.5q0 55 21.5 96t66.5 98q47 61 71.5 109.5t24.5 114.5q0 92 -54 140t-154 48q-113 0 -170.5 -72.5t-57.5 -247.5v-1085h-186v1079q0 485 418 486q180 0 285.5 -86z" glyph-name="germandbls" horiz-adv-x="1179" unicode="ß"/><glyph d="M647 1208h-133l-254 250h240zM1087 131l-14 -123q-35 -23 -104 -22q-72 0 -114 35.5t-56 113.5q-141 -162 -359 -162q-150 0 -249 79t-99 227q0 162 123 241.5t309 79.5q66 0 138.5 -8t119.5 -19v142q0 121 -70.5 175t-185.5 54q-158 0 -295 -104l-79 118 q170 141 403 142q203 0 307.5 -96.5t104.5 -286.5v-502q0 -86 67 -86zM651 164q82 43 133 117v159q-43 10 -115.5 18.5t-131.5 8.5q-115 0 -191 -43t-76 -137q0 -84 61.5 -125t145.5 -41q92 0 174 43z" glyph-name="agrave" horiz-adv-x="1142" unicode="à"/><glyph d="M592 1208h-133l145 250h234zM1087 131l-14 -123q-35 -23 -104 -22q-72 0 -114 35.5t-56 113.5q-141 -162 -359 -162q-150 0 -249 79t-99 227q0 162 123 241.5t309 79.5q66 0 138.5 -8t119.5 -19v142q0 121 -70.5 175t-185.5 54q-158 0 -295 -104l-79 118q170 141 403 142 q203 0 307.5 -96.5t104.5 -286.5v-502q0 -86 67 -86zM651 164q82 43 133 117v159q-43 10 -115.5 18.5t-131.5 8.5q-115 0 -191 -43t-76 -137q0 -84 61.5 -125t145.5 -41q92 0 174 43z" glyph-name="aacute" horiz-adv-x="1142" unicode="á"/><glyph d="M680 1229l-113 112l-108 -112h-176l235 241h107l221 -241h-166zM1087 131l-14 -123q-35 -23 -104 -22q-72 0 -114 35.5t-56 113.5q-141 -162 -359 -162q-150 0 -249 79t-99 227q0 162 123 241.5t309 79.5q66 0 138.5 -8t119.5 -19v142q0 121 -70.5 175t-185.5 54 q-158 0 -295 -104l-79 118q170 141 403 142q203 0 307.5 -96.5t104.5 -286.5v-502q0 -86 67 -86zM651 164q82 43 133 117v159q-43 10 -115.5 18.5t-131.5 8.5q-115 0 -191 -43t-76 -137q0 -84 61.5 -125t145.5 -41q92 0 174 43z" glyph-name="acircumflex" horiz-adv-x="1142" unicode="â"/><glyph d="M874 1415q-74 -190 -196 -190q-35 0 -62.5 14t-66.5 41q-37 25 -59.5 37t-49.5 12q-35 0 -60.5 -23.5t-45.5 -70.5l-94 41q29 96 83 144t115 48q39 0 70 -16t72 -45q35 -25 55 -36t43 -11q35 0 56.5 28.5t43.5 75.5zM1087 131l-14 -123q-35 -23 -104 -22q-72 0 -114 35.5 t-56 113.5q-141 -162 -359 -162q-150 0 -249 79t-99 227q0 162 123 241.5t309 79.5q66 0 138.5 -8t119.5 -19v142q0 121 -70.5 175t-185.5 54q-158 0 -295 -104l-79 118q170 141 403 142q203 0 307.5 -96.5t104.5 -286.5v-502q0 -86 67 -86zM651 164q82 43 133 117v159 q-43 10 -115.5 18.5t-131.5 8.5q-115 0 -191 -43t-76 -137q0 -84 61.5 -125t145.5 -41q92 0 174 43z" glyph-name="atilde" horiz-adv-x="1142" unicode="ã"/><glyph d="M315.5 1275q-28.5 28 -28.5 79q0 53 28.5 80.5t75.5 27.5t76 -27.5t29 -80.5t-29 -80t-76 -27t-75.5 28zM664.5 1275q-29.5 28 -29.5 79q0 53 28.5 80.5t77.5 27.5q45 0 74 -27.5t29 -80.5q0 -51 -29 -79t-74 -28q-47 0 -76.5 28zM1087 131l-14 -123q-35 -23 -104 -22 q-72 0 -114 35.5t-56 113.5q-141 -162 -359 -162q-150 0 -249 79t-99 227q0 162 123 241.5t309 79.5q66 0 138.5 -8t119.5 -19v142q0 121 -70.5 175t-185.5 54q-158 0 -295 -104l-79 118q170 141 403 142q203 0 307.5 -96.5t104.5 -286.5v-502q0 -86 67 -86zM651 164 q82 43 133 117v159q-43 10 -115.5 18.5t-131.5 8.5q-115 0 -191 -43t-76 -137q0 -84 61.5 -125t145.5 -41q92 0 174 43z" glyph-name="adieresis" horiz-adv-x="1142" unicode="ä"/><glyph d="M409.5 1228.5q-59.5 57.5 -59.5 143.5q0 88 59.5 145.5t155.5 57.5q94 0 154.5 -58.5t60.5 -144.5t-60.5 -143.5t-154.5 -57.5q-96 0 -155.5 57.5zM634.5 1299.5q24.5 29.5 24.5 72.5q0 45 -24.5 74t-69.5 29q-49 0 -73.5 -29t-24.5 -74q0 -43 25.5 -72.5t72.5 -29.5 q45 0 69.5 29.5zM1087 131l-14 -123q-35 -23 -104 -22q-72 0 -114 35.5t-56 113.5q-141 -162 -359 -162q-150 0 -249 79t-99 227q0 162 123 241.5t309 79.5q66 0 138.5 -8t119.5 -19v142q0 121 -70.5 175t-185.5 54q-158 0 -295 -104l-79 118q170 141 403 142 q203 0 307.5 -96.5t104.5 -286.5v-502q0 -86 67 -86zM651 164q82 43 133 117v159q-43 10 -115.5 18.5t-131.5 8.5q-115 0 -191 -43t-76 -137q0 -84 61.5 -125t145.5 -41q92 0 174 43z" glyph-name="aring" horiz-adv-x="1142" unicode="å"/><glyph d="M1741 475h-756q12 -170 100.5 -257t235.5 -87q94 0 178 32t146 83l67 -113q-66 -72 -171 -115t-234 -43q-281 0 -414 220q-70 -102 -181.5 -161t-246.5 -59q-168 0 -270.5 85t-102.5 239q0 174 130 253t331 79q127 0 244 -23v90q0 123 -66.5 183.5t-185.5 60.5 q-164 0 -309 -102l-82 121q88 66 185 101.5t226 35.5q137 0 221 -47t129 -154q66 100 167.5 150.5t226.5 50.5q207 0 322.5 -134.5t115.5 -404.5q0 -43 -6 -84zM1569 612q-8 162 -78 248t-199 86q-135 0 -216 -87t-89 -247h582zM799 473q-145 23 -238 23q-139 0 -214 -41 t-75 -146q0 -96 63.5 -139t158.5 -43q125 0 213 64.5t92 170.5v111z" glyph-name="ae" horiz-adv-x="1837" unicode="æ"/><glyph d="M762 -160q49 -39 49 -100q0 -80 -63.5 -125t-163.5 -45q-43 0 -87 12t-69 29l25 96q18 -16 53 -27.5t67 -11.5q47 0 76 17.5t29 50.5q0 29 -25.5 46t-60.5 17q-45 0 -74 -12l-51 59l78 131q-201 25 -327 173.5t-126 392.5q0 174 70.5 300t190.5 191.5t263 65.5 q115 0 212.5 -34t168.5 -95l-86 -131q-66 51 -129 75.5t-153 24.5q-154 0 -251 -104.5t-97 -292.5q0 -127 46 -219.5t125.5 -140.5t180.5 -48q162 0 299 111l88 -123q-63 -61 -159.5 -103.5t-213.5 -46.5l-69 -102q16 8 61 8q74 0 123 -39z" glyph-name="ccedilla" horiz-adv-x="1079" unicode="ç"/><glyph d="M686 1208h-133l-254 250h240zM1059 479h-778q31 -354 352 -354q104 0 189 32.5t147 86.5l86 -121q-86 -72 -194.5 -112t-252.5 -40q-143 0 -260 62.5t-186.5 188.5t-69.5 308q0 176 63.5 305.5t179.5 198t265 68.5q152 0 258.5 -68.5t158.5 -182.5t52 -249 q0 -62 -10 -123zM378 865q-87 -87 -99 -251h618q-6 158 -80 248t-211 90q-141 0 -228 -87z" glyph-name="egrave" horiz-adv-x="1159" unicode="è"/><glyph d="M631 1208h-133l145 250h234zM1059 479h-778q31 -354 352 -354q104 0 189 32.5t147 86.5l86 -121q-86 -72 -194.5 -112t-252.5 -40q-143 0 -260 62.5t-186.5 188.5t-69.5 308q0 176 63.5 305.5t179.5 198t265 68.5q152 0 258.5 -68.5t158.5 -182.5t52 -249q0 -62 -10 -123 zM378 865q-87 -87 -99 -251h618q-6 158 -80 248t-211 90q-141 0 -228 -87z" glyph-name="eacute" horiz-adv-x="1159" unicode="é"/><glyph d="M719 1229l-113 112l-108 -112h-176l235 241h107l221 -241h-166zM1059 479h-778q31 -354 352 -354q104 0 189 32.5t147 86.5l86 -121q-86 -72 -194.5 -112t-252.5 -40q-143 0 -260 62.5t-186.5 188.5t-69.5 308q0 176 63.5 305.5t179.5 198t265 68.5q152 0 258.5 -68.5 t158.5 -182.5t52 -249q0 -62 -10 -123zM378 865q-87 -87 -99 -251h618q-6 158 -80 248t-211 90q-141 0 -228 -87z" glyph-name="ecircumflex" horiz-adv-x="1159" unicode="ê"/><glyph d="M354.5 1275q-28.5 28 -28.5 79q0 53 28.5 80.5t75.5 27.5t76 -27.5t29 -80.5t-29 -80t-76 -27t-75.5 28zM703.5 1275q-29.5 28 -29.5 79q0 53 28.5 80.5t77.5 27.5q45 0 74 -27.5t29 -80.5q0 -51 -29 -79t-74 -28q-47 0 -76.5 28zM1059 479h-778q31 -354 352 -354 q104 0 189 32.5t147 86.5l86 -121q-86 -72 -194.5 -112t-252.5 -40q-143 0 -260 62.5t-186.5 188.5t-69.5 308q0 176 63.5 305.5t179.5 198t265 68.5q152 0 258.5 -68.5t158.5 -182.5t52 -249q0 -62 -10 -123zM378 865q-87 -87 -99 -251h618q-6 158 -80 248t-211 90 q-141 0 -228 -87z" glyph-name="edieresis" horiz-adv-x="1159" unicode="ë"/><glyph d="M340 1208h-133l-254 250h240zM352 0h-184v1073h184v-1073z" glyph-name="igrave" horiz-adv-x="518" unicode="ì"/><glyph d="M285 1208h-133l145 250h233zM352 0h-184v1073h184v-1073z" glyph-name="iacute" horiz-adv-x="518" unicode="í"/><glyph d="M373 1229l-113 112l-108 -112h-177l236 241h106l222 -241h-166zM352 0h-184v1073h184v-1073z" glyph-name="icircumflex" horiz-adv-x="518" unicode="î"/><glyph d="M8.5 1275q-28.5 28 -28.5 79q0 53 28.5 80.5t75.5 27.5t75.5 -27.5t28.5 -80.5t-28.5 -80t-75.5 -27t-75.5 28zM357.5 1275q-29.5 28 -29.5 79q0 53 28.5 80.5t77.5 27.5q45 0 74 -27.5t29 -80.5q0 -51 -29 -79t-74 -28q-47 0 -76.5 28zM352 0h-184v1073h184v-1073z" glyph-name="idieresis" horiz-adv-x="518" unicode="ï"/><glyph d="M1124 594q0 -299 -137 -460t-377 -161q-141 0 -259 61.5t-188.5 188.5t-70.5 314q0 186 67.5 311t180.5 185.5t246 60.5q98 0 179 -37t136 -105q-70 184 -217 320l-248 -123l-49 90l211 104q-82 57 -156 97l84 108q119 -61 215 -135l197 98l49 -90l-162 -80 q299 -286 299 -747zM844 243.5q90 106.5 90 291.5q0 184 -93 290.5t-239 106.5q-150 0 -234.5 -105.5t-84.5 -291.5q0 -184 88 -291t237 -107q146 0 236 106.5z" glyph-name="eth" horiz-adv-x="1216" unicode="ð"/><glyph d="M915 1415q-74 -190 -196 -190q-35 0 -62.5 14t-66.5 41q-37 25 -59.5 37t-49.5 12q-35 0 -60.5 -23.5t-45.5 -70.5l-94 41q29 96 83 144t115 48q39 0 70 -16t72 -45q35 -25 55 -36t43 -11q35 0 56.5 28.5t43.5 75.5zM166 1073h127l29 -164h6q78 94 165 142.5t209 48.5 q170 0 264.5 -91t94.5 -266v-743h-184v690q0 131 -52.5 185.5t-150.5 54.5q-197 0 -328 -199v-731h-180v1073z" glyph-name="ntilde" horiz-adv-x="1208" unicode="ñ"/><glyph d="M698 1208h-133l-254 250h240zM879.5 1038.5q119.5 -61.5 192.5 -187.5t73 -314t-73 -314.5t-192.5 -188t-261.5 -61.5q-141 0 -260.5 61.5t-192.5 187.5t-73 315q0 188 73 314t192.5 187.5t260.5 61.5q142 0 261.5 -61.5zM373 830.5q-90 -105.5 -90 -293.5t90 -294 t245 -106q156 0 247 106.5t91 293.5q0 186 -91 292.5t-247 106.5q-155 0 -245 -105.5z" glyph-name="ograve" horiz-adv-x="1236" unicode="ò"/><glyph d="M645 1208h-133l145 250h234zM879.5 1038.5q119.5 -61.5 192.5 -187.5t73 -314t-73 -314.5t-192.5 -188t-261.5 -61.5q-141 0 -260.5 61.5t-192.5 187.5t-73 315q0 188 73 314t192.5 187.5t260.5 61.5q142 0 261.5 -61.5zM373 830.5q-90 -105.5 -90 -293.5t90 -294 t245 -106q156 0 247 106.5t91 293.5q0 186 -91 292.5t-247 106.5q-155 0 -245 -105.5z" glyph-name="oacute" horiz-adv-x="1236" unicode="ó"/><glyph d="M731 1229l-113 112l-108 -112h-176l235 241h107l221 -241h-166zM879.5 1038.5q119.5 -61.5 192.5 -187.5t73 -314t-73 -314.5t-192.5 -188t-261.5 -61.5q-141 0 -260.5 61.5t-192.5 187.5t-73 315q0 188 73 314t192.5 187.5t260.5 61.5q142 0 261.5 -61.5zM373 830.5 q-90 -105.5 -90 -293.5t90 -294t245 -106q156 0 247 106.5t91 293.5q0 186 -91 292.5t-247 106.5q-155 0 -245 -105.5z" glyph-name="ocircumflex" horiz-adv-x="1236" unicode="ô"/><glyph d="M928 1415q-74 -190 -197 -190q-35 0 -62.5 14t-66.5 41q-37 25 -59.5 37t-48.5 12q-35 0 -60.5 -23.5t-46.5 -70.5l-94 41q29 96 83 144t116 48q39 0 69.5 -16t71.5 -45q35 -25 55.5 -36t42.5 -11q35 0 56.5 28.5t43.5 75.5zM879.5 1038.5q119.5 -61.5 192.5 -187.5 t73 -314t-73 -314.5t-192.5 -188t-261.5 -61.5q-141 0 -260.5 61.5t-192.5 187.5t-73 315q0 188 73 314t192.5 187.5t260.5 61.5q142 0 261.5 -61.5zM373 830.5q-90 -105.5 -90 -293.5t90 -294t245 -106q156 0 247 106.5t91 293.5q0 186 -91 292.5t-247 106.5 q-155 0 -245 -105.5z" glyph-name="otilde" horiz-adv-x="1236" unicode="õ"/><glyph d="M366.5 1275q-28.5 28 -28.5 79q0 53 28.5 80.5t75.5 27.5t76 -27.5t29 -80.5t-29 -80t-76 -27t-75.5 28zM715.5 1275q-29.5 28 -29.5 79q0 53 28.5 80.5t78.5 27.5q45 0 73.5 -27.5t28.5 -80.5q0 -51 -28.5 -79t-73.5 -28q-48 0 -77.5 28zM879.5 1038.5 q119.5 -61.5 192.5 -187.5t73 -314t-73 -314.5t-192.5 -188t-261.5 -61.5q-141 0 -260.5 61.5t-192.5 187.5t-73 315q0 188 73 314t192.5 187.5t260.5 61.5q142 0 261.5 -61.5zM373 830.5q-90 -105.5 -90 -293.5t90 -294t245 -106q156 0 247 106.5t91 293.5q0 186 -91 292.5 t-247 106.5q-155 0 -245 -105.5z" glyph-name="odieresis" horiz-adv-x="1236" unicode="ö"/><glyph d="M704.5 1179.5q38.5 -34.5 38.5 -100.5t-39.5 -99.5t-93.5 -33.5q-55 0 -94 34t-39 99q0 66 39 100.5t94 34.5q56 0 94.5 -34.5zM1118 625h-1016v155h1016v-155zM704.5 424q38.5 -35 38.5 -100q0 -66 -38.5 -100t-94.5 -34q-55 0 -94 34t-39 100t39 100.5t94 34.5 q56 0 94.5 -35z" glyph-name="divide" horiz-adv-x="1220" unicode="÷"/><glyph d="M1087.5 821q57.5 -119 57.5 -284q0 -188 -73 -314.5t-192.5 -188t-261.5 -61.5q-111 0 -208 37l-103 -196l-106 57l106 192q-100 70 -157.5 189t-57.5 285q0 188 73 314t192.5 187.5t260.5 61.5q115 0 213 -39l101 199l104 -56l-106 -194q100 -70 157.5 -189zM373 830.5 q-90 -105.5 -90 -293.5q0 -211 110 -316l361 690q-61 25 -136 25q-155 0 -245 -105.5zM865 243.5q91 106.5 91 293.5q0 207 -110 313l-359 -690q61 -23 131 -23q156 0 247 106.5z" glyph-name="oslash" horiz-adv-x="1236" unicode="ø"/><glyph d="M688 1208h-133l-254 250h240zM1049 1073v-1073h-134l-38 160q-72 -90 -157 -137.5t-206 -47.5q-158 0 -253 94.5t-95 286.5v717h182v-674q0 -258 199 -258q98 0 173 50.5t146 138.5v743h183z" glyph-name="ugrave" horiz-adv-x="1196" unicode="ù"/><glyph d="M633 1208h-133l145 250h234zM1049 1073v-1073h-134l-38 160q-72 -90 -157 -137.5t-206 -47.5q-158 0 -253 94.5t-95 286.5v717h182v-674q0 -258 199 -258q98 0 173 50.5t146 138.5v743h183z" glyph-name="uacute" horiz-adv-x="1196" unicode="ú"/><glyph d="M721 1229l-113 112l-108 -112h-176l235 241h107l221 -241h-166zM1049 1073v-1073h-134l-38 160q-72 -90 -157 -137.5t-206 -47.5q-158 0 -253 94.5t-95 286.5v717h182v-674q0 -258 199 -258q98 0 173 50.5t146 138.5v743h183z" glyph-name="ucircumflex" horiz-adv-x="1196" unicode="û"/><glyph d="M356.5 1275q-28.5 28 -28.5 79q0 53 28.5 80.5t75.5 27.5t76 -27.5t29 -80.5t-29 -80t-76 -27t-75.5 28zM705.5 1275q-29.5 28 -29.5 79q0 53 28.5 80.5t77.5 27.5q45 0 74 -27.5t29 -80.5q0 -51 -29 -79t-74 -28q-47 0 -76.5 28zM1049 1073v-1073h-134l-38 160 q-72 -90 -157 -137.5t-206 -47.5q-158 0 -253 94.5t-95 286.5v717h182v-674q0 -258 199 -258q98 0 173 50.5t146 138.5v743h183z" glyph-name="udieresis" horiz-adv-x="1196" unicode="ü"/><glyph d="M606 1208h-133l145 250h234zM1104 1073l-418 -1141q-66 -180 -163 -270t-242 -90q-92 0 -177 27l33 143q25 -8 60.5 -14.5t64.5 -6.5q68 0 128.5 50.5t94.5 140.5l21 55l-453 1106h195l348 -917l315 917h193z" glyph-name="yacute" horiz-adv-x="1132" unicode="ý"/><glyph d="M342 932h6q63 82 142 125t186 43q123 0 222 -59.5t157.5 -181.5t58.5 -300q0 -174 -67.5 -307t-180 -206t-239.5 -73q-170 0 -277 68v-463h-184v1962h176v-608zM350 737v-532q53 -41 105.5 -58.5t132.5 -17.5q84 0 161.5 48t127 144.5t49.5 229.5q0 195 -82 290t-203 95 q-170 0 -291 -199z" glyph-name="thorn" horiz-adv-x="1206" unicode="þ"/><glyph d="M329.5 1275q-28.5 28 -28.5 79q0 53 28.5 80.5t76.5 27.5q47 0 75.5 -27.5t28.5 -80.5t-28.5 -80t-75.5 -27q-48 0 -76.5 28zM679 1275q-30 28 -30 79q0 53 29 80.5t78 27.5q45 0 73.5 -27.5t28.5 -80.5q0 -51 -28.5 -79t-73.5 -28q-47 0 -77 28zM1104 1073l-418 -1141 q-66 -180 -163 -270t-242 -90q-92 0 -177 27l33 143q25 -8 60.5 -14.5t64.5 -6.5q68 0 128.5 50.5t94.5 140.5l21 55l-453 1106h195l348 -917l315 917h193z" glyph-name="ydieresis" horiz-adv-x="1132" unicode="ÿ"/><glyph d="M934 1636h-475v111h475v-111zM1014 342h-635l-123 -342h-203l535 1434h219l541 -1434h-211zM958 502l-262 733l-262 -733h524z" glyph-name="Amacron" horiz-adv-x="1402" unicode="Ā"/><glyph d="M811 1270h-492v114h492v-114zM1087 131l-14 -123q-35 -23 -104 -22q-72 0 -114 35.5t-56 113.5q-141 -162 -359 -162q-150 0 -249 79t-99 227q0 162 123 241.5t309 79.5q66 0 138.5 -8t119.5 -19v142q0 121 -70.5 175t-185.5 54q-158 0 -295 -104l-79 118 q170 141 403 142q203 0 307.5 -96.5t104.5 -286.5v-502q0 -86 67 -86zM651 164q82 43 133 117v159q-43 10 -115.5 18.5t-131.5 8.5q-115 0 -191 -43t-76 -137q0 -84 61.5 -125t145.5 -41q92 0 174 43z" glyph-name="amacron" horiz-adv-x="1142" unicode="ā"/><glyph d="M892 1635.5q-83 -64.5 -196 -64.5t-196.5 64.5t-100.5 183.5h121q12 -61 59.5 -95t116.5 -34q68 0 113 33.5t57 95.5h127q-18 -119 -101 -183.5zM1014 342h-635l-123 -342h-203l535 1434h219l541 -1434h-211zM958 502l-262 733l-262 -733h524z" glyph-name="Abreve" horiz-adv-x="1402" unicode="Ă"/><glyph d="M763 1280q-83 -66 -196 -66t-196.5 66t-100.5 184h121q12 -61 59.5 -96t116.5 -35q68 0 113 34t57 97h127q-18 -118 -101 -184zM1087 131l-14 -123q-35 -23 -104 -22q-72 0 -114 35.5t-56 113.5q-141 -162 -359 -162q-150 0 -249 79t-99 227q0 162 123 241.5t309 79.5 q66 0 138.5 -8t119.5 -19v142q0 121 -70.5 175t-185.5 54q-158 0 -295 -104l-79 118q170 141 403 142q203 0 307.5 -96.5t104.5 -286.5v-502q0 -86 67 -86zM651 164q82 43 133 117v159q-43 10 -115.5 18.5t-131.5 8.5q-115 0 -191 -43t-76 -137q0 -84 61.5 -125t145.5 -41 q92 0 174 43z" glyph-name="abreve" horiz-adv-x="1142" unicode="ă"/><glyph d="M1174 -313q29 0 49 4l-9 -103q-33 -18 -102 -18q-82 0 -127 43t-45 113q0 72 51 150.5t137 146.5l-114 319h-635l-123 -342h-203l535 1434h219l541 -1434h-138q-113 -129 -112 -229q0 -84 76 -84zM958 502l-262 733l-262 -733h524z" glyph-name="Aogonek" horiz-adv-x="1402" unicode="Ą"/><glyph d="M1094 -301l-9 -105q-41 -16 -98 -16q-84 0 -130 43t-46 113q0 119 131 254q-61 6 -96 42t-47 105q-141 -162 -359 -162q-150 0 -249 79t-99 227q0 162 123 241.5t309 79.5q66 0 138.5 -8t119.5 -19v142q0 121 -70.5 175t-185.5 54q-158 0 -295 -104l-79 118 q170 141 403 142q203 0 307.5 -96.5t104.5 -286.5v-502q0 -86 67 -86l53 2l-14 -123q-102 -129 -102 -229q0 -84 73 -84q30 0 50 4zM651 164q82 43 133 117v159q-43 10 -115.5 18.5t-131.5 8.5q-115 0 -191 -43t-76 -137q0 -84 61.5 -125t145.5 -41q92 0 174 43z" glyph-name="aogonek" horiz-adv-x="1142" unicode="ą"/><glyph d="M791 1569h-136l146 250h237zM1048.5 1426.5q118.5 -33.5 200.5 -95.5l-94 -147q-156 102 -367 102q-133 0 -241.5 -62.5t-173 -191.5t-64.5 -321q0 -283 133 -423.5t346 -140.5q119 0 213.5 34t180.5 104l100 -140q-92 -82 -220 -127t-282 -45q-193 0 -343 82t-238 249 t-88 413q0 244 89 411.5t242.5 249.5t348.5 82q139 0 257.5 -33.5z" glyph-name="Cacute" horiz-adv-x="1335" unicode="Ć"/><glyph d="M621 1208h-134l146 250h233zM828.5 1066q97.5 -34 168.5 -95l-86 -131q-66 51 -129 75.5t-153 24.5q-154 0 -251 -104.5t-97 -292.5q0 -127 46 -219.5t125.5 -140.5t180.5 -48q162 0 299 111l88 -123q-66 -66 -168 -108t-229 -42q-152 0 -272 66.5t-189.5 196 t-69.5 307.5q0 174 70.5 300t190.5 191.5t263 65.5q115 0 212.5 -34z" glyph-name="cacute" horiz-adv-x="1079" unicode="ć"/><glyph d="M859 1801.5q36 -29.5 36 -87.5q0 -57 -36 -87t-87 -30t-86 30t-35 87t35 87t86 30t87 -29.5zM1048.5 1426.5q118.5 -33.5 200.5 -95.5l-94 -147q-156 102 -367 102q-133 0 -241.5 -62.5t-173 -191.5t-64.5 -321q0 -283 133 -423.5t346 -140.5q119 0 213.5 34t180.5 104 l100 -140q-92 -82 -220 -127t-282 -45q-193 0 -343 82t-238 249t-88 413q0 244 89 411.5t242.5 249.5t348.5 82q139 0 257.5 -33.5z" glyph-name="Cdotaccent" horiz-adv-x="1335" unicode="Ċ"/><glyph d="M681 1440.5q36 -29.5 36 -86.5t-36 -88t-87 -31t-86 30.5t-35 88.5q0 57 35 86.5t86 29.5t87 -29.5zM828.5 1066q97.5 -34 168.5 -95l-86 -131q-66 51 -129 75.5t-153 24.5q-154 0 -251 -104.5t-97 -292.5q0 -127 46 -219.5t125.5 -140.5t180.5 -48q162 0 299 111 l88 -123q-66 -66 -168 -108t-229 -42q-152 0 -272 66.5t-189.5 196t-69.5 307.5q0 174 70.5 300t190.5 191.5t263 65.5q115 0 212.5 -34z" glyph-name="cdotaccent" horiz-adv-x="1079" unicode="ċ"/><glyph d="M1049 1819l-215 -232h-121l-228 232h174l115 -119l113 119h162zM1048.5 1426.5q118.5 -33.5 200.5 -95.5l-94 -147q-156 102 -367 102q-133 0 -241.5 -62.5t-173 -191.5t-64.5 -321q0 -283 133 -423.5t346 -140.5q119 0 213.5 34t180.5 104l100 -140q-92 -82 -220 -127 t-282 -45q-193 0 -343 82t-238 249t-88 413q0 244 89 411.5t242.5 249.5t348.5 82q139 0 257.5 -33.5z" glyph-name="Ccaron" horiz-adv-x="1335" unicode="Č"/><glyph d="M868 1456l-213 -233h-123l-227 233h176l113 -121l115 121h159zM828.5 1066q97.5 -34 168.5 -95l-86 -131q-66 51 -129 75.5t-153 24.5q-154 0 -251 -104.5t-97 -292.5q0 -127 46 -219.5t125.5 -140.5t180.5 -48q162 0 299 111l88 -123q-66 -66 -168 -108t-229 -42 q-152 0 -272 66.5t-189.5 196t-69.5 307.5q0 174 70.5 300t190.5 191.5t263 65.5q115 0 212.5 -34z" glyph-name="ccaron" horiz-adv-x="1079" unicode="č"/><glyph d="M926 1819l-215 -232h-121l-228 232h175l114 -119l113 119h162zM965.5 1359q158.5 -75 252 -233.5t93.5 -398.5q0 -238 -93.5 -401.5t-253 -244.5t-360.5 -81h-418v1434h418q203 0 361.5 -75zM379 1262v-1086h209q522 0 522 551q0 276 -130 405.5t-392 129.5h-209z" glyph-name="Dcaron" horiz-adv-x="1421" unicode="Ď"/><glyph d="M1235 1225h-92l10 315h166zM337.5 31.5q-108.5 58.5 -177 184.5t-68.5 321q0 182 65.5 309t172 190.5t229.5 63.5q199 0 315 -113v553h185v-1540h-131l-29 125h-6q-57 -66 -143 -109t-181 -43q-123 0 -231.5 58.5zM751.5 180q71.5 41 122.5 111v516q-117 127 -280 127 q-84 0 -154.5 -42t-113.5 -132t-43 -223q0 -131 45 -220.5t115.5 -133.5t150.5 -44q86 0 157.5 41z" glyph-name="dcaron" horiz-adv-x="1222" unicode="ď"/><glyph d="M965.5 1359q158.5 -75 252 -233.5t93.5 -398.5q0 -238 -93.5 -401.5t-253 -244.5t-360.5 -81h-418v662h-141v145h141v627h418q203 0 361.5 -75zM1110 727q0 276 -130 405.5t-392 129.5h-209v-455h303v-145h-303v-486h209q522 0 522 551z" glyph-name="Dcroat" horiz-adv-x="1421" unicode="Đ"/><glyph d="M1163 1276h-104v-1276h-131l-29 125h-6q-57 -66 -143 -109t-181 -43q-123 0 -231.5 58.5t-177 184.5t-68.5 321q0 182 65.5 309t172 190.5t229.5 63.5q199 0 315 -113v289h-215v110h215v154h185v-154h104v-110zM874 807q-117 127 -280 127q-84 0 -154.5 -42t-113.5 -132 t-43 -223q0 -131 45 -220.5t115.5 -133.5t150.5 -44q86 0 157.5 41t122.5 111v516z" glyph-name="dcroat" horiz-adv-x="1222" unicode="đ"/><glyph d="M885 1636h-475v111h475v-111zM1100 1268h-723v-453h637v-168h-637v-475h723v-172h-914v1434h914v-166z" glyph-name="Emacron" horiz-adv-x="1206" unicode="Ē"/><glyph d="M850 1270h-492v114h492v-114zM1059 479h-778q31 -354 352 -354q104 0 189 32.5t147 86.5l86 -121q-86 -72 -194.5 -112t-252.5 -40q-143 0 -260 62.5t-186.5 188.5t-69.5 308q0 176 63.5 305.5t179.5 198t265 68.5q152 0 258.5 -68.5t158.5 -182.5t52 -249 q0 -62 -10 -123zM378 865q-87 -87 -99 -251h618q-6 158 -80 248t-211 90q-141 0 -228 -87z" glyph-name="emacron" horiz-adv-x="1159" unicode="ē"/><glyph d="M843 1635.5q-83 -64.5 -196 -64.5t-196.5 64.5t-100.5 183.5h121q12 -61 59.5 -95t116.5 -34q68 0 113 33.5t57 95.5h127q-18 -119 -101 -183.5zM1100 1268h-723v-453h637v-168h-637v-475h723v-172h-914v1434h914v-166z" glyph-name="Ebreve" horiz-adv-x="1206" unicode="Ĕ"/><glyph d="M802 1280q-83 -66 -196 -66t-196.5 66t-100.5 184h121q12 -61 59.5 -96t116.5 -35q68 0 113 34t57 97h127q-18 -118 -101 -184zM1059 479h-778q31 -354 352 -354q104 0 189 32.5t147 86.5l86 -121q-86 -72 -194.5 -112t-252.5 -40q-143 0 -260 62.5t-186.5 188.5 t-69.5 308q0 176 63.5 305.5t179.5 198t265 68.5q152 0 258.5 -68.5t158.5 -182.5t52 -249q0 -62 -10 -123zM378 865q-87 -87 -99 -251h618q-6 158 -80 248t-211 90q-141 0 -228 -87z" glyph-name="ebreve" horiz-adv-x="1159" unicode="ĕ"/><glyph d="M734 1801.5q36 -29.5 36 -87.5q0 -57 -36 -87t-87 -30t-86 30t-35 87t35 87t86 30t87 -29.5zM1100 1268h-723v-453h637v-168h-637v-475h723v-172h-914v1434h914v-166z" glyph-name="Edotaccent" horiz-adv-x="1206" unicode="Ė"/><glyph d="M693 1440.5q36 -29.5 36 -86.5t-36 -88t-87 -31t-86 30.5t-35 88.5q0 57 35 86.5t86 29.5t87 -29.5zM1059 479h-778q31 -354 352 -354q104 0 189 32.5t147 86.5l86 -121q-86 -72 -194.5 -112t-252.5 -40q-143 0 -260 62.5t-186.5 188.5t-69.5 308q0 176 63.5 305.5 t179.5 198t265 68.5q152 0 258.5 -68.5t158.5 -182.5t52 -249q0 -62 -10 -123zM378 865q-87 -87 -99 -251h618q-6 158 -80 248t-211 90q-141 0 -228 -87z" glyph-name="edotaccent" horiz-adv-x="1159" unicode="ė"/><glyph d="M1112 -309l-10 -103q-33 -18 -101 -18q-82 0 -127 43t-45 113q0 66 43 136t117 138h-803v1434h914v-166h-723v-453h637v-168h-637v-475h723v-172q-113 -125 -113 -229q0 -84 74 -84q26 0 51 4z" glyph-name="Eogonek" horiz-adv-x="1206" unicode="Ę"/><glyph d="M1059 479h-778q31 -354 352 -354q104 0 189 32.5t147 86.5l86 -121q-127 -106 -287 -137q-92 -117 -92 -215q0 -84 76 -84q29 0 49 4l-8 -105q-37 -16 -99 -16q-84 0 -130 43t-46 113q0 59 34 122.5t91 122.5h-35q-143 0 -260 62.5t-186.5 188.5t-69.5 308 q0 176 63.5 305.5t179.5 198t265 68.5q152 0 258.5 -68.5t158.5 -182.5t52 -249q0 -62 -10 -123zM378 865q-87 -87 -99 -251h618q-6 158 -80 248t-211 90q-141 0 -228 -87z" glyph-name="eogonek" horiz-adv-x="1159" unicode="ę"/><glyph d="M922 1819l-215 -232h-121l-228 232h174l115 -119l113 119h162zM1100 1268h-723v-453h637v-168h-637v-475h723v-172h-914v1434h914v-166z" glyph-name="Ecaron" horiz-adv-x="1206" unicode="Ě"/><glyph d="M879 1456l-213 -233h-123l-228 233h177l112 -121l115 121h160zM1059 479h-778q31 -354 352 -354q104 0 189 32.5t147 86.5l86 -121q-86 -72 -194.5 -112t-252.5 -40q-143 0 -260 62.5t-186.5 188.5t-69.5 308q0 176 63.5 305.5t179.5 198t265 68.5q152 0 258.5 -68.5 t158.5 -182.5t52 -249q0 -62 -10 -123zM378 865q-87 -87 -99 -251h618q-6 158 -80 248t-211 90q-141 0 -228 -87z" glyph-name="ecaron" horiz-adv-x="1159" unicode="ě"/><glyph d="M992 1635.5q-83 -64.5 -195 -64.5q-113 0 -197 64.5t-100 183.5h121q12 -61 59 -95t117 -34q68 0 112.5 33.5t57.5 95.5h127q-19 -119 -102 -183.5zM1292 1288l-102 -137q-172 135 -397 135q-221 0 -351.5 -144.5t-130.5 -418.5q0 -184 59.5 -313t167 -194.5t246.5 -65.5 q121 0 213.5 41.5t141.5 101.5v346h-424v160h610v-594q-88 -106 -230.5 -169t-318.5 -63q-182 0 -333.5 80t-241.5 246t-90 414q0 242 88 409.5t242.5 252.5t355.5 85q292 0 495 -172z" glyph-name="Gbreve" horiz-adv-x="1460" unicode="Ğ"/><glyph d="M806 1280q-83 -66 -196 -66t-196.5 66t-100.5 184h121q12 -61 59.5 -96t116.5 -35q68 0 113 34t57 97h127q-18 -118 -101 -184zM775 1068q79 -32 132 -85h8l46 90h116v-1038q0 -242 -132 -359.5t-359 -117.5q-125 0 -230.5 34.5t-179.5 92.5l76 139q133 -102 323 -103 q145 0 233.5 66t88.5 205v166q-135 -127 -319 -127q-137 0 -248 61.5t-174.5 180t-63.5 282.5q0 176 72 299t187.5 184.5t246.5 61.5q98 0 177 -32zM382 837.5q-97 -96.5 -97 -278.5q0 -172 88 -267t229 -95q84 0 159 35.5t132 107.5v477q-43 51 -108.5 84t-155.5 33 q-150 0 -247 -96.5z" glyph-name="gbreve" horiz-adv-x="1222" unicode="ğ"/><glyph d="M882 1801.5q36 -29.5 36 -87.5q0 -57 -36 -87t-87 -30t-86 30t-35 87t34.5 87t86.5 30q51 0 87 -29.5zM1292 1288l-102 -137q-172 135 -397 135q-221 0 -351.5 -144.5t-130.5 -418.5q0 -184 59.5 -313t167 -194.5t246.5 -65.5q121 0 213.5 41.5t141.5 101.5v346h-424v160 h610v-594q-88 -106 -230.5 -169t-318.5 -63q-182 0 -333.5 80t-241.5 246t-90 414q0 242 88 409.5t242.5 252.5t355.5 85q292 0 495 -172z" glyph-name="Gdotaccent" horiz-adv-x="1460" unicode="Ġ"/><glyph d="M695 1440.5q36 -29.5 36 -86.5t-36 -88t-87 -31t-86 30.5t-35 88.5q0 57 35 86.5t86 29.5t87 -29.5zM775 1068q79 -32 132 -85h8l46 90h116v-1038q0 -242 -132 -359.5t-359 -117.5q-125 0 -230.5 34.5t-179.5 92.5l76 139q133 -102 323 -103q145 0 233.5 66t88.5 205v166 q-135 -127 -319 -127q-137 0 -248 61.5t-174.5 180t-63.5 282.5q0 176 72 299t187.5 184.5t246.5 61.5q98 0 177 -32zM382 837.5q-97 -96.5 -97 -278.5q0 -172 88 -267t229 -95q84 0 159 35.5t132 107.5v477q-43 51 -108.5 84t-155.5 33q-150 0 -247 -96.5z" glyph-name="gdotaccent" horiz-adv-x="1222" unicode="ġ"/><glyph d="M803 -422h-94l12 313h164zM1292 1288l-102 -137q-172 135 -397 135q-221 0 -351.5 -144.5t-130.5 -418.5q0 -184 59.5 -313t167 -194.5t246.5 -65.5q121 0 213.5 41.5t141.5 101.5v346h-424v160h610v-594q-88 -106 -230.5 -169t-318.5 -63q-182 0 -333.5 80t-241.5 246 t-90 414q0 242 88 409.5t242.5 252.5t355.5 85q292 0 495 -172z" glyph-name="Gcommaaccent" horiz-adv-x="1460" unicode="Ģ"/><glyph d="M610 1495h92l-10 -313h-166zM775 1068q79 -32 132 -85h8l46 90h116v-1038q0 -242 -132 -359.5t-359 -117.5q-125 0 -230.5 34.5t-179.5 92.5l76 139q133 -102 323 -103q145 0 233.5 66t88.5 205v166q-135 -127 -319 -127q-137 0 -248 61.5t-174.5 180t-63.5 282.5 q0 176 72 299t187.5 184.5t246.5 61.5q98 0 177 -32zM382 837.5q-97 -96.5 -97 -278.5q0 -172 88 -267t229 -95q84 0 159 35.5t132 107.5v477q-43 51 -108.5 84t-155.5 33q-150 0 -247 -96.5z" glyph-name="gcommaaccent" horiz-adv-x="1222" unicode="ģ"/><glyph d="M1448 1075h-119v-1075h-188v641h-764v-641h-191v1075h-118v131h118v228h191v-228h764v228h188v-228h119v-131zM1141 1075h-764v-268h764v268z" glyph-name="Hbar" horiz-adv-x="1515" unicode="Ħ"/><glyph d="M958.5 1006.5q102.5 -93.5 102.5 -269.5v-737h-184v694q0 127 -66 182.5t-168 55.5q-166 0 -293 -197v-735h-184v1276h-96v110h96v154h182v-154h225v-110h-225v-350q78 92 161 133t189 41q158 0 260.5 -93.5z" glyph-name="hbar" horiz-adv-x="1208" unicode="ħ"/><glyph d="M598 1776q-74 -190 -197 -191q-35 0 -62.5 14.5t-66.5 40.5q-37 25 -59.5 37.5t-48.5 12.5q-35 0 -60.5 -24t-46.5 -71l-94 41q29 96 83 144.5t116 48.5q39 0 69.5 -16.5t71.5 -45.5q35 -25 55.5 -36t42.5 -11q35 0 56.5 29t44.5 76zM377 0h-191v1434h191v-1434z" glyph-name="Itilde" horiz-adv-x="561" unicode="Ĩ"/><glyph d="M567 1415q-74 -190 -196 -190q-35 0 -62.5 14t-66.5 41q-37 25 -59.5 37t-49.5 12q-35 0 -60.5 -23.5t-45.5 -70.5l-95 41q29 96 83.5 144t115.5 48q39 0 69.5 -16t71.5 -45q35 -25 55.5 -36t43.5 -11q35 0 56.5 28.5t43.5 75.5zM352 0h-184v1073h184v-1073z" glyph-name="itilde" horiz-adv-x="518" unicode="ĩ"/><glyph d="M518 1636h-475v111h475v-111zM377 0h-191v1434h191v-1434z" glyph-name="Imacron" horiz-adv-x="561" unicode="Ī"/><glyph d="M504 1270h-492v114h492v-114zM352 0h-184v1073h184v-1073z" glyph-name="imacron" horiz-adv-x="518" unicode="ī"/><glyph d="M389 -309l-10 -103q-35 -18 -100 -18q-82 0 -127.5 43t-45.5 113q0 66 43.5 136t116.5 138h-80v1434h191v-1434q-113 -129 -113 -229q0 -84 74 -84q26 0 51 4z" glyph-name="Iogonek" horiz-adv-x="561" unicode="Į"/><glyph d="M174 1265.5q-35 30.5 -35 88.5q0 57 35 86.5t84 29.5q51 0 87 -29.5t36 -86.5t-36 -88t-87 -31q-49 0 -84 30.5zM324 -313q29 0 49 4l-8 -105q-33 -16 -99 -16q-84 0 -130 43t-46 113q0 66 42 136t112 138h-76v1073h184v-1073q-102 -129 -102 -229q0 -84 74 -84z" glyph-name="iogonek" horiz-adv-x="518" unicode="į"/><glyph d="M367.5 1801.5q35.5 -29.5 35.5 -87.5q0 -57 -35.5 -87t-86.5 -30t-86 30t-35 87t34.5 87t86.5 30q51 0 86.5 -29.5zM377 0h-191v1434h191v-1434z" glyph-name="Idotaccent" horiz-adv-x="561" unicode="İ"/><glyph d="M352 0h-184v1073h184v-1073z" glyph-name="dotlessi" horiz-adv-x="518" unicode="ı"/><glyph d="M586 -8l16 170q82 -12 160 -12q319 0 319 321v963h193v-953q0 -287 -133 -397.5t-367 -110.5q-114 1 -188 19zM377 0h-191v1434h191v-1434z" glyph-name="IJ" horiz-adv-x="1460" unicode="Ĳ"/><glyph d="M403 -401l33 147q53 -14 111 -14q98 0 145 43t47 147v1151h185v-1196q0 -150 -97.5 -228.5t-248.5 -78.5q-105 0 -175 29zM918.5 1440.5q35.5 -29.5 35.5 -86.5t-35.5 -88t-87.5 -31q-51 0 -85.5 30.5t-34.5 88.5q0 57 34.5 86.5t85.5 29.5q52 0 87.5 -29.5zM352 0h-184 v1073h184v-1073zM345 1440.5q36 -29.5 36 -86.5t-36 -88t-87 -31t-86 30.5t-35 88.5q0 57 35 86.5t86 29.5t87 -29.5z" glyph-name="ij" horiz-adv-x="1089" unicode="ĳ"/><glyph d="M700 -422h-94l12 313h164zM1038 0l-546 635l-113 -121v-514h-193v1434h193v-691l627 691h237l-618 -658l665 -776h-252z" glyph-name="Kcommaaccent" horiz-adv-x="1308" unicode="Ķ"/><glyph d="M549 -422h-92l10 313h164zM856 0l-371 489l-135 -147v-342h-184v1540h184v-981l447 514h219l-410 -450l477 -623h-227z" glyph-name="kcommaaccent" horiz-adv-x="1097" unicode="ķ"/><glyph d="M293 1569h-135l145 250h238zM186 1434h191v-1264h688v-170h-879v1434z" glyph-name="Lacute" horiz-adv-x="1105" unicode="Ĺ"/><glyph d="M264 1675h-135l145 250h238zM350 0h-184v1540h184v-1540z" glyph-name="lacute" horiz-adv-x="514" unicode="ĺ"/><glyph d="M565 -422h-94l12 313h164zM186 1434h191v-1264h688v-170h-879v1434z" glyph-name="Lcommaaccent" horiz-adv-x="1105" unicode="Ļ"/><glyph d="M260 -422h-92l10 313h164zM350 0h-184v1540h184v-1540z" glyph-name="lcommaaccent" horiz-adv-x="514" unicode="ļ"/><glyph d="M602 1225h-92l10 315h166zM186 1434h191v-1264h688v-170h-879v1434z" glyph-name="Lcaron" horiz-adv-x="1105" unicode="Ľ"/><glyph d="M526 1225h-92l10 315h166zM350 0h-184v1540h184v-1540z" glyph-name="lcaron" horiz-adv-x="514" unicode="ľ"/><glyph d="M951 887q42 -37 42 -109q0 -74 -42 -111.5t-101 -37.5q-61 0 -103 38t-42 111q0 72 43 109t102 37t101 -37zM186 1434h191v-1264h688v-170h-879v1434z" glyph-name="Ldot" horiz-adv-x="1105" unicode="Ŀ"/><glyph d="M500 679q-37 34 -37 95t37 94t88 33q53 0 90 -32.5t37 -94.5q0 -63 -36 -96t-91 -33q-51 0 -88 34zM350 0h-184v1540h184v-1540z" glyph-name="ldot" horiz-adv-x="663" unicode="ŀ"/><glyph d="M1092 170v-170h-881v637l-184 -82v154l184 77v648h190v-557l279 120v-151l-279 -121v-555h691z" glyph-name="Lslash" horiz-adv-x="1132" unicode="Ł"/><glyph d="M547 891l-187 -94v-797h-184v702l-168 -84v175l168 84v663h184v-571l187 94v-172z" glyph-name="lslash" horiz-adv-x="538" unicode="ł"/><glyph d="M774 1569h-135l145 250h238zM1350 1434v-1434h-164l-809 1096v-1096h-191v1434h166l805 -1100v1100h193z" glyph-name="Nacute" horiz-adv-x="1533" unicode="Ń"/><glyph d="M633 1208h-133l145 250h234zM166 1073h127l29 -164h6q78 94 165 142.5t209 48.5q170 0 264.5 -91t94.5 -266v-743h-184v690q0 131 -52.5 185.5t-150.5 54.5q-197 0 -328 -199v-731h-180v1073z" glyph-name="nacute" horiz-adv-x="1208" unicode="ń"/><glyph d="M762 -422h-94l12 313h164zM1350 1434v-1434h-164l-809 1096v-1096h-191v1434h166l805 -1100v1100h193z" glyph-name="Ncommaaccent" horiz-adv-x="1533" unicode="Ņ"/><glyph d="M606 -422h-92l10 313h164zM166 1073h127l29 -164h6q78 94 165 142.5t209 48.5q170 0 264.5 -91t94.5 -266v-743h-184v690q0 131 -52.5 185.5t-150.5 54.5q-197 0 -328 -199v-731h-180v1073z" glyph-name="ncommaaccent" horiz-adv-x="1208" unicode="ņ"/><glyph d="M1032 1819l-215 -232h-121l-227 232h174l115 -119l112 119h162zM1350 1434v-1434h-164l-809 1096v-1096h-191v1434h166l805 -1100v1100h193z" glyph-name="Ncaron" horiz-adv-x="1533" unicode="Ň"/><glyph d="M879 1456l-213 -233h-123l-228 233h177l112 -121l115 121h160zM166 1073h127l29 -164h6q78 94 165 142.5t209 48.5q170 0 264.5 -91t94.5 -266v-743h-184v690q0 131 -52.5 185.5t-150.5 54.5q-197 0 -328 -199v-731h-180v1073z" glyph-name="ncaron" horiz-adv-x="1208" unicode="ň"/><glyph d="M1350 1434v-1506q0 -178 -99.5 -267t-314.5 -89q-117 0 -168 22l23 150q57 -12 129 -12q129 0 189 52t60 161v78l-792 1073v-1096h-191v1434h166l805 -1100v1100h193z" glyph-name="Eng" horiz-adv-x="1533" unicode="Ŋ"/><glyph d="M166 1073h127l29 -164h6q78 94 166 142.5t204 48.5q174 0 268.5 -91t94.5 -266v-866q0 -158 -95.5 -232.5t-252.5 -74.5q-94 0 -160 24l41 150q41 -12 94 -12q94 0 141.5 42t47.5 144v772q0 133 -52.5 186.5t-152.5 53.5q-195 0 -326 -199v-731h-180v1073z" glyph-name="eng" horiz-adv-x="1208" unicode="ŋ"/><glyph d="M1036 1636h-475v111h475v-111zM1136.5 1380q155.5 -80 253 -246.5t97.5 -412.5t-97.5 -415t-254 -251t-334.5 -82q-180 0 -338 82t-255 251t-97 415t97 412.5t255 246.5t338 80t335.5 -80zM552 1223.5q-112 -62.5 -176.5 -189.5t-64.5 -311q0 -182 64.5 -312t174 -197 t245.5 -67q137 0 248.5 66t178 195t66.5 315q0 184 -65.5 310t-176 189.5t-245.5 63.5q-137 0 -249 -62.5z" glyph-name="Omacron" horiz-adv-x="1597" unicode="Ō"/><glyph d="M864 1270h-491v114h491v-114zM879.5 1038.5q119.5 -61.5 192.5 -187.5t73 -314t-73 -314.5t-192.5 -188t-261.5 -61.5q-141 0 -260.5 61.5t-192.5 187.5t-73 315q0 188 73 314t192.5 187.5t260.5 61.5q142 0 261.5 -61.5zM373 830.5q-90 -105.5 -90 -293.5t90 -294 t245 -106q156 0 247 106.5t91 293.5q0 186 -91 292.5t-247 106.5q-155 0 -245 -105.5z" glyph-name="omacron" horiz-adv-x="1236" unicode="ō"/><glyph d="M637 1823h190l-118 -246h-111zM963 1823h194l-207 -246h-112zM1136.5 1380q155.5 -80 253 -246.5t97.5 -412.5t-97.5 -415t-254 -251t-334.5 -82q-180 0 -338 82t-255 251t-97 415t97 412.5t255 246.5t338 80t335.5 -80zM552 1223.5q-112 -62.5 -176.5 -189.5t-64.5 -311 q0 -182 64.5 -312t174 -197t245.5 -67q137 0 248.5 66t178 195t66.5 315q0 184 -65.5 310t-176 189.5t-245.5 63.5q-137 0 -249 -62.5z" glyph-name="Ohungarumlaut" horiz-adv-x="1597" unicode="Ő"/><glyph d="M457 1462h190l-119 -245h-110zM782 1462h195l-207 -245h-113zM879.5 1038.5q119.5 -61.5 192.5 -187.5t73 -314t-73 -314.5t-192.5 -188t-261.5 -61.5q-141 0 -260.5 61.5t-192.5 187.5t-73 315q0 188 73 314t192.5 187.5t260.5 61.5q142 0 261.5 -61.5zM373 830.5 q-90 -105.5 -90 -293.5t90 -294t245 -106q156 0 247 106.5t91 293.5q0 186 -91 292.5t-247 106.5q-155 0 -245 -105.5z" glyph-name="ohungarumlaut" horiz-adv-x="1236" unicode="ő"/><glyph d="M1661 1268h-606v-459h528v-158h-528v-485h606v-166h-821q-215 0 -380 82t-257 243.5t-92 393.5q0 231 93 392t258 242t382 81h817v-166zM823 1274q-240 0 -376 -150.5t-136 -404.5q0 -256 135.5 -405.5t376.5 -149.5h39v1110h-39z" glyph-name="OE" horiz-adv-x="1767" unicode="Œ"/><glyph d="M1905 479h-772q8 -137 87.5 -245.5t256.5 -108.5q182 0 327 123l82 -123q-74 -68 -181.5 -110t-236.5 -42q-150 0 -265.5 61.5t-180.5 192.5q-57 -127 -175 -190.5t-255 -63.5q-135 0 -249 64.5t-182.5 192.5t-68.5 307q0 178 68.5 306t183.5 192.5t252 64.5 q133 0 250 -63.5t176 -194.5q55 133 165.5 195.5t250.5 62.5q154 0 260 -71t159.5 -183.5t53.5 -239.5q0 -84 -6 -127zM1729 614q-4 156 -84 247t-213 91t-212 -88t-87 -250h596zM844 243.5q86 106.5 86 293.5q0 188 -86 293.5t-238 105.5q-150 0 -238.5 -106.5 t-88.5 -292.5t88 -293t239 -107q152 0 238 106.5z" glyph-name="oe" horiz-adv-x="2000" unicode="œ"/><glyph d="M662 1569h-136l146 250h237zM1042 0l-329 545h-33h-303v-545h-191v1434h492q270 0 392 -115t122 -305q0 -160 -75 -273.5t-218 -162.5l358 -578h-215zM698 711q139 0 216 79.5t77 204.5q0 137 -77.5 205t-256.5 68h-280v-557h321z" glyph-name="Racute" horiz-adv-x="1310" unicode="Ŕ"/><glyph d="M451 1208h-134l146 250h233zM166 1073h139l33 -158h6q76 184 262 185q76 0 117 -27l-31 -166q-53 18 -108 19q-164 0 -236 -230v-696h-182v1073z" glyph-name="racute" horiz-adv-x="759" unicode="ŕ"/><glyph d="M666 -422h-95l13 313h164zM1042 0l-329 545h-33h-303v-545h-191v1434h492q270 0 392 -115t122 -305q0 -160 -75 -273.5t-218 -162.5l358 -578h-215zM698 711q139 0 216 79.5t77 204.5q0 137 -77.5 205t-256.5 68h-280v-557h321z" glyph-name="Rcommaaccent" horiz-adv-x="1310" unicode="Ŗ"/><glyph d="M266 -422h-92l10 313h164zM166 1073h139l33 -158h6q76 184 262 185q76 0 117 -27l-31 -166q-53 18 -108 19q-164 0 -236 -230v-696h-182v1073z" glyph-name="rcommaaccent" horiz-adv-x="759" unicode="ŗ"/><glyph d="M920 1819l-215 -232h-121l-228 232h174l115 -119l113 119h162zM1042 0l-329 545h-33h-303v-545h-191v1434h492q270 0 392 -115t122 -305q0 -160 -75 -273.5t-218 -162.5l358 -578h-215zM698 711q139 0 216 79.5t77 204.5q0 137 -77.5 205t-256.5 68h-280v-557h321z" glyph-name="Rcaron" horiz-adv-x="1310" unicode="Ř"/><glyph d="M696 1456l-213 -233h-123l-227 233h176l113 -121l115 121h159zM166 1073h139l33 -158h6q76 184 262 185q76 0 117 -27l-31 -166q-53 18 -108 19q-164 0 -236 -230v-696h-182v1073z" glyph-name="rcaron" horiz-adv-x="759" unicode="ř"/><glyph d="M598 1569h-135l145 250h238zM866.5 1423q106.5 -37 196.5 -96l-84 -145q-80 55 -173 86.5t-185 31.5q-137 0 -217 -58t-80 -163q0 -66 44 -113.5t107.5 -78.5t179.5 -78q150 -61 234 -104t145.5 -120t61.5 -192q0 -125 -62.5 -219t-178.5 -146.5t-273 -52.5 q-127 0 -261.5 36t-236.5 100l68 155q94 -53 207.5 -84.5t218.5 -31.5q162 0 239.5 63t77.5 166q0 68 -42 116t-105.5 78.5t-176.5 73.5q-143 53 -232 99.5t-151.5 127t-62.5 203.5q0 111 60.5 198t172 136t260.5 49q142 0 248.5 -37z" glyph-name="Sacute" horiz-adv-x="1177" unicode="Ś"/><glyph d="M522 1208h-133l146 250h233zM702.5 1073.5q92.5 -26.5 153.5 -69.5l-63 -138q-59 37 -134 59.5t-149 22.5q-92 0 -149.5 -41t-57.5 -106q0 -45 31 -77t76 -51.5t129 -45.5q109 -33 179 -66t119.5 -95.5t49.5 -160.5q0 -152 -114 -242t-304 -90q-111 0 -210 31t-167 86 l60 148q61 -51 141 -78t166 -27q113 0 177 46t64 120q0 49 -31.5 82t-77.5 53.5t-132 48.5q-106 35 -173 67t-114 90t-47 153q0 141 107.5 224t277.5 83q100 0 192.5 -26.5z" glyph-name="sacute" horiz-adv-x="974" unicode="ś"/><glyph d="M973 103.5q-123 -111.5 -336 -126.5l-72 -106q20 8 62 8q74 0 123 -39t49 -100q0 -80 -63.5 -125t-162.5 -45q-43 0 -87 12t-68 29l22 96q18 -16 53 -27.5t70 -11.5q45 0 75 17.5t30 50.5q0 29 -26 46t-62 17q-43 0 -72 -12l-53 59l80 131q-119 6 -238 41t-213 93l68 155 q94 -53 207.5 -84.5t218.5 -31.5q162 0 239.5 63t77.5 166q0 68 -42 116t-105.5 78.5t-176.5 73.5q-143 53 -232 99.5t-151.5 127t-62.5 203.5q0 111 60.5 198t172 136t260.5 49q141 0 248 -37t197 -96l-84 -145q-80 55 -173 86.5t-185 31.5q-137 0 -217 -58t-80 -163 q0 -66 44 -113.5t107.5 -78.5t179.5 -78q150 -61 234 -104t145.5 -120t61.5 -192q0 -178 -123 -289.5z" glyph-name="Scedilla" horiz-adv-x="1177" unicode="Ş"/><glyph d="M801 89q-86 -87 -236 -109l-73 -109q16 8 61 8q74 0 123 -39t49 -100q0 -80 -64.5 -125t-162.5 -45q-43 0 -87 12t-69 29l25 96q18 -16 53 -27.5t67 -11.5q45 0 75 17.5t30 50.5q0 29 -25.5 46t-60.5 17q-45 0 -74 -12l-53 59l78 127q-106 2 -201.5 33t-163.5 84l60 148 q61 -51 141 -78t166 -27q113 0 177 46t64 120q0 49 -31.5 82t-77.5 53.5t-132 48.5q-106 35 -173 67t-114 90t-47 153q0 141 107.5 224t277.5 83q100 0 192.5 -26.5t153.5 -69.5l-63 -138q-59 37 -134 59.5t-149 22.5q-92 0 -149.5 -41t-57.5 -106q0 -45 31 -77t76 -51.5 t129 -45.5q109 -33 179 -66t119.5 -95.5t49.5 -160.5q0 -129 -86 -216z" glyph-name="scedilla" horiz-adv-x="974" unicode="ş"/><glyph d="M854 1819l-215 -232h-121l-227 232h174l115 -119l112 119h162zM866.5 1423q106.5 -37 196.5 -96l-84 -145q-80 55 -173 86.5t-185 31.5q-137 0 -217 -58t-80 -163q0 -66 44 -113.5t107.5 -78.5t179.5 -78q150 -61 234 -104t145.5 -120t61.5 -192q0 -125 -62.5 -219 t-178.5 -146.5t-273 -52.5q-127 0 -261.5 36t-236.5 100l68 155q94 -53 207.5 -84.5t218.5 -31.5q162 0 239.5 63t77.5 166q0 68 -42 116t-105.5 78.5t-176.5 73.5q-143 53 -232 99.5t-151.5 127t-62.5 203.5q0 111 60.5 198t172 136t260.5 49q142 0 248.5 -37z" glyph-name="Scaron" horiz-adv-x="1177" unicode="Š"/><glyph d="M770 1456l-213 -233h-123l-227 233h176l113 -121l114 121h160zM702.5 1073.5q92.5 -26.5 153.5 -69.5l-63 -138q-59 37 -134 59.5t-149 22.5q-92 0 -149.5 -41t-57.5 -106q0 -45 31 -77t76 -51.5t129 -45.5q109 -33 179 -66t119.5 -95.5t49.5 -160.5q0 -152 -114 -242 t-304 -90q-111 0 -210 31t-167 86l60 148q61 -51 141 -78t166 -27q113 0 177 46t64 120q0 49 -31.5 82t-77.5 53.5t-132 48.5q-106 35 -173 67t-114 90t-47 153q0 141 107.5 224t277.5 83q100 0 192.5 -26.5z" glyph-name="scaron" horiz-adv-x="974" unicode="š"/><glyph d="M659 0l-86 -129q16 8 62 8q74 0 123 -39t49 -100q0 -80 -63.5 -125t-163.5 -45q-43 0 -86 12t-68 29l23 96q18 -16 53 -27.5t69 -11.5q45 0 74 17.5t29 50.5q0 29 -25.5 46t-60.5 17q-43 0 -72 -12l-53 59l94 154h-45v1268h-469v166h1131v-166h-472v-1268h-43z" glyph-name="Tcommaaccent" horiz-adv-x="1214" unicode="Ţ"/><glyph d="M588 -160q49 -39 49 -100q0 -80 -63.5 -125t-163.5 -45q-43 0 -87 12t-67 29l23 96q18 -16 53 -27.5t69 -11.5q45 0 75 17.5t30 50.5q0 29 -25.5 46t-62.5 17q-45 0 -72 -12l-53 59l84 140q-145 41 -146 221v708h-178v158h178v158l91 119h96v-277h262v-158h-262v-675 q0 -53 24.5 -78t63.5 -25q61 0 141 35l49 -139q-104 -59 -223 -60l-70 -102q16 8 62 8q74 0 123 -39z" glyph-name="tcommaaccent" horiz-adv-x="759" unicode="ţ"/><glyph d="M889 1819l-215 -232h-121l-227 232h174l114 -119l113 119h162zM512 1268h-469v166h1131v-166h-472v-1268h-190v1268z" glyph-name="Tcaron" horiz-adv-x="1214" unicode="Ť"/><glyph d="M631 1225h-92l10 315h166zM231 207v708h-178v158h178v158l91 119h96v-277h262v-158h-262v-675q0 -53 24.5 -78t63.5 -25q61 0 141 35l49 -139q-104 -59 -223 -60q-242 1 -242 234z" glyph-name="tcaron" horiz-adv-x="759" unicode="ť"/><glyph d="M702 1268v-459h224v-145h-224v-664h-190v664h-223v145h223v459h-469v166h1131v-166h-472z" glyph-name="Tbar" horiz-adv-x="1214" unicode="Ŧ"/><glyph d="M696 33q-104 -59 -223 -60q-242 0 -242 234v317h-129v111h129v280h-178v158h178v158l91 119h96v-277h262v-158h-262v-280h188v-111h-188v-284q0 -53 24.5 -78t63.5 -25q61 0 141 35z" glyph-name="tbar" horiz-adv-x="759" unicode="ŧ"/><glyph d="M1053 1776q-74 -190 -197 -191q-35 0 -62.5 14.5t-66.5 40.5q-37 25 -59.5 37.5t-49.5 12.5q-35 0 -60.5 -24t-45.5 -71l-94 41q29 96 83 144.5t115 48.5q39 0 70 -16.5t72 -45.5q35 -25 55.5 -36t42.5 -11q35 0 56.5 29t43.5 76zM341 106.5q-155 133.5 -155 411.5v916 h191v-924q0 -170 93 -263t265 -93t265.5 93t93.5 263v924h190v-916q0 -279 -154.5 -412t-394.5 -133q-239 0 -394 133.5z" glyph-name="Utilde" horiz-adv-x="1470" unicode="Ũ"/><glyph d="M918 1415q-74 -190 -197 -190q-35 0 -62.5 14t-66.5 41q-37 25 -59.5 37t-49.5 12q-35 0 -60.5 -23.5t-45.5 -70.5l-94 41q29 96 83 144t115 48q39 0 70 -16t72 -45q35 -25 55 -36t43 -11q35 0 56.5 28.5t43.5 75.5zM1049 1073v-1073h-134l-38 160q-72 -90 -157 -137.5 t-206 -47.5q-158 0 -253 94.5t-95 286.5v717h182v-674q0 -258 199 -258q98 0 173 50.5t146 138.5v743h183z" glyph-name="utilde" horiz-adv-x="1196" unicode="ũ"/><glyph d="M973 1636h-475v111h475v-111zM341 106.5q-155 133.5 -155 411.5v916h191v-924q0 -170 93 -263t265 -93t265.5 93t93.5 263v924h190v-916q0 -279 -154.5 -412t-394.5 -133q-239 0 -394 133.5z" glyph-name="Umacron" horiz-adv-x="1470" unicode="Ū"/><glyph d="M852 1270h-492v114h492v-114zM1049 1073v-1073h-134l-38 160q-72 -90 -157 -137.5t-206 -47.5q-158 0 -253 94.5t-95 286.5v717h182v-674q0 -258 199 -258q98 0 173 50.5t146 138.5v743h183z" glyph-name="umacron" horiz-adv-x="1196" unicode="ū"/><glyph d="M579.5 1548.5q-59.5 57.5 -59.5 143.5q0 88 59.5 145t155.5 57q94 0 154.5 -58t60.5 -144t-60.5 -143.5t-154.5 -57.5q-96 0 -155.5 57.5zM804.5 1619q24.5 30 24.5 73q0 45 -24.5 73.5t-69.5 28.5q-49 0 -73.5 -28.5t-24.5 -73.5q0 -43 25.5 -73t72.5 -30q45 0 69.5 30z M341 106.5q-155 133.5 -155 411.5v916h191v-924q0 -170 93 -263t265 -93t265.5 93t93.5 263v924h190v-916q0 -279 -154.5 -412t-394.5 -133q-239 0 -394 133.5z" glyph-name="Uring" horiz-adv-x="1470" unicode="Ů"/><glyph d="M450.5 1228.5q-59.5 57.5 -59.5 143.5q0 88 59.5 145.5t155.5 57.5q94 0 154.5 -58.5t60.5 -144.5t-60.5 -143.5t-154.5 -57.5q-96 0 -155.5 57.5zM675.5 1299.5q24.5 29.5 24.5 72.5q0 45 -24.5 74t-69.5 29q-49 0 -73.5 -29t-24.5 -74q0 -43 25.5 -72.5t72.5 -29.5 q45 0 69.5 29.5zM1049 1073v-1073h-134l-38 160q-72 -90 -157 -137.5t-206 -47.5q-158 0 -253 94.5t-95 286.5v717h182v-674q0 -258 199 -258q98 0 173 50.5t146 138.5v743h183z" glyph-name="uring" horiz-adv-x="1196" unicode="ů"/><glyph d="M573 1823h191l-119 -246h-110zM899 1823h195l-207 -246h-113zM341 106.5q-155 133.5 -155 411.5v916h191v-924q0 -170 93 -263t265 -93t265.5 93t93.5 263v924h190v-916q0 -279 -154.5 -412t-394.5 -133q-239 0 -394 133.5z" glyph-name="Uhungarumlaut" horiz-adv-x="1470" unicode="Ű"/><glyph d="M444 1462h191l-119 -245h-110zM770 1462h195l-207 -245h-113zM1049 1073v-1073h-134l-38 160q-72 -90 -157 -137.5t-206 -47.5q-158 0 -253 94.5t-95 286.5v717h182v-674q0 -258 199 -258q98 0 173 50.5t146 138.5v743h183z" glyph-name="uhungarumlaut" horiz-adv-x="1196" unicode="ű"/><glyph d="M1284 1434v-916q0 -233 -111.5 -364t-295.5 -168q-100 -119 -101 -215q0 -84 76 -84q29 0 49 4l-8 -103q-33 -18 -102 -18q-82 0 -127.5 43t-45.5 113q0 59 36 122.5t98 124.5h-17q-240 0 -394.5 133.5t-154.5 411.5v916h191v-924q0 -170 93 -263t265 -93t265.5 93 t93.5 263v924h190z" glyph-name="Uogonek" horiz-adv-x="1470" unicode="Ų"/><glyph d="M1016 0q-102 -129 -103 -229q0 -84 74 -84q29 0 49 4l-8 -105q-33 -16 -98 -16q-84 0 -130 43t-46 113q0 68 43 141.5t116 138.5l-36 154q-72 -90 -157 -137.5t-206 -47.5q-158 0 -253 94.5t-95 286.5v717h182v-674q0 -258 199 -258q98 0 173 50.5t146 138.5v743h183 v-1073h-33z" glyph-name="uogonek" horiz-adv-x="1196" unicode="ų"/><glyph d="M1141 1589l-113 113l-108 -113h-177l236 242h106l222 -242h-166zM2007 1434l-440 -1434h-195l-354 1147l-352 -1147h-195l-438 1434h205l337 -1184l361 1184h178l354 -1178l342 1178h197z" glyph-name="Wcircumflex" horiz-adv-x="2039" unicode="Ŵ"/><glyph d="M905 1229l-112 112l-109 -112h-176l235 241h107l221 -241h-166zM1569 1073l-377 -1073h-131l-270 793l-281 -793h-131l-340 1073h186l236 -823l274 823h127l266 -833l263 833h178z" glyph-name="wcircumflex" horiz-adv-x="1607" unicode="ŵ"/><glyph d="M756 1589l-113 113l-108 -113h-177l236 242h106l222 -242h-166zM530 573l-501 861h225l377 -680l377 680h213l-498 -863v-571h-193v573z" glyph-name="Ycircumflex" horiz-adv-x="1251" unicode="Ŷ"/><glyph d="M694 1229l-112 112l-109 -112h-176l235 241h107l221 -241h-166zM1104 1073l-418 -1141q-66 -180 -163 -270t-242 -90q-92 0 -177 27l33 143q25 -8 60.5 -14.5t64.5 -6.5q68 0 128.5 50.5t94.5 140.5l21 55l-453 1106h195l348 -917l315 917h193z" glyph-name="ycircumflex" horiz-adv-x="1132" unicode="ŷ"/><glyph d="M377 1619q-29 28 -29 79q0 53 29 80.5t76 27.5t75.5 -27.5t28.5 -80.5q0 -51 -28.5 -79t-75.5 -28t-76 28zM753.5 1618q-28.5 27 -28.5 80t28.5 80.5t77.5 27.5q45 0 74 -27.5t29 -80.5q0 -51 -28.5 -79t-74.5 -28q-49 0 -77.5 27zM530 573l-501 861h225l377 -680 l377 680h213l-498 -863v-571h-193v573z" glyph-name="Ydieresis" horiz-adv-x="1251" unicode="Ÿ"/><glyph d="M651 1569h-135l146 250h237zM1180 166v-166h-1088v150l826 1118h-781v166h1006v-140l-826 -1128h863z" glyph-name="Zacute" horiz-adv-x="1273" unicode="Ź"/><glyph d="M532 1208h-133l146 250h233zM881 930l-588 -770h608v-160h-819v135l577 776h-559v162h781v-143z" glyph-name="zacute" horiz-adv-x="972" unicode="ź"/><glyph d="M720 1801.5q36 -29.5 36 -87.5q0 -57 -36 -87t-87 -30t-86 30t-35 87t35 87t86 30t87 -29.5zM1180 166v-166h-1088v150l826 1118h-781v166h1006v-140l-826 -1128h863z" glyph-name="Zdotaccent" horiz-adv-x="1273" unicode="Ż"/><glyph d="M595 1440.5q36 -29.5 36 -86.5t-36 -88t-87 -31t-86 30.5t-35 88.5q0 57 35 86.5t86 29.5t87 -29.5zM881 930l-588 -770h608v-160h-819v135l577 776h-559v162h781v-143z" glyph-name="zdotaccent" horiz-adv-x="972" unicode="ż"/><glyph d="M909 1819l-215 -232h-121l-227 232h174l115 -119l113 119h161zM1180 166v-166h-1088v150l826 1118h-781v166h1006v-140l-826 -1128h863z" glyph-name="Zcaron" horiz-adv-x="1273" unicode="Ž"/><glyph d="M780 1456l-213 -233h-123l-227 233h176l113 -121l115 121h159zM881 930l-588 -770h608v-160h-819v135l577 776h-559v162h781v-143z" glyph-name="zcaron" horiz-adv-x="972" unicode="ž"/><glyph d="M1039.5 1375q144.5 -85 224 -249.5t79.5 -400.5q0 -252 -86 -421t-231 -250t-326 -81q-182 0 -315 88.5t-203.5 241t-70.5 344.5q0 63 10 146h1022q-16 240 -134 367.5t-325 127.5q-109 0 -225.5 -45t-212.5 -131l-88 137q109 104 254 157.5t286 53.5q197 0 341.5 -85z M1005.5 270q116.5 125 135.5 367h-838q-4 -217 102.5 -354.5t299.5 -137.5q184 0 300.5 125z" glyph-name="uni018F" horiz-adv-x="1454" unicode="Ə"/><glyph d="M20 -199l35 146q49 -16 113 -17q55 0 86 37t31 109v848h-164v149h164v184q0 156 87 231t240 75q78 0 156 -25l-35 -149q-49 16 -106 16q-70 0 -113 -38t-43 -107v-187h270v-149h-270v-846q0 -152 -74.5 -228.5t-201.5 -76.5q-95 -1 -175 28z" glyph-name="florin" horiz-adv-x="829" unicode="ƒ"/><glyph d="M1420.5 1072.5q66.5 -148.5 66.5 -351.5q0 -246 -97.5 -415t-254 -251t-334.5 -82q-180 0 -338 82t-255 251t-97 415t97 412.5t255 246.5t338 80q72 0 139 -12l59 -8q111 -16 164 -17q59 0 84 28t25 89v182h158v-174q0 -98 -49.5 -157.5t-143.5 -75.5 q117 -94 183.5 -242.5zM1043.5 213q111.5 66 178 195t66.5 315q0 184 -65.5 310t-176 189.5t-245.5 63.5q-137 0 -249 -62.5t-176.5 -189.5t-64.5 -311q0 -182 64.5 -312t174 -197t245.5 -67q137 0 248.5 66z" glyph-name="Ohorn" horiz-adv-x="1597" unicode="Ơ"/><glyph d="M1145 537q0 -188 -73 -314.5t-192.5 -188t-261.5 -61.5q-141 0 -260.5 61.5t-192.5 187.5t-73 315q0 188 73 314t192.5 187.5t260.5 61.5q45 0 89 -6q16 -2 62 -8.5t81 -6.5q63 0 92 27t29 82v127h153v-119q0 -86 -38.5 -142.5t-112.5 -78.5q172 -151 172 -438z M865 243.5q91 106.5 91 293.5q0 186 -91 292.5t-247 106.5t-245.5 -105.5t-89.5 -293.5t90 -294t245 -106q156 0 247 106.5z" glyph-name="ohorn" horiz-adv-x="1236" unicode="ơ"/><glyph d="M1522 1708v-147q0 -113 -61.5 -175.5t-176.5 -66.5v-801q0 -279 -154.5 -412t-394.5 -133t-394.5 133.5t-154.5 411.5v916h191v-924q0 -170 93 -263t265 -93t265.5 93t93.5 263v924h172q51 0 74.5 29.5t23.5 90.5v154h158z" glyph-name="Uhorn" horiz-adv-x="1470" unicode="Ư"/><glyph d="M1249 1313v-123q0 -98 -51 -156.5t-149 -75.5v-958h-134l-38 160q-72 -90 -157 -137.5t-206 -47.5q-158 0 -253 94.5t-95 286.5v717h182v-674q0 -258 199 -258q98 0 173 50.5t146 138.5v743h109q63 0 91 26.5t28 82.5v131h155z" glyph-name="uhorn" horiz-adv-x="1236" unicode="ư"/><glyph d="M971 1819l-215 -232h-121l-227 232h174l114 -119l113 119h162zM1014 342h-635l-123 -342h-203l535 1434h219l541 -1434h-211zM958 502l-262 733l-262 -733h524z" glyph-name="uni01CD" horiz-adv-x="1402" unicode="Ǎ"/><glyph d="M840 1456l-213 -233h-123l-228 233h177l112 -121l115 121h160zM1087 131l-14 -123q-35 -23 -104 -22q-72 0 -114 35.5t-56 113.5q-141 -162 -359 -162q-150 0 -249 79t-99 227q0 162 123 241.5t309 79.5q66 0 138.5 -8t119.5 -19v142q0 121 -70.5 175t-185.5 54 q-158 0 -295 -104l-79 118q170 141 403 142q203 0 307.5 -96.5t104.5 -286.5v-502q0 -86 67 -86zM651 164q82 43 133 117v159q-43 10 -115.5 18.5t-131.5 8.5q-115 0 -191 -43t-76 -137q0 -84 61.5 -125t145.5 -41q92 0 174 43z" glyph-name="uni01CE" horiz-adv-x="1142" unicode="ǎ"/><glyph d="M555 1819l-215 -232h-121l-227 232h174l115 -119l112 119h162zM377 0h-191v1434h191v-1434z" glyph-name="uni01CF" horiz-adv-x="561" unicode="Ǐ"/><glyph d="M532 1456l-213 -233h-122l-228 233h176l113 -121l115 121h159zM352 0h-184v1073h184v-1073z" glyph-name="uni01D0" horiz-adv-x="518" unicode="ǐ"/><glyph d="M1075 1819l-215 -232h-121l-227 232h174l115 -119l112 119h162zM1136.5 1380q155.5 -80 253 -246.5t97.5 -412.5t-97.5 -415t-254 -251t-334.5 -82q-180 0 -338 82t-255 251t-97 415t97 412.5t255 246.5t338 80t335.5 -80zM552 1223.5q-112 -62.5 -176.5 -189.5 t-64.5 -311q0 -182 64.5 -312t174 -197t245.5 -67q137 0 248.5 66t178 195t66.5 315q0 184 -65.5 310t-176 189.5t-245.5 63.5q-137 0 -249 -62.5z" glyph-name="uni01D1" horiz-adv-x="1597" unicode="Ǒ"/><glyph d="M893 1456l-213 -233h-123l-227 233h176l112 -121l115 121h160zM879.5 1038.5q119.5 -61.5 192.5 -187.5t73 -314t-73 -314.5t-192.5 -188t-261.5 -61.5q-141 0 -260.5 61.5t-192.5 187.5t-73 315q0 188 73 314t192.5 187.5t260.5 61.5q142 0 261.5 -61.5zM373 830.5 q-90 -105.5 -90 -293.5t90 -294t245 -106q156 0 247 106.5t91 293.5q0 186 -91 292.5t-247 106.5q-155 0 -245 -105.5z" glyph-name="uni01D2" horiz-adv-x="1236" unicode="ǒ"/><glyph d="M1010 1819l-215 -232h-121l-228 232h175l114 -119l113 119h162zM341 106.5q-155 133.5 -155 411.5v916h191v-924q0 -170 93 -263t265 -93t265.5 93t93.5 263v924h190v-916q0 -279 -154.5 -412t-394.5 -133q-239 0 -394 133.5z" glyph-name="uni01D3" horiz-adv-x="1470" unicode="Ǔ"/><glyph d="M881 1456l-213 -233h-123l-228 233h177l112 -121l115 121h160zM1049 1073v-1073h-134l-38 160q-72 -90 -157 -137.5t-206 -47.5q-158 0 -253 94.5t-95 286.5v717h182v-674q0 -258 199 -258q98 0 173 50.5t146 138.5v743h183z" glyph-name="uni01D4" horiz-adv-x="1196" unicode="ǔ"/><glyph d="M981 1833h-492v111h492v-111zM471 1554.5q-29 26.5 -29 77.5q0 53 29 81t76 28q49 0 77.5 -27.5t28.5 -81.5q0 -51 -28.5 -77.5t-77.5 -26.5q-47 0 -76 26.5zM849 1554.5q-30 26.5 -30 77.5q0 53 29 81t78 28q47 0 74.5 -27.5t27.5 -81.5q0 -51 -27.5 -77.5t-74.5 -26.5 t-77 26.5zM341 106.5q-155 133.5 -155 411.5v916h191v-924q0 -170 93 -263t265 -93t265.5 93t93.5 263v924h190v-916q0 -279 -154.5 -412t-394.5 -133q-239 0 -394 133.5z" glyph-name="uni01D5" horiz-adv-x="1470" unicode="Ǖ"/><glyph d="M852 1548h-492v111h492v-111zM354.5 1266.5q-28.5 27.5 -28.5 79.5q0 51 28.5 78.5t75.5 27.5t76 -27.5t29 -78.5t-29 -79t-76 -28t-75.5 27.5zM707.5 1266.5q-29.5 27.5 -29.5 79.5q0 51 29.5 78.5t76.5 27.5t75 -27.5t28 -78.5t-28 -79t-75 -28t-76.5 27.5zM1049 1073 v-1073h-134l-38 160q-72 -90 -157 -137.5t-206 -47.5q-158 0 -253 94.5t-95 286.5v717h182v-674q0 -258 199 -258q98 0 173 50.5t146 138.5v743h183z" glyph-name="uni01D6" horiz-adv-x="1196" unicode="ǖ"/><glyph d="M770 1790h-125l107 215h196zM471 1554.5q-29 26.5 -29 77.5q0 53 29 81t76 28q49 0 77.5 -27.5t28.5 -81.5q0 -51 -28.5 -77.5t-77.5 -26.5q-47 0 -76 26.5zM849 1554.5q-30 26.5 -30 77.5q0 53 29 81t78 28q47 0 74.5 -27.5t27.5 -81.5q0 -51 -27.5 -77.5t-74.5 -26.5 t-77 26.5zM341 106.5q-155 133.5 -155 411.5v916h191v-924q0 -170 93 -263t265 -93t265.5 93t93.5 263v924h190v-916q0 -279 -154.5 -412t-394.5 -133q-239 0 -394 133.5z" glyph-name="uni01D7" horiz-adv-x="1470" unicode="Ǘ"/><glyph d="M641 1505h-125l107 215h196zM354.5 1266.5q-28.5 27.5 -28.5 79.5q0 51 28.5 78.5t75.5 27.5t76 -27.5t29 -78.5t-29 -79t-76 -28t-75.5 27.5zM707.5 1266.5q-29.5 27.5 -29.5 79.5q0 51 29.5 78.5t76.5 27.5t75 -27.5t28 -78.5t-28 -79t-75 -28t-76.5 27.5zM1049 1073 v-1073h-134l-38 160q-72 -90 -157 -137.5t-206 -47.5q-158 0 -253 94.5t-95 286.5v717h182v-674q0 -258 199 -258q98 0 173 50.5t146 138.5v743h183z" glyph-name="uni01D8" horiz-adv-x="1196" unicode="ǘ"/><glyph d="M678 1796l-227 219h170l114 -117l117 117h156l-215 -219h-115zM471 1554.5q-29 26.5 -29 77.5q0 53 29 81t76 28q49 0 77.5 -27.5t28.5 -81.5q0 -51 -28.5 -77.5t-77.5 -26.5q-47 0 -76 26.5zM1000.5 1713.5q27.5 -27.5 27.5 -81.5q0 -51 -27.5 -77.5t-74.5 -26.5 t-77 26.5t-30 77.5q0 53 29 81t78 28q47 0 74.5 -27.5zM1284 1434v-916q0 -279 -154.5 -412t-394.5 -133t-394.5 133.5t-154.5 411.5v916h191v-924q0 -170 93 -263t265 -93t265.5 93t93.5 263v924h190z" glyph-name="uni01D9" horiz-adv-x="1470" unicode="Ǚ"/><glyph d="M549 1511l-227 222h170l114 -119l117 119h156l-213 -222h-117zM354.5 1424.5q28.5 27.5 75.5 27.5t76 -27.5t29 -78.5t-29 -79t-76 -28t-75.5 27.5t-28.5 79.5q0 51 28.5 78.5zM859 1424.5q28 -27.5 28 -78.5t-28 -79t-75 -28t-76.5 27.5t-29.5 79.5q0 51 29.5 78.5 t76.5 27.5t75 -27.5zM1049 1073v-1073h-134l-38 160q-72 -90 -157 -137.5t-206 -47.5q-158 0 -253 94.5t-95 286.5v717h182v-674q0 -258 199 -258q98 0 173 50.5t146 138.5v743h183z" glyph-name="uni01DA" horiz-adv-x="1196" unicode="ǚ"/><glyph d="M702 2005l107 -215h-125l-174 215h192zM471 1554.5q-29 26.5 -29 77.5q0 53 29 81t76 28q49 0 77.5 -27.5t28.5 -81.5q0 -51 -28.5 -77.5t-77.5 -26.5q-47 0 -76 26.5zM849 1554.5q-30 26.5 -30 77.5q0 53 29 81t78 28q47 0 74.5 -27.5t27.5 -81.5q0 -51 -27.5 -77.5 t-74.5 -26.5t-77 26.5zM341 106.5q-155 133.5 -155 411.5v916h191v-924q0 -170 93 -263t265 -93t265.5 93t93.5 263v924h190v-916q0 -279 -154.5 -412t-394.5 -133q-239 0 -394 133.5z" glyph-name="uni01DB" horiz-adv-x="1470" unicode="Ǜ"/><glyph d="M573 1720l107 -215h-125l-174 215h192zM354.5 1266.5q-28.5 27.5 -28.5 79.5q0 51 28.5 78.5t75.5 27.5t76 -27.5t29 -78.5t-29 -79t-76 -28t-75.5 27.5zM707.5 1266.5q-29.5 27.5 -29.5 79.5q0 51 29.5 78.5t76.5 27.5t75 -27.5t28 -78.5t-28 -79t-75 -28t-76.5 27.5z M1049 1073v-1073h-134l-38 160q-72 -90 -157 -137.5t-206 -47.5q-158 0 -253 94.5t-95 286.5v717h182v-674q0 -258 199 -258q98 0 173 50.5t146 138.5v743h183z" glyph-name="uni01DC" horiz-adv-x="1196" unicode="ǜ"/><glyph d="M1071 1819l-215 -232h-121l-227 232h174l115 -119l112 119h162zM1292 1288l-102 -137q-172 135 -397 135q-221 0 -351.5 -144.5t-130.5 -418.5q0 -184 59.5 -313t167 -194.5t246.5 -65.5q121 0 213.5 41.5t141.5 101.5v346h-424v160h610v-594q-88 -106 -230.5 -169 t-318.5 -63q-182 0 -333.5 80t-241.5 246t-90 414q0 242 88 409.5t242.5 252.5t355.5 85q292 0 495 -172z" glyph-name="Gcaron" horiz-adv-x="1460" unicode="Ǧ"/><glyph d="M883 1456l-213 -233h-123l-228 233h177l112 -121l115 121h160zM775 1068q79 -32 132 -85h8l46 90h116v-1038q0 -242 -132 -359.5t-359 -117.5q-125 0 -230.5 34.5t-179.5 92.5l76 139q133 -102 323 -103q145 0 233.5 66t88.5 205v166q-135 -127 -319 -127 q-137 0 -248 61.5t-174.5 180t-63.5 282.5q0 176 72 299t187.5 184.5t246.5 61.5q98 0 177 -32zM382 837.5q-97 -96.5 -97 -278.5q0 -172 88 -267t229 -95q84 0 159 35.5t132 107.5v477q-43 51 -108.5 84t-155.5 33q-150 0 -247 -96.5z" glyph-name="gcaron" horiz-adv-x="1222" unicode="ǧ"/><glyph d="M594 -422h-94l12 313h164zM866.5 1423q106.5 -37 196.5 -96l-84 -145q-80 55 -173 86.5t-185 31.5q-137 0 -217 -58t-80 -163q0 -66 44 -113.5t107.5 -78.5t179.5 -78q150 -61 234 -104t145.5 -120t61.5 -192q0 -125 -62.5 -219t-178.5 -146.5t-273 -52.5 q-127 0 -261.5 36t-236.5 100l68 155q94 -53 207.5 -84.5t218.5 -31.5q162 0 239.5 63t77.5 166q0 68 -42 116t-105.5 78.5t-176.5 73.5q-143 53 -232 99.5t-151.5 127t-62.5 203.5q0 111 60.5 198t172 136t260.5 49q142 0 248.5 -37z" glyph-name="Scommaaccent" horiz-adv-x="1177" unicode="Ș"/><glyph d="M510 -422h-92l10 313h164zM702.5 1073.5q92.5 -26.5 153.5 -69.5l-63 -138q-59 37 -134 59.5t-149 22.5q-92 0 -149.5 -41t-57.5 -106q0 -45 31 -77t76 -51.5t129 -45.5q109 -33 179 -66t119.5 -95.5t49.5 -160.5q0 -152 -114 -242t-304 -90q-111 0 -210 31t-167 86 l60 148q61 -51 141 -78t166 -27q113 0 177 46t64 120q0 49 -31.5 82t-77.5 53.5t-132 48.5q-106 35 -173 67t-114 90t-47 153q0 141 107.5 224t277.5 83q100 0 192.5 -26.5z" glyph-name="scommaaccent" horiz-adv-x="974" unicode="ș"/><glyph d="M602 -422h-94l12 313h164zM512 1268h-469v166h1131v-166h-472v-1268h-190v1268z" glyph-name="uni021A" horiz-adv-x="1214" unicode="Ț"/><glyph d="M422 -422h-92l10 313h164zM231 207v708h-178v158h178v158l91 119h96v-277h262v-158h-262v-675q0 -53 24.5 -78t63.5 -25q61 0 141 35l49 -139q-104 -59 -223 -60q-242 1 -242 234z" glyph-name="uni021B" horiz-adv-x="759" unicode="ț"/><glyph d="M879 1636h-476v111h476v-111zM530 573l-501 861h225l377 -680l377 680h213l-498 -863v-571h-193v573z" glyph-name="uni0232" horiz-adv-x="1251" unicode="Ȳ"/><glyph d="M825 1270h-491v114h491v-114zM1104 1073l-418 -1141q-66 -180 -163 -270t-242 -90q-92 0 -177 27l33 143q25 -8 60.5 -14.5t64.5 -6.5q68 0 128.5 50.5t94.5 140.5l21 55l-453 1106h195l348 -917l315 917h193z" glyph-name="uni0233" horiz-adv-x="1132" unicode="ȳ"/><glyph d="M-145 -401l32 147q53 -14 111 -14q98 0 145 43t47 147v1151h185v-1196q0 -150 -97.5 -228.5t-248.5 -78.5q-104 0 -174 29z" glyph-name="uni0237" horiz-adv-x="542" unicode="ȷ"/><glyph d="M811 1039.5q117 -62.5 185.5 -188.5t68.5 -308q0 -176 -63.5 -305t-178 -198t-266.5 -69t-257 69t-157.5 182.5t-52.5 248.5q0 74 8 123h781q-16 182 -108.5 268t-246.5 86q-195 0 -336 -119l-84 121q86 72 195 112t252 40t260 -62.5zM780 208q88 87 101 251h-619 q4 -158 78 -248t213 -90t227 87z" glyph-name="uni0259" horiz-adv-x="1159" unicode="ə"/><glyph d="M477 1229l-112 112l-109 -112h-176l235 241h107l221 -241h-166z" glyph-name="circumflex" horiz-adv-x="727" unicode="ˆ"/><glyph d="M643 1456l-213 -233h-123l-227 233h176l113 -121l114 121h160z" glyph-name="caron" horiz-adv-x="727" unicode="ˇ"/><glyph d="M574 1280q-83 -66 -195 -66q-113 0 -197 66t-100 184h121q12 -61 59 -96t117 -35q68 0 113 34t57 97h127q-19 -118 -102 -184z" glyph-name="breve" horiz-adv-x="755" unicode="˘"/><glyph d="M290 1441q36 -30 36 -87t-36 -88t-87 -31t-86 31t-35 88t35 87t86 29q51 1 87 -29z" glyph-name="dotaccent" horiz-adv-x="407" unicode="˙"/><glyph d="M141.5 1228.5q-59.5 57.5 -59.5 143.5q0 88 59.5 145.5t155.5 57.5q94 0 154.5 -58.5t60.5 -144.5t-60.5 -143.5t-154.5 -57.5q-96 0 -155.5 57.5zM366.5 1299.5q24.5 29.5 24.5 72.5q0 45 -24.5 74t-69.5 29q-49 0 -73.5 -29t-24.5 -74q0 -43 25.5 -72.5t72.5 -29.5 q45 0 69.5 29.5z" glyph-name="ring" horiz-adv-x="593" unicode="˚"/><glyph d="M126 -387q-46 43 -46 113q0 74 50 152q50 79 134 149l76 -27q-102 -129 -102 -229q0 -84 75 -84q29 0 49 4l-8 -105q-37 -16 -98 -16q-84 0 -130 43z" glyph-name="ogonek" horiz-adv-x="446" unicode="˛"/><glyph d="M717 1415q-74 -190 -197 -190q-35 0 -62.5 14t-66.5 41q-37 25 -59.5 37t-48.5 12q-35 0 -60.5 -23.5t-46.5 -70.5l-94 41q29 96 83 144t116 48q39 0 69.5 -16t71.5 -45q35 -25 55.5 -36t42.5 -11q35 0 56.5 28.5t44.5 75.5z" glyph-name="tilde" horiz-adv-x="800" unicode="˜"/><glyph d="M121 1462h190l-118 -245h-111zM446 1462h195l-207 -245h-112z" glyph-name="hungarumlaut" horiz-adv-x="720" unicode="˝"/><glyph d="M-137 1208h-133l-254 250h239z" glyph-name="gravecomb" unicode="̀"/><glyph d="M-375 1208h-133l146 250h233z" glyph-name="acutecomb" unicode="́"/><glyph d="M-217 1229l-113 112l-108 -112h-176l235 241h107l221 -241h-166z" glyph-name="uni0302" unicode="̂"/><glyph d="M-10 1415q-74 -190 -197 -190q-35 0 -62.5 14t-66.5 41q-37 25 -59.5 37t-48.5 12q-35 0 -60.5 -23.5t-46.5 -70.5l-94 41q29 96 83 144t116 48q39 0 69.5 -16t71.5 -45q35 -25 55.5 -36t42.5 -11q35 0 56.5 28.5t44.5 75.5z" glyph-name="tildecomb" unicode="̃"/><glyph d="M-86 1270h-492v114h492v-114z" glyph-name="uni0304" unicode="̄"/><glyph d="M-130 1280q-83 -66 -196 -66t-196.5 66t-100.5 184h121q12 -61 59.5 -96t116.5 -35q68 0 113 34t57 97h127q-18 -118 -101 -184z" glyph-name="uni0306" unicode="̆"/><glyph d="M-175 1440.5q36 -29.5 36 -86.5t-36 -88t-87 -31t-86 30.5t-35 88.5q0 57 35 86.5t86 29.5t87 -29.5z" glyph-name="uni0307" unicode="̇"/><glyph d="M-581.5 1275q-28.5 28 -28.5 79q0 53 28.5 80.5t75.5 27.5t76 -27.5t29 -80.5t-29 -80t-76 -27t-75.5 28zM-232.5 1275q-29.5 28 -29.5 79q0 53 28.5 80.5t77.5 27.5q45 0 74 -27.5t29 -80.5q0 -51 -29 -79t-74 -28q-47 0 -76.5 28z" glyph-name="uni0308" unicode="̈"/><glyph d="M-379 1235q141 39 141 96q0 39 -44 61.5t-128 20.5v103q20 2 58 2q129 0 199.5 -46.5t70.5 -132.5q0 -70 -60.5 -116.5t-168.5 -71.5z" glyph-name="hookabovecomb" unicode="̉"/><glyph d="M-487.5 1228.5q-59.5 57.5 -59.5 143.5q0 88 59.5 145.5t155.5 57.5q94 0 154.5 -58.5t60.5 -144.5t-60.5 -143.5t-154.5 -57.5q-96 0 -155.5 57.5zM-262.5 1299.5q24.5 29.5 24.5 72.5q0 45 -24.5 74t-69.5 29q-49 0 -73.5 -29t-24.5 -74q0 -43 25.5 -72.5t72.5 -29.5 q45 0 69.5 29.5z" glyph-name="uni030A" unicode="̊"/><glyph d="M-569 1462h190l-119 -245h-110zM-244 1462h195l-207 -245h-113z" glyph-name="uni030B" unicode="̋"/><glyph d="M-51 1456l-213 -233h-123l-227 233h176l112 -121l115 121h160z" glyph-name="uni030C" unicode="̌"/><glyph d="M-425 1173.5q-32 34.5 -32 98.5q0 84 48.5 171t150.5 156l57 -45q-51 -43 -86 -96t-45 -102q39 -4 69 -35t30 -76q0 -51 -32 -78.5t-77 -27.5q-51 0 -83 34.5z" glyph-name="uni0312" unicode="̒"/><glyph d="M-264 1286v-119q0 -115 -71 -175t-200 -60q-23 0 -114 10q-78 12 -121 12v119q45 0 123 -12q14 -2 48 -6t60 -4q66 0 93.5 26.5t27.5 83.5v125h154z" glyph-name="uni031B" unicode="̛"/><glyph d="M-214 -169q32 -28 32 -81t-32 -80.5t-77 -27.5q-43 0 -74.5 27.5t-31.5 80.5t31.5 81t74.5 28q45 0 77 -28z" glyph-name="dotbelowcomb" unicode="̣"/><glyph d="M-225 -422h-92l10 313h164z" glyph-name="uni0326" unicode="̦"/><glyph d="M-371 -129q16 8 62 8q74 0 123 -39t49 -100q0 -80 -63.5 -125t-164.5 -45q-43 0 -87 12t-68 29l24 96q18 -16 53 -27.5t68 -11.5q47 0 76 17.5t29 50.5q0 29 -26 46t-60 17q-47 0 -74 -12l-51 59l100 168h107z" glyph-name="uni0327" unicode="̧"/><glyph d="M-462 -387q-46 43 -46 113q0 74 50 152.5t134 148.5l76 -27q-102 -129 -102 -229q0 -84 76 -84q29 0 49 4l-8 -105q-37 -16 -99 -16q-84 0 -130 43z" glyph-name="uni0328" unicode="̨"/><glyph d="M1348 0h-1295l535 1434h219zM1079 162l-383 1073l-383 -1073h766z" glyph-name="Delta" horiz-adv-x="1402" unicode="Δ"/><glyph d="M1402 401.5q-85 -153.5 -214 -245.5h299v-156h-533v127q150 111 242 254t92 358q0 172 -64.5 295t-175 186.5t-245.5 63.5t-247 -63.5t-178.5 -187.5t-66.5 -298q0 -211 92.5 -356.5t239.5 -251.5v-127h-532v156h282q-123 90 -202.5 237.5t-79.5 354.5q0 227 99 387.5 t258 241.5t337 81q180 0 335.5 -84t251 -242.5t95.5 -371.5q0 -205 -85 -358.5z" glyph-name="Omega" horiz-adv-x="1597" unicode="Ω"/><glyph d="M1083 1073v-1073h-135l-39 156q-63 -88 -136 -134.5t-171 -46.5q-180 0 -254 86v-483h-182v1495h182v-684q0 -123 74 -185.5t184 -62.5q172 0 293 197v735h184z" glyph-name="mu" horiz-adv-x="1228" unicode="μ"/><glyph d="M1075 915v-700q0 -43 15.5 -64.5t52.5 -21.5l51 2l-14 -123q-35 -23 -105 -22q-184 0 -184 219v710h-416v-915h-184v915h-146v158h1082v-158h-152z" glyph-name="pi" horiz-adv-x="1353" unicode="π"/><glyph d="M1106 1569h-133l-254 252h239zM2007 1434l-440 -1434h-195l-354 1147l-352 -1147h-195l-438 1434h205l337 -1184l361 1184h178l354 -1178l342 1178h197z" glyph-name="Wgrave" horiz-adv-x="2039" unicode="Ẁ"/><glyph d="M872 1208h-133l-254 250h240zM1569 1073l-377 -1073h-131l-270 793l-281 -793h-131l-340 1073h186l236 -823l274 823h127l266 -833l263 833h178z" glyph-name="wgrave" horiz-adv-x="1607" unicode="ẁ"/><glyph d="M1042 1569h-135l146 250h237zM2007 1434l-440 -1434h-195l-354 1147l-352 -1147h-195l-438 1434h205l337 -1184l361 1184h178l354 -1178l342 1178h197z" glyph-name="Wacute" horiz-adv-x="2039" unicode="Ẃ"/><glyph d="M819 1208h-133l145 250h234zM1569 1073l-377 -1073h-131l-270 793l-281 -793h-131l-340 1073h186l236 -823l274 823h127l266 -833l263 833h178z" glyph-name="wacute" horiz-adv-x="1607" unicode="ẃ"/><glyph d="M762 1619q-29 28 -29 79q0 53 29 80.5t76 27.5t75.5 -27.5t28.5 -80.5q0 -51 -28.5 -79t-75.5 -28t-76 28zM1138.5 1618q-28.5 27 -28.5 80t28.5 80.5t78.5 27.5q45 0 73.5 -27.5t28.5 -80.5q0 -51 -28.5 -79t-73.5 -28q-50 0 -78.5 27zM2007 1434l-440 -1434h-195 l-354 1147l-352 -1147h-195l-438 1434h205l337 -1184l361 1184h178l354 -1178l342 1178h197z" glyph-name="Wdieresis" horiz-adv-x="2039" unicode="Ẅ"/><glyph d="M540.5 1275q-28.5 28 -28.5 79q0 53 28.5 80.5t75.5 27.5t76 -27.5t29 -80.5t-28.5 -80t-76.5 -27q-47 0 -75.5 28zM890 1275q-30 28 -30 79q0 53 29 80.5t78 27.5q45 0 73.5 -27.5t28.5 -80.5q0 -51 -28.5 -79t-73.5 -28q-47 0 -77 28zM1569 1073l-377 -1073h-131 l-270 793l-281 -793h-131l-340 1073h186l236 -823l274 823h127l266 -833l263 833h178z" glyph-name="wdieresis" horiz-adv-x="1607" unicode="ẅ"/><glyph d="M1156 640q122 -95 122 -265q0 -117 -57.5 -208t-157.5 -142.5t-227 -51.5q-63 0 -140.5 13.5t-132.5 40.5l35 161q45 -20 105.5 -32.5t111.5 -12.5q117 0 190.5 63.5t73.5 162.5q0 113 -103.5 188.5t-334.5 75.5v125l315 291q0 111 -78.5 180t-207.5 69 q-127 0 -210 -76.5t-83 -228.5v-993h-191v1008q0 143 64.5 244.5t177.5 154.5t254 53q219 0 344 -116.5t125 -325.5l-301 -266q184 -17 306 -112z" glyph-name="uni1E9E" horiz-adv-x="1372" unicode="ẞ"/><glyph d="M781.5 -165q33.5 -30 33.5 -87q0 -55 -33.5 -85t-83.5 -30q-45 0 -78.5 30t-33.5 85t33.5 86t78.5 31q50 0 83.5 -30zM1014 342h-635l-123 -342h-203l535 1434h219l541 -1434h-211zM958 502l-262 733l-262 -733h524z" glyph-name="uni1EA0" horiz-adv-x="1402" unicode="Ạ"/><glyph d="M625.5 -169q31.5 -28 31.5 -81t-31.5 -80.5t-76.5 -27.5q-43 0 -75 27.5t-32 80.5t32 81t75 28q45 0 76.5 -28zM1087 131l-14 -123q-35 -23 -104 -22q-72 0 -114 35.5t-56 113.5q-141 -162 -359 -162q-150 0 -249 79t-99 227q0 162 123 241.5t309 79.5q66 0 138.5 -8 t119.5 -19v142q0 121 -70.5 175t-185.5 54q-158 0 -295 -104l-79 118q170 141 403 142q203 0 307.5 -96.5t104.5 -286.5v-502q0 -86 67 -86zM651 164q82 43 133 117v159q-43 10 -115.5 18.5t-131.5 8.5q-115 0 -191 -43t-76 -137q0 -84 61.5 -125t145.5 -41q92 0 174 43z " glyph-name="uni1EA1" horiz-adv-x="1142" unicode="ạ"/><glyph d="M575 1595q141 39 142 97q0 39 -45 61.5t-129 20.5v102q20 2 59 2q129 0 199.5 -46t70.5 -132q0 -70 -60 -117t-169 -72zM1014 342h-635l-123 -342h-203l535 1434h219l541 -1434h-211zM958 502l-262 733l-262 -733h524z" glyph-name="uni1EA2" horiz-adv-x="1402" unicode="Ả"/><glyph d="M442 1235q141 39 142 96q0 39 -44 61.5t-128 20.5v103q20 2 57 2q129 0 199.5 -46.5t70.5 -132.5q0 -70 -60.5 -116.5t-168.5 -71.5zM1087 131l-14 -123q-35 -23 -104 -22q-72 0 -114 35.5t-56 113.5q-141 -162 -359 -162q-150 0 -249 79t-99 227q0 162 123 241.5 t309 79.5q66 0 138.5 -8t119.5 -19v142q0 121 -70.5 175t-185.5 54q-158 0 -295 -104l-79 118q170 141 403 142q203 0 307.5 -96.5t104.5 -286.5v-502q0 -86 67 -86zM651 164q82 43 133 117v159q-43 10 -115.5 18.5t-131.5 8.5q-115 0 -191 -43t-76 -137q0 -84 61.5 -125 t145.5 -41q92 0 174 43z" glyph-name="uni1EA3" horiz-adv-x="1142" unicode="ả"/><glyph d="M1167 1939l-178 -215h-125l109 215h194zM754 1757l223 -211h-166l-115 99l-110 -99h-174l235 211h107zM1014 342h-635l-123 -342h-203l535 1434h219l541 -1434h-211zM958 502l-262 733l-262 -733h524z" glyph-name="uni1EA4" horiz-adv-x="1402" unicode="Ấ"/><glyph d="M1038 1612l-178 -215h-125l109 215h194zM625 1430l223 -211h-166l-115 98l-110 -98h-174l235 211h107zM1087 131l-14 -123q-35 -23 -104 -22q-72 0 -114 35.5t-56 113.5q-141 -162 -359 -162q-150 0 -249 79t-99 227q0 162 123 241.5t309 79.5q66 0 138.5 -8t119.5 -19 v142q0 121 -70.5 175t-185.5 54q-158 0 -295 -104l-79 118q170 141 403 142q203 0 307.5 -96.5t104.5 -286.5v-502q0 -86 67 -86zM651 164q82 43 133 117v159q-43 10 -115.5 18.5t-131.5 8.5q-115 0 -191 -43t-76 -137q0 -84 61.5 -125t145.5 -41q92 0 174 43z" glyph-name="uni1EA5" horiz-adv-x="1142" unicode="ấ"/><glyph d="M907 1724l-174 215h191l106 -215h-123zM756 1757l223 -211h-166l-115 99l-110 -99h-174l235 211h107zM1014 342h-635l-123 -342h-203l535 1434h219l541 -1434h-211zM958 502l-262 733l-262 -733h524z" glyph-name="uni1EA6" horiz-adv-x="1402" unicode="Ầ"/><glyph d="M776 1397l-174 215h191l106 -215h-123zM625 1430l223 -211h-166l-115 98l-110 -98h-174l235 211h107zM1087 131l-14 -123q-35 -23 -104 -22q-72 0 -114 35.5t-56 113.5q-141 -162 -359 -162q-150 0 -249 79t-99 227q0 162 123 241.5t309 79.5q66 0 138.5 -8t119.5 -19 v142q0 121 -70.5 175t-185.5 54q-158 0 -295 -104l-79 118q170 141 403 142q203 0 307.5 -96.5t104.5 -286.5v-502q0 -86 67 -86zM651 164q82 43 133 117v159q-43 10 -115.5 18.5t-131.5 8.5q-115 0 -191 -43t-76 -137q0 -84 61.5 -125t145.5 -41q92 0 174 43z" glyph-name="uni1EA7" horiz-adv-x="1142" unicode="ầ"/><glyph d="M1024 1943q59 -42 59 -114q0 -106 -139 -162l-65 70q76 37 75 80q0 39 -38.5 59t-114.5 20v86q20 2 55 3q109 0 168 -42zM754 1757l223 -211h-166l-115 99l-110 -99h-174l235 211h107zM1014 342h-635l-123 -342h-203l535 1434h219l541 -1434h-211zM958 502l-262 733 l-262 -733h524z" glyph-name="uni1EA8" horiz-adv-x="1402" unicode="Ẩ"/><glyph d="M895 1615q59 -42 59 -114q0 -106 -139 -162l-65 70q76 37 75 80q0 39 -38.5 59.5t-114.5 20.5v86q20 2 55 2q109 0 168 -42zM625 1430l223 -211h-166l-115 98l-110 -98h-174l235 211h107zM1087 131l-14 -123q-35 -23 -104 -22q-72 0 -114 35.5t-56 113.5 q-141 -162 -359 -162q-150 0 -249 79t-99 227q0 162 123 241.5t309 79.5q66 0 138.5 -8t119.5 -19v142q0 121 -70.5 175t-185.5 54q-158 0 -295 -104l-79 118q170 141 403 142q203 0 307.5 -96.5t104.5 -286.5v-502q0 -86 67 -86zM651 164q82 43 133 117v159 q-43 10 -115.5 18.5t-131.5 8.5q-115 0 -191 -43t-76 -137q0 -84 61.5 -125t145.5 -41q92 0 174 43z" glyph-name="uni1EA9" horiz-adv-x="1142" unicode="ẩ"/><glyph d="M535.5 1879q-23.5 -19 -43.5 -60l-91 39q31 82 80 120.5t105 38.5q33 0 62.5 -11t66.5 -32q55 -33 84 -32q35 0 56.5 22.5t45.5 65.5l86 -45q-37 -80 -81 -121t-99 -41q-49 0 -119 41q-61 35 -94 34q-35 0 -58.5 -19zM756 1757l223 -211h-166l-115 99l-110 -99h-174 l235 211h107zM1014 342h-635l-123 -342h-203l535 1434h219l541 -1434h-211zM958 502l-262 733l-262 -733h524z" glyph-name="uni1EAA" horiz-adv-x="1402" unicode="Ẫ"/><glyph d="M404.5 1551.5q-23.5 -19.5 -44.5 -60.5l-90 39q31 82 80 121t105 39q33 0 62.5 -11.5t66.5 -31.5q55 -33 84 -33q35 0 56 22.5t46 65.5l86 -45q-37 -80 -81 -121t-99 -41q-49 0 -119 41q-61 35 -94 35q-35 0 -58.5 -19.5zM625 1430l223 -211h-166l-115 98l-110 -98h-174 l235 211h107zM1087 131l-14 -123q-35 -23 -104 -22q-72 0 -114 35.5t-56 113.5q-141 -162 -359 -162q-150 0 -249 79t-99 227q0 162 123 241.5t309 79.5q66 0 138.5 -8t119.5 -19v142q0 121 -70.5 175t-185.5 54q-158 0 -295 -104l-79 118q170 141 403 142 q203 0 307.5 -96.5t104.5 -286.5v-502q0 -86 67 -86zM651 164q82 43 133 117v159q-43 10 -115.5 18.5t-131.5 8.5q-115 0 -191 -43t-76 -137q0 -84 61.5 -125t145.5 -41q92 0 174 43z" glyph-name="uni1EAB" horiz-adv-x="1142" unicode="ẫ"/><glyph d="M811 1589l-113 113l-108 -113h-176l235 242h107l221 -242h-166zM781.5 -165q33.5 -30 33.5 -87q0 -55 -33.5 -85t-83.5 -30q-45 0 -78.5 30t-33.5 85t33.5 86t78.5 31q50 0 83.5 -30zM1014 342h-635l-123 -342h-203l535 1434h219l541 -1434h-211zM958 502l-262 733 l-262 -733h524z" glyph-name="uni1EAC" horiz-adv-x="1402" unicode="Ậ"/><glyph d="M680 1229l-113 112l-108 -112h-176l235 241h107l221 -241h-166zM625.5 -169q31.5 -28 31.5 -81t-31.5 -80.5t-76.5 -27.5q-43 0 -75 27.5t-32 80.5t32 81t75 28q45 0 76.5 -28zM1087 131l-14 -123q-35 -23 -104 -22q-72 0 -114 35.5t-56 113.5q-141 -162 -359 -162 q-150 0 -249 79t-99 227q0 162 123 241.5t309 79.5q66 0 138.5 -8t119.5 -19v142q0 121 -70.5 175t-185.5 54q-158 0 -295 -104l-79 118q170 141 403 142q203 0 307.5 -96.5t104.5 -286.5v-502q0 -86 67 -86zM651 164q82 43 133 117v159q-43 10 -115.5 18.5t-131.5 8.5 q-115 0 -191 -43t-76 -137q0 -84 61.5 -125t145.5 -41q92 0 174 43z" glyph-name="uni1EAD" horiz-adv-x="1142" unicode="ậ"/><glyph d="M731 1819h-125l107 215h196zM890 1583.5q-83 -65.5 -196 -65.5t-194.5 65.5t-96.5 177.5h119q12 -61 58.5 -96t113.5 -35q68 0 112 35t58 96h125q-16 -112 -99 -177.5zM1014 342h-635l-123 -342h-203l535 1434h219l541 -1434h-211zM958 502l-262 733l-262 -733h524z" glyph-name="uni1EAE" horiz-adv-x="1402" unicode="Ắ"/><glyph d="M600 1507h-125l107 215h196zM759 1271.5q-83 -65.5 -196 -65.5t-194.5 65.5t-96.5 178.5h119q12 -61 58.5 -96t113.5 -35q68 0 112 35t58 96h125q-16 -113 -99 -178.5zM1087 131l-14 -123q-35 -23 -104 -22q-72 0 -114 35.5t-56 113.5q-141 -162 -359 -162 q-150 0 -249 79t-99 227q0 162 123 241.5t309 79.5q66 0 138.5 -8t119.5 -19v142q0 121 -70.5 175t-185.5 54q-158 0 -295 -104l-79 118q170 141 403 142q203 0 307.5 -96.5t104.5 -286.5v-502q0 -86 67 -86zM651 164q82 43 133 117v159q-43 10 -115.5 18.5t-131.5 8.5 q-115 0 -191 -43t-76 -137q0 -84 61.5 -125t145.5 -41q92 0 174 43z" glyph-name="uni1EAF" horiz-adv-x="1142" unicode="ắ"/><glyph d="M664 2034l106 -215h-125l-174 215h193zM890 1583.5q-83 -65.5 -196 -65.5t-194.5 65.5t-96.5 177.5h119q12 -61 58.5 -96t113.5 -35q68 0 112 35t58 96h125q-16 -112 -99 -177.5zM1014 342h-635l-123 -342h-203l535 1434h219l541 -1434h-211zM958 502l-262 733l-262 -733 h524z" glyph-name="uni1EB0" horiz-adv-x="1402" unicode="Ằ"/><glyph d="M532 1722l107 -215h-125l-174 215h192zM759 1271.5q-83 -65.5 -196 -65.5t-194.5 65.5t-96.5 178.5h119q12 -61 58.5 -96t113.5 -35q68 0 112 35t58 96h125q-16 -113 -99 -178.5zM1087 131l-14 -123q-35 -23 -104 -22q-72 0 -114 35.5t-56 113.5q-141 -162 -359 -162 q-150 0 -249 79t-99 227q0 162 123 241.5t309 79.5q66 0 138.5 -8t119.5 -19v142q0 121 -70.5 175t-185.5 54q-158 0 -295 -104l-79 118q170 141 403 142q203 0 307.5 -96.5t104.5 -286.5v-502q0 -86 67 -86zM651 164q82 43 133 117v159q-43 10 -115.5 18.5t-131.5 8.5 q-115 0 -191 -43t-76 -137q0 -84 61.5 -125t145.5 -41q92 0 174 43z" glyph-name="uni1EB1" horiz-adv-x="1142" unicode="ằ"/><glyph d="M676.5 1869.5q17.5 18.5 17.5 43.5q0 37 -39 58.5t-112 21.5v84q18 2 55 2q106 0 166.5 -42t60.5 -114q0 -55 -36.5 -95t-102.5 -65l-68 68q41 20 58.5 38.5zM890 1583.5q-83 -65.5 -196 -65.5t-194.5 65.5t-96.5 177.5h119q12 -61 58.5 -96t113.5 -35q68 0 112 35t58 96 h125q-16 -112 -99 -177.5zM1014 342h-635l-123 -342h-203l535 1434h219l541 -1434h-211zM958 502l-262 733l-262 -733h524z" glyph-name="uni1EB2" horiz-adv-x="1402" unicode="Ẳ"/><glyph d="M545.5 1558.5q17.5 18.5 17.5 43.5q0 37 -39 58t-112 21v84q18 2 55 2q106 0 166.5 -42t60.5 -113q0 -55 -36.5 -95t-102.5 -65l-68 68q41 20 58.5 38.5zM759 1271.5q-83 -65.5 -196 -65.5t-194.5 65.5t-96.5 178.5h119q12 -61 58.5 -96t113.5 -35q68 0 112 35t58 96h125 q-16 -113 -99 -178.5zM1087 131l-14 -123q-35 -23 -104 -22q-72 0 -114 35.5t-56 113.5q-141 -162 -359 -162q-150 0 -249 79t-99 227q0 162 123 241.5t309 79.5q66 0 138.5 -8t119.5 -19v142q0 121 -70.5 175t-185.5 54q-158 0 -295 -104l-79 118q170 141 403 142 q203 0 307.5 -96.5t104.5 -286.5v-502q0 -86 67 -86zM651 164q82 43 133 117v159q-43 10 -115.5 18.5t-131.5 8.5q-115 0 -191 -43t-76 -137q0 -84 61.5 -125t145.5 -41q92 0 174 43z" glyph-name="uni1EB3" horiz-adv-x="1142" unicode="ẳ"/><glyph d="M987 1995q-37 -80 -81 -121t-99 -41q-31 0 -56.5 10t-62.5 31q-57 35 -94 35q-33 0 -57.5 -19.5t-44.5 -60.5l-89 39q29 82 78 121t107 39q33 0 61.5 -11.5t65.5 -31.5q6 -2 33.5 -17.5t52.5 -15.5q35 0 55.5 21.5t44.5 66.5zM890 1583.5q-83 -65.5 -196 -65.5 t-194.5 65.5t-96.5 177.5h119q12 -61 58.5 -96t113.5 -35q68 0 112 35t58 96h125q-16 -112 -99 -177.5zM1014 342h-635l-123 -342h-203l535 1434h219l541 -1434h-211zM958 502l-262 733l-262 -733h524z" glyph-name="uni1EB4" horiz-adv-x="1402" unicode="Ẵ"/><glyph d="M856 1683q-37 -80 -81 -120.5t-99 -40.5q-31 0 -56.5 10t-62.5 31q-57 35 -94 34q-33 0 -57.5 -19t-45.5 -60l-88 38q29 82 78 121t107 39q33 0 61.5 -11t65.5 -32q6 -2 33.5 -17.5t52.5 -15.5q35 0 55 21.5t45 67.5zM759 1271.5q-83 -65.5 -196 -65.5t-194.5 65.5 t-96.5 178.5h119q12 -61 58.5 -96t113.5 -35q68 0 112 35t58 96h125q-16 -113 -99 -178.5zM1087 131l-14 -123q-35 -23 -104 -22q-72 0 -114 35.5t-56 113.5q-141 -162 -359 -162q-150 0 -249 79t-99 227q0 162 123 241.5t309 79.5q66 0 138.5 -8t119.5 -19v142 q0 121 -70.5 175t-185.5 54q-158 0 -295 -104l-79 118q170 141 403 142q203 0 307.5 -96.5t104.5 -286.5v-502q0 -86 67 -86zM651 164q82 43 133 117v159q-43 10 -115.5 18.5t-131.5 8.5q-115 0 -191 -43t-76 -137q0 -84 61.5 -125t145.5 -41q92 0 174 43z" glyph-name="uni1EB5" horiz-adv-x="1142" unicode="ẵ"/><glyph d="M892 1635.5q-83 -64.5 -196 -64.5t-196.5 64.5t-100.5 183.5h121q12 -61 59.5 -95t116.5 -34q68 0 113 33.5t57 95.5h127q-18 -119 -101 -183.5zM781.5 -165q33.5 -30 33.5 -87q0 -55 -33.5 -85t-83.5 -30q-45 0 -78.5 30t-33.5 85t33.5 86t78.5 31q50 0 83.5 -30z M1014 342h-635l-123 -342h-203l535 1434h219l541 -1434h-211zM958 502l-262 733l-262 -733h524z" glyph-name="uni1EB6" horiz-adv-x="1402" unicode="Ặ"/><glyph d="M761 1280q-83 -66 -196 -66t-196.5 66t-100.5 184h121q12 -61 59.5 -96t116.5 -35q68 0 113 34t57 97h127q-18 -118 -101 -184zM625.5 -169q31.5 -28 31.5 -81t-31.5 -80.5t-76.5 -27.5q-43 0 -75 27.5t-32 80.5t32 81t75 28q45 0 76.5 -28zM1087 131l-14 -123 q-35 -23 -104 -22q-72 0 -114 35.5t-56 113.5q-141 -162 -359 -162q-150 0 -249 79t-99 227q0 162 123 241.5t309 79.5q66 0 138.5 -8t119.5 -19v142q0 121 -70.5 175t-185.5 54q-158 0 -295 -104l-79 118q170 141 403 142q203 0 307.5 -96.5t104.5 -286.5v-502 q0 -86 67 -86zM651 164q82 43 133 117v159q-43 10 -115.5 18.5t-131.5 8.5q-115 0 -191 -43t-76 -137q0 -84 61.5 -125t145.5 -41q92 0 174 43z" glyph-name="uni1EB7" horiz-adv-x="1142" unicode="ặ"/><glyph d="M744.5 -165q33.5 -30 33.5 -87q0 -55 -33.5 -85t-82.5 -30q-45 0 -79 30t-34 85t33.5 86t79.5 31q49 0 82.5 -30zM1100 1268h-723v-453h637v-168h-637v-475h723v-172h-914v1434h914v-166z" glyph-name="uni1EB8" horiz-adv-x="1206" unicode="Ẹ"/><glyph d="M662.5 -169q31.5 -28 31.5 -81t-31.5 -80.5t-76.5 -27.5q-43 0 -75 27.5t-32 80.5t32 81t75 28q45 0 76.5 -28zM1059 479h-778q31 -354 352 -354q104 0 189 32.5t147 86.5l86 -121q-86 -72 -194.5 -112t-252.5 -40q-143 0 -260 62.5t-186.5 188.5t-69.5 308 q0 176 63.5 305.5t179.5 198t265 68.5q152 0 258.5 -68.5t158.5 -182.5t52 -249q0 -62 -10 -123zM378 865q-87 -87 -99 -251h618q-6 158 -80 248t-211 90q-141 0 -228 -87z" glyph-name="uni1EB9" horiz-adv-x="1159" unicode="ẹ"/><glyph d="M526 1595q141 39 142 97q0 39 -45 61.5t-129 20.5v102q20 2 59 2q129 0 199.5 -46t70.5 -132q0 -70 -60.5 -117t-168.5 -72zM1100 1268h-723v-453h637v-168h-637v-475h723v-172h-914v1434h914v-166z" glyph-name="uni1EBA" horiz-adv-x="1206" unicode="Ẻ"/><glyph d="M481 1235q141 39 142 96q0 39 -44 61.5t-128 20.5v103q20 2 57 2q129 0 199.5 -46.5t70.5 -132.5q0 -70 -60.5 -116.5t-168.5 -71.5zM1059 479h-778q31 -354 352 -354q104 0 189 32.5t147 86.5l86 -121q-86 -72 -194.5 -112t-252.5 -40q-143 0 -260 62.5t-186.5 188.5 t-69.5 308q0 176 63.5 305.5t179.5 198t265 68.5q152 0 258.5 -68.5t158.5 -182.5t52 -249q0 -62 -10 -123zM378 865q-87 -87 -99 -251h618q-6 158 -80 248t-211 90q-141 0 -228 -87z" glyph-name="uni1EBB" horiz-adv-x="1159" unicode="ẻ"/><glyph d="M965 1776q-74 -190 -197 -191q-35 0 -62.5 14.5t-66.5 40.5q-37 25 -59.5 37.5t-49.5 12.5q-35 0 -60.5 -24t-45.5 -71l-94 41q29 96 83 144.5t115 48.5q39 0 70 -16.5t72 -45.5q35 -25 55 -36t43 -11q35 0 56.5 29t43.5 76zM1100 1268h-723v-453h637v-168h-637v-475h723 v-172h-914v1434h914v-166z" glyph-name="uni1EBC" horiz-adv-x="1206" unicode="Ẽ"/><glyph d="M913 1415q-74 -190 -196 -190q-35 0 -62.5 14t-66.5 41q-37 25 -59.5 37t-49.5 12q-35 0 -60.5 -23.5t-45.5 -70.5l-94 41q29 96 83 144t115 48q39 0 70 -16t71 -45q35 -25 55.5 -36t43.5 -11q35 0 56.5 28.5t43.5 75.5zM1059 479h-778q31 -354 352 -354q104 0 189 32.5 t147 86.5l86 -121q-86 -72 -194.5 -112t-252.5 -40q-143 0 -260 62.5t-186.5 188.5t-69.5 308q0 176 63.5 305.5t179.5 198t265 68.5q152 0 258.5 -68.5t158.5 -182.5t52 -249q0 -62 -10 -123zM378 865q-87 -87 -99 -251h618q-6 158 -80 248t-211 90q-141 0 -228 -87z" glyph-name="uni1EBD" horiz-adv-x="1159" unicode="ẽ"/><glyph d="M1118 1939l-178 -215h-125l109 215h194zM705 1757l223 -211h-166l-115 99l-110 -99h-175l236 211h107zM1100 1268h-723v-453h637v-168h-637v-475h723v-172h-914v1434h914v-166z" glyph-name="uni1EBE" horiz-adv-x="1206" unicode="Ế"/><glyph d="M1077 1612l-178 -215h-125l109 215h194zM664 1430l223 -211h-166l-115 98l-110 -98h-174l235 211h107zM1059 479h-778q31 -354 352 -354q104 0 189 32.5t147 86.5l86 -121q-86 -72 -194.5 -112t-252.5 -40q-143 0 -260 62.5t-186.5 188.5t-69.5 308q0 176 63.5 305.5 t179.5 198t265 68.5q152 0 258.5 -68.5t158.5 -182.5t52 -249q0 -62 -10 -123zM378 865q-87 -87 -99 -251h618q-6 158 -80 248t-211 90q-141 0 -228 -87z" glyph-name="uni1EBF" horiz-adv-x="1159" unicode="ế"/><glyph d="M858 1724l-174 215h190l107 -215h-123zM707 1757l223 -211h-166l-115 99l-110 -99h-174l235 211h107zM1100 1268h-723v-453h637v-168h-637v-475h723v-172h-914v1434h914v-166z" glyph-name="uni1EC0" horiz-adv-x="1206" unicode="Ề"/><glyph d="M815 1397l-174 215h190l107 -215h-123zM664 1430l223 -211h-166l-115 98l-110 -98h-174l235 211h107zM1059 479h-778q31 -354 352 -354q104 0 189 32.5t147 86.5l86 -121q-86 -72 -194.5 -112t-252.5 -40q-143 0 -260 62.5t-186.5 188.5t-69.5 308q0 176 63.5 305.5 t179.5 198t265 68.5q152 0 258.5 -68.5t158.5 -182.5t52 -249q0 -62 -10 -123zM378 865q-87 -87 -99 -251h618q-6 158 -80 248t-211 90q-141 0 -228 -87z" glyph-name="uni1EC1" horiz-adv-x="1159" unicode="ề"/><glyph d="M974.5 1943q59.5 -42 59.5 -114q0 -106 -139 -162l-66 70q76 37 76 80q0 39 -39 59t-114 20v86q20 2 55 3q108 0 167.5 -42zM705 1757l223 -211h-166l-115 99l-110 -99h-175l236 211h107zM1100 1268h-723v-453h637v-168h-637v-475h723v-172h-914v1434h914v-166z" glyph-name="uni1EC2" horiz-adv-x="1206" unicode="Ể"/><glyph d="M933.5 1615q59.5 -42 59.5 -114q0 -106 -139 -162l-66 70q76 37 76 80q0 39 -39 59.5t-114 20.5v86q20 2 55 2q108 0 167.5 -42zM664 1430l223 -211h-166l-115 98l-110 -98h-174l235 211h107zM1059 479h-778q31 -354 352 -354q104 0 189 32.5t147 86.5l86 -121 q-86 -72 -194.5 -112t-252.5 -40q-143 0 -260 62.5t-186.5 188.5t-69.5 308q0 176 63.5 305.5t179.5 198t265 68.5q152 0 258.5 -68.5t158.5 -182.5t52 -249q0 -62 -10 -123zM378 865q-87 -87 -99 -251h618q-6 158 -80 248t-211 90q-141 0 -228 -87z" glyph-name="uni1EC3" horiz-adv-x="1159" unicode="ể"/><glyph d="M486.5 1879q-23.5 -19 -44.5 -60l-90 39q31 82 80 120.5t105 38.5q33 0 62.5 -11t66.5 -32q55 -33 84 -32q35 0 56 22.5t46 65.5l86 -45q-37 -80 -81 -121t-99 -41q-49 0 -119 41q-61 35 -94 34q-35 0 -58.5 -19zM707 1757l223 -211h-166l-115 99l-110 -99h-174l235 211 h107zM1100 1268h-723v-453h637v-168h-637v-475h723v-172h-914v1434h914v-166z" glyph-name="uni1EC4" horiz-adv-x="1206" unicode="Ễ"/><glyph d="M443.5 1551.5q-23.5 -19.5 -44.5 -60.5l-90 39q31 82 80 121t105 39q33 0 62.5 -11.5t66.5 -31.5q55 -33 84 -33q35 0 56 22.5t46 65.5l86 -45q-37 -80 -81 -121t-99 -41q-49 0 -119 41q-61 35 -94 35q-35 0 -58.5 -19.5zM664 1430l223 -211h-166l-115 98l-110 -98h-174 l235 211h107zM1059 479h-778q31 -354 352 -354q104 0 189 32.5t147 86.5l86 -121q-86 -72 -194.5 -112t-252.5 -40q-143 0 -260 62.5t-186.5 188.5t-69.5 308q0 176 63.5 305.5t179.5 198t265 68.5q152 0 258.5 -68.5t158.5 -182.5t52 -249q0 -62 -10 -123zM378 865 q-87 -87 -99 -251h618q-6 158 -80 248t-211 90q-141 0 -228 -87z" glyph-name="uni1EC5" horiz-adv-x="1159" unicode="ễ"/><glyph d="M762 1589l-113 113l-108 -113h-176l235 242h107l221 -242h-166zM744.5 -165q33.5 -30 33.5 -87q0 -55 -33.5 -85t-82.5 -30q-45 0 -79 30t-34 85t33.5 86t79.5 31q49 0 82.5 -30zM1100 1268h-723v-453h637v-168h-637v-475h723v-172h-914v1434h914v-166z" glyph-name="uni1EC6" horiz-adv-x="1206" unicode="Ệ"/><glyph d="M719 1229l-113 112l-108 -112h-176l235 241h107l221 -241h-166zM662.5 -169q31.5 -28 31.5 -81t-31.5 -80.5t-76.5 -27.5q-43 0 -75 27.5t-32 80.5t32 81t75 28q45 0 76.5 -28zM1059 479h-778q31 -354 352 -354q104 0 189 32.5t147 86.5l86 -121q-86 -72 -194.5 -112 t-252.5 -40q-143 0 -260 62.5t-186.5 188.5t-69.5 308q0 176 63.5 305.5t179.5 198t265 68.5q152 0 258.5 -68.5t158.5 -182.5t52 -249q0 -62 -10 -123zM378 865q-87 -87 -99 -251h618q-6 158 -80 248t-211 90q-141 0 -228 -87z" glyph-name="uni1EC7" horiz-adv-x="1159" unicode="ệ"/><glyph d="M160 1595q141 39 141 97q0 39 -45 61.5t-129 20.5v102q20 2 59 2q129 0 200 -46t71 -132q0 -70 -60.5 -117t-169.5 -72zM377 0h-191v1434h191v-1434z" glyph-name="uni1EC8" horiz-adv-x="561" unicode="Ỉ"/><glyph d="M135 1235q141 39 141 96q0 39 -44 61.5t-128 20.5v103q20 2 58 2q129 0 199.5 -46.5t70.5 -132.5q0 -70 -60.5 -116.5t-168.5 -71.5zM352 0h-184v1073h184v-1073z" glyph-name="uni1EC9" horiz-adv-x="518" unicode="ỉ"/><glyph d="M361.5 -165q33.5 -30 33.5 -87q0 -55 -33.5 -85t-82.5 -30q-45 0 -79 30t-34 85t33.5 86t79.5 31q49 0 82.5 -30zM377 0h-191v1434h191v-1434z" glyph-name="uni1ECA" horiz-adv-x="561" unicode="Ị"/><glyph d="M335 -169q32 -28 32 -81t-32 -80.5t-77 -27.5q-43 0 -74.5 27.5t-31.5 80.5t31.5 81t74.5 28q45 0 77 -28zM352 0h-184v1073h184v-1073zM345 1440.5q36 -29.5 36 -86.5t-36 -88t-87 -31t-86 30.5t-35 88.5q0 57 35 86.5t86 29.5t87 -29.5z" glyph-name="uni1ECB" horiz-adv-x="518" unicode="ị"/><glyph d="M879.5 -165q33.5 -30 33.5 -87q0 -55 -33.5 -85t-82.5 -30q-45 0 -79 30t-34 85t34 86t79 31q49 0 82.5 -30zM1136.5 1380q155.5 -80 253 -246.5t97.5 -412.5t-97.5 -415t-254 -251t-334.5 -82q-180 0 -338 82t-255 251t-97 415t97 412.5t255 246.5t338 80t335.5 -80z M552 1223.5q-112 -62.5 -176.5 -189.5t-64.5 -311q0 -182 64.5 -312t174 -197t245.5 -67q137 0 248.5 66t178 195t66.5 315q0 184 -65.5 310t-176 189.5t-245.5 63.5q-137 0 -249 -62.5z" glyph-name="uni1ECC" horiz-adv-x="1597" unicode="Ọ"/><glyph d="M693.5 -169q31.5 -28 31.5 -81t-31.5 -80.5t-77.5 -27.5q-43 0 -74.5 27.5t-31.5 80.5t31.5 81t74.5 28q46 0 77.5 -28zM879.5 1038.5q119.5 -61.5 192.5 -187.5t73 -314t-73 -314.5t-192.5 -188t-261.5 -61.5q-141 0 -260.5 61.5t-192.5 187.5t-73 315q0 188 73 314 t192.5 187.5t260.5 61.5q142 0 261.5 -61.5zM373 830.5q-90 -105.5 -90 -293.5t90 -294t245 -106q156 0 247 106.5t91 293.5q0 186 -91 292.5t-247 106.5q-155 0 -245 -105.5z" glyph-name="uni1ECD" horiz-adv-x="1236" unicode="ọ"/><glyph d="M678 1595q141 39 141 97q0 39 -45 61.5t-129 20.5v102q20 2 60 2q129 0 199.5 -46t70.5 -132q0 -70 -60.5 -117t-169.5 -72zM1136.5 1380q155.5 -80 253 -246.5t97.5 -412.5t-97.5 -415t-254 -251t-334.5 -82q-180 0 -338 82t-255 251t-97 415t97 412.5t255 246.5t338 80 t335.5 -80zM552 1223.5q-112 -62.5 -176.5 -189.5t-64.5 -311q0 -182 64.5 -312t174 -197t245.5 -67q137 0 248.5 66t178 195t66.5 315q0 184 -65.5 310t-176 189.5t-245.5 63.5q-137 0 -249 -62.5z" glyph-name="uni1ECE" horiz-adv-x="1597" unicode="Ỏ"/><glyph d="M496 1235q141 39 141 96q0 39 -44 61.5t-128 20.5v103q20 2 57 2q129 0 200 -46.5t71 -132.5q0 -70 -60.5 -116.5t-169.5 -71.5zM879.5 1038.5q119.5 -61.5 192.5 -187.5t73 -314t-73 -314.5t-192.5 -188t-261.5 -61.5q-141 0 -260.5 61.5t-192.5 187.5t-73 315 q0 188 73 314t192.5 187.5t260.5 61.5q142 0 261.5 -61.5zM373 830.5q-90 -105.5 -90 -293.5t90 -294t245 -106q156 0 247 106.5t91 293.5q0 186 -91 292.5t-247 106.5q-155 0 -245 -105.5z" glyph-name="uni1ECF" horiz-adv-x="1236" unicode="ỏ"/><glyph d="M1272 1939l-178 -215h-125l108 215h195zM858 1757l223 -211h-166l-114 99l-111 -99h-174l236 211h106zM1136.5 1380q155.5 -80 253 -246.5t97.5 -412.5t-97.5 -415t-254 -251t-334.5 -82q-180 0 -338 82t-255 251t-97 415t97 412.5t255 246.5t338 80t335.5 -80z M552 1223.5q-112 -62.5 -176.5 -189.5t-64.5 -311q0 -182 64.5 -312t174 -197t245.5 -67q137 0 248.5 66t178 195t66.5 315q0 184 -65.5 310t-176 189.5t-245.5 63.5q-137 0 -249 -62.5z" glyph-name="uni1ED0" horiz-adv-x="1597" unicode="Ố"/><glyph d="M1092 1612l-179 -215h-125l109 215h195zM678 1430l223 -211h-166l-114 98l-111 -98h-174l235 211h107zM879.5 1038.5q119.5 -61.5 192.5 -187.5t73 -314t-73 -314.5t-192.5 -188t-261.5 -61.5q-141 0 -260.5 61.5t-192.5 187.5t-73 315q0 188 73 314t192.5 187.5 t260.5 61.5q142 0 261.5 -61.5zM373 830.5q-90 -105.5 -90 -293.5t90 -294t245 -106q156 0 247 106.5t91 293.5q0 186 -91 292.5t-247 106.5q-155 0 -245 -105.5z" glyph-name="uni1ED1" horiz-adv-x="1236" unicode="ố"/><glyph d="M1010 1724l-174 215h190l107 -215h-123zM858 1757l223 -211h-166l-114 99l-111 -99h-174l236 211h106zM1136.5 1380q155.5 -80 253 -246.5t97.5 -412.5t-97.5 -415t-254 -251t-334.5 -82q-180 0 -338 82t-255 251t-97 415t97 412.5t255 246.5t338 80t335.5 -80z M552 1223.5q-112 -62.5 -176.5 -189.5t-64.5 -311q0 -182 64.5 -312t174 -197t245.5 -67q137 0 248.5 66t178 195t66.5 315q0 184 -65.5 310t-176 189.5t-245.5 63.5q-137 0 -249 -62.5z" glyph-name="uni1ED2" horiz-adv-x="1597" unicode="Ồ"/><glyph d="M829 1397l-174 215h191l106 -215h-123zM678 1430l223 -211h-166l-114 98l-111 -98h-174l235 211h107zM879.5 1038.5q119.5 -61.5 192.5 -187.5t73 -314t-73 -314.5t-192.5 -188t-261.5 -61.5q-141 0 -260.5 61.5t-192.5 187.5t-73 315q0 188 73 314t192.5 187.5 t260.5 61.5q142 0 261.5 -61.5zM373 830.5q-90 -105.5 -90 -293.5t90 -294t245 -106q156 0 247 106.5t91 293.5q0 186 -91 292.5t-247 106.5q-155 0 -245 -105.5z" glyph-name="uni1ED3" horiz-adv-x="1236" unicode="ồ"/><glyph d="M1128.5 1943q59.5 -42 59.5 -114q0 -106 -139 -162l-66 70q76 37 76 80q0 39 -39 59t-115 20v86q20 2 56 3q108 0 167.5 -42zM858 1757l223 -211h-166l-114 99l-111 -99h-174l236 211h106zM1136.5 1380q155.5 -80 253 -246.5t97.5 -412.5t-97.5 -415t-254 -251 t-334.5 -82q-180 0 -338 82t-255 251t-97 415t97 412.5t255 246.5t338 80t335.5 -80zM552 1223.5q-112 -62.5 -176.5 -189.5t-64.5 -311q0 -182 64.5 -312t174 -197t245.5 -67q137 0 248.5 66t178 195t66.5 315q0 184 -65.5 310t-176 189.5t-245.5 63.5q-137 0 -249 -62.5z " glyph-name="uni1ED4" horiz-adv-x="1597" unicode="Ổ"/><glyph d="M948.5 1615q59.5 -42 59.5 -114q0 -106 -140 -162l-65 70q76 37 76 80q0 39 -39 59.5t-115 20.5v86q20 2 55 2q109 0 168.5 -42zM678 1430l223 -211h-166l-114 98l-111 -98h-174l235 211h107zM879.5 1038.5q119.5 -61.5 192.5 -187.5t73 -314t-73 -314.5t-192.5 -188 t-261.5 -61.5q-141 0 -260.5 61.5t-192.5 187.5t-73 315q0 188 73 314t192.5 187.5t260.5 61.5q142 0 261.5 -61.5zM373 830.5q-90 -105.5 -90 -293.5t90 -294t245 -106q156 0 247 106.5t91 293.5q0 186 -91 292.5t-247 106.5q-155 0 -245 -105.5z" glyph-name="uni1ED5" horiz-adv-x="1236" unicode="ổ"/><glyph d="M638 1879q-24 -19 -44 -60l-90 39q31 82 80 120.5t104 38.5q33 0 62.5 -11t66.5 -32q55 -33 84 -32q35 0 56.5 22.5t46.5 65.5l86 -45q-37 -80 -81 -121t-100 -41q-49 0 -118 41q-61 35 -95 34q-34 0 -58 -19zM858 1757l223 -211h-166l-114 99l-111 -99h-174l236 211h106 zM1136.5 1380q155.5 -80 253 -246.5t97.5 -412.5t-97.5 -415t-254 -251t-334.5 -82q-180 0 -338 82t-255 251t-97 415t97 412.5t255 246.5t338 80t335.5 -80zM552 1223.5q-112 -62.5 -176.5 -189.5t-64.5 -311q0 -182 64.5 -312t174 -197t245.5 -67q137 0 248.5 66t178 195 t66.5 315q0 184 -65.5 310t-176 189.5t-245.5 63.5q-137 0 -249 -62.5z" glyph-name="uni1ED6" horiz-adv-x="1597" unicode="Ỗ"/><glyph d="M457.5 1551.5q-23.5 -19.5 -43.5 -60.5l-90 39q31 82 80 121t104 39q33 0 62.5 -11.5t66.5 -31.5q55 -33 84 -33q35 0 56.5 22.5t45.5 65.5l86 -45q-37 -80 -81 -121t-99 -41q-49 0 -119 41q-61 35 -94 35q-35 0 -58.5 -19.5zM678 1430l223 -211h-166l-114 98l-111 -98 h-174l235 211h107zM879.5 1038.5q119.5 -61.5 192.5 -187.5t73 -314t-73 -314.5t-192.5 -188t-261.5 -61.5q-141 0 -260.5 61.5t-192.5 187.5t-73 315q0 188 73 314t192.5 187.5t260.5 61.5q142 0 261.5 -61.5zM373 830.5q-90 -105.5 -90 -293.5t90 -294t245 -106 q156 0 247 106.5t91 293.5q0 186 -91 292.5t-247 106.5q-155 0 -245 -105.5z" glyph-name="uni1ED7" horiz-adv-x="1236" unicode="ỗ"/><glyph d="M913 1589l-112 113l-109 -113h-176l236 242h106l221 -242h-166zM879.5 -165q33.5 -30 33.5 -87q0 -55 -33.5 -85t-82.5 -30q-45 0 -79 30t-34 85t34 86t79 31q49 0 82.5 -30zM1136.5 1380q155.5 -80 253 -246.5t97.5 -412.5t-97.5 -415t-254 -251t-334.5 -82 q-180 0 -338 82t-255 251t-97 415t97 412.5t255 246.5t338 80t335.5 -80zM552 1223.5q-112 -62.5 -176.5 -189.5t-64.5 -311q0 -182 64.5 -312t174 -197t245.5 -67q137 0 248.5 66t178 195t66.5 315q0 184 -65.5 310t-176 189.5t-245.5 63.5q-137 0 -249 -62.5z" glyph-name="uni1ED8" horiz-adv-x="1597" unicode="Ộ"/><glyph d="M733 1229l-112 112l-109 -112h-176l235 241h107l221 -241h-166zM693.5 -169q31.5 -28 31.5 -81t-31.5 -80.5t-77.5 -27.5q-43 0 -74.5 27.5t-31.5 80.5t31.5 81t74.5 28q46 0 77.5 -28zM879.5 1038.5q119.5 -61.5 192.5 -187.5t73 -314t-73 -314.5t-192.5 -188 t-261.5 -61.5q-141 0 -260.5 61.5t-192.5 187.5t-73 315q0 188 73 314t192.5 187.5t260.5 61.5q142 0 261.5 -61.5zM373 830.5q-90 -105.5 -90 -293.5t90 -294t245 -106q156 0 247 106.5t91 293.5q0 186 -91 292.5t-247 106.5q-155 0 -245 -105.5z" glyph-name="uni1ED9" horiz-adv-x="1236" unicode="ộ"/><glyph d="M817 1569h-135l145 250h238zM1420.5 1072.5q66.5 -148.5 66.5 -351.5q0 -246 -97.5 -415t-254 -251t-334.5 -82q-180 0 -338 82t-255 251t-97 415t97 412.5t255 246.5t338 80q72 0 139 -12l59 -8q111 -16 164 -17q59 0 84 28t25 89v182h158v-174q0 -98 -49.5 -157.5 t-143.5 -75.5q117 -94 183.5 -242.5zM1043.5 213q111.5 66 178 195t66.5 315q0 184 -65.5 310t-176 189.5t-245.5 63.5q-137 0 -249 -62.5t-176.5 -189.5t-64.5 -311q0 -182 64.5 -312t174 -197t245.5 -67q137 0 248.5 66z" glyph-name="uni1EDA" horiz-adv-x="1597" unicode="Ớ"/><glyph d="M645 1208h-133l145 250h234zM1145 537q0 -188 -73 -314.5t-192.5 -188t-261.5 -61.5q-141 0 -260.5 61.5t-192.5 187.5t-73 315q0 188 73 314t192.5 187.5t260.5 61.5q45 0 89 -6q16 -2 62 -8.5t81 -6.5q63 0 92 27t29 82v127h153v-119q0 -86 -38.5 -142.5t-112.5 -78.5 q172 -151 172 -438zM865 243.5q91 106.5 91 293.5q0 186 -91 292.5t-247 106.5t-245.5 -105.5t-89.5 -293.5t90 -294t245 -106q156 0 247 106.5z" glyph-name="uni1EDB" horiz-adv-x="1236" unicode="ớ"/><glyph d="M881 1569h-133l-254 252h239zM1420.5 1072.5q66.5 -148.5 66.5 -351.5q0 -246 -97.5 -415t-254 -251t-334.5 -82q-180 0 -338 82t-255 251t-97 415t97 412.5t255 246.5t338 80q72 0 139 -12l59 -8q111 -16 164 -17q59 0 84 28t25 89v182h158v-174q0 -98 -49.5 -157.5 t-143.5 -75.5q117 -94 183.5 -242.5zM1043.5 213q111.5 66 178 195t66.5 315q0 184 -65.5 310t-176 189.5t-245.5 63.5q-137 0 -249 -62.5t-176.5 -189.5t-64.5 -311q0 -182 64.5 -312t174 -197t245.5 -67q137 0 248.5 66z" glyph-name="uni1EDC" horiz-adv-x="1597" unicode="Ờ"/><glyph d="M698 1208h-133l-254 250h240zM1145 537q0 -188 -73 -314.5t-192.5 -188t-261.5 -61.5q-141 0 -260.5 61.5t-192.5 187.5t-73 315q0 188 73 314t192.5 187.5t260.5 61.5q45 0 89 -6q16 -2 62 -8.5t81 -6.5q63 0 92 27t29 82v127h153v-119q0 -86 -38.5 -142.5t-112.5 -78.5 q172 -151 172 -438zM865 243.5q91 106.5 91 293.5q0 186 -91 292.5t-247 106.5t-245.5 -105.5t-89.5 -293.5t90 -294t245 -106q156 0 247 106.5z" glyph-name="uni1EDD" horiz-adv-x="1236" unicode="ờ"/><glyph d="M678 1595q141 39 141 97q0 39 -45 61.5t-129 20.5v102q20 2 60 2q129 0 199.5 -46t70.5 -132q0 -70 -60.5 -117t-169.5 -72zM1420.5 1072.5q66.5 -148.5 66.5 -351.5q0 -246 -97.5 -415t-254 -251t-334.5 -82q-180 0 -338 82t-255 251t-97 415t97 412.5t255 246.5t338 80 q72 0 139 -12l59 -8q111 -16 164 -17q59 0 84 28t25 89v182h158v-174q0 -98 -49.5 -157.5t-143.5 -75.5q117 -94 183.5 -242.5zM1043.5 213q111.5 66 178 195t66.5 315q0 184 -65.5 310t-176 189.5t-245.5 63.5q-137 0 -249 -62.5t-176.5 -189.5t-64.5 -311 q0 -182 64.5 -312t174 -197t245.5 -67q137 0 248.5 66z" glyph-name="uni1EDE" horiz-adv-x="1597" unicode="Ở"/><glyph d="M496 1235q141 39 141 96q0 39 -44 61.5t-128 20.5v103q20 2 57 2q129 0 200 -46.5t71 -132.5q0 -70 -60.5 -116.5t-169.5 -71.5zM1145 537q0 -188 -73 -314.5t-192.5 -188t-261.5 -61.5q-141 0 -260.5 61.5t-192.5 187.5t-73 315q0 188 73 314t192.5 187.5t260.5 61.5 q45 0 89 -6q16 -2 62 -8.5t81 -6.5q63 0 92 27t29 82v127h153v-119q0 -86 -38.5 -142.5t-112.5 -78.5q172 -151 172 -438zM865 243.5q91 106.5 91 293.5q0 186 -91 292.5t-247 106.5t-245.5 -105.5t-89.5 -293.5t90 -294t245 -106q156 0 247 106.5z" glyph-name="uni1EDF" horiz-adv-x="1236" unicode="ở"/><glyph d="M1118 1776q-74 -190 -196 -191q-35 0 -63 14.5t-66 40.5q-37 25 -59.5 37.5t-49.5 12.5q-35 0 -60.5 -24t-45.5 -71l-95 41q29 96 83.5 144.5t115.5 48.5q39 0 69.5 -16.5t71.5 -45.5q35 -25 55.5 -36t43.5 -11q35 0 56 29t44 76zM1420.5 1072.5q66.5 -148.5 66.5 -351.5 q0 -246 -97.5 -415t-254 -251t-334.5 -82q-180 0 -338 82t-255 251t-97 415t97 412.5t255 246.5t338 80q72 0 139 -12l59 -8q111 -16 164 -17q59 0 84 28t25 89v182h158v-174q0 -98 -49.5 -157.5t-143.5 -75.5q117 -94 183.5 -242.5zM1043.5 213q111.5 66 178 195t66.5 315 q0 184 -65.5 310t-176 189.5t-245.5 63.5q-137 0 -249 -62.5t-176.5 -189.5t-64.5 -311q0 -182 64.5 -312t174 -197t245.5 -67q137 0 248.5 66z" glyph-name="uni1EE0" horiz-adv-x="1597" unicode="Ỡ"/><glyph d="M928 1415q-74 -190 -197 -190q-35 0 -62.5 14t-66.5 41q-37 25 -59.5 37t-48.5 12q-35 0 -60.5 -23.5t-46.5 -70.5l-94 41q29 96 83 144t116 48q39 0 69.5 -16t71.5 -45q35 -25 55.5 -36t42.5 -11q35 0 56.5 28.5t43.5 75.5zM1145 537q0 -188 -73 -314.5t-192.5 -188 t-261.5 -61.5q-141 0 -260.5 61.5t-192.5 187.5t-73 315q0 188 73 314t192.5 187.5t260.5 61.5q45 0 89 -6q16 -2 62 -8.5t81 -6.5q63 0 92 27t29 82v127h153v-119q0 -86 -38.5 -142.5t-112.5 -78.5q172 -151 172 -438zM865 243.5q91 106.5 91 293.5q0 186 -91 292.5 t-247 106.5t-245.5 -105.5t-89.5 -293.5t90 -294t245 -106q156 0 247 106.5z" glyph-name="uni1EE1" horiz-adv-x="1236" unicode="ỡ"/><glyph d="M879.5 -165q33.5 -30 33.5 -87q0 -55 -33.5 -85t-82.5 -30q-45 0 -79 30t-34 85t34 86t79 31q49 0 82.5 -30zM1420.5 1072.5q66.5 -148.5 66.5 -351.5q0 -246 -97.5 -415t-254 -251t-334.5 -82q-180 0 -338 82t-255 251t-97 415t97 412.5t255 246.5t338 80q72 0 139 -12 l59 -8q111 -16 164 -17q59 0 84 28t25 89v182h158v-174q0 -98 -49.5 -157.5t-143.5 -75.5q117 -94 183.5 -242.5zM1043.5 213q111.5 66 178 195t66.5 315q0 184 -65.5 310t-176 189.5t-245.5 63.5q-137 0 -249 -62.5t-176.5 -189.5t-64.5 -311q0 -182 64.5 -312t174 -197 t245.5 -67q137 0 248.5 66z" glyph-name="uni1EE2" horiz-adv-x="1597" unicode="Ợ"/><glyph d="M693.5 -169q31.5 -28 31.5 -81t-31.5 -80.5t-77.5 -27.5q-43 0 -74.5 27.5t-31.5 80.5t31.5 81t74.5 28q46 0 77.5 -28zM1145 537q0 -188 -73 -314.5t-192.5 -188t-261.5 -61.5q-141 0 -260.5 61.5t-192.5 187.5t-73 315q0 188 73 314t192.5 187.5t260.5 61.5q45 0 89 -6 q16 -2 62 -8.5t81 -6.5q63 0 92 27t29 82v127h153v-119q0 -86 -38.5 -142.5t-112.5 -78.5q172 -151 172 -438zM865 243.5q91 106.5 91 293.5q0 186 -91 292.5t-247 106.5t-245.5 -105.5t-89.5 -293.5t90 -294t245 -106q156 0 247 106.5z" glyph-name="uni1EE3" horiz-adv-x="1236" unicode="ợ"/><glyph d="M816 -165q34 -30 34 -87q0 -55 -34 -85t-83 -30q-45 0 -78.5 30t-33.5 85t33.5 86t78.5 31q49 0 83 -30zM341 106.5q-155 133.5 -155 411.5v916h191v-924q0 -170 93 -263t265 -93t265.5 93t93.5 263v924h190v-916q0 -279 -154.5 -412t-394.5 -133q-239 0 -394 133.5z" glyph-name="uni1EE4" horiz-adv-x="1470" unicode="Ụ"/><glyph d="M681 -169q32 -28 32 -81t-32 -80.5t-77 -27.5q-43 0 -74.5 27.5t-31.5 80.5t31.5 81t74.5 28q45 0 77 -28zM1049 1073v-1073h-134l-38 160q-72 -90 -157 -137.5t-206 -47.5q-158 0 -253 94.5t-95 286.5v717h182v-674q0 -258 199 -258q98 0 173 50.5t146 138.5v743h183z " glyph-name="uni1EE5" horiz-adv-x="1196" unicode="ụ"/><glyph d="M614 1595q141 39 142 97q0 39 -45 61.5t-129 20.5v102q20 2 59 2q129 0 199.5 -46t70.5 -132q0 -70 -60 -117t-169 -72zM341 106.5q-155 133.5 -155 411.5v916h191v-924q0 -170 93 -263t265 -93t265.5 93t93.5 263v924h190v-916q0 -279 -154.5 -412t-394.5 -133 q-239 0 -394 133.5z" glyph-name="uni1EE6" horiz-adv-x="1470" unicode="Ủ"/><glyph d="M483 1235q141 39 142 96q0 39 -44 61.5t-128 20.5v103q20 2 57 2q129 0 199.5 -46.5t70.5 -132.5q0 -70 -60.5 -116.5t-168.5 -71.5zM1049 1073v-1073h-134l-38 160q-72 -90 -157 -137.5t-206 -47.5q-158 0 -253 94.5t-95 286.5v717h182v-674q0 -258 199 -258 q98 0 173 50.5t146 138.5v743h183z" glyph-name="uni1EE7" horiz-adv-x="1196" unicode="ủ"/><glyph d="M754 1569h-136l146 250h237zM1522 1708v-147q0 -113 -61.5 -175.5t-176.5 -66.5v-801q0 -279 -154.5 -412t-394.5 -133t-394.5 133.5t-154.5 411.5v916h191v-924q0 -170 93 -263t265 -93t265.5 93t93.5 263v924h172q51 0 74.5 29.5t23.5 90.5v154h158z" glyph-name="uni1EE8" horiz-adv-x="1470" unicode="Ứ"/><glyph d="M633 1208h-133l145 250h234zM1249 1313v-123q0 -98 -51 -156.5t-149 -75.5v-958h-134l-38 160q-72 -90 -157 -137.5t-206 -47.5q-158 0 -253 94.5t-95 286.5v717h182v-674q0 -258 199 -258q98 0 173 50.5t146 138.5v743h109q63 0 91 26.5t28 82.5v131h155z" glyph-name="uni1EE9" horiz-adv-x="1236" unicode="ứ"/><glyph d="M817 1569h-133l-254 252h240zM1522 1708v-147q0 -113 -61.5 -175.5t-176.5 -66.5v-801q0 -279 -154.5 -412t-394.5 -133t-394.5 133.5t-154.5 411.5v916h191v-924q0 -170 93 -263t265 -93t265.5 93t93.5 263v924h172q51 0 74.5 29.5t23.5 90.5v154h158z" glyph-name="uni1EEA" horiz-adv-x="1470" unicode="Ừ"/><glyph d="M688 1208h-133l-254 250h240zM1249 1313v-123q0 -98 -51 -156.5t-149 -75.5v-958h-134l-38 160q-72 -90 -157 -137.5t-206 -47.5q-158 0 -253 94.5t-95 286.5v717h182v-674q0 -258 199 -258q98 0 173 50.5t146 138.5v743h109q63 0 91 26.5t28 82.5v131h155z" glyph-name="uni1EEB" horiz-adv-x="1236" unicode="ừ"/><glyph d="M614 1595q141 39 142 97q0 39 -45 61.5t-129 20.5v102q20 2 59 2q129 0 199.5 -46t70.5 -132q0 -70 -60 -117t-169 -72zM1522 1708v-147q0 -113 -61.5 -175.5t-176.5 -66.5v-801q0 -279 -154.5 -412t-394.5 -133t-394.5 133.5t-154.5 411.5v916h191v-924q0 -170 93 -263 t265 -93t265.5 93t93.5 263v924h172q51 0 74.5 29.5t23.5 90.5v154h158z" glyph-name="uni1EEC" horiz-adv-x="1470" unicode="Ử"/><glyph d="M483 1235q141 39 142 96q0 39 -44 61.5t-128 20.5v103q20 2 57 2q129 0 199.5 -46.5t70.5 -132.5q0 -70 -60.5 -116.5t-168.5 -71.5zM1249 1313v-123q0 -98 -51 -156.5t-149 -75.5v-958h-134l-38 160q-72 -90 -157 -137.5t-206 -47.5q-158 0 -253 94.5t-95 286.5v717h182 v-674q0 -258 199 -258q98 0 173 50.5t146 138.5v743h109q63 0 91 26.5t28 82.5v131h155z" glyph-name="uni1EED" horiz-adv-x="1236" unicode="ử"/><glyph d="M1053 1776q-74 -190 -197 -191q-35 0 -62.5 14.5t-66.5 40.5q-37 25 -59.5 37.5t-49.5 12.5q-35 0 -60.5 -24t-45.5 -71l-94 41q29 96 83 144.5t115 48.5q39 0 70 -16.5t72 -45.5q35 -25 55.5 -36t42.5 -11q35 0 56.5 29t43.5 76zM1522 1708v-147q0 -113 -61.5 -175.5 t-176.5 -66.5v-801q0 -279 -154.5 -412t-394.5 -133t-394.5 133.5t-154.5 411.5v916h191v-924q0 -170 93 -263t265 -93t265.5 93t93.5 263v924h172q51 0 74.5 29.5t23.5 90.5v154h158z" glyph-name="uni1EEE" horiz-adv-x="1470" unicode="Ữ"/><glyph d="M918 1415q-74 -190 -197 -190q-35 0 -62.5 14t-66.5 41q-37 25 -59.5 37t-49.5 12q-35 0 -60.5 -23.5t-45.5 -70.5l-94 41q29 96 83 144t115 48q39 0 70 -16t72 -45q35 -25 55 -36t43 -11q35 0 56.5 28.5t43.5 75.5zM1249 1313v-123q0 -98 -51 -156.5t-149 -75.5v-958 h-134l-38 160q-72 -90 -157 -137.5t-206 -47.5q-158 0 -253 94.5t-95 286.5v717h182v-674q0 -258 199 -258q98 0 173 50.5t146 138.5v743h109q63 0 91 26.5t28 82.5v131h155z" glyph-name="uni1EEF" horiz-adv-x="1236" unicode="ữ"/><glyph d="M816 -165q34 -30 34 -87q0 -55 -34 -85t-83 -30q-45 0 -78.5 30t-33.5 85t33.5 86t78.5 31q49 0 83 -30zM1522 1708v-147q0 -113 -61.5 -175.5t-176.5 -66.5v-801q0 -279 -154.5 -412t-394.5 -133t-394.5 133.5t-154.5 411.5v916h191v-924q0 -170 93 -263t265 -93 t265.5 93t93.5 263v924h172q51 0 74.5 29.5t23.5 90.5v154h158z" glyph-name="uni1EF0" horiz-adv-x="1470" unicode="Ự"/><glyph d="M681 -169q32 -28 32 -81t-32 -80.5t-77 -27.5q-43 0 -74.5 27.5t-31.5 80.5t31.5 81t74.5 28q45 0 77 -28zM1249 1313v-123q0 -98 -51 -156.5t-149 -75.5v-958h-134l-38 160q-72 -90 -157 -137.5t-206 -47.5q-158 0 -253 94.5t-95 286.5v717h182v-674q0 -258 199 -258 q98 0 173 50.5t146 138.5v743h109q63 0 91 26.5t28 82.5v131h155z" glyph-name="uni1EF1" horiz-adv-x="1236" unicode="ự"/><glyph d="M723 1569h-133l-254 252h239zM530 573l-501 861h225l377 -680l377 680h213l-498 -863v-571h-193v573z" glyph-name="Ygrave" horiz-adv-x="1251" unicode="Ỳ"/><glyph d="M662 1208h-134l-254 250h240zM1104 1073l-418 -1141q-66 -180 -163 -270t-242 -90q-92 0 -177 27l33 143q25 -8 60.5 -14.5t64.5 -6.5q68 0 128.5 50.5t94.5 140.5l21 55l-453 1106h195l348 -917l315 917h193z" glyph-name="ygrave" horiz-adv-x="1132" unicode="ỳ"/><glyph d="M705.5 -165q33.5 -30 33.5 -87q0 -55 -33.5 -85t-82.5 -30q-45 0 -79 30t-34 85t34 86t79 31q49 0 82.5 -30zM530 573l-501 861h225l377 -680l377 680h213l-498 -863v-571h-193v573z" glyph-name="uni1EF4" horiz-adv-x="1251" unicode="Ỵ"/><glyph d="M922.5 -169q31.5 -28 31.5 -81t-31.5 -80.5t-76.5 -27.5q-43 0 -75 27.5t-32 80.5t32 81t75 28q45 0 76.5 -28zM1104 1073l-418 -1141q-66 -180 -163 -270t-242 -90q-92 0 -177 27l33 143q25 -8 60.5 -14.5t64.5 -6.5q68 0 128.5 50.5t94.5 140.5l21 55l-453 1106h195 l348 -917l315 917h193z" glyph-name="uni1EF5" horiz-adv-x="1132" unicode="ỵ"/><glyph d="M520 1595q141 39 142 97q0 39 -45.5 61.5t-129.5 20.5v102q20 2 60 2q129 0 199.5 -46t70.5 -132q0 -70 -60.5 -117t-168.5 -72zM530 573l-501 861h225l377 -680l377 680h213l-498 -863v-571h-193v573z" glyph-name="uni1EF6" horiz-adv-x="1251" unicode="Ỷ"/><glyph d="M457 1235q141 39 141 96q0 39 -44 61.5t-128 20.5v103q20 2 57 2q129 0 200 -46.5t71 -132.5q0 -70 -60.5 -116.5t-169.5 -71.5zM1104 1073l-418 -1141q-66 -180 -163 -270t-242 -90q-92 0 -177 27l33 143q25 -8 60.5 -14.5t64.5 -6.5q68 0 128.5 50.5t94.5 140.5l21 55 l-453 1106h195l348 -917l315 917h193z" glyph-name="uni1EF7" horiz-adv-x="1132" unicode="ỷ"/><glyph d="M961 1776q-74 -190 -197 -191q-35 0 -62.5 14.5t-66.5 40.5q-37 25 -59.5 37.5t-49.5 12.5q-35 0 -60.5 -24t-45.5 -71l-94 41q29 96 83 144.5t115 48.5q39 0 70 -16.5t72 -45.5q35 -25 55 -36t43 -11q35 0 56.5 29t43.5 76zM530 573l-501 861h225l377 -680l377 680h213 l-498 -863v-571h-193v573z" glyph-name="uni1EF8" horiz-adv-x="1251" unicode="Ỹ"/><glyph d="M889 1415q-74 -190 -197 -190q-35 0 -62.5 14t-66.5 41q-37 25 -59.5 37t-48.5 12q-35 0 -60.5 -23.5t-46.5 -70.5l-94 41q29 96 83 144t116 48q39 0 69.5 -16t71.5 -45q35 -25 55.5 -36t42.5 -11q35 0 56.5 28.5t44.5 75.5zM1104 1073l-418 -1141q-66 -180 -163 -270 t-242 -90q-92 0 -177 27l33 143q25 -8 60.5 -14.5t64.5 -6.5q68 0 128.5 50.5t94.5 140.5l21 55l-453 1106h195l348 -917l315 917h193z" glyph-name="uni1EF9" horiz-adv-x="1132" unicode="ỹ"/><glyph glyph-name="uni2009" horiz-adv-x="88" unicode=" "/><glyph d="M1071 453h-919v161h919v-161z" glyph-name="endash" horiz-adv-x="1226" unicode="–"/><glyph d="M1735 453h-1573v161h1573v-161z" glyph-name="emdash" horiz-adv-x="1859" unicode="—"/><glyph d="M147.5 1004.5q-34.5 37.5 -34.5 105.5q0 90 52 183t161 167l61 -47q-55 -47 -91 -102.5t-48 -110.5q41 -4 73.5 -37t32.5 -82q0 -55 -33.5 -84.5t-84.5 -29.5q-54 0 -88.5 37.5z" glyph-name="quoteleft" horiz-adv-x="460" unicode="‘"/><glyph d="M313.5 1422q34.5 -38 34.5 -105q0 -90 -52 -183.5t-161 -166.5l-63 49q55 47 92 102.5t49 108.5q-43 6 -75 38.5t-32 80.5q0 57 34 85.5t83 28.5q56 0 90.5 -38z" glyph-name="quoteright" horiz-adv-x="460" unicode="’"/><glyph d="M72 -188q55 47 92 102t49 109q-43 6 -75 38.5t-32 81.5q0 55 34 85t83 30q55 0 90 -39t35 -106q0 -90 -52 -183.5t-161 -167.5z" glyph-name="quotesinglbase" horiz-adv-x="460" unicode="‚"/><glyph d="M485 1005q-35 38 -34 105q0 90 52 183t161 167l61 -47q-55 -47 -91 -102t-48 -111q41 -4 73 -37q33 -33 33 -82q0 -55 -34 -85t-85 -29q-53 0 -88 38zM147 1005q-35 38 -34 105q0 90 52 183t161 167l61 -47q-55 -47 -91 -102t-48 -111q41 -4 74 -37t32 -82q0 -55 -33 -85 q-34 -30 -85 -29q-54 0 -89 38z" glyph-name="quotedblleft" horiz-adv-x="798" unicode="“"/><glyph d="M651 1422q35 -38 35 -105q0 -90 -52 -183t-161 -167l-63 49q55 47 92 102t49 109q-43 6 -75 39t-32 80q0 57 34 86t83 28q55 0 90 -38zM313 1422q35 -38 35 -105q0 -90 -52 -183t-161 -167l-63 49q55 47 92 102t49 109q-43 6 -75 39t-32 80q0 57 34 86t83 28q55 0 90 -38 z" glyph-name="quotedblright" horiz-adv-x="798" unicode="”"/><glyph d="M410 -188q55 47 92 102t49 109q-43 6 -75 38q-32 33 -32 82q0 55 34 85t83 30q55 0 90 -39t35 -106q0 -90 -52 -184q-52 -93 -161 -167zM72 -188q55 47 92 102t49 109q-43 6 -75 38q-32 33 -32 82q0 55 34 85t83 30q55 0 90 -39t35 -106q0 -90 -52 -184 q-52 -93 -161 -167z" glyph-name="quotedblbase" horiz-adv-x="798" unicode="„"/><glyph d="M786 922h-268v-922h-176v922h-270v151h270v361h176v-361h268v-151z" glyph-name="dagger" horiz-adv-x="860" unicode="†"/><glyph d="M498 940v-231h254v-156h-254v-553h-174v553h-252v156h252v231h-252v154h252v342h174v-342h254v-154h-254z" glyph-name="daggerdbl" horiz-adv-x="823" unicode="‡"/><glyph d="M180.5 527.5q-59.5 54.5 -59.5 154.5t59.5 153.5t143.5 53.5q82 0 142 -53.5t60 -153.5t-60 -154.5t-142 -54.5q-84 0 -143.5 54.5z" glyph-name="bullet" horiz-adv-x="647" unicode="•"/><glyph d="M1433 204q36 -36 35 -98q0 -61 -35 -96q-36 -35 -94 -35q-59 0 -94 35t-35 96t35 98q35 36 94 36q58 0 94 -36zM947 204q36 -36 36 -98q0 -61 -36 -96t-93 -35q-59 0 -94 35t-35 96t35 98q35 36 94 36q57 0 93 -36zM460 204q36 -36 36 -98q0 -61 -36 -96t-93 -35 q-59 0 -95 35q-35 35 -34 96q0 61 34 98q35 36 95 36q57 0 93 -36z" glyph-name="ellipsis" horiz-adv-x="1705" unicode="…"/><glyph d="M163 885q-89 88 -89 243q0 154 89 242t224 88q137 0 224 -88t87 -244q0 -154 -87 -241.5t-224 -87.5q-135 0 -224 88zM1198 1434h160l-967 -1434h-160zM508 969.5q41 54.5 41 158.5q0 102 -41 156.5t-121 54.5q-78 0 -123 -55t-45 -156q0 -102 44 -157.5t124 -55.5 t121 54.5zM973 63.5q-90 88.5 -90 243.5q0 158 89 245t226 87q135 0 223 -88t88 -244q0 -154 -88 -243t-223 -89t-225 88.5zM1699 63.5q-89 88.5 -89 243.5q0 158 88 245t225 87q135 0 223 -88t88 -244q0 -154 -88 -243t-223 -89t-224 88.5zM1319 150.5q41 54.5 41 156.5 t-41 157.5t-121 55.5t-124 -56t-44 -157q0 -100 44 -155.5t124 -55.5t121 54.5zM2044 150.5q41 54.5 41 156.5t-41 157.5t-121 55.5q-78 0 -122 -56t-44 -157q0 -100 44 -155.5t122 -55.5q80 0 121 54.5z" glyph-name="perthousand" horiz-adv-x="2308" unicode="‰"/><glyph d="M565 811l-241 -289l241 -286l-104 -95l-318 379l312 383z" glyph-name="guilsinglleft" horiz-adv-x="716" unicode="‹"/><glyph d="M586 520l-318 -379l-104 95l242 286l-242 289l110 92z" glyph-name="guilsinglright" horiz-adv-x="737" unicode="›"/><glyph d="M553 1542l-588 -1800h-143l590 1800h141z" glyph-name="fraction" horiz-adv-x="385" unicode="⁄"/><glyph d="M1341 154q-86 -74 -208.5 -126.5t-280.5 -52.5q-217 0 -377 130.5t-211 386.5h-186v131h170q-4 61 -4 96l2 90h-168v131h186q51 258 215 388t395 130q152 0 265.5 -45t193.5 -110l-106 -136q-166 117 -350 117q-152 0 -259.5 -88t-150.5 -256h719l-31 -131h-709 q-4 -53 -4 -84q0 -53 7 -102h675l-30 -131h-621q45 -162 149.5 -251t239.5 -89q205 0 377 131z" glyph-name="Euro" horiz-adv-x="1388" unicode="€"/><glyph d="M745 1294h-233v-641h-152v641h-229v140h614v-140zM1663 653h-152v467l-237 -401h-51l-230 399v-465h-147v781h123l284 -502l303 502h107v-781z" glyph-name="trademark" horiz-adv-x="1779" unicode="™"/><glyph d="M465 89q-180 89 -281.5 253t-101.5 381q0 215 101.5 380t282.5 256t411 91q356 0 567 -193.5t227 -551.5h-1263q-16 0 -23.5 -6.5t-7.5 -30.5v-355q0 -41 66.5 -102t180 -107.5t253.5 -46.5q145 0 279 64.5t222 167.5h148q-141 -160 -284.5 -224.5t-364.5 -64.5 q-232 0 -412 89zM1341 750q20 0 26.5 7t6.5 25v351q0 55 -77.5 118.5t-195.5 105.5t-227 42q-131 0 -244.5 -47t-183 -108.5t-69.5 -96.5v-379q0 -18 31 -18h933z" glyph-name="estimated" horiz-adv-x="1753" unicode="℮"/><glyph d="M1838 364q42 -50 42 -124q0 -113 -92 -185t-236 -71q-147 0 -238 71q-91 72 -91 183q0 74 43 123q43 50 108 79q-119 55 -119 176q0 96 83 158q83 61 214 62q131 0 215 -62q84 -61 84 -160q0 -66 -33 -108q-34 -43 -89 -66q67 -26 109 -76zM1448 682q-41 -29 -41 -80 t41 -78t104 -26q66 0 107 26q41 27 41 78t-41 80t-107 29q-63 0 -104 -29zM1677 147q43 37 43 97q0 61 -46 98t-122 37t-122 -37q-47 -37 -48 -98q0 -57 44 -96q44 -38 126 -37q82 -1 125 36zM1300 1542l-587 -1800h-144l590 1800h141zM492 745h167v-129h-530v129h211v523 l-166 -70l-45 113l258 123h105v-689z" glyph-name="oneeighth" horiz-adv-x="1976" unicode="⅛"/><glyph d="M1910 364q42 -50 42 -124q0 -113 -92 -185t-236 -71q-147 0 -239 71q-91 72 -91 183q0 74 43 123q43 50 109 79q-119 55 -119 176q0 96 83 158q83 61 214 62q131 0 215 -62q84 -61 84 -160q0 -66 -34 -108q-34 -43 -89 -66q68 -26 110 -76zM1520 682q-41 -29 -41 -80 t41 -78t104 -26q66 0 107 26q41 27 41 78t-41 80t-107 29q-63 0 -104 -29zM1749 147q43 37 43 97q0 61 -46 98t-122 37t-123 -37t-47 -98q0 -57 44 -96q44 -38 126 -37q82 -1 125 36zM1372 1542l-588 -1800h-143l590 1800h141zM668 991q47 -51 47 -131q0 -115 -93 -187 q-93 -73 -241 -73q-86 0 -164 26t-131 68l57 115q117 -74 232 -74q84 0 131 35t47 98q0 119 -180 119h-92v117h75q76 2 120 31t44 82q0 47 -35 74q-35 28 -106 28q-111 0 -217 -66l-60 101q55 43 132 70q77 28 163 28q131 0 208 -60t77 -147q0 -63 -38 -113t-112 -73 q89 -17 136 -68z" glyph-name="threeeighths" horiz-adv-x="2048" unicode="⅜"/><glyph d="M1916 364q42 -50 42 -124q0 -113 -92 -185t-236 -71q-147 0 -238 71q-91 72 -92 183q0 74 43 123q43 50 109 79q-119 55 -119 176q0 96 83 158q83 61 214 62q131 0 215 -62q84 -61 84 -160q0 -66 -34 -108q-34 -43 -89 -66q68 -26 110 -76zM1526 682q-41 -29 -41 -80 t41 -78t104 -26q66 0 107 26q41 27 41 78t-41 80t-107 29q-63 0 -104 -29zM1755 147q43 37 43 97q0 61 -46 98t-122 37t-123 -37t-47 -98q0 -57 44 -96q44 -38 126 -37q82 -1 125 36zM1378 1542l-587 -1800h-144l590 1800h141zM657 1300h-362v-188q27 16 71 27q44 10 89 10 q119 0 189 -70q71 -70 71 -186q0 -133 -94 -213t-246 -80q-74 0 -143 21q-69 20 -119 59l53 108q98 -57 201 -57q90 0 138 43t48 119q0 66 -36 101q-36 36 -103 36q-45 0 -92 -15t-78 -42l-101 43v418h514v-134z" glyph-name="fiveeighths" horiz-adv-x="2054" unicode="⅝"/><glyph d="M1750 364q42 -50 42 -124q0 -113 -92 -185t-236 -71q-147 0 -238 71q-91 72 -91 183q0 74 43 123q43 50 108 79q-119 55 -119 176q0 96 83 158q83 61 214 62q131 0 215 -62q84 -61 84 -160q0 -66 -33 -108q-34 -43 -90 -66q68 -26 110 -76zM1360 682q-41 -29 -41 -80 t41 -78t104 -26q66 0 107 26q41 27 41 78t-41 80t-107 29q-63 0 -104 -29zM1589 147q43 37 43 97q0 61 -46 98t-122 37t-123 -37t-47 -98q0 -57 44 -96q44 -38 126 -37q82 -1 125 36zM1210 1542l-587 -1800h-144l590 1800h141zM649 1325l-350 -709h-166l340 680h-422v138 h598v-109z" glyph-name="seveneighths" horiz-adv-x="1888" unicode="⅞"/><glyph d="M992 1146.5q138 -239.5 138 -552.5q0 -299 -136 -460t-378 -161q-139 0 -256.5 61.5t-188.5 188.5t-71 314q0 186 68 312t179.5 186.5t244.5 60.5q203 0 317 -144q-63 166 -177 282t-277 206l92 106q307 -160 445 -399.5zM852 243.5q90 106.5 90 291.5q0 184 -93 290.5 t-241 106.5q-147 0 -233 -105.5t-86 -291.5q0 -184 89 -291t238 -107q146 0 236 106.5z" glyph-name="partialdiff" horiz-adv-x="1228" unicode="∂"/><glyph d="M1032 1268h-119v-1581h-176v1581h-385v-1581h-176v1581h-119v166h975v-166z" glyph-name="product" horiz-adv-x="1089" unicode="∏"/><glyph d="M49 -152l381 721l-381 703v162h934v-174h-727l383 -691l-383 -706h727v-176h-934v161z" glyph-name="summation" horiz-adv-x="1064" unicode="∑"/><glyph d="M1118 627h-1016v151h1016v-151z" glyph-name="minus" horiz-adv-x="1220" unicode="−"/><glyph d="M1149 1264h-170l-350 -1577h-164l-266 387l120 98l185 -276l342 1538h303v-170z" glyph-name="radical" horiz-adv-x="1216" unicode="√"/><glyph d="M1415 894q92 -97 92 -261q0 -168 -97 -271.5t-261 -103.5q-131 0 -222 65.5t-169 180.5q-74 -111 -172.5 -177.5t-218.5 -66.5q-143 0 -233.5 96.5t-90.5 255.5q0 172 101.5 276.5t267.5 104.5q129 0 218 -65.5t167 -179.5q70 113 167 178t214 65q145 0 237 -97z M545.5 453.5q66.5 50.5 146.5 152.5q-76 121 -136 181.5t-146 60.5q-88 0 -142.5 -62.5t-54.5 -164.5q0 -98 51 -158t137 -60q78 0 144.5 50.5zM1286 461.5q51 58.5 51 161.5q0 100 -52 162.5t-136 62.5q-145 0 -287 -205q76 -119 137.5 -179.5t149.5 -60.5q86 0 137 58.5z " glyph-name="infinity" horiz-adv-x="1550" unicode="∞"/><glyph d="M63 -123q29 -12 70 -19.5t78 -7.5q78 0 122 53.5t56 202.5l86 1018q14 172 101.5 254t228.5 82q57 0 115.5 -10t83.5 -23l-29 -153q-74 25 -148 24q-80 0 -120.5 -51t-51.5 -180l-86 -1012q-16 -197 -106 -282.5t-230 -85.5q-55 0 -115.5 11t-92.5 28z" glyph-name="integral" horiz-adv-x="1028" unicode="∫"/><glyph d="M728 773q-48 13 -112 38q-74 29 -126 42t-123 13q-125 0 -265 -67v143q143 78 271 78q68 0 121 -14.5t118 -40.5q68 -27 118 -40.5t114 -13.5q115 0 274 72v-143q-135 -80 -280 -80q-62 0 -110 13zM728 398.5q-48 13.5 -112 37.5q-74 29 -126 42.5t-123 13.5 q-125 0 -265 -68v145q152 76 273 76q66 0 119 -14.5t118 -40.5q68 -27 118 -40t114 -13q115 0 274 71v-143q-135 -80 -280 -80q-62 0 -110 13.5z" glyph-name="approxequal" horiz-adv-x="1220" unicode="≈"/><glyph d="M731 836l-96 -267h483v-151h-536l-97 -266h-143l96 266h-336v151h390l96 267h-486v151h539l96 266h144l-97 -266h334v-151h-387z" glyph-name="notequal" horiz-adv-x="1220" unicode="≠"/><glyph d="M262 809l856 -289l-51 -137l-965 340v170l965 346l51 -141zM102 311h1016v-151h-1016v151z" glyph-name="lessequal" horiz-adv-x="1220" unicode="≤"/><glyph d="M1118 893v-170l-964 -340l-52 137l856 289l-856 289l52 141zM102 311h1016v-151h-1016v151z" glyph-name="greaterequal" horiz-adv-x="1220" unicode="≥"/><glyph d="M369 1290h204l312 -643l-312 -647h-204l-312 647zM475 156l223 491l-223 488l-231 -488z" glyph-name="lozenge" horiz-adv-x="942" unicode="◊"/><glyph d="M594 1569h-135l145 250h238zM25 -8l16 170q82 -12 160 -12q319 0 319 321v963h193v-953q0 -287 -133.5 -397.5t-366.5 -110.5q-114 1 -188 19z" glyph-name="glyph499" horiz-adv-x="899"/><glyph d="M345 1440.5q36 -29.5 36 -86.5t-36 -88t-87 -31t-86 30.5t-35 88.5q0 57 35 86.5t86 29.5t87 -29.5zM352 0h-184v1073h184v-1073z" glyph-name="i.locl" horiz-adv-x="518"/><glyph d="M309 1208h-133l146 250h233zM-145 -401l32 147q53 -14 111 -14q98 0 145 43t47 147v1151h185v-1196q0 -150 -97.5 -228.5t-248.5 -78.5q-104 0 -174 29z" glyph-name="glyph501" horiz-adv-x="542"/><glyph d="M968 522.5q83 -73.5 83 -207.5q0 -152 -99.5 -246t-255.5 -94q-47 0 -101 11.5t-95 29.5l28 152q76 -35 152 -35q84 0 135 50t51 134q0 195 -297 195v106l207 226q0 88 -52 140t-151 52q-104 0 -162.5 -64.5t-58.5 -191.5v-780h-178v805q0 188 111.5 288.5t294.5 100.5 q176 0 276 -95t100 -272l-208 -217q137 -14 220 -87.5z" glyph-name="uni1E9E.aalt" horiz-adv-x="1126"/><glyph d="M834 254h-515l-88 -254h-182l426 1165h203l430 -1165h-186zM782 403l-207 592l-204 -592h411z" glyph-name="A.c2sc" horiz-adv-x="1157"/><glyph d="M602 1300h-133l145 250h234zM834 254h-515l-88 -254h-182l426 1165h203l430 -1165h-186zM782 403l-207 592l-204 -592h411z" glyph-name="Aacute.aalt" horiz-adv-x="1157"/><glyph d="M771 1372.5q-83 -65.5 -196 -65.5t-196.5 65.5t-99.5 183.5h120q12 -61 59.5 -96t116.5 -35q68 0 113 34t57 97h127q-18 -118 -101 -183.5zM834 254h-515l-88 -254h-182l426 1165h203l430 -1165h-186zM782 403l-207 592l-204 -592h411z" glyph-name="Abreve.aalt" horiz-adv-x="1157"/><glyph d="M610 1599h-125l107 216h196zM769 1364q-83 -66 -196 -66t-194.5 66t-95.5 178h118q12 -61 58.5 -96t113.5 -35q68 0 112 35t58 96h125q-16 -112 -99 -178zM834 254h-515l-88 -254h-182l426 1165h203l430 -1165h-186zM782 403l-207 592l-204 -592h411z" glyph-name="uni1EAE.aalt" horiz-adv-x="1157"/><glyph d="M771 1372.5q-83 -65.5 -196 -65.5t-196.5 65.5t-99.5 183.5h120q12 -61 59.5 -96t116.5 -35q68 0 113 34t57 97h127q-18 -118 -101 -183.5zM652.5 -169q31.5 -28 31.5 -81t-31.5 -80.5t-77.5 -27.5q-43 0 -74.5 27.5t-31.5 80.5t31.5 81t74.5 28q46 0 77.5 -28zM834 254 h-515l-88 -254h-182l426 1165h203l430 -1165h-186zM782 403l-207 592l-204 -592h411z" glyph-name="uni1EB6.aalt" horiz-adv-x="1157"/><glyph d="M543 1815l106 -216h-125l-174 216h193zM769 1364q-83 -66 -196 -66t-194.5 66t-95.5 178h118q12 -61 58.5 -96t113.5 -35q68 0 112 35t58 96h125q-16 -112 -99 -178zM834 254h-515l-88 -254h-182l426 1165h203l430 -1165h-186zM782 403l-207 592l-204 -592h411z" glyph-name="uni1EB0.aalt" horiz-adv-x="1157"/><glyph d="M556 1650.5q17 18.5 17 43.5q0 37 -38.5 58.5t-112.5 21.5v84q18 2 55 2q106 0 167 -42t61 -114q0 -55 -37 -95t-103 -65l-67 68q41 20 58 38.5zM769 1364q-83 -66 -196 -66t-194.5 66t-95.5 178h118q12 -61 58.5 -96t113.5 -35q68 0 112 35t58 96h125q-16 -112 -99 -178 zM834 254h-515l-88 -254h-182l426 1165h203l430 -1165h-186zM782 403l-207 592l-204 -592h411z" glyph-name="uni1EB2.aalt" horiz-adv-x="1157"/><glyph d="M866 1776q-37 -80 -81 -121t-99 -41q-31 0 -56.5 10t-62.5 31q-57 35 -94 35q-33 0 -57.5 -19.5t-44.5 -60.5l-88 39q29 82 78 120.5t106 38.5q33 0 61.5 -11t65.5 -32q6 -2 33.5 -17t52.5 -15q35 0 55.5 21.5t44.5 66.5zM769 1364q-83 -66 -196 -66t-194.5 66t-95.5 178 h118q12 -61 58.5 -96t113.5 -35q68 0 112 35t58 96h125q-16 -112 -99 -178zM834 254h-515l-88 -254h-182l426 1165h203l430 -1165h-186zM782 403l-207 592l-204 -592h411z" glyph-name="uni1EB4.aalt" horiz-adv-x="1157"/><glyph d="M850 1548l-213 -233h-123l-227 233h176l112 -121l115 121h160zM834 254h-515l-88 -254h-182l426 1165h203l430 -1165h-186zM782 403l-207 592l-204 -592h411z" glyph-name="uni01CD.aalt" horiz-adv-x="1157"/><glyph d="M690 1321l-112 113l-109 -113h-176l235 242h107l221 -242h-166zM834 254h-515l-88 -254h-182l426 1165h203l430 -1165h-186zM782 403l-207 592l-204 -592h411z" glyph-name="Acircumflex.aalt" horiz-adv-x="1157"/><glyph d="M1049 1704l-179 -215h-125l109 215h195zM635 1522l223 -211h-166l-114 98l-111 -98h-174l235 211h107zM834 254h-515l-88 -254h-182l426 1165h203l430 -1165h-186zM782 403l-207 592l-204 -592h411z" glyph-name="uni1EA4.aalt" horiz-adv-x="1157"/><glyph d="M690 1321l-112 113l-109 -113h-176l235 242h107l221 -242h-166zM652.5 -169q31.5 -28 31.5 -81t-31.5 -80.5t-77.5 -27.5q-43 0 -74.5 27.5t-31.5 80.5t31.5 81t74.5 28q46 0 77.5 -28zM834 254h-515l-88 -254h-182l426 1165h203l430 -1165h-186zM782 403l-207 592 l-204 -592h411z" glyph-name="uni1EAC.aalt" horiz-adv-x="1157"/><glyph d="M786 1489l-174 215h191l106 -215h-123zM635 1522l223 -211h-166l-114 98l-111 -98h-174l235 211h107zM834 254h-515l-88 -254h-182l426 1165h203l430 -1165h-186zM782 403l-207 592l-204 -592h411z" glyph-name="uni1EA6.aalt" horiz-adv-x="1157"/><glyph d="M905.5 1707q59.5 -42 59.5 -114q0 -106 -140 -161l-65 69q76 37 76 80q0 39 -39 59.5t-115 20.5v86q20 2 55 2q109 0 168.5 -42zM635 1522l223 -211h-166l-114 98l-111 -98h-174l235 211h107zM834 254h-515l-88 -254h-182l426 1165h203l430 -1165h-186zM782 403l-207 592 l-204 -592h411z" glyph-name="uni1EA8.aalt" horiz-adv-x="1157"/><glyph d="M414.5 1643.5q-23.5 -19.5 -43.5 -60.5l-90 39q31 82 80 121t104 39q33 0 62.5 -11.5t66.5 -31.5q55 -33 84 -33q35 0 56.5 22.5t45.5 65.5l86 -45q-37 -80 -81 -121t-99 -41q-49 0 -119 41q-61 35 -94 35q-35 0 -58.5 -19.5zM635 1522l223 -211h-166l-114 98l-111 -98 h-174l235 211h107zM834 254h-515l-88 -254h-182l426 1165h203l430 -1165h-186zM782 403l-207 592l-204 -592h411z" glyph-name="uni1EAA.aalt" horiz-adv-x="1157"/><glyph d="M325.5 1367q-28.5 28 -28.5 79q0 53 28.5 80.5t75.5 27.5t76 -27.5t29 -80.5t-28.5 -80t-76.5 -27q-47 0 -75.5 28zM675 1367q-30 28 -30 79q0 53 28.5 80.5t78.5 27.5q45 0 73.5 -27.5t28.5 -80.5q0 -51 -28.5 -79t-73.5 -28q-47 0 -77 28zM834 254h-515l-88 -254h-182 l426 1165h203l430 -1165h-186zM782 403l-207 592l-204 -592h411z" glyph-name="Adieresis.aalt" horiz-adv-x="1157"/><glyph d="M652.5 -169q31.5 -28 31.5 -81t-31.5 -80.5t-77.5 -27.5q-43 0 -74.5 27.5t-31.5 80.5t31.5 81t74.5 28q46 0 77.5 -28zM834 254h-515l-88 -254h-182l426 1165h203l430 -1165h-186zM782 403l-207 592l-204 -592h411z" glyph-name="uni1EA0.aalt" horiz-adv-x="1157"/><glyph d="M657 1300h-133l-254 250h240zM834 254h-515l-88 -254h-182l426 1165h203l430 -1165h-186zM782 403l-207 592l-204 -592h411z" glyph-name="Agrave.aalt" horiz-adv-x="1157"/><glyph d="M453 1327q141 39 141 96q0 39 -44 61.5t-128 20.5v103q20 2 57 2q129 0 200 -46t71 -132q0 -70 -60.5 -117t-169.5 -72zM834 254h-515l-88 -254h-182l426 1165h203l430 -1165h-186zM782 403l-207 592l-204 -592h411z" glyph-name="uni1EA2.aalt" horiz-adv-x="1157"/><glyph d="M821 1362h-491v115h491v-115zM834 254h-515l-88 -254h-182l426 1165h203l430 -1165h-186zM782 403l-207 592l-204 -592h411z" glyph-name="Amacron.aalt" horiz-adv-x="1157"/><glyph d="M987 -313q27 0 51 4l-10 -105q-33 -16 -98 -16q-82 0 -128 43t-46 113t44 143.5t118 140.5l-84 244h-515l-88 -254h-182l426 1165h203l430 -1165h-92q-102 -129 -103 -229q0 -84 74 -84zM782 403l-207 592l-204 -592h411z" glyph-name="Aogonek.aalt" horiz-adv-x="1157"/><glyph d="M419.5 1321q-59.5 57 -59.5 143q0 88 59.5 145.5t155.5 57.5q94 0 155 -58.5t61 -144.5t-60.5 -143t-155.5 -57q-96 0 -155.5 57zM645.5 1391.5q24.5 29.5 24.5 72.5q0 45 -24.5 74t-70.5 29q-49 0 -73.5 -29t-24.5 -74q0 -43 25.5 -72.5t72.5 -29.5q46 0 70.5 29.5z M834 254h-515l-88 -254h-182l426 1165h203l430 -1165h-186zM782 403l-207 592l-204 -592h411z" glyph-name="Aring.aalt" horiz-adv-x="1157"/><glyph d="M893 1507q-74 -190 -197 -190q-35 0 -62.5 14.5t-66.5 40.5q-37 25 -59.5 37t-48.5 12q-35 0 -60.5 -23.5t-46.5 -70.5l-94 41q29 96 83 144.5t116 48.5q39 0 69.5 -16.5t71.5 -45.5q35 -25 55.5 -36t42.5 -11q35 0 56.5 28.5t44.5 75.5zM834 254h-515l-88 -254h-182 l426 1165h203l430 -1165h-186zM782 403l-207 592l-204 -592h411z" glyph-name="Atilde.aalt" horiz-adv-x="1157"/><glyph d="M874 1010v-334h433v-160h-433v-358h500v-158h-678v254h-340l-116 -254h-191l563 1165h762v-155h-500zM696 403v584l-270 -584h270z" glyph-name="AE.aalt" horiz-adv-x="1488"/><glyph d="M954.5 522.5q61.5 -71.5 61.5 -194.5q0 -152 -103.5 -240t-279.5 -88h-459v1165h391q184 0 278.5 -72.5t94.5 -215.5q0 -174 -158 -261q113 -22 174.5 -93.5zM356 666h199q98 0 148.5 49t50.5 133q0 86 -50.5 125t-148.5 39h-199v-346zM819 344q0 88 -49 135t-166 47 h-248v-374h240q223 -1 223 192z" glyph-name="B.aalt" horiz-adv-x="1089"/><glyph d="M1026 1067l-84 -133q-55 43 -124.5 70.5t-145.5 27.5q-172 0 -278.5 -112.5t-106.5 -337.5q0 -219 107.5 -334t279.5 -115q145 0 291 109l73 -138q-61 -53 -161.5 -92t-223.5 -39q-152 0 -279.5 66.5t-204.5 203t-77 337.5q0 205 78 343t205 204.5t276 66.5 q217 0 375 -127z" glyph-name="C.aalt" horiz-adv-x="1114"/><glyph d="M655 1300h-133l146 250h233zM1026 1067l-84 -133q-55 43 -124.5 70.5t-145.5 27.5q-172 0 -278.5 -112.5t-106.5 -337.5q0 -219 107.5 -334t279.5 -115q145 0 291 109l73 -138q-61 -53 -161.5 -92t-223.5 -39q-152 0 -279.5 66.5t-204.5 203t-77 337.5q0 205 78 343 t205 204.5t276 66.5q217 0 375 -127z" glyph-name="Cacute.aalt" horiz-adv-x="1114"/><glyph d="M903 1548l-213 -233h-123l-227 233h176l113 -121l114 121h160zM1026 1067l-84 -133q-55 43 -124.5 70.5t-145.5 27.5q-172 0 -278.5 -112.5t-106.5 -337.5q0 -219 107.5 -334t279.5 -115q145 0 291 109l73 -138q-61 -53 -161.5 -92t-223.5 -39q-152 0 -279.5 66.5 t-204.5 203t-77 337.5q0 205 78 343t205 204.5t276 66.5q217 0 375 -127z" glyph-name="Ccaron.aalt" horiz-adv-x="1114"/><glyph d="M803 -160q49 -39 49 -100q0 -80 -63.5 -125t-163.5 -45q-43 0 -87 12t-69 29l25 96q18 -16 53 -27.5t67 -11.5q47 0 76 17.5t29 50.5q0 29 -25.5 46t-60.5 17q-45 0 -74 -12l-51 59l78 131q-137 14 -249 85t-178.5 201t-66.5 317q0 205 78 343t205 204.5t276 66.5 q217 0 375 -127l-84 -133q-55 43 -124.5 70.5t-145.5 27.5q-172 0 -278.5 -112.5t-106.5 -337.5q0 -219 107.5 -334t279.5 -115q145 0 291 109l73 -138q-57 -47 -147 -85.5t-203 -45.5l-70 -102q16 8 62 8q74 0 123 -39z" glyph-name="Ccedilla.aalt" horiz-adv-x="1114"/><glyph d="M718 1533q36 -30 36 -87t-36 -88t-87 -31t-86 31t-35 88t35 87t86 30t87 -30zM1026 1067l-84 -133q-55 43 -124.5 70.5t-145.5 27.5q-172 0 -278.5 -112.5t-106.5 -337.5q0 -219 107.5 -334t279.5 -115q145 0 291 109l73 -138q-61 -53 -161.5 -92t-223.5 -39 q-152 0 -279.5 66.5t-204.5 203t-77 337.5q0 205 78 343t205 204.5t276 66.5q217 0 375 -127z" glyph-name="Cdotaccent.aalt" horiz-adv-x="1114"/><glyph d="M174 1165h365q268 0 421.5 -138t153.5 -433q0 -301 -155.5 -447.5t-419.5 -146.5h-365v1165zM512 158q209 0 311.5 102t102.5 332q0 223 -102.5 320.5t-311.5 97.5h-154v-852h154z" glyph-name="D.aalt" horiz-adv-x="1208"/><glyph d="M960.5 1027q153.5 -138 153.5 -433q0 -301 -155.5 -447.5t-419.5 -146.5h-365v518h-98v111h98v536h365q268 0 421.5 -138zM823.5 260q102.5 102 102.5 332q0 223 -102.5 320.5t-311.5 97.5h-154v-381h224v-111h-224v-360h154q209 0 311.5 102z" glyph-name="Eth.aalt" horiz-adv-x="1208"/><glyph d="M850 1548l-213 -233h-123l-227 233h176l112 -121l115 121h160zM174 1165h365q268 0 421.5 -138t153.5 -433q0 -301 -155.5 -447.5t-419.5 -146.5h-365v1165zM512 158q209 0 311.5 102t102.5 332q0 223 -102.5 320.5t-311.5 97.5h-154v-852h154z" glyph-name="Dcaron.aalt" horiz-adv-x="1208"/><glyph d="M960.5 1027q153.5 -138 153.5 -433q0 -301 -155.5 -447.5t-419.5 -146.5h-365v518h-98v111h98v536h365q268 0 421.5 -138zM823.5 260q102.5 102 102.5 332q0 223 -102.5 320.5t-311.5 97.5h-154v-381h224v-111h-224v-360h154q209 0 311.5 102z" glyph-name="Dcroat.aalt" horiz-adv-x="1208"/><glyph d="M174 1165h748v-155h-564v-334h500v-158h-500v-360h564v-158h-748v1165z" glyph-name="E.aalt" horiz-adv-x="1036"/><glyph d="M580 1300h-134l146 250h233zM174 1165h748v-155h-564v-334h500v-158h-500v-360h564v-158h-748v1165z" glyph-name="Eacute.aalt" horiz-adv-x="1036"/><glyph d="M748.5 1372.5q-82.5 -65.5 -195.5 -65.5t-197 65.5t-100 183.5h121q12 -61 59 -96t117 -35q68 0 113 34t57 97h127q-19 -118 -101.5 -183.5zM174 1165h748v-155h-564v-334h500v-158h-500v-360h564v-158h-748v1165z" glyph-name="Ebreve.aalt" horiz-adv-x="1036"/><glyph d="M827 1548l-213 -233h-122l-228 233h176l113 -121l115 121h159zM174 1165h748v-155h-564v-334h500v-158h-500v-360h564v-158h-748v1165z" glyph-name="Ecaron.aalt" horiz-adv-x="1036"/><glyph d="M668 1321l-113 113l-109 -113h-176l236 242h106l222 -242h-166zM174 1165h748v-155h-564v-334h500v-158h-500v-360h564v-158h-748v1165z" glyph-name="Ecircumflex.aalt" horiz-adv-x="1036"/><glyph d="M1026 1704l-178 -215h-125l108 215h195zM612 1522l224 -211h-166l-115 98l-111 -98h-174l236 211h106zM174 1165h748v-155h-564v-334h500v-158h-500v-360h564v-158h-748v1165z" glyph-name="uni1EBE.aalt" horiz-adv-x="1036"/><glyph d="M668 1321l-113 113l-109 -113h-176l236 242h106l222 -242h-166zM658.5 -169q31.5 -28 31.5 -81t-31.5 -80.5t-76.5 -27.5q-43 0 -75 27.5t-32 80.5t32 81t75 28q45 0 76.5 -28zM174 1165h748v-155h-564v-334h500v-158h-500v-360h564v-158h-748v1165z" glyph-name="uni1EC6.aalt" horiz-adv-x="1036"/><glyph d="M764 1489l-174 215h190l107 -215h-123zM612 1522l224 -211h-166l-115 98l-111 -98h-174l236 211h106zM174 1165h748v-155h-564v-334h500v-158h-500v-360h564v-158h-748v1165z" glyph-name="uni1EC0.aalt" horiz-adv-x="1036"/><glyph d="M882.5 1674q59.5 -42 59.5 -113q0 -106 -139 -162l-66 69q76 37 76 80q0 39 -39 59.5t-115 20.5v86q20 2 56 2q108 0 167.5 -42zM612 1489l224 -211h-166l-115 98l-111 -98h-174l236 211h106zM174 1165h748v-155h-564v-334h500v-158h-500v-360h564v-158h-748v1165z" glyph-name="uni1EC2.aalt" horiz-adv-x="1036"/><glyph d="M392.5 1643.5q-23.5 -19.5 -44.5 -60.5l-90 39q31 82 80 121t104 39q33 0 63 -11.5t66 -31.5q55 -33 84 -33q35 0 56.5 22.5t46.5 65.5l86 -45q-37 -80 -81 -121t-99 -41q-49 0 -119 41q-61 35 -94 35q-35 0 -58.5 -19.5zM612 1522l224 -211h-166l-115 98l-111 -98h-174 l236 211h106zM174 1165h748v-155h-564v-334h500v-158h-500v-360h564v-158h-748v1165z" glyph-name="uni1EC4.aalt" horiz-adv-x="1036"/><glyph d="M303 1367q-29 28 -29 79q0 53 29 80.5t76 27.5t75.5 -27.5t28.5 -80.5t-28.5 -80t-75.5 -27t-76 28zM652.5 1367q-29.5 28 -29.5 79q0 53 28.5 80.5t77.5 27.5q45 0 73.5 -27.5t28.5 -80.5q0 -51 -28.5 -79t-73.5 -28q-47 0 -76.5 28zM174 1165h748v-155h-564v-334h500 v-158h-500v-360h564v-158h-748v1165z" glyph-name="Edieresis.aalt" horiz-adv-x="1036"/><glyph d="M642 1533q36 -30 36 -87t-36 -88t-87 -31t-86 31t-35 88t35 87t86 30t87 -30zM174 1165h748v-155h-564v-334h500v-158h-500v-360h564v-158h-748v1165z" glyph-name="Edotaccent.aalt" horiz-adv-x="1036"/><glyph d="M658.5 -169q31.5 -28 31.5 -81t-31.5 -80.5t-76.5 -27.5q-43 0 -75 27.5t-32 80.5t32 81t75 28q45 0 76.5 -28zM174 1165h748v-155h-564v-334h500v-158h-500v-360h564v-158h-748v1165z" glyph-name="uni1EB8.aalt" horiz-adv-x="1036"/><glyph d="M635 1300h-133l-254 250h239zM174 1165h748v-155h-564v-334h500v-158h-500v-360h564v-158h-748v1165z" glyph-name="Egrave.aalt" horiz-adv-x="1036"/><glyph d="M432 1327q141 39 141 96q0 39 -44 61.5t-128 20.5v103q20 2 58 2q129 0 199.5 -46t70.5 -132q0 -70 -60.5 -117t-168.5 -72zM174 1165h748v-155h-564v-334h500v-158h-500v-360h564v-158h-748v1165z" glyph-name="uni1EBA.aalt" horiz-adv-x="1036"/><glyph d="M799 1362h-492v115h492v-115zM174 1165h748v-155h-564v-334h500v-158h-500v-360h564v-158h-748v1165z" glyph-name="Emacron.aalt" horiz-adv-x="1036"/><glyph d="M944 -309l-8 -105q-37 -16 -98 -16q-84 0 -130 43t-46 113q0 66 41.5 136t111.5 138h-641v1165h748v-155h-564v-334h500v-158h-500v-360h564v-158q-102 -129 -103 -229q0 -84 76 -84q29 0 49 4z" glyph-name="Eogonek.aalt" horiz-adv-x="1036"/><glyph d="M872 1507q-74 -190 -196 -190q-35 0 -62.5 14.5t-66.5 40.5q-37 25 -59.5 37t-49.5 12q-35 0 -60.5 -23.5t-45.5 -70.5l-94 41q29 96 83 144.5t115 48.5q39 0 70 -16.5t72 -45.5q35 -25 55 -36t43 -11q35 0 56.5 28.5t43.5 75.5zM174 1165h748v-155h-564v-334h500v-158 h-500v-360h564v-158h-748v1165z" glyph-name="uni1EBC.aalt" horiz-adv-x="1036"/><glyph d="M897 1123.5q125 -70.5 193.5 -207t68.5 -324.5q0 -193 -71.5 -333t-194.5 -213t-275 -73t-271.5 71t-187 202t-67.5 305q0 49 6 100h871q-16 182 -111.5 280.5t-261.5 98.5q-88 0 -169 -27.5t-148 -74.5l-89 137q82 61 190.5 95t223.5 34q168 0 293 -70.5zM860 230.5 q90 97.5 107 277.5h-697q8 -164 102.5 -269.5t245.5 -105.5q152 0 242 97.5z" glyph-name="uni018F.aalt" horiz-adv-x="1251"/><glyph d="M174 1165h731v-155h-553v-398h490v-159h-490v-453h-178v1165z" glyph-name="F.aalt" horiz-adv-x="995"/><glyph d="M1085 651v-518q-66 -63 -187.5 -110.5t-254.5 -47.5q-150 0 -274.5 64.5t-200.5 202t-76 340.5q0 207 77 343t206 200.5t284 64.5q219 0 398 -129l-90 -139q-141 104 -314 104q-178 0 -276 -113.5t-98 -326.5q0 -217 100 -334t280 -117q131 0 252 68v301h-307v147h481z " glyph-name="G.aalt" horiz-adv-x="1181"/><glyph d="M826 1372.5q-83 -65.5 -195 -65.5q-113 0 -197 65.5t-100 183.5h121q12 -61 59 -96t117 -35q68 0 112.5 34t57.5 97h127q-19 -118 -102 -183.5zM1085 651v-518q-66 -63 -187.5 -110.5t-254.5 -47.5q-150 0 -274.5 64.5t-200.5 202t-76 340.5q0 207 77 343t206 200.5 t284 64.5q219 0 398 -129l-90 -139q-141 104 -314 104q-178 0 -276 -113.5t-98 -326.5q0 -217 100 -334t280 -117q131 0 252 68v301h-307v147h481z" glyph-name="Gbreve.aalt" horiz-adv-x="1181"/><glyph d="M905 1548l-213 -233h-123l-227 233h176l113 -121l114 121h160zM1085 651v-518q-66 -63 -187.5 -110.5t-254.5 -47.5q-150 0 -274.5 64.5t-200.5 202t-76 340.5q0 207 77 343t206 200.5t284 64.5q219 0 398 -129l-90 -139q-141 104 -314 104q-178 0 -276 -113.5 t-98 -326.5q0 -217 100 -334t280 -117q131 0 252 68v301h-307v147h481z" glyph-name="Gcaron.aalt" horiz-adv-x="1181"/><glyph d="M643 -422h-92l10 313h164zM1085 651v-518q-66 -63 -187.5 -110.5t-254.5 -47.5q-150 0 -274.5 64.5t-200.5 202t-76 340.5q0 207 77 343t206 200.5t284 64.5q219 0 398 -129l-90 -139q-141 104 -314 104q-178 0 -276 -113.5t-98 -326.5q0 -217 100 -334t280 -117 q131 0 252 68v301h-307v147h481z" glyph-name="Gcommaaccent.aalt" horiz-adv-x="1181"/><glyph d="M718 1533q36 -30 36 -87t-36 -88t-87 -31t-86 31t-35 88t35 87t86 30t87 -30zM1085 651v-518q-66 -63 -187.5 -110.5t-254.5 -47.5q-150 0 -274.5 64.5t-200.5 202t-76 340.5q0 207 77 343t206 200.5t284 64.5q219 0 398 -129l-90 -139q-141 104 -314 104 q-178 0 -276 -113.5t-98 -326.5q0 -217 100 -334t280 -117q131 0 252 68v301h-307v147h481z" glyph-name="Gdotaccent.aalt" horiz-adv-x="1181"/><glyph d="M1118 1165v-1165h-188v487h-572v-487h-184v1165h184v-516h572v516h188z" glyph-name="H.aalt" horiz-adv-x="1290"/><glyph d="M1208 840h-90v-840h-188v487h-572v-487h-184v840h-94v123h94v202h184v-202h572v202h188v-202h90v-123zM930 840h-572v-191h572v191z" glyph-name="Hbar.aalt" horiz-adv-x="1290"/><glyph d="M356 0h-182v1165h182v-1165z" glyph-name="I.aalt" horiz-adv-x="530"/><glyph d="M356 0h-182v1165h182v-1165z" glyph-name="dotlessi.aalt" horiz-adv-x="530"/><glyph d="M293 1300h-133l145 250h234zM356 0h-182v1165h182v-1165z" glyph-name="Iacute.aalt" horiz-adv-x="530"/><glyph d="M541 1548l-213 -233h-123l-228 233h177l112 -121l115 121h160zM356 0h-182v1165h182v-1165z" glyph-name="uni01CF.aalt" horiz-adv-x="530"/><glyph d="M381 1321l-113 113l-108 -113h-176l235 242h107l221 -242h-166zM356 0h-182v1165h182v-1165z" glyph-name="Icircumflex.aalt" horiz-adv-x="530"/><glyph d="M16.5 1367q-28.5 28 -28.5 79q0 53 28.5 80.5t75.5 27.5t76 -27.5t29 -80.5t-29 -80t-76 -27t-75.5 28zM365.5 1367q-29.5 28 -29.5 79q0 53 28.5 80.5t77.5 27.5q45 0 74 -27.5t29 -80.5q0 -51 -29 -79t-74 -28q-47 0 -76.5 28zM356 0h-182v1165h182v-1165z" glyph-name="Idieresis.aalt" horiz-adv-x="530"/><glyph d="M355 1533q36 -30 36 -87t-36 -88t-87 -31t-86 31t-35 88t35 87t86 30t87 -30zM356 0h-182v1165h182v-1165z" glyph-name="Idotaccent.aalt" horiz-adv-x="530"/><glyph d="M339 -169q32 -28 32 -81t-32 -80.5t-77 -27.5q-43 0 -74.5 27.5t-31.5 80.5t31.5 81t74.5 28q45 0 77 -28zM356 0h-182v1165h182v-1165z" glyph-name="uni1ECA.aalt" horiz-adv-x="530"/><glyph d="M348 1300h-133l-254 250h240zM356 0h-182v1165h182v-1165z" glyph-name="Igrave.aalt" horiz-adv-x="530"/><glyph d="M143 1327q141 39 142 96q0 39 -44 61.5t-128 20.5v103q20 2 57 2q129 0 199.5 -46t70.5 -132q0 -70 -60.5 -117t-168.5 -72zM356 0h-182v1165h182v-1165z" glyph-name="uni1EC8.aalt" horiz-adv-x="530"/><glyph d="M1133 344q0 -371 -394 -371q-127 0 -194 25l22 156q61 -16 142 -17q113 0 178 53.5t65 159.5v815h181v-821zM356 0h-182v1165h182v-1165z" glyph-name="IJ.aalt" horiz-adv-x="1304"/><glyph d="M512 1362h-492v115h492v-115zM356 0h-182v1165h182v-1165z" glyph-name="Imacron.aalt" horiz-adv-x="530"/><glyph d="M377 -309l-8 -105q-33 -16 -99 -16q-84 0 -130 43t-46 113q0 66 42 136t112 138h-74v1165h182v-1165q-102 -129 -102 -229q0 -84 74 -84q29 0 49 4z" glyph-name="Iogonek.aalt" horiz-adv-x="530"/><glyph d="M586 1507q-74 -190 -197 -190q-35 0 -62.5 14.5t-66.5 40.5q-37 25 -59.5 37t-48.5 12q-35 0 -60.5 -23.5t-46.5 -70.5l-94 41q29 96 83 144.5t116 48.5q39 0 69.5 -16.5t71.5 -45.5q35 -25 55.5 -36t42.5 -11q35 0 56.5 28.5t43.5 75.5zM356 0h-182v1165h182v-1165z" glyph-name="Itilde.aalt" horiz-adv-x="530"/><glyph d="M602 344q0 -371 -393 -371q-127 0 -195 25l23 156q61 -16 141 -17q113 0 178.5 53.5t65.5 159.5v815h180v-821z" glyph-name="J.c2sc" horiz-adv-x="776"/><glyph d="M602 344q0 -371 -393 -371q-127 0 -195 25l23 156q61 -16 141 -17q113 0 178.5 53.5t65.5 159.5v815h180v-821z" glyph-name="uni0237.aalt" horiz-adv-x="776"/><glyph d="M541 1300h-133l145 250h233zM602 344q0 -371 -393 -371q-127 0 -195 25l23 156q61 -16 141 -17q113 0 178.5 53.5t65.5 159.5v815h180v-821z" glyph-name="glyph580" horiz-adv-x="776"/><glyph d="M864 0l-391 492l-115 -130v-362h-184v1165h184v-575l478 575h227l-471 -536l510 -629h-238z" glyph-name="K.aalt" horiz-adv-x="1136"/><glyph d="M588 -422h-92l10 313h164zM864 0l-391 492l-115 -130v-362h-184v1165h184v-575l478 575h227l-471 -536l510 -629h-238z" glyph-name="Kcommaaccent.aalt" horiz-adv-x="1136"/><glyph d="M354 162h561v-162h-741v1165h180v-1003z" glyph-name="L.aalt" horiz-adv-x="962"/><glyph d="M356 1300h-133l146 250h233zM354 162h561v-162h-741v1165h180v-1003z" glyph-name="Lacute.aalt" horiz-adv-x="962"/><glyph d="M559 879h-92l10 315h166zM354 162h561v-162h-741v1165h180v-1003z" glyph-name="Lcaron.aalt" horiz-adv-x="962"/><glyph d="M543 -422h-92l10 313h164zM354 162h561v-162h-741v1165h180v-1003z" glyph-name="Lcommaaccent.aalt" horiz-adv-x="962"/><glyph d="M836.5 765q35.5 -32 35.5 -95q0 -61 -35.5 -94t-88.5 -33q-51 0 -88 32.5t-37 94.5q0 63 36.5 95t88.5 32q53 0 88.5 -32zM354 162h561v-162h-741v1165h180v-1003z" glyph-name="Ldot.aalt" horiz-adv-x="962"/><glyph d="M942 162v-162h-743v518l-152 -53v133l152 53v514h180v-452l176 61v-133l-176 -61v-418h563z" glyph-name="Lslash.aalt" horiz-adv-x="987"/><glyph d="M1378 1165v-1165h-180v840l-362 -822h-113l-379 822v-840h-170v1165h186l422 -911l416 911h180z" glyph-name="M.aalt" horiz-adv-x="1552"/><glyph d="M1151 1165v-1165h-166l-633 860v-860h-178v1165h166l631 -872v872h180z" glyph-name="N.aalt" horiz-adv-x="1325"/><glyph d="M684 1300h-133l145 250h234zM1151 1165v-1165h-166l-633 860v-860h-178v1165h166l631 -872v872h180z" glyph-name="Nacute.aalt" horiz-adv-x="1325"/><glyph d="M932 1548l-213 -233h-123l-227 233h176l112 -121l115 121h160zM1151 1165v-1165h-166l-633 860v-860h-178v1165h166l631 -872v872h180z" glyph-name="Ncaron.aalt" horiz-adv-x="1325"/><glyph d="M664 -422h-93l11 313h163zM1151 1165v-1165h-166l-633 860v-860h-178v1165h166l631 -872v872h180z" glyph-name="Ncommaaccent.aalt" horiz-adv-x="1325"/><glyph d="M1151 1165v-1231q0 -176 -99.5 -266t-312.5 -90q-111 0 -170 23l23 151q61 -12 129 -12q131 0 190.5 51t59.5 162v67l-619 840v-860h-178v1165h166l631 -872v872h180z" glyph-name="Eng.aalt" horiz-adv-x="1325"/><glyph d="M975 1507q-74 -190 -197 -190q-35 0 -62.5 14.5t-66.5 40.5q-37 25 -59.5 37t-48.5 12q-35 0 -60.5 -23.5t-46.5 -70.5l-94 41q29 96 83 144.5t116 48.5q39 0 69.5 -16.5t71.5 -45.5q35 -25 55.5 -36t42.5 -11q35 0 56.5 28.5t44.5 75.5zM1151 1165v-1165h-166l-633 860 v-860h-178v1165h166l631 -872v872h180z" glyph-name="Ntilde.aalt" horiz-adv-x="1325"/><glyph d="M373 46q-131 73 -206 210t-75 324q0 188 76 326t209 213t305 75q164 0 293 -72.5t202.5 -209t73.5 -318.5q0 -190 -74.5 -330.5t-205.5 -215.5t-297 -75q-170 0 -301 73zM876.5 195.5q88.5 56.5 136.5 160t48 240.5q0 197 -104.5 313.5t-276.5 116.5q-180 0 -287.5 -119 t-107.5 -319q0 -205 106.5 -327t282.5 -122q114 0 202.5 56.5z" glyph-name="O.c2sc" horiz-adv-x="1343"/><glyph d="M698 1300h-133l146 250h233zM373 46q-131 73 -206 210t-75 324q0 188 76 326t209 213t305 75q164 0 293 -72.5t202.5 -209t73.5 -318.5q0 -190 -74.5 -330.5t-205.5 -215.5t-297 -75q-170 0 -301 73zM876.5 195.5q88.5 56.5 136.5 160t48 240.5q0 197 -104.5 313.5 t-276.5 116.5q-180 0 -287.5 -119t-107.5 -319q0 -205 106.5 -327t282.5 -122q114 0 202.5 56.5z" glyph-name="Oacute.aalt" horiz-adv-x="1343"/><glyph d="M946 1548l-213 -233h-123l-227 233h176l113 -121l114 121h160zM373 46q-131 73 -206 210t-75 324q0 188 76 326t209 213t305 75q164 0 293 -72.5t202.5 -209t73.5 -318.5q0 -190 -74.5 -330.5t-205.5 -215.5t-297 -75q-170 0 -301 73zM876.5 195.5q88.5 56.5 136.5 160 t48 240.5q0 197 -104.5 313.5t-276.5 116.5q-180 0 -287.5 -119t-107.5 -319q0 -205 106.5 -327t282.5 -122q114 0 202.5 56.5z" glyph-name="uni01D1.aalt" horiz-adv-x="1343"/><glyph d="M786 1321l-112 113l-109 -113h-176l236 242h106l221 -242h-166zM373 46q-131 73 -206 210t-75 324q0 188 76 326t209 213t305 75q164 0 293 -72.5t202.5 -209t73.5 -318.5q0 -190 -74.5 -330.5t-205.5 -215.5t-297 -75q-170 0 -301 73zM876.5 195.5q88.5 56.5 136.5 160 t48 240.5q0 197 -104.5 313.5t-276.5 116.5q-180 0 -287.5 -119t-107.5 -319q0 -205 106.5 -327t282.5 -122q114 0 202.5 56.5z" glyph-name="Ocircumflex.aalt" horiz-adv-x="1343"/><glyph d="M1145 1704l-178 -215h-125l108 215h195zM731 1522l223 -211h-166l-114 98l-111 -98h-174l236 211h106zM373 46q-131 73 -206 210t-75 324q0 188 76 326t209 213t305 75q164 0 293 -72.5t202.5 -209t73.5 -318.5q0 -190 -74.5 -330.5t-205.5 -215.5t-297 -75 q-170 0 -301 73zM876.5 195.5q88.5 56.5 136.5 160t48 240.5q0 197 -104.5 313.5t-276.5 116.5q-180 0 -287.5 -119t-107.5 -319q0 -205 106.5 -327t282.5 -122q114 0 202.5 56.5z" glyph-name="uni1ED0.aalt" horiz-adv-x="1343"/><glyph d="M786 1321l-112 113l-109 -113h-176l236 242h106l221 -242h-166zM746.5 -169q31.5 -28 31.5 -81t-31.5 -80.5t-76.5 -27.5q-43 0 -75 27.5t-32 80.5t32 81t75 28q45 0 76.5 -28zM373 46q-131 73 -206 210t-75 324q0 188 76 326t209 213t305 75q164 0 293 -72.5t202.5 -209 t73.5 -318.5q0 -190 -74.5 -330.5t-205.5 -215.5t-297 -75q-170 0 -301 73zM876.5 195.5q88.5 56.5 136.5 160t48 240.5q0 197 -104.5 313.5t-276.5 116.5q-180 0 -287.5 -119t-107.5 -319q0 -205 106.5 -327t282.5 -122q114 0 202.5 56.5z" glyph-name="uni1ED8.aalt" horiz-adv-x="1343"/><glyph d="M883 1489l-174 215h190l107 -215h-123zM731 1522l223 -211h-166l-114 98l-111 -98h-174l236 211h106zM373 46q-131 73 -206 210t-75 324q0 188 76 326t209 213t305 75q164 0 293 -72.5t202.5 -209t73.5 -318.5q0 -190 -74.5 -330.5t-205.5 -215.5t-297 -75 q-170 0 -301 73zM876.5 195.5q88.5 56.5 136.5 160t48 240.5q0 197 -104.5 313.5t-276.5 116.5q-180 0 -287.5 -119t-107.5 -319q0 -205 106.5 -327t282.5 -122q114 0 202.5 56.5z" glyph-name="uni1ED2.aalt" horiz-adv-x="1343"/><glyph d="M1001.5 1707q59.5 -42 59.5 -114q0 -106 -139 -161l-66 69q76 37 76 80q0 39 -39 59.5t-115 20.5v86q20 2 56 2q108 0 167.5 -42zM731 1522l223 -211h-166l-114 98l-111 -98h-174l236 211h106zM373 46q-131 73 -206 210t-75 324q0 188 76 326t209 213t305 75 q164 0 293 -72.5t202.5 -209t73.5 -318.5q0 -190 -74.5 -330.5t-205.5 -215.5t-297 -75q-170 0 -301 73zM876.5 195.5q88.5 56.5 136.5 160t48 240.5q0 197 -104.5 313.5t-276.5 116.5q-180 0 -287.5 -119t-107.5 -319q0 -205 106.5 -327t282.5 -122q114 0 202.5 56.5z" glyph-name="uni1ED4.aalt" horiz-adv-x="1343"/><glyph d="M513 1643.5q-24 -19.5 -44 -60.5l-90 39q31 82 80 121t104 39q33 0 62.5 -11.5t66.5 -31.5q55 -33 84 -33q35 0 56.5 22.5t46.5 65.5l86 -45q-37 -80 -81 -121t-100 -41q-49 0 -118 41q-61 35 -95 35t-58 -19.5zM733 1522l223 -211h-165l-115 98l-111 -98h-174l236 211 h106zM373 46q-131 73 -206 210t-75 324q0 188 76 326t209 213t305 75q164 0 293 -72.5t202.5 -209t73.5 -318.5q0 -190 -74.5 -330.5t-205.5 -215.5t-297 -75q-170 0 -301 73zM876.5 195.5q88.5 56.5 136.5 160t48 240.5q0 197 -104.5 313.5t-276.5 116.5 q-180 0 -287.5 -119t-107.5 -319q0 -205 106.5 -327t282.5 -122q114 0 202.5 56.5z" glyph-name="uni1ED6.aalt" horiz-adv-x="1343"/><glyph d="M422 1367q-29 28 -29 79q0 53 29 80.5t76 27.5t75.5 -27.5t28.5 -80.5t-28.5 -80t-75.5 -27t-76 28zM771 1367q-30 28 -30 79q0 53 29 80.5t78 27.5q45 0 73.5 -27.5t28.5 -80.5q0 -51 -28.5 -79t-73.5 -28q-47 0 -77 28zM373 46q-131 73 -206 210t-75 324q0 188 76 326 t209 213t305 75q164 0 293 -72.5t202.5 -209t73.5 -318.5q0 -190 -74.5 -330.5t-205.5 -215.5t-297 -75q-170 0 -301 73zM876.5 195.5q88.5 56.5 136.5 160t48 240.5q0 197 -104.5 313.5t-276.5 116.5q-180 0 -287.5 -119t-107.5 -319q0 -205 106.5 -327t282.5 -122 q114 0 202.5 56.5z" glyph-name="Odieresis.aalt" horiz-adv-x="1343"/><glyph d="M746.5 -169q31.5 -28 31.5 -81t-31.5 -80.5t-76.5 -27.5q-43 0 -75 27.5t-32 80.5t32 81t75 28q45 0 76.5 -28zM373 46q-131 73 -206 210t-75 324q0 188 76 326t209 213t305 75q164 0 293 -72.5t202.5 -209t73.5 -318.5q0 -190 -74.5 -330.5t-205.5 -215.5t-297 -75 q-170 0 -301 73zM876.5 195.5q88.5 56.5 136.5 160t48 240.5q0 197 -104.5 313.5t-276.5 116.5q-180 0 -287.5 -119t-107.5 -319q0 -205 106.5 -327t282.5 -122q114 0 202.5 56.5z" glyph-name="uni1ECC.aalt" horiz-adv-x="1343"/><glyph d="M754 1300h-133l-254 250h239zM373 46q-131 73 -206 210t-75 324q0 188 76 326t209 213t305 75q164 0 293 -72.5t202.5 -209t73.5 -318.5q0 -190 -74.5 -330.5t-205.5 -215.5t-297 -75q-170 0 -301 73zM876.5 195.5q88.5 56.5 136.5 160t48 240.5q0 197 -104.5 313.5 t-276.5 116.5q-180 0 -287.5 -119t-107.5 -319q0 -205 106.5 -327t282.5 -122q114 0 202.5 56.5z" glyph-name="Ograve.aalt" horiz-adv-x="1343"/><glyph d="M551 1327q141 39 141 96q0 39 -44 61.5t-128 20.5v103q20 2 58 2q129 0 199.5 -46t70.5 -132q0 -70 -60.5 -117t-169.5 -72zM373 46q-131 73 -206 210t-75 324q0 188 76 326t209 213t305 75q164 0 293 -72.5t202.5 -209t73.5 -318.5q0 -190 -74.5 -330.5t-205.5 -215.5 t-297 -75q-170 0 -301 73zM876.5 195.5q88.5 56.5 136.5 160t48 240.5q0 197 -104.5 313.5t-276.5 116.5q-180 0 -287.5 -119t-107.5 -319q0 -205 106.5 -327t282.5 -122q114 0 202.5 56.5z" glyph-name="uni1ECE.aalt" horiz-adv-x="1343"/><glyph d="M1197 873.5q54 -121.5 54 -279.5q0 -190 -74.5 -330.5t-205.5 -215.5t-297 -75q-170 0 -301 73t-206 210t-75 324q0 186 74 324t206 213t302 77h4h4q74 0 145 -16q41 -6 78 -7q63 0 91 27t28 82v127h156v-119q0 -162 -136 -215q99 -78 153 -199.5zM876.5 195.5 q88.5 56.5 136.5 160t48 240.5q0 197 -104.5 313.5t-276.5 116.5q-180 0 -287.5 -119t-107.5 -319q0 -205 106.5 -327t282.5 -122q114 0 202.5 56.5z" glyph-name="Ohorn.aalt" horiz-adv-x="1343"/><glyph d="M698 1300h-133l146 250h233zM1197 873.5q54 -121.5 54 -279.5q0 -190 -74.5 -330.5t-205.5 -215.5t-297 -75q-170 0 -301 73t-206 210t-75 324q0 186 74 324t206 213t302 77h4h4q74 0 145 -16q41 -6 78 -7q63 0 91 27t28 82v127h156v-119q0 -162 -136 -215 q99 -78 153 -199.5zM876.5 195.5q88.5 56.5 136.5 160t48 240.5q0 197 -104.5 313.5t-276.5 116.5q-180 0 -287.5 -119t-107.5 -319q0 -205 106.5 -327t282.5 -122q114 0 202.5 56.5z" glyph-name="uni1EDA.aalt" horiz-adv-x="1343"/><glyph d="M746.5 -169q31.5 -28 31.5 -81t-31.5 -80.5t-76.5 -27.5q-43 0 -75 27.5t-32 80.5t32 81t75 28q45 0 76.5 -28zM1197 873.5q54 -121.5 54 -279.5q0 -190 -74.5 -330.5t-205.5 -215.5t-297 -75q-170 0 -301 73t-206 210t-75 324q0 186 74 324t206 213t302 77h4h4 q74 0 145 -16q41 -6 78 -7q63 0 91 27t28 82v127h156v-119q0 -162 -136 -215q99 -78 153 -199.5zM876.5 195.5q88.5 56.5 136.5 160t48 240.5q0 197 -104.5 313.5t-276.5 116.5q-180 0 -287.5 -119t-107.5 -319q0 -205 106.5 -327t282.5 -122q114 0 202.5 56.5z" glyph-name="uni1EE2.aalt" horiz-adv-x="1343"/><glyph d="M754 1300h-133l-254 250h239zM1197 873.5q54 -121.5 54 -279.5q0 -190 -74.5 -330.5t-205.5 -215.5t-297 -75q-170 0 -301 73t-206 210t-75 324q0 186 74 324t206 213t302 77h4h4q74 0 145 -16q41 -6 78 -7q63 0 91 27t28 82v127h156v-119q0 -162 -136 -215 q99 -78 153 -199.5zM876.5 195.5q88.5 56.5 136.5 160t48 240.5q0 197 -104.5 313.5t-276.5 116.5q-180 0 -287.5 -119t-107.5 -319q0 -205 106.5 -327t282.5 -122q114 0 202.5 56.5z" glyph-name="uni1EDC.aalt" horiz-adv-x="1343"/><glyph d="M551 1327q141 39 141 96q0 39 -44 61.5t-128 20.5v103q20 2 58 2q129 0 199.5 -46t70.5 -132q0 -70 -60.5 -117t-169.5 -72zM1197 873.5q54 -121.5 54 -279.5q0 -190 -74.5 -330.5t-205.5 -215.5t-297 -75q-170 0 -301 73t-206 210t-75 324q0 186 74 324t206 213t302 77 h4h4q74 0 145 -16q41 -6 78 -7q63 0 91 27t28 82v127h156v-119q0 -162 -136 -215q99 -78 153 -199.5zM876.5 195.5q88.5 56.5 136.5 160t48 240.5q0 197 -104.5 313.5t-276.5 116.5q-180 0 -287.5 -119t-107.5 -319q0 -205 106.5 -327t282.5 -122q114 0 202.5 56.5z" glyph-name="uni1EDE.aalt" horiz-adv-x="1343"/><glyph d="M991 1507q-74 -190 -196 -190q-35 0 -62.5 14.5t-66.5 40.5q-37 25 -59.5 37t-49.5 12q-35 0 -60.5 -23.5t-45.5 -70.5l-95 41q29 96 83.5 144.5t115.5 48.5q39 0 69.5 -16.5t71.5 -45.5q35 -25 55.5 -36t43.5 -11q35 0 56 28.5t44 75.5zM1197 873.5q54 -121.5 54 -279.5 q0 -190 -74.5 -330.5t-205.5 -215.5t-297 -75q-170 0 -301 73t-206 210t-75 324q0 186 74 324t206 213t302 77h4h4q74 0 145 -16q41 -6 78 -7q63 0 91 27t28 82v127h156v-119q0 -162 -136 -215q99 -78 153 -199.5zM876.5 195.5q88.5 56.5 136.5 160t48 240.5 q0 197 -104.5 313.5t-276.5 116.5q-180 0 -287.5 -119t-107.5 -319q0 -205 106.5 -327t282.5 -122q114 0 202.5 56.5z" glyph-name="uni1EE0.aalt" horiz-adv-x="1343"/><glyph d="M510 1554h190l-118 -245h-111zM836 1554h194l-207 -245h-112zM373 46q-131 73 -206 210t-75 324q0 188 76 326t209 213t305 75q164 0 293 -72.5t202.5 -209t73.5 -318.5q0 -190 -74.5 -330.5t-205.5 -215.5t-297 -75q-170 0 -301 73zM876.5 195.5q88.5 56.5 136.5 160 t48 240.5q0 197 -104.5 313.5t-276.5 116.5q-180 0 -287.5 -119t-107.5 -319q0 -205 106.5 -327t282.5 -122q114 0 202.5 56.5z" glyph-name="Ohungarumlaut.aalt" horiz-adv-x="1343"/><glyph d="M918 1362h-492v115h492v-115zM373 46q-131 73 -206 210t-75 324q0 188 76 326t209 213t305 75q164 0 293 -72.5t202.5 -209t73.5 -318.5q0 -190 -74.5 -330.5t-205.5 -215.5t-297 -75q-170 0 -301 73zM876.5 195.5q88.5 56.5 136.5 160t48 240.5q0 197 -104.5 313.5 t-276.5 116.5q-180 0 -287.5 -119t-107.5 -319q0 -205 106.5 -327t282.5 -122q114 0 202.5 56.5z" glyph-name="Omacron.aalt" horiz-adv-x="1343"/><glyph d="M1182.5 904q68.5 -132 68.5 -310q0 -190 -74.5 -330.5t-205.5 -215.5t-297 -75q-115 0 -207 33l-90 -190l-115 53l90 188q-123 76 -191.5 210t-68.5 313q0 188 76 326t209 213t305 75q109 0 201 -31l90 189l108 -52l-90 -188q123 -76 191.5 -208zM322.5 374 q37.5 -93 107.5 -153l377 785q-55 20 -127 20q-180 0 -287.5 -119t-107.5 -319q0 -121 37.5 -214zM876.5 195.5q88.5 56.5 136.5 160t48 240.5q0 115 -38 206t-108 146l-374 -788q68 -20 133 -21q114 0 202.5 56.5z" glyph-name="Oslash.aalt" horiz-adv-x="1343"/><glyph d="M991 1507q-74 -190 -196 -190q-35 0 -62.5 14.5t-66.5 40.5q-37 25 -59.5 37t-49.5 12q-35 0 -60.5 -23.5t-45.5 -70.5l-95 41q29 96 83.5 144.5t115.5 48.5q39 0 69.5 -16.5t71.5 -45.5q35 -25 55.5 -36t43.5 -11q35 0 56 28.5t44 75.5zM373 46q-131 73 -206 210 t-75 324q0 188 76 326t209 213t305 75q164 0 293 -72.5t202.5 -209t73.5 -318.5q0 -190 -74.5 -330.5t-205.5 -215.5t-297 -75q-170 0 -301 73zM876.5 195.5q88.5 56.5 136.5 160t48 240.5q0 197 -104.5 313.5t-276.5 116.5q-180 0 -287.5 -119t-107.5 -319 q0 -205 106.5 -327t282.5 -122q114 0 202.5 56.5z" glyph-name="Otilde.aalt" horiz-adv-x="1343"/><glyph d="M379 60.5q-127 60.5 -207 191.5t-80 332q0 203 80 333t208 189t275 59h723v-155h-491v-334h426v-160h-426v-358h491v-158h-727q-145 0 -272 60.5zM707 150v860h-56q-170 0 -272.5 -106.5t-102.5 -317.5q0 -139 49.5 -237.5t134.5 -148.5t191 -50h56z" glyph-name="OE.aalt" horiz-adv-x="1492"/><glyph d="M174 1165h404q205 0 311 -101t106 -276q0 -172 -111.5 -279.5t-308.5 -107.5h-223v-401h-178v1165zM549 559q125 0 193.5 60.5t68.5 168.5q0 109 -68.5 165.5t-193.5 56.5h-197v-451h197z" glyph-name="P.aalt" horiz-adv-x="1087"/><glyph d="M174 1165h178v-190h168q199 0 307.5 -102.5t108.5 -274.5t-110.5 -278.5t-293.5 -106.5h-180v-213h-178v1165zM498 369q123 0 188.5 60t65.5 169q0 106 -64.5 162.5t-189.5 56.5h-146v-448h146z" glyph-name="Thorn.aalt" horiz-adv-x="1028"/><glyph d="M1157 229.5q-94 -149.5 -256 -215.5l281 -131l-109 -149l-418 239q-164 4 -291.5 78t-199.5 210t-72 319q0 188 76 326t209 213t305 75q164 0 293 -72.5t202.5 -209t73.5 -318.5q0 -215 -94 -364.5zM391.5 261q106.5 -122 282.5 -122q115 0 203 56.5t136 160t48 240.5 q0 197 -104.5 313.5t-276.5 116.5q-180 0 -287.5 -119t-107.5 -319q0 -205 106.5 -327z" glyph-name="Q.aalt" horiz-adv-x="1343"/><glyph d="M825 0l-235 422h-232v-422h-184v1165h414q403 0 403 -356q0 -127 -55 -222t-162 -136l266 -451h-215zM358 575h215q113 0 171.5 58.5t58.5 165.5q0 106 -57.5 158.5t-172.5 52.5h-215v-435z" glyph-name="R.aalt" horiz-adv-x="1118"/><glyph d="M573 1300h-133l146 250h233zM825 0l-235 422h-232v-422h-184v1165h414q403 0 403 -356q0 -127 -55 -222t-162 -136l266 -451h-215zM358 575h215q113 0 171.5 58.5t58.5 165.5q0 106 -57.5 158.5t-172.5 52.5h-215v-435z" glyph-name="Racute.aalt" horiz-adv-x="1118"/><glyph d="M819 1548l-213 -233h-123l-227 233h176l113 -121l114 121h160zM825 0l-235 422h-232v-422h-184v1165h414q403 0 403 -356q0 -127 -55 -222t-162 -136l266 -451h-215zM358 575h215q113 0 171.5 58.5t58.5 165.5q0 106 -57.5 158.5t-172.5 52.5h-215v-435z" glyph-name="Rcaron.aalt" horiz-adv-x="1118"/><glyph d="M565 -422h-92l10 313h164zM825 0l-235 422h-232v-422h-184v1165h414q403 0 403 -356q0 -127 -55 -222t-162 -136l266 -451h-215zM358 575h215q113 0 171.5 58.5t58.5 165.5q0 106 -57.5 158.5t-172.5 52.5h-215v-435z" glyph-name="Rcommaaccent.aalt" horiz-adv-x="1118"/><glyph d="M874 1083l-73 -131q-61 43 -136 66.5t-151 23.5q-102 0 -158.5 -44t-56.5 -115q0 -55 34 -94t84 -65t140 -60q113 -43 181.5 -80t116.5 -102.5t48 -164.5q0 -156 -113.5 -250t-306.5 -94q-104 0 -206.5 29t-182.5 80l58 139q141 -88 323 -88q127 0 186.5 46t59.5 122 q0 80 -63.5 125t-192.5 94q-111 43 -179.5 81t-116.5 103.5t-48 163.5q0 147 103.5 236.5t287.5 89.5q200 0 362 -111z" glyph-name="S.aalt" horiz-adv-x="989"/><glyph d="M530 1300h-133l146 250h233zM874 1083l-73 -131q-61 43 -136 66.5t-151 23.5q-102 0 -158.5 -44t-56.5 -115q0 -55 34 -94t84 -65t140 -60q113 -43 181.5 -80t116.5 -102.5t48 -164.5q0 -156 -113.5 -250t-306.5 -94q-104 0 -206.5 29t-182.5 80l58 139q141 -88 323 -88 q127 0 186.5 46t59.5 122q0 80 -63.5 125t-192.5 94q-111 43 -179.5 81t-116.5 103.5t-48 163.5q0 147 103.5 236.5t287.5 89.5q200 0 362 -111z" glyph-name="Sacute.aalt" horiz-adv-x="989"/><glyph d="M778 1548l-213 -233h-123l-227 233h176l113 -121l114 121h160zM874 1083l-73 -131q-61 43 -136 66.5t-151 23.5q-102 0 -158.5 -44t-56.5 -115q0 -55 34 -94t84 -65t140 -60q113 -43 181.5 -80t116.5 -102.5t48 -164.5q0 -156 -113.5 -250t-306.5 -94q-104 0 -206.5 29 t-182.5 80l58 139q141 -88 323 -88q127 0 186.5 46t59.5 122q0 80 -63.5 125t-192.5 94q-111 43 -179.5 81t-116.5 103.5t-48 163.5q0 147 103.5 236.5t287.5 89.5q200 0 362 -111z" glyph-name="Scaron.aalt" horiz-adv-x="989"/><glyph d="M806 82q-97 -92 -267 -107l-70 -104q16 8 61 8q74 0 123 -39t49 -100q0 -80 -63.5 -125t-163.5 -45q-43 0 -87 12t-69 29l25 96q18 -16 53 -27.5t68 -11.5q47 0 75.5 17.5t28.5 50.5q0 29 -25.5 46t-60.5 17q-45 0 -73 -12l-52 59l78 129q-94 6 -183 34t-159 73l58 139 q141 -88 323 -88q127 0 186.5 46t59.5 122q0 80 -63.5 125t-192.5 94q-111 43 -179.5 81t-116.5 103.5t-48 163.5q0 147 103.5 236.5t287.5 89.5q201 0 362 -111l-73 -131q-61 43 -136 66.5t-151 23.5q-102 0 -158.5 -44t-56.5 -115q0 -55 34 -94t84 -65t140 -60 q113 -43 181.5 -80t116.5 -102.5t48 -164.5q0 -143 -97 -235z" glyph-name="Scedilla.c2sc" horiz-adv-x="989"/><glyph d="M492 -422h-93l11 313h163zM874 1083l-73 -131q-61 43 -136 66.5t-151 23.5q-102 0 -158.5 -44t-56.5 -115q0 -55 34 -94t84 -65t140 -60q113 -43 181.5 -80t116.5 -102.5t48 -164.5q0 -156 -113.5 -250t-306.5 -94q-104 0 -206.5 29t-182.5 80l58 139q141 -88 323 -88 q127 0 186.5 46t59.5 122q0 80 -63.5 125t-192.5 94q-111 43 -179.5 81t-116.5 103.5t-48 163.5q0 147 103.5 236.5t287.5 89.5q200 0 362 -111z" glyph-name="Scommaaccent.aalt" horiz-adv-x="989"/><glyph d="M993 1006h-372v-1006h-181v1006h-372v159h925v-159z" glyph-name="T.aalt" horiz-adv-x="1060"/><glyph d="M621 1006v-383h170v-111h-170v-512h-181v512h-155v111h155v383h-372v159h925v-159h-372z" glyph-name="Tbar.aalt" horiz-adv-x="1060"/><glyph d="M803 1548l-213 -233h-123l-227 233h176l112 -121l115 121h160zM993 1006h-372v-1006h-181v1006h-372v159h925v-159z" glyph-name="Tcaron.aalt" horiz-adv-x="1060"/><glyph d="M590 0l-86 -129q16 8 61 8q74 0 123 -39t49 -100q0 -80 -63.5 -125t-163.5 -45q-43 0 -86 12t-68 29l23 96q18 -16 53 -27.5t70 -11.5q45 0 74.5 17.5t29.5 50.5q0 29 -25.5 46t-62.5 17q-43 0 -72 -12l-53 59l94 154h-47v1006h-372v159h925v-159h-372v-1006h-31z" glyph-name="Tcommaaccent.c2sc" horiz-adv-x="1060"/><glyph d="M528 -422h-92l10 313h164zM993 1006h-372v-1006h-181v1006h-372v159h925v-159z" glyph-name="uni021A.aalt" horiz-adv-x="1060"/><glyph d="M1087 420q0 -227 -128 -337t-328 -110q-199 0 -328 110t-129 337v745h180v-770q0 -115 72 -185.5t205 -70.5q135 0 206.5 71t71.5 185v770h178v-745z" glyph-name="U.aalt" horiz-adv-x="1261"/><glyph d="M664 1300h-134l146 250h233zM1087 420q0 -227 -128 -337t-328 -110q-199 0 -328 110t-129 337v745h180v-770q0 -115 72 -185.5t205 -70.5q135 0 206.5 71t71.5 185v770h178v-745z" glyph-name="Uacute.aalt" horiz-adv-x="1261"/><glyph d="M911 1548l-213 -233h-123l-227 233h176l113 -121l115 121h159zM1087 420q0 -227 -128 -337t-328 -110q-199 0 -328 110t-129 337v745h180v-770q0 -115 72 -185.5t205 -70.5q135 0 206.5 71t71.5 185v770h178v-745z" glyph-name="uni01D3.aalt" horiz-adv-x="1261"/><glyph d="M752 1321l-113 113l-109 -113h-176l236 242h106l222 -242h-166zM1087 420q0 -227 -128 -337t-328 -110q-199 0 -328 110t-129 337v745h180v-770q0 -115 72 -185.5t205 -70.5q135 0 206.5 71t71.5 185v770h178v-745z" glyph-name="Ucircumflex.aalt" horiz-adv-x="1261"/></font>
</defs>
</svg>
