<svg xmlns="http://www.w3.org/2000/svg" fill="none" viewBox="0 0 128 128"><defs/><path fill="#141517" d="M0 0h128v128H0z"/><path fill="#fff" d="M53 27.2a3 3 0 01-1.6.4c-.4 0-.8 0-1.1-.3a2.5 2.5 0 01-1-1.7v-.7a15.6 15.6 0 002.6-1.6l1-1c.3-.3.5-.7.6-1.2a.6.6 0 00-.2-.5c-.2-.2-.5-.3-.9-.4h-.8a13 13 0 00-4.6.8l-2.3 1c-1 .4-1.7.8-2.5 1.4-.6.5-1.2 1-1.6 1.8-.4.6-.6 1.3-.7 2.1v1.5l.5 1.4.8 1.4 1 1.5 1 1.7a10.3 10.3 0 011.4 3.9c.1.7 0 1.5-.1 2.2a15.8 15.8 0 01-5.1 6.6c-1.4 1-2.8 1.8-4.3 2.4-1.4.5-3 .8-4.5.8-.9-.1-1.7-.3-2.5-.6-.9-.4-1.7-.8-2.4-1.4a6.2 6.2 0 01-1.8-2.1c-.5-.9-.7-2-.5-3 .2-1.2.6-2.4 1.3-3.4 1-1.2 2.2-2.3 3.4-3.2.1-.2.4-.1.9 0l1.2.7 1.2 1c.3.3.4.6.3.7l-.8.5-1.3.7-1.2.8a5 5 0 00-.9 1 3.5 3.5 0 00-.3 3.2c.2.5.6.8 1 1 .5.3 1 .5 1.6.6l1.8.2a9.2 9.2 0 005.6-1.8 7.4 7.4 0 002.9-4.7v-1.5l-.5-1.4-.8-1.3-1-1.4-1.2-1.6-.9-1.7a7 7 0 01-.4-1.8c0-.6 0-1.3.2-2 .3-1 .7-2 1.4-3a17.1 17.1 0 015.4-5l3.5-1.7a20.5 20.5 0 017.2-1.2 4 4 0 011.6.4A2.7 2.7 0 0156 20v1.5a10 10 0 01-2.9 5.6l-.2.2z"/><path fill="#fff" d="M50.2 31.7a1 1 0 01-1-.1l-.2-.3v-.7l.7-.7 2.3-1.3 2.4-1c1.1-2.1 2.2-4.2 3-6.4a1.3 1.3 0 011.1 0c.4.1.8.4 1.1.7.3.3.6.7.7 1.2a1.5 1.5 0 010 1.2l-.8 1.5 3.8-.3h1.5v.9a3.7 3.7 0 01-1 1.7c-.3.1-.5.3-.8.3h-3.2l-2 .3-.7 1.3-1 1.3-.2.4-1 1.5-1.3 2-1.4 2.4-1.3 2.3c-.4.7-.8 1.5-1 2.2l-.6 1.5c.6 0 1.2-.3 1.7-.6l1.6-1.5 1.4-1.7.7-.8c-1 2.4-2.1 4.6-3.6 6.6a6.8 6.8 0 01-2.5 1.3l-1 .2a2 2 0 01-1.1-.3c-.3-.2-.5-.5-.6-.8a3 3 0 01-.2-1 4.4 4.4 0 01.1-2l.2-.7 1-2.8a35.7 35.7 0 013.1-5.6l1.7-2.7.3-.6-1.9 1.1z"/><path fill="#fff" d="M66.7 35.5c-2.1 3.2-5.3 5.6-9 6.7v1.4a1 1 0 001 .8h1.2l1.7-.9c.7-.4 1.3-.9 1.9-1.5.8-.9 1-1.5 1-1.4a5 5 0 01-1.2 4.5 10.6 10.6 0 01-5 2.1h-.8a3.8 3.8 0 01-3.2-1.3c-.7-1-1-2.2-.7-3.4.2-1.3.6-2.6 1.2-3.7.8-1.4 1.7-2.7 2.7-4a16 16 0 015.8-4c.8-.3 1.6-.4 2.4-.4a2.1 2.1 0 011.7.8 2.3 2.3 0 01.4 2c0 .3-.2.7-.4 1-.2.5-.4 1-.7 1.3zM65.2 33c-.7.2-1.4.5-2 1a17.2 17.2 0 00-4.7 5.7 13.5 13.5 0 006.6-5.5c.2-.2.3-.3.3-.5 0-.1 0-.3.2-.4 0 0-.1-.3-.4-.2zM79.8 35.2l-.2.2-.5.2h-1l.8.5.5.8c.2.2.3.5.3.8.1.3.1.6 0 .8l-.2.5-.3.5-.6 1.1-.6 1.2a14.5 14.5 0 00-.8 2h.1c.6-.2 1.2-.5 1.7-1l1.5-1.4 1.5-1.7.5-.7c-.6 2.2-1.5 4.1-2.7 6l-1 .7-.6.5-.8.5a4.6 4.6 0 01-2.1.5 2.4 2.4 0 01-2-1 3 3 0 01-.3-2l-2.6 2c-.7.5-1.6.8-2.5.9-.6 0-1.2-.3-1.7-.6-.4-.3-.7-.7-1-1.2L65 44v-1.5l.3-1c.2-.8.5-1.6.9-2.3a26.6 26.6 0 013.5-4.9 18.8 18.8 0 014.9-3.4c.7-.4 1.6-.5 2.5-.6h.7l.7.2c.4.1.8.4 1 .7.3.4.4.8.5 1.2v1.4s.2.4-.1 1.5zm-3.3 0h.6l.8.3a.3.3 0 010-.3V35v-.2-.6-.6l-.3-.4-.5-.2c-.8 0-1.5.3-2.1.8-.8.5-1.5 1.2-2.2 1.9a21.9 21.9 0 00-3.4 5.8l-.2.9v1c.2.2.3.3.5.3h.7a20.6 20.6 0 005-4.9l.8-1.6.5-1.4-.2-.6zM104.4 41a33 33 0 01-3.3 3.8c-.6.7-1.3 1.2-2 1.7a4 4 0 01-2.2.7 3 3 0 01-1-.2 2 2 0 01-1-.7c-.2-.3-.4-.7-.4-1.1v-1.7a19.4 19.4 0 011.2-3.4l1-2 1.3-2.3a9.1 9.1 0 00.8-1.9l-.2.3-1 .9c-.5.3-1.5 1.3-2.2 2-.7.5-1.4 1.3-2 2a19.8 19.8 0 00-1 2.1 30.7 30.7 0 00-2 5.3c0 .2-.2.3-.5.3-.4 0-.7-.1-1-.3a3.8 3.8 0 01-1.3-1 1 1 0 01-.1-.3c.3-1.6.8-3.2 1.5-4.7.6-1.5 1.4-3 2.2-4.5l.6-1.2.5-.8a30.5 30.5 0 00-5.7 5.1 38 38 0 00-3 7.3c0 .2-.3.3-.6.3-.4 0-.7-.1-1-.3a3 3 0 01-1-.6 1 1 0 01-.3-.7 21 21 0 011.6-4.8l1-2.3 1.2-2.4 1.3-2.6c.5-.8.9-1.7 1.2-2.5h.8l1 .5.7.9c.3.3.4.6.5 1 .7-.6 1.6-1.1 2.4-1.6a6 6 0 012.5-.8l.6.3.7.5A3.8 3.8 0 0197 33l2.3-1.7c.8-.4 1.6-.7 2.5-.8.3 0 .6.2.8.4l.7.8.3 1.2c.1.3 0 .7-.1 1l-1.4 2.7-1.2 2.2-.9 1.4-.7 1.3c-.7 1.6-1.1 2.4-1 2.5.2.2 2.2-1.2 2.4-1.4a20.7 20.7 0 003.3-3.7l.8-1 .4-.7a1 1 0 01.7-.4.9.9 0 011 .8 1.1 1.1 0 01-.3.8l-1 1.4-1 1.3zM34.9 92.7c0 .2-.3.3-.6.4h-1l-1.1-.4c-.2-.2-.5-.3-.6-.6a16 16 0 013-7.2l2.4-2.3a23.7 23.7 0 015.2-2.9 54.1 54.1 0 016.3-1.6l3.8-.2h3.4l3.2.2 2.7.2H64c1 0 1.9 0 2.8-.2.8 0 1.6-.3 2.3-.6.2 0 .3 0 .3.4 0 .5-.1.9-.3 1.3 0 .5-.2 1-.4 1.4 0 .3-.2.6-.4.8l-2.7.7-2.8.2c-1 0-2 0-3.1-.2l-3.3-.4-3.6-.3c-1.2-.2-2.4-.2-3.6-.2H47l-2.3.3c-1 .2-2.1.5-3 1-1.1.5-2 1.2-2.9 2-1 1-1.7 2-2.4 3.2-.7 1.6-1.3 3.3-1.5 5zm14.6-11.2c.2-.1.4-.1.8 0a3.8 3.8 0 012 2 1.7 1.7 0 010 1.5 61.8 61.8 0 00-3.5 4l-3.4 4.5-3.1 4.7c-1 1.6-1.9 3.1-2.7 4.7l-2.1 4.2-1.4 3.6c0 .1-.1.1-.4 0a7.5 7.5 0 01-1.5-1.8l-.2-.8a21 21 0 011.1-4l2.2-4.6 2.9-4.9 3.1-4.9c1-1.6 2.2-3 3.2-4.5l3-3.7zM53.4 100.6c-1.5 1-3.2 2-5 2.5v1.4a1 1 0 001 .8h.5l.7-.1 1.7-.8 1.9-1.5 2-2.2.5-.7.5-.7a5 5 0 01-.5 3.7 10 10 0 01-2.8 3A9.2 9.2 0 0149 108h-.9a3.8 3.8 0 01-3.2-1.3 4.5 4.5 0 01-.7-3.4c.2-1.3.6-2.6 1.3-3.7a22.6 22.6 0 014.3-5.5 14.4 14.4 0 014.3-2.6 7 7 0 012.4-.4 2.5 2.5 0 011.7.8c.8 1 .3 2.3 0 3.1-1 2.3-2.6 4.2-4.8 5.5zm2.5-6.5c-.7.1-1.4.4-2 .9a12.4 12.4 0 00-3.4 3.7l-1.3 2a13.5 13.5 0 006.7-5.5l.2-.5.2-.4c0-.2 0-.3-.4-.2z"/><path fill="#fff" d="M69.4 104.7c-.2.4-.6.8-1.6 1.7-.5.5-1 1-1.7 1.3-.5.3-1.1.4-1.7.4a2 2 0 01-1.6-1.3c-.5-1-.8-2-1-3a56.9 56.9 0 01-8.2 4.7 1.2 1.2 0 01-1.2 0 .9.9 0 01-.4-.5v-.3c0-.3.2-.6.5-.8a44.4 44.4 0 009.1-5.5v-2.3-2.2l-.9 1.3-1.5 2a.4.4 0 01-.4 0l-.5-.3-.4-.5a.4.4 0 010-.4l1-1.6 1.4-2 2.1-3c.3-.3.5-.6.9-.8.3-.2.6-.4 1-.4.5 0 .8.3 1 1v6.3a40.5 40.5 0 006.5-6.3c.6.1 1.3.5 1.5 1 .2.6-.8 1.9-3.4 4.1a256 256 0 01-4.5 3.8c.1 2.2.4 3.2.8 3.2l.6-.1.7-.6.8-.8c.6-.7.7-1 .8-.9.1 0 .8 1.6.3 2.8zM38.3 74.1a21.9 21.9 0 01-5.7 5c-.9.5-1.9 1-3 1.4-.9.3-1.9.4-2.8.4-.7-.1-1.4-.3-2-.7-.6-.3-1-.8-1.4-1.3-.4-.6-.7-1.3-.9-2-.1-.7-.2-1.5-.1-2.3a39.3 39.3 0 015.2-12.4 58.3 58.3 0 016.6-8.6 32.2 32.2 0 017.6-5.7c1.2-.5 2.5-.8 3.7-.8.7 0 1.3 0 1.9.3.4 0 .8.3 1.1.6.3.3.5.7.5 1v1.4c0 .6-.3 1.1-.5 1.6a18.3 18.3 0 01-2.1 3.6 34.2 34.2 0 01-1.7 2.1l-.5.4a4 4 0 01-.6.3h-1.4l-1.2-.7 1.2-1.2A19.5 19.5 0 0046 51l.2-.5v-.3a.4.4 0 00-.2-.5l-.8-.2c-1 .2-1.8.5-2.5 1L39.8 53l-2.8 3-2.7 3.4c-.9 1-1.6 2.3-2.4 3.3l-1.6 2.7L29 68l-1 2.9-.4 1.6-.4 1.4c-.2.9-.2 1.8 0 2.7a1.4 1.4 0 001.4 1c.8.1 1.6 0 2.4-.3.8-.3 1.6-.7 2.3-1.2a18.5 18.5 0 004.5-4.3l1-1 2.4-3.5c.2 0-.8 1.6-1.7 4l-1.2 3z"/><path fill="#fff" d="M52.4 65a16.7 16.7 0 01-8.9 6.7V73a1 1 0 00.9.8h.5l.7-.1a6 6 0 001.7-.8l2-1.5c1.3-1.3 1.7-2.4 2-2.2.2.1 0 1.1-.2 1.9a7.3 7.3 0 01-2.3 3.3 9.9 9.9 0 01-3.6 2 6.6 6.6 0 01-2.3.1 3.7 3.7 0 01-3.1-1.2 4.5 4.5 0 01-.7-3.5c.1-1.3.6-2.5 1.2-3.7a25.3 25.3 0 014.3-5.5 16.2 16.2 0 014.4-2.5c.7-.3 1.5-.4 2.3-.4a2.4 2.4 0 011.8.7 2.3 2.3 0 01.3 2c0 .5-.1.8-.3 1.2-.2.4-.4.9-.7 1.2zM51 62.5c-.8.2-1.4.5-2 .9a14.9 14.9 0 00-3.5 3.7l-1.2 2a13.9 13.9 0 006.6-5.5l.3-.4.1-.4c0-.2 0-.3-.3-.2zM63.9 74.3a9 9 0 01-2.1 1.7c-.6.4-1.4.6-2 .7l-1.2-.2c-.4-.2-.7-.4-.9-.7l-.5-1.2V73a22.2 22.2 0 011.3-3.3l1-2 1.3-2.3.5-1 .3-.9-1.4 1.2a30.5 30.5 0 00-4.2 4.1 33.2 33.2 0 00-2.9 7.1c0 .2-.3.3-.6.3l-1-.3-.9-.6a1 1 0 01-.3-.7 21 21 0 011.5-4.7l1.1-2.3 1.2-2.4 1.3-2.6 1.2-2.3c.2-.2.5-.2.8 0 .3 0 .7.2 1 .4l.7.9c.3.3.4.6.5 1a16 16 0 012.3-1.7c.8-.5 1.6-.7 2.5-.8.3 0 .6.1.8.3a3.5 3.5 0 011 2l-.1 1-1.4 2.7-1.3 2.2-.8 1.4a14 14 0 00-1.2 2.6c-.2.8-.4 1.2-.2 1.3.1.2 1.2-.7 2-1.4 1-.8 1.8-1.8 2.6-2.8l.4-.4.2-.3a10 10 0 01-2.5 5.7z"/><path fill="#fff" d="M69.6 61.2c-.3.1-.6.1-.8 0a.8.8 0 01-.4-.5V60c.1-.3.4-.5.6-.7a25.7 25.7 0 014.6-2.4c1.2-2 2.3-4.1 3.2-6.3a1.3 1.3 0 011 0c.5.2.9.4 1.2.8a3.2 3.2 0 01.8 1.8l-.1.6-.8 1.4c1.2-.2 2.5-.3 3.7-.3h1.5v1l-.5.9a4 4 0 01-.6.7 1 1 0 01-.7.3h-3.2c-.6 0-1.3.2-2 .4l-.8 1.3-.8 1.2-.2.4-1 1.4-1.2 2.1-1.4 2.3-1.4 2.4-1 2.1-.5 1.6v.1a.1.1 0 00.1 0c.6-.2 1.2-.5 1.6-.9l1.6-1.4.4-.5c.3-.3.4-.5.5-.4-.4 1.8-1.2 3.5-2.4 5l-.6.4-.9.5-1 .4-1 .2A2 2 0 0166 76a2 2 0 01-.6-.8 3 3 0 01-.2-1 4.4 4.4 0 01.1-2l.2-.7 1-2.8 1.5-2.9 1.6-2.8 1.7-2.6.3-.6-2 1.3z"/><path fill="#fff" d="M86 65c-2 3.2-5.2 5.5-8.8 6.7V73a1 1 0 00.8.8h.5l.8-.1a6 6 0 001.6-.8l2-1.5a18.8 18.8 0 003-3.6l1-1.4a1 1 0 01.7-.4c.2 0 .4 0 .6.2l.4.6c.2.9-3.2 4.7-3.2 4.7l-2.9 3a9.8 9.8 0 01-5 2h-.9a3.8 3.8 0 01-3.1-1.2c-.7-1-1-2.2-.7-3.4a11 11 0 011.2-3.8 19 19 0 014.3-5.4 14.6 14.6 0 014.4-2.6c.7-.3 1.5-.4 2.3-.4a2.1 2.1 0 011.8.8 2.3 2.3 0 01.3 2 5.8 5.8 0 01-1 2.3zm-1.4-2.4c-.7.2-1.4.5-2 .9a17.1 17.1 0 00-4.7 5.7 14.6 14.6 0 006.7-5.5l.2-.4.1-.4c.2-.2 0-.3-.3-.2z"/><path fill="#fff" d="M97 71.1a41.3 41.3 0 01-3.8 3.8c-.7.5-1.4 1-2.2 1.3a5 5 0 01-2.4.5c-.4 0-.7-.2-1-.4-.4-.1-.6-.4-.8-.7l-.3-1v-1.3c.2-.6.3-1.2.6-1.7l.8-1.6 1.1-1.4 1.2-1.4.7-.8.8-1 .6-.5c.4-.3 1-.5 1.5-.5a3 3 0 00-1 0h-.4l-.7.2h-1.2a1.6 1.6 0 01-1.4 1.8 1.4 1.4 0 01-1-2.1c.2-.3.5-.5.8-.6v-1c0-.6.3-1.2.6-1.6l1.1-1.6.6-.8.6-1.1.8.4.7.6.4.7v1l-.1.6-.3.6-1.2 1.3c0 .1 0 .1.1 0l.8-.4 1.2-.8 1.4-.8a18 18 0 001.8-1.4l.4.2.5.4.5.4.2.2v1.1c-.2.6-.5 1-.8 1.5a21 21 0 01-1.3 1.7l-1.5 1.8-1 1-.9 1-.7 1a17.5 17.5 0 00-1.5 2c-.2.2-.3.5-.3.8 0 0 0 .2.2.2.3 0 .6 0 .9-.2l1-.7a11.4 11.4 0 002.4-2.3l-.2.3 1.6-2 1-1.6a.4.4 0 01.7.2l.5.4.4.5a.5.5 0 010 .5l-1 1.4-1.5 2z"/></svg>