<svg xmlns="http://www.w3.org/2000/svg" fill="none" viewBox="0 0 128 128"><defs/><path fill="#141517" d="M0 0h128v128H0z"/><path fill="#fff" d="M52.7 26.4c-.5.3-1 .5-1.7.5-.4 0-.8 0-1.2-.3a3.1 3.1 0 01-1-1.7v-.7l1.5-.7 1.2-1a6 6 0 001.2-1c.3-.3.4-.7.5-1.2a.7.7 0 000-.7c-.3-.2-.6-.3-1-.2H49l-2.4.7c-.9.3-1.7.7-2.4 1.2-.9.3-1.7.7-2.4 1.2-.7.6-1.3 1.2-1.7 2-.4.6-.7 1.3-.7 2.1v1.5c.1.6.4 1.1.7 1.7l.7 1.4 1 1.4 1.2 1.7.7 2 .5 2.1a7 7 0 010 2.5 16.4 16.4 0 01-5.3 6.5c-1.3 1-2.8 1.8-4.3 2.4a12 12 0 01-4.8 1 10.5 10.5 0 01-4.9-2.2 6.3 6.3 0 01-1.9-2.2c-.4-.9-.6-1.9-.5-2.9.3-1.3.8-2.5 1.5-3.6 1-1.3 2.1-2.4 3.3-3.4h1l1.2 1 1.2 1c.3.2.5.4.3.7l-.8.4-1.4.8-1.2.7a5 5 0 00-1.5 2.4c0 .7 0 1.3.3 2 .2.4.5.8 1 1.1.5.3 1 .5 1.6.5h2c1 .1 2 0 3-.2 1-.4 1.8-.9 2.5-1.5a7.7 7.7 0 003.1-4.8v-1.4c0-.5-.2-1-.5-1.5l-1-1.4c0-.5-.4-1-.9-1.5l-1.2-1.7-1-1.7-.2-1.9v-2c.3-1 .8-2.1 1.4-3a20.7 20.7 0 015.5-5c1.2-.9 2.4-1.5 3.7-2a13.9 13.9 0 017.5-1 4 4 0 011.6.2l1 1c.2.3.4.8.4 1.2a6 6 0 010 1.7 10.4 10.4 0 01-3 5.5v.3z"/><path fill="#fff" d="M49.8 31.2a1 1 0 01-.7 0 .7.7 0 01-.5-.5V30c.2-.3.5-.6.8-.7l2.4-1.2 2.4-1.2c1-2.2 2-4.3 2.8-6.6a1.2 1.2 0 011 0c.5.2.9.4 1.2.8.3.3.6.7.7 1.2.2.4.2.8 0 1.2l-.7 1.4h5.3v.8l-.5 1-.5.6c-.1.3-.4.5-.7.5h-1.4a18.4 18.4 0 00-3.9.3l-1 1.4-.9 1.2v.5l-1.2 1.4-1.2 2.2-1.4 2.4-1.5 2.4-1.2 2.5-.5 1.4c.7-.1 1.4-.4 2-.7l1.4-1.5 1.4-1.9.8-.7c-1 2.4-2.1 4.7-3.6 6.7a7 7 0 01-1.7 1l-1 .5h-1a2 2 0 01-1.1 0c-.3-.3-.5-.6-.5-1-.2-.3-.2-.6-.3-1v-1.4-.7c0-.3.2-.5.3-.7l1.2-3 1.4-2.8 1.7-3 1.7-2.6.2-.7-1.7 1.2z"/><path fill="#fff" d="M66.7 35a16.8 16.8 0 01-9.2 7v1.5a1.2 1.2 0 001 .7h1.2a7 7 0 001.7-1c.8-.3 1.5-.8 2.1-1.4l1-1.4a5 5 0 01-1.2 4.8l-2 1-1.6.7a7 7 0 01-1.4.2h-1a3.8 3.8 0 01-3.4-1.2 4.8 4.8 0 01-.5-3.6c.2-1.3.6-2.7 1.2-3.9.7-1.4 1.5-2.8 2.4-4l1.7-1.5a20 20 0 012-1.7 15.1 15.1 0 014.8-1.4c.6 0 1.2.2 1.6.7a2.4 2.4 0 01.5 2.1c0 .5-.3.9-.5 1.3-.1.4-.4.8-.7 1.2h.3zm-1.5-2.4c-.7.2-1.3.6-1.9 1l-2 1.7-1.6 2.2c-.5.6-.9 1.2-1.2 2C59.8 38.7 61 38 62 37a14 14 0 003.1-3.1v-.5l.3-.5c.2 0 0-.3-.3 0v-.3z"/><path fill="#fff" d="M80.1 34.8c-.2.2-.4.3-.7.3h-1l.8.7.7.7v2.2l-.5.5-.5 1.2-.7 1.2-.5 1.2-.2 1 1.7-1c.6-.5 1.1-1 1.6-1.7l1.5-1.7.5-.7c-.6 2.1-1.5 4.2-2.7 6l-1 1-.7.5-.7.4c-.4.3-.8.4-1.2.5h-1a2.4 2.4 0 01-1.9-1c-.4-.6-.6-1.4-.4-2.1l-2.7 2.2c-.7.5-1.5.8-2.4 1-.7-.1-1.4-.4-2-.8-.3-.3-.7-.7-.9-1.2-.2-.5-.2-1-.2-1.5v-1.4-1.2a27.6 27.6 0 012.6-4.8 27.7 27.7 0 014.6-4.6c.7-.6 1.5-1 2.4-1.5.8-.3 1.6-.4 2.4-.4h1.7c.4 0 .7.3 1 .7.2.3.4.8.4 1.2V34.8zm-3.3 0h.7l.7.3a.2.2 0 010-.3.5.5 0 010-.5V34 33l-.2-.5h-.8c-.7 0-1.5.3-2.1.8-.8.5-1.5 1.2-2.2 1.9l-2 2.4a24.4 24.4 0 00-1.6 4.4v1.2l.5.2h.7c.5-.1.9-.4 1.2-.7 1.5-1.3 2.8-2.7 3.9-4.4l1-1.6.4-1.5-.2-.5zm28.3 6c0 .5-.7 1-1.2 1.7a12.7 12.7 0 01-4.3 3.9 4 4 0 01-2 .7h-1.1a2 2 0 01-.8-1c-.3-.3-.6-.7-.7-1.1v-1.7l.7-1.7.8-1.7 1-2.2 1.4-2.4.4-1c.2-.3.2-.6.3-1l-.3.6-1 .7-2.3 2c-.7.4-1.2 1.4-2 2.3l-.4 1c0 .5-.5.7-.7 1l-1 2.6-1 2.9-.4.2h-1c-.5-.2-.9-.5-1.2-1a1 1 0 01-.2-.6c.2-1.7.7-3.3 1.4-4.9l2.4-4.6.5-1.2.5-.7-1.5 1-2.4 2.2-2 2.1-1.8 3.6a28 28 0 00-1.2 3.9s-.3.2-.5 0h-1.2l-1-.7a1 1 0 01-.2-.7 21.8 21.8 0 011.7-4.9c0-1 .4-1.7 1-2.4l1.1-2.4 1.5-2.9 1.2-2.4h.7c.3 0 .7.3 1 .5l1 .7.2 1.2c.7-.6 1.5-1.2 2.4-1.7a6 6 0 012.6-.7h.7c.3.2.6.4.7.7l.5 1v.7l2.4-1.7a6.5 6.5 0 013.2-.7l.4.2.8 1 .2 1.2v1l-1.7 2.9-1.2 2.1-.7 1.5-.7 1.4-1 2.4 2.4-1.2c.9-.8 1.7-1.8 2.4-2.9l1-1 .7-1.1.5-.7a1 1 0 01.7-.3 1 1 0 011 .7 1.2 1.2 0 01-.3 1l-1 1.2-1.1 1.5h-.3zM34.2 94.3l-.7.2h-1c-.4 0-.8-.3-1.2-.5-.2 0-.3-.2-.4-.4a16.7 16.7 0 015.5-10 24 24 0 015-2.8l2.4-.8a21.6 21.6 0 018.2-1h6.7l2.7.3H67c.9-.1 1.7-.3 2.4-.7l.3.2v1.5a14 14 0 01-1.2 2.2l-2.4.7H59.9l-3.3-.3-3.9-.4h-8.6a13 13 0 00-5.8 3.3c-1 1-1.8 2-2.4 3.2-.8 1.6-1.4 3.4-1.7 5.3zm15-11.6h.6c.5.2.9.4 1.2.7.4.4.8.8 1 1.2a1.7 1.7 0 010 1.5l-3.6 4.3-3.4 4.8c-1 1.5-2.4 3-3.3 4.9l-2.7 4.8-2.4 4.1-1.2 3.6c0 .3 0 0-.5 0a7.8 7.8 0 01-1.4-1.7l-.2-.7c.2-1.4.6-2.8 1.2-4.1l2.4-4.8 2.6-5 3.4-5.4 3-4.8 3.2-3.4zm4 19.5c-1.5 1-3.2 2-5 2.5-.2.5-.2 1 0 1.6a1.2 1.2 0 00.7 1h.7l.7-.2a7 7 0 001.7-.8l2-1.6 2-2.5.6-.4.4-.8a5 5 0 01-.4 3.9c-.8 1.1-1.8 2.1-3 2.9-.5.6-1.1 1-1.8 1.4l-1.7.5-1.5.3h-1a3.8 3.8 0 01-3-1.2c-.8-1.1-1-2.4-.8-3.7.2-1.3.6-2.6 1.2-3.8a23.4 23.4 0 014.4-5.6l2.1-1.4c.8-.5 1.6-1 2.4-1.2.8-.3 1.6-.5 2.4-.5a2.4 2.4 0 011.7 1c.7.7.3 2.4 0 3-1 2.4-2.6 4.4-4.8 5.6zm2.4-6.7c-.7.2-1.4.5-2 1a12.7 12.7 0 00-3.5 3.8c-.5.7-.9 1.4-1.2 2.2a15.4 15.4 0 006.7-5.8l.2-.5v-.5s0-.2 0 0l-.2-.2z"/><path fill="#fff" d="M69.5 106.5c0 .5-.7.7-1.6 1.7-.5.5-1.1.9-1.7 1.2-.6.3-1.3.5-2 .5a2 2 0 01-1.4-1.2c-.5-1.1-.8-2.3-1-3.4l-4.3 2.9c-1.4.7-2.8 1.4-4.3 1.9h-.7a1 1 0 01-.7 0 .7.7 0 010-1l.4-.7c1.6-.7 3.1-1.5 4.6-2.4l4.8-3.1V98l-1 1.5-1.4 2a.5.5 0 01-.5 0H58l-.2-.8a.5.5 0 010-.5l1-1.7 1.4-2 2.1-3 1-.8a2 2 0 011-.5c.4 0 .8.4 1.2 1v6.5a41.6 41.6 0 006.5-6.5c.4.3 1.4.5 1.4 1.2s-.7 2-3.4 4.1l-4.8 3.9c.3 2.4.5 3.4 1 3.4a.7.7 0 00.7 0l.7-.8.7-.7.8-1s1 1.7.4 3v.2z"/><path fill="#fff" d="M74.1 94a1 1 0 01-1 0 .7.7 0 01-.2-.5v-.8l.7-.7 2.4-1.2 2.4-1.2c1.2-2.1 2.3-4.3 3.2-6.5a1.2 1.2 0 011 0c.4.1.8.4 1.1.7.3.4.6.8.7 1.2a1.7 1.7 0 010 1.5l-.7 1.4c1.2-.2 2.4-.3 3.6-.2H89v.7c0 .3-.3.7-.5 1l-.7 1H86a18.4 18.4 0 00-4.1.6l-.7 1.5-1 1.2v.2L79 95.6l-1.2 2-1.4 2.4-1.5 2.4-1 2.4-.4 1.4c.6-.1 1.2-.3 1.7-.7a15.2 15.2 0 003.1-3.1l1.2-2 .5-.4.2-.5a.2.2 0 01.3-.3.2.2 0 01.2.3l.5.2.5.5v.5l-1 1.2-2.4 3.4c-1 1.1-2 2.2-3.1 3.1l-.5.5-1 .5-1 .2c-.3.2-.7.2-1.1.3a2 2 0 01-1-.3 2 2 0 01-.7-.7v-1.2-1.5-.4-.8c.3-1 .7-2 1.2-2.9l1.4-3 1.7-2.7 1.7-3 .5-.4-2 1h-.2zM37.8 74.8c-.8 1-1.8 2-2.9 2.9l-3 2.4a14 14 0 01-6 1.7c-.8-.1-1.4-.4-2-.8-.6-.3-1-.8-1.5-1.4l-1-2a19.1 19.1 0 01.7-6l2-4.5 2.4-4.6 3.4-4.9a46.8 46.8 0 017.4-7.4c1.2-1 2.5-1.8 3.9-2.4 1.2-.5 2.5-.6 3.8-.5h2c.5.1.9.5 1.2 1 .2.2.4.5.4.9v1.4a6 6 0 01-.4 1.7l-1 1.7a21 21 0 01-1.2 2l-1.4 1.6-.3.5a4.8 4.8 0 01-1.2.8h-.7a2 2 0 01-.7 0l-1.2-.8 1.2-1.2a21.5 21.5 0 003.1-3.9l.7-1.6.3-.5v-.5a.2.2 0 00.2-.2.2.2 0 00-.2-.3h-1c-1 .1-1.9.5-2.7 1a41.4 41.4 0 00-5.8 5.3l-2.8 3.6-2.4 3.4c-1 1-1.2 2-1.7 2.6l-1.2 2.7a24.7 24.7 0 00-1.4 4.6l-.5 1.4c-.2 1-.2 1.8 0 2.7a1.4 1.4 0 001.4 1.2c.9 0 1.7-.1 2.4-.5a11 11 0 002.4-1.2 19 19 0 002.4-2l2.4-2.3.8-1.2 2.4-3.4-1.7 3.8c-.3 1.1-.7 2.2-1.2 3.2h.2z"/><path fill="#fff" d="M52.2 65.5a17.1 17.1 0 01-4 4.3c-1.6 1-3.3 2-5 2.4-.2.6-.2 1.2 0 1.7a1 1 0 00.6.7h1.5c.6-.2 1.1-.5 1.7-1 .6-.4 1.3-.8 1.9-1.4l2.1-2.4-.2 2a7.5 7.5 0 01-2.4 3.6l-2 1.2-1.6.7h-1.4a8 8 0 01-1 0 3.8 3.8 0 01-3.1-1c-.7-1-1-2.3-.8-3.6.2-1.3.6-2.7 1.2-3.9a26 26 0 014.4-5.5l2.1-1.7a11 11 0 012.4-1c.8-.3 1.6-.4 2.4-.4.7 0 1.3.2 1.7.7a2.4 2.4 0 01.5 2.2l-.5 1c0 .4-.2 1-.5 1.4zM50.6 63c-.7.1-1.4.5-2 1a15.4 15.4 0 00-3.6 3.6L43.8 70a14.2 14.2 0 006.8-5.7l.2-.5v-.5s0-.2 0 0l-.2-.2zm13.2 12c-.7.7-1.4 1.3-2.2 1.7-.6.5-1.4.7-2.1.7h-1c-.4-.2-.7-.5-1-1l-.5-1.1v-1.7l.5-1.7.8-1.7 1-2.2 1.4-2.4.4-1c.2-.3.2-.6.3-1L60.2 65l-2.4 2.2-2 2.1L54 73l-1 3.7c0 .2-.4.4-.7.2h-1l-.9-.7a1 1 0 01-.5-.7l.8-2.5 1-2.4 1.1-2.4 1.2-2.4 1.2-2.9 1.2-2.4a1.2 1.2 0 011 0c.3 0 .7.3 1 .5l.7 1 .5 1c.7-.7 1.5-1.3 2.4-1.8.7-.4 1.5-.6 2.4-.7a1.2 1.2 0 011 .2c.2.3.5.6.6 1l.3 1.2v1l-1.5 2.6-1.4 2.4-.7 1.5-.7 1.2-.5 1.4c-.3.8-.5 1.3-.3 1.5.3.2 1.2-1 2-1.5a20 20 0 002.6-2.9l.5-.4V69c-.2 2.1-1 4.1-2.4 5.8v.2z"/><path fill="#fff" d="M69.8 61.6h-1a.7.7 0 01-.5-.5v-.7a26.4 26.4 0 013.1-2.2l2.5-1c1.2-2 2.2-4.2 3.1-6.5a1.2 1.2 0 011.2 0l1 .8c.4.3.7.7 1 1.2a1.5 1.5 0 010 1.2l-1 1.4c1.2-.2 2.5-.2 3.8-.2h1.4v1c0 .3-.2.6-.4 1l-.5.6a1 1 0 01-.7.3H79.4l-2 .5-.9 1.2-.7 1.4-.2.3-1 1.7-1.4 1.9-1.5 2.4-1.2 2.4-1.2 2.4-.5 1.5c.7-.1 1.4-.4 2-.8l1.4-1.4.5-.5.5-.5c-.4 1.9-1.3 3.6-2.5 5.1l-.7.5-1 .5c-.2.2-.6.3-.9.4h-1a2 2 0 01-1.2 0 2 2 0 01-.4-1c-.2-.2-.3-.6-.3-.9v-1.4-.8l.3-.7c.3-1 .7-2 1.2-2.9l1.4-2.9 1.7-2.9 1.7-2.6.2-.7-2 1.4z"/><path fill="#fff" d="M86.6 65.5a16.8 16.8 0 01-9.1 7v1.4a1.2 1.2 0 00.7.7h1.4c.6-.2 1.2-.5 1.7-1 .7-.4 1.4-.8 2-1.4.7-.7 1.5-1.5 2.1-2.4l1-1.4 1-1.2a1 1 0 01.7-.5h.7l.2.7c.3 1-3.1 4.8-3.1 4.8L83 75.4l-2 1.2-1.6.7a6.7 6.7 0 01-2.4.2 3.8 3.8 0 01-3.4-1.2c-.7-1-1-2.3-.7-3.6.2-1.3.6-2.7 1.2-3.9 1-1.6 2-3.2 3.4-4.5l1.2-1a15 15 0 011.9-1.7l2.4-1c.8-.3 1.6-.4 2.4-.4a2.4 2.4 0 012 .7 2.4 2.4 0 01.2 2.2l-.3 1.2-.7 1.2zM85 63c-.7.1-1.3.5-1.9 1-.7.4-1.3 1-2 1.6l-1.6 2a17 17 0 00-1.2 2.3 14.9 14.9 0 007-6.2v-.5s0-.2 0 0l-.3-.2z"/><path fill="#fff" d="M98 71.7L96 74a18.8 18.8 0 01-4.6 3.1 5 5 0 01-2.4.5c-.3 0-.6 0-1-.2a2 2 0 01-.7-1l-.2-1v-1.1c0-.7.2-1.4.5-2l1-1.4.9-1.7 1.2-1.5.7-.7 1-1 .5-.7c.5-.2 1-.3 1.6-.2H91.2a1.7 1.7 0 01-1.5 2 1.4 1.4 0 01-1.4-1.3 1.5 1.5 0 011.2-1.4 2 2 0 010-1.2c0-.6.2-1.2.5-1.7l1.2-1.7.7-.7.5-1.3.7.5.7.8.5.7V61l-.5.7-1.2 1.5 1-.5 1.4-.7 1.2-1 1.2-.7.7-.7c.2 0 .4 0 .5.2l.5.5.5.2v1.5l-.7 1.4-1.2 2-1.7 1.7-1 1.2-.7 1-1 .9-.7 1a9 9 0 00-.7 1.2l-.2.7v.2h1l1.1-1 1.2-.9c.5-.4.9-1 1.2-1.5l-.2.3 1.7-2 1-1.6a.5.5 0 01.6.2l.5.5.5.5a.5.5 0 010 .5l-1 1.4-1.4 2z"/></svg>