<?xml version="1.0" standalone="no"?>
<!DOCTYPE svg PUBLIC "-//W3C//DTD SVG 20010904//EN"
 "http://www.w3.org/TR/2001/REC-SVG-20010904/DTD/svg10.dtd">
<svg version="1.0" xmlns="http://www.w3.org/2000/svg"
 width="1024.000000pt" height="1024.000000pt" viewBox="0 0 1024.000000 1024.000000"
 preserveAspectRatio="xMidYMid meet">
<metadata>
Created by potrace 1.11, written by Peter Selinger 2001-2013
</metadata>
<g transform="translate(0.000000,1024.000000) scale(0.100000,-0.100000)"
fill="#000000" stroke="none">
<path d="M4790 10234 c-19 -2 -91 -9 -160 -15 -695 -60 -1445 -298 -2068 -658
-392 -227 -727 -485 -1062 -821 -419 -419 -715 -829 -975 -1355 -284 -575
-468 -1235 -510 -1835 l-7 -95 1378 -567 1378 -567 57 35 c195 118 460 194
683 194 l101 1 187 272 c103 150 385 560 627 912 l441 640 0 56 c0 258 77 574
199 824 348 711 1086 1139 1873 1085 484 -33 918 -235 1258 -586 248 -256 412
-550 494 -884 201 -820 -148 -1676 -867 -2122 -287 -179 -655 -288 -970 -288
l-88 0 -897 -641 -897 -640 -7 -112 c-40 -664 -491 -1184 -1148 -1324 -120
-25 -420 -25 -538 0 -530 116 -940 492 -1085 995 -13 45 -28 86 -33 91 -5 5
-290 125 -634 266 -344 142 -776 320 -960 396 -184 75 -337 136 -338 134 -2
-2 11 -48 28 -102 481 -1448 1563 -2598 2980 -3165 418 -167 859 -276 1355
-335 189 -22 820 -25 1015 -5 541 56 1057 187 1525 387 1566 670 2702 2073
3025 3737 70 366 95 662 87 1078 -6 310 -12 395 -48 645 -193 1336 -920 2552
-2013 3367 -775 578 -1698 923 -2675 998 -121 9 -624 12 -711 4z"/>
<path d="M6575 7684 c-247 -43 -483 -164 -668 -343 -202 -194 -323 -416 -383
-696 -26 -123 -24 -370 4 -502 43 -199 118 -364 239 -524 192 -256 475 -433
790 -496 123 -24 377 -24 493 1 264 57 481 175 665 360 242 244 366 525 382
861 30 656 -431 1228 -1081 1340 -110 19 -332 18 -441 -1z m405 -325 c301 -55
574 -267 705 -551 63 -137 80 -222 80 -403 0 -136 -3 -173 -23 -244 -46 -168
-132 -318 -249 -436 -285 -285 -694 -368 -1061 -216 -605 251 -789 1016 -367
1524 216 260 572 387 915 326z"/>
<path d="M3425 4229 c-69 -7 -251 -52 -264 -64 -7 -7 -19 -2 349 -154 190 -78
376 -161 414 -183 229 -135 378 -403 378 -683 1 -366 -245 -685 -602 -781 -90
-25 -300 -25 -390 0 -36 10 -217 80 -403 157 -187 77 -341 138 -344 135 -10
-10 86 -160 153 -238 154 -184 386 -318 631 -364 130 -24 354 -15 483 20 376
104 672 400 776 777 32 116 43 322 25 449 -72 493 -472 873 -976 930 -100 11
-116 11 -230 -1z"/>
</g>
</svg>
