<?xml version="1.0" standalone="no"?>
<!DOCTYPE svg PUBLIC "-//W3C//DTD SVG 20010904//EN"
 "http://www.w3.org/TR/2001/REC-SVG-20010904/DTD/svg10.dtd">
<svg version="1.0" xmlns="http://www.w3.org/2000/svg"
 width="512.000000pt" height="512.000000pt" viewBox="0 0 512.000000 512.000000"
 preserveAspectRatio="xMidYMid meet">
<metadata>
Created by potrace 1.11, written by Peter Selinger 2001-2013
</metadata>
<g transform="translate(0.000000,512.000000) scale(0.100000,-0.100000)"
fill="#000000" stroke="none">
<path d="M0 2560 l0 -2560 2560 0 2560 0 0 2560 0 2560 -2560 0 -2560 0 0
-2560z m1790 1155 l0 -385 -385 0 -385 0 0 378 c0 208 3 382 7 385 3 4 177 7
385 7 l378 0 0 -385z m2308 -2 l2 -383 -1025 0 -1025 0 0 385 0 385 1023 -2
1022 -3 3 -382z m-1028 -1668 l0 -1025 -1022 2 -1023 3 -3 1023 -2 1022 1025
0 1025 0 0 -1025z m1028 3 l-3 -1023 -382 -3 -383 -2 0 1025 0 1025 385 0 385
0 -2 -1022z"/>
</g>
</svg>
